<?xml version="1.0" encoding="UTF-8" standalone="no"?>
<!DOCTYPE svg PUBLIC "-//W3C//DTD SVG 1.1//EN"
 "http://www.w3.org/Graphics/SVG/1.1/DTD/svg11.dtd">
<!-- Generated by graphviz version 2.43.0 (0)
 -->
<!-- Title: /home/yarib/work/github/tensorflow&#45;lite&#45;fpga&#45;delegate/tensorflow_lite/arduino/src/third_party/flatbuffers/include/flatbuffers/base.h Pages: 1 -->
<svg width="898pt" height="128pt"
 viewBox="0.00 0.00 898.00 128.00" xmlns="http://www.w3.org/2000/svg" xmlns:xlink="http://www.w3.org/1999/xlink">
<g id="graph0" class="graph" transform="scale(1 1) rotate(0) translate(4 124)">
<title>/home/yarib/work/github/tensorflow&#45;lite&#45;fpga&#45;delegate/tensorflow_lite/arduino/src/third_party/flatbuffers/include/flatbuffers/base.h</title>
<!-- Node1 -->
<g id="node1" class="node">
<title>Node1</title>
<g id="a_node1"><a xlink:title=" ">
<polygon fill="#bfbfbf" stroke="black" points="337.5,-56.5 337.5,-119.5 532.5,-119.5 532.5,-56.5 337.5,-56.5"/>
<text text-anchor="start" x="345.5" y="-107.5" font-family="Helvetica,sans-Serif" font-size="10.00">/home/yarib/work/github</text>
<text text-anchor="start" x="345.5" y="-96.5" font-family="Helvetica,sans-Serif" font-size="10.00">/tensorflow&#45;lite&#45;fpga</text>
<text text-anchor="start" x="345.5" y="-85.5" font-family="Helvetica,sans-Serif" font-size="10.00">&#45;delegate/tensorflow_lite</text>
<text text-anchor="start" x="345.5" y="-74.5" font-family="Helvetica,sans-Serif" font-size="10.00">/arduino/src/third_party</text>
<text text-anchor="middle" x="435" y="-63.5" font-family="Helvetica,sans-Serif" font-size="10.00">/flatbuffers/include/flatbuffers/base.h</text>
</a>
</g>
</g>
<!-- Node2 -->
<g id="node2" class="node">
<title>Node2</title>
<g id="a_node2"><a xlink:title=" ">
<polygon fill="none" stroke="#bfbfbf" points="0,-0.5 0,-19.5 56,-19.5 56,-0.5 0,-0.5"/>
<text text-anchor="middle" x="28" y="-7.5" font-family="Helvetica,sans-Serif" font-size="10.00">assert.h</text>
</a>
</g>
</g>
<!-- Node1&#45;&gt;Node2 -->
<g id="edge1" class="edge">
<title>Node1&#45;&gt;Node2</title>
<path fill="none" stroke="midnightblue" d="M337.31,-70.94C265.02,-58.68 163.94,-40.73 66.29,-20.18"/>
<polygon fill="midnightblue" stroke="midnightblue" points="66.75,-16.7 56.24,-18.05 65.3,-23.55 66.75,-16.7"/>
</g>
<!-- Node3 -->
<g id="node3" class="node">
<title>Node3</title>
<g id="a_node3"><a xlink:title=" ">
<polygon fill="none" stroke="#bfbfbf" points="74,-0.5 74,-19.5 124,-19.5 124,-0.5 74,-0.5"/>
<text text-anchor="middle" x="99" y="-7.5" font-family="Helvetica,sans-Serif" font-size="10.00">cstdint</text>
</a>
</g>
</g>
<!-- Node1&#45;&gt;Node3 -->
<g id="edge2" class="edge">
<title>Node1&#45;&gt;Node3</title>
<path fill="none" stroke="midnightblue" d="M337.18,-66.35C280.5,-54.13 207.55,-37.99 134.12,-20.2"/>
<polygon fill="midnightblue" stroke="midnightblue" points="134.77,-16.76 124.22,-17.8 133.11,-23.56 134.77,-16.76"/>
</g>
<!-- Node4 -->
<g id="node4" class="node">
<title>Node4</title>
<g id="a_node4"><a xlink:title=" ">
<polygon fill="none" stroke="#bfbfbf" points="142.5,-0.5 142.5,-19.5 195.5,-19.5 195.5,-0.5 142.5,-0.5"/>
<text text-anchor="middle" x="169" y="-7.5" font-family="Helvetica,sans-Serif" font-size="10.00">cstddef</text>
</a>
</g>
</g>
<!-- Node1&#45;&gt;Node4 -->
<g id="edge3" class="edge">
<title>Node1&#45;&gt;Node4</title>
<path fill="none" stroke="midnightblue" d="M337.46,-59.13C291.51,-46 239.46,-31.13 205.53,-21.44"/>
<polygon fill="midnightblue" stroke="midnightblue" points="206.19,-17.99 195.61,-18.6 204.27,-24.72 206.19,-17.99"/>
</g>
<!-- Node5 -->
<g id="node5" class="node">
<title>Node5</title>
<g id="a_node5"><a xlink:title=" ">
<polygon fill="none" stroke="#bfbfbf" points="213.5,-0.5 213.5,-19.5 262.5,-19.5 262.5,-0.5 213.5,-0.5"/>
<text text-anchor="middle" x="238" y="-7.5" font-family="Helvetica,sans-Serif" font-size="10.00">cstdlib</text>
</a>
</g>
</g>
<!-- Node1&#45;&gt;Node5 -->
<g id="edge4" class="edge">
<title>Node1&#45;&gt;Node5</title>
<path fill="none" stroke="midnightblue" d="M355.72,-56.42C325.6,-44.8 292.98,-32.21 269.73,-23.24"/>
<polygon fill="midnightblue" stroke="midnightblue" points="270.97,-19.97 260.38,-19.63 268.45,-26.5 270.97,-19.97"/>
</g>
<!-- Node6 -->
<g id="node6" class="node">
<title>Node6</title>
<g id="a_node6"><a xlink:title=" ">
<polygon fill="none" stroke="#bfbfbf" points="281,-0.5 281,-19.5 331,-19.5 331,-0.5 281,-0.5"/>
<text text-anchor="middle" x="306" y="-7.5" font-family="Helvetica,sans-Serif" font-size="10.00">cstring</text>
</a>
</g>
</g>
<!-- Node1&#45;&gt;Node6 -->
<g id="edge5" class="edge">
<title>Node1&#45;&gt;Node6</title>
<path fill="none" stroke="midnightblue" d="M382.9,-56.31C364.43,-45.43 344.55,-33.71 329.63,-24.92"/>
<polygon fill="midnightblue" stroke="midnightblue" points="331,-21.67 320.61,-19.61 327.45,-27.7 331,-21.67"/>
</g>
<!-- Node7 -->
<g id="node7" class="node">
<title>Node7</title>
<g id="a_node7"><a xlink:title=" ">
<polygon fill="none" stroke="#bfbfbf" points="349.5,-0.5 349.5,-19.5 394.5,-19.5 394.5,-0.5 349.5,-0.5"/>
<text text-anchor="middle" x="372" y="-7.5" font-family="Helvetica,sans-Serif" font-size="10.00">utility</text>
</a>
</g>
</g>
<!-- Node1&#45;&gt;Node7 -->
<g id="edge6" class="edge">
<title>Node1&#45;&gt;Node7</title>
<path fill="none" stroke="midnightblue" d="M409.38,-56.09C401.28,-46.33 392.66,-35.92 385.73,-27.57"/>
<polygon fill="midnightblue" stroke="midnightblue" points="388.3,-25.18 379.23,-19.72 382.91,-29.65 388.3,-25.18"/>
</g>
<!-- Node8 -->
<g id="node8" class="node">
<title>Node8</title>
<g id="a_node8"><a xlink:title=" ">
<polygon fill="none" stroke="#bfbfbf" points="413,-0.5 413,-19.5 457,-19.5 457,-0.5 413,-0.5"/>
<text text-anchor="middle" x="435" y="-7.5" font-family="Helvetica,sans-Serif" font-size="10.00">string</text>
</a>
</g>
</g>
<!-- Node1&#45;&gt;Node8 -->
<g id="edge7" class="edge">
<title>Node1&#45;&gt;Node8</title>
<path fill="none" stroke="midnightblue" d="M435,-56.09C435,-47.15 435,-37.67 435,-29.72"/>
<polygon fill="midnightblue" stroke="midnightblue" points="438.5,-29.72 435,-19.72 431.5,-29.72 438.5,-29.72"/>
</g>
<!-- Node9 -->
<g id="node9" class="node">
<title>Node9</title>
<g id="a_node9"><a xlink:title=" ">
<polygon fill="none" stroke="#bfbfbf" points="475.5,-0.5 475.5,-19.5 544.5,-19.5 544.5,-0.5 475.5,-0.5"/>
<text text-anchor="middle" x="510" y="-7.5" font-family="Helvetica,sans-Serif" font-size="10.00">type_traits</text>
</a>
</g>
</g>
<!-- Node1&#45;&gt;Node9 -->
<g id="edge8" class="edge">
<title>Node1&#45;&gt;Node9</title>
<path fill="none" stroke="midnightblue" d="M465.51,-56.09C475.34,-46.12 485.84,-35.48 494.17,-27.04"/>
<polygon fill="midnightblue" stroke="midnightblue" points="496.86,-29.29 501.4,-19.72 491.88,-24.38 496.86,-29.29"/>
</g>
<!-- Node10 -->
<g id="node10" class="node">
<title>Node10</title>
<g id="a_node10"><a xlink:title=" ">
<polygon fill="none" stroke="#bfbfbf" points="562.5,-0.5 562.5,-19.5 609.5,-19.5 609.5,-0.5 562.5,-0.5"/>
<text text-anchor="middle" x="586" y="-7.5" font-family="Helvetica,sans-Serif" font-size="10.00">vector</text>
</a>
</g>
</g>
<!-- Node1&#45;&gt;Node10 -->
<g id="edge9" class="edge">
<title>Node1&#45;&gt;Node10</title>
<path fill="none" stroke="midnightblue" d="M495.98,-56.31C518.22,-45.11 542.2,-33.04 559.82,-24.18"/>
<polygon fill="midnightblue" stroke="midnightblue" points="561.54,-27.23 568.9,-19.61 558.39,-20.98 561.54,-27.23"/>
</g>
<!-- Node11 -->
<g id="node11" class="node">
<title>Node11</title>
<g id="a_node11"><a xlink:title=" ">
<polygon fill="none" stroke="#bfbfbf" points="628,-0.5 628,-19.5 660,-19.5 660,-0.5 628,-0.5"/>
<text text-anchor="middle" x="644" y="-7.5" font-family="Helvetica,sans-Serif" font-size="10.00">set</text>
</a>
</g>
</g>
<!-- Node1&#45;&gt;Node11 -->
<g id="edge10" class="edge">
<title>Node1&#45;&gt;Node11</title>
<path fill="none" stroke="midnightblue" d="M519.1,-56.42C554.64,-43.5 593.44,-29.39 618.21,-20.38"/>
<polygon fill="midnightblue" stroke="midnightblue" points="619.72,-23.55 627.92,-16.85 617.33,-16.98 619.72,-23.55"/>
</g>
<!-- Node12 -->
<g id="node12" class="node">
<title>Node12</title>
<g id="a_node12"><a xlink:title=" ">
<polygon fill="none" stroke="#bfbfbf" points="678,-0.5 678,-19.5 742,-19.5 742,-0.5 678,-0.5"/>
<text text-anchor="middle" x="710" y="-7.5" font-family="Helvetica,sans-Serif" font-size="10.00">algorithm</text>
</a>
</g>
</g>
<!-- Node1&#45;&gt;Node12 -->
<g id="edge11" class="edge">
<title>Node1&#45;&gt;Node12</title>
<path fill="none" stroke="midnightblue" d="M532.73,-59.99C579.52,-47.06 633.03,-32.27 668.91,-22.36"/>
<polygon fill="midnightblue" stroke="midnightblue" points="670.29,-25.6 679,-19.57 668.43,-18.86 670.29,-25.6"/>
</g>
<!-- Node13 -->
<g id="node13" class="node">
<title>Node13</title>
<g id="a_node13"><a xlink:title=" ">
<polygon fill="none" stroke="#bfbfbf" points="760.5,-0.5 760.5,-19.5 813.5,-19.5 813.5,-0.5 760.5,-0.5"/>
<text text-anchor="middle" x="787" y="-7.5" font-family="Helvetica,sans-Serif" font-size="10.00">iterator</text>
</a>
</g>
</g>
<!-- Node1&#45;&gt;Node13 -->
<g id="edge12" class="edge">
<title>Node1&#45;&gt;Node13</title>
<path fill="none" stroke="midnightblue" d="M532.71,-67.23C592.69,-54.87 671.29,-38.27 750.17,-20.13"/>
<polygon fill="midnightblue" stroke="midnightblue" points="751.33,-23.45 760.29,-17.79 749.76,-16.63 751.33,-23.45"/>
</g>
<!-- Node14 -->
<g id="node14" class="node">
<title>Node14</title>
<g id="a_node14"><a xlink:title=" ">
<polygon fill="none" stroke="#bfbfbf" points="832,-0.5 832,-19.5 890,-19.5 890,-0.5 832,-0.5"/>
<text text-anchor="middle" x="861" y="-7.5" font-family="Helvetica,sans-Serif" font-size="10.00">memory</text>
</a>
</g>
</g>
<!-- Node1&#45;&gt;Node14 -->
<g id="edge13" class="edge">
<title>Node1&#45;&gt;Node14</title>
<path fill="none" stroke="midnightblue" d="M532.58,-71.86C608.77,-59.64 717.5,-41.33 821.91,-20.12"/>
<polygon fill="midnightblue" stroke="midnightblue" points="822.9,-23.49 831.99,-18.06 821.5,-16.64 822.9,-23.49"/>
</g>
</g>
</svg>
