<?xml version="1.0" encoding="UTF-8" standalone="no"?>
<!DOCTYPE svg PUBLIC "-//W3C//DTD SVG 1.1//EN"
 "http://www.w3.org/Graphics/SVG/1.1/DTD/svg11.dtd">
<!-- Generated by graphviz version 2.43.0 (0)
 -->
<!-- Title: tflite::OpResolver Pages: 1 -->
<svg width="272pt" height="907pt"
 viewBox="0.00 0.00 272.00 907.00" xmlns="http://www.w3.org/2000/svg" xmlns:xlink="http://www.w3.org/1999/xlink">
<g id="graph0" class="graph" transform="scale(1 1) rotate(0) translate(4 903)">
<title>tflite::OpResolver</title>
<!-- Node1 -->
<g id="node1" class="node">
<title>Node1</title>
<g id="a_node1"><a xlink:title=" ">
<polygon fill="#bfbfbf" stroke="black" points="29,-764.5 29,-898.5 131,-898.5 131,-764.5 29,-764.5"/>
<text text-anchor="middle" x="80" y="-886.5" font-family="Helvetica,sans-Serif" font-size="10.00">tflite::OpResolver</text>
<polyline fill="none" stroke="black" points="29,-879.5 131,-879.5 "/>
<text text-anchor="middle" x="80" y="-867.5" font-family="Helvetica,sans-Serif" font-size="10.00"> </text>
<polyline fill="none" stroke="black" points="29,-860.5 131,-860.5 "/>
<text text-anchor="start" x="37" y="-848.5" font-family="Helvetica,sans-Serif" font-size="10.00">+ FindOp()</text>
<text text-anchor="start" x="37" y="-837.5" font-family="Helvetica,sans-Serif" font-size="10.00">+ FindOp()</text>
<text text-anchor="start" x="37" y="-826.5" font-family="Helvetica,sans-Serif" font-size="10.00">+ GetDelegates()</text>
<text text-anchor="start" x="37" y="-815.5" font-family="Helvetica,sans-Serif" font-size="10.00">+ ~OpResolver()</text>
<text text-anchor="start" x="37" y="-804.5" font-family="Helvetica,sans-Serif" font-size="10.00">+ FindOp()</text>
<text text-anchor="start" x="37" y="-793.5" font-family="Helvetica,sans-Serif" font-size="10.00">+ FindOp()</text>
<text text-anchor="start" x="37" y="-782.5" font-family="Helvetica,sans-Serif" font-size="10.00">+ GetDelegates()</text>
<text text-anchor="start" x="37" y="-771.5" font-family="Helvetica,sans-Serif" font-size="10.00">+ ~OpResolver()</text>
</a>
</g>
</g>
<!-- Node2 -->
<g id="node2" class="node">
<title>Node2</title>
<g id="a_node2"><a xlink:href="classtflite_1_1_micro_op_resolver.html" target="_top" xlink:title=" ">
<polygon fill="none" stroke="black" points="16,-548.5 16,-726.5 144,-726.5 144,-548.5 16,-548.5"/>
<text text-anchor="middle" x="80" y="-714.5" font-family="Helvetica,sans-Serif" font-size="10.00">tflite::MicroOpResolver</text>
<polyline fill="none" stroke="black" points="16,-707.5 144,-707.5 "/>
<text text-anchor="middle" x="80" y="-695.5" font-family="Helvetica,sans-Serif" font-size="10.00"> </text>
<polyline fill="none" stroke="black" points="16,-688.5 144,-688.5 "/>
<text text-anchor="start" x="24" y="-676.5" font-family="Helvetica,sans-Serif" font-size="10.00">+ FindOp()</text>
<text text-anchor="start" x="24" y="-665.5" font-family="Helvetica,sans-Serif" font-size="10.00">+ FindOp()</text>
<text text-anchor="start" x="24" y="-654.5" font-family="Helvetica,sans-Serif" font-size="10.00">+ FindOp()</text>
<text text-anchor="start" x="24" y="-643.5" font-family="Helvetica,sans-Serif" font-size="10.00">+ FindOp()</text>
<text text-anchor="start" x="24" y="-632.5" font-family="Helvetica,sans-Serif" font-size="10.00">+ GetOpDataParser()</text>
<text text-anchor="start" x="24" y="-621.5" font-family="Helvetica,sans-Serif" font-size="10.00">+ ~MicroOpResolver()</text>
<text text-anchor="start" x="24" y="-610.5" font-family="Helvetica,sans-Serif" font-size="10.00">+ FindOp()</text>
<text text-anchor="start" x="24" y="-599.5" font-family="Helvetica,sans-Serif" font-size="10.00">+ FindOp()</text>
<text text-anchor="start" x="24" y="-588.5" font-family="Helvetica,sans-Serif" font-size="10.00">+ FindOp()</text>
<text text-anchor="start" x="24" y="-577.5" font-family="Helvetica,sans-Serif" font-size="10.00">+ FindOp()</text>
<text text-anchor="start" x="24" y="-566.5" font-family="Helvetica,sans-Serif" font-size="10.00">+ GetOpDataParser()</text>
<text text-anchor="start" x="24" y="-555.5" font-family="Helvetica,sans-Serif" font-size="10.00">+ ~MicroOpResolver()</text>
</a>
</g>
</g>
<!-- Node1&#45;&gt;Node2 -->
<g id="edge1" class="edge">
<title>Node1&#45;&gt;Node2</title>
<path fill="none" stroke="midnightblue" d="M80,-754.32C80,-745.26 80,-735.95 80,-726.74"/>
<polygon fill="none" stroke="midnightblue" points="76.5,-754.42 80,-764.42 83.5,-754.42 76.5,-754.42"/>
</g>
<!-- Node3 -->
<g id="node3" class="node">
<title>Node3</title>
<g id="a_node3"><a xlink:href="classtflite_1_1_micro_mutable_op_resolver.html" target="_top" xlink:title=" ">
<polygon fill="none" stroke="black" points="0,-106.5 0,-284.5 168,-284.5 168,-106.5 0,-106.5"/>
<text text-anchor="start" x="8" y="-272.5" font-family="Helvetica,sans-Serif" font-size="10.00">tflite::MicroMutableOpResolver</text>
<text text-anchor="middle" x="84" y="-261.5" font-family="Helvetica,sans-Serif" font-size="10.00">&lt; 128 &gt;</text>
<polyline fill="none" stroke="black" points="0,-254.5 168,-254.5 "/>
<text text-anchor="middle" x="84" y="-242.5" font-family="Helvetica,sans-Serif" font-size="10.00"> </text>
<polyline fill="none" stroke="black" points="0,-235.5 168,-235.5 "/>
<text text-anchor="start" x="8" y="-223.5" font-family="Helvetica,sans-Serif" font-size="10.00">+ MicroMutableOpResolver()</text>
<text text-anchor="start" x="8" y="-212.5" font-family="Helvetica,sans-Serif" font-size="10.00">+ MicroMutableOpResolver()</text>
<text text-anchor="start" x="8" y="-201.5" font-family="Helvetica,sans-Serif" font-size="10.00">+ FindOp()</text>
<text text-anchor="start" x="8" y="-190.5" font-family="Helvetica,sans-Serif" font-size="10.00">+ FindOp()</text>
<text text-anchor="start" x="8" y="-179.5" font-family="Helvetica,sans-Serif" font-size="10.00">+ FindOp()</text>
<text text-anchor="start" x="8" y="-168.5" font-family="Helvetica,sans-Serif" font-size="10.00">+ FindOp()</text>
<text text-anchor="start" x="8" y="-157.5" font-family="Helvetica,sans-Serif" font-size="10.00">+ GetOpDataParser()</text>
<text text-anchor="start" x="8" y="-146.5" font-family="Helvetica,sans-Serif" font-size="10.00">+ GetOpDataParser()</text>
<text text-anchor="start" x="8" y="-135.5" font-family="Helvetica,sans-Serif" font-size="10.00">+ AddCustom()</text>
<text text-anchor="start" x="8" y="-124.5" font-family="Helvetica,sans-Serif" font-size="10.00">+ AddCustom()</text>
<text text-anchor="start" x="8" y="-113.5" font-family="Helvetica,sans-Serif" font-size="10.00">and 164 more...</text>
</a>
</g>
</g>
<!-- Node2&#45;&gt;Node3 -->
<g id="edge2" class="edge">
<title>Node2&#45;&gt;Node3</title>
<path fill="none" stroke="midnightblue" d="M80.89,-538.19C81.58,-462.19 82.53,-357.91 83.2,-284.6"/>
<polygon fill="none" stroke="midnightblue" points="77.39,-538.22 80.8,-548.25 84.39,-538.29 77.39,-538.22"/>
</g>
<!-- Node5 -->
<g id="node5" class="node">
<title>Node5</title>
<g id="a_node5"><a xlink:href="classtflite_1_1_micro_mutable_op_resolver.html" target="_top" xlink:title=" ">
<polygon fill="none" stroke="black" points="96,-332.5 96,-510.5 264,-510.5 264,-332.5 96,-332.5"/>
<text text-anchor="start" x="104" y="-498.5" font-family="Helvetica,sans-Serif" font-size="10.00">tflite::MicroMutableOpResolver</text>
<text text-anchor="middle" x="180" y="-487.5" font-family="Helvetica,sans-Serif" font-size="10.00">&lt; tOpCount &gt;</text>
<polyline fill="none" stroke="black" points="96,-480.5 264,-480.5 "/>
<text text-anchor="middle" x="180" y="-468.5" font-family="Helvetica,sans-Serif" font-size="10.00"> </text>
<polyline fill="none" stroke="black" points="96,-461.5 264,-461.5 "/>
<text text-anchor="start" x="104" y="-449.5" font-family="Helvetica,sans-Serif" font-size="10.00">+ MicroMutableOpResolver()</text>
<text text-anchor="start" x="104" y="-438.5" font-family="Helvetica,sans-Serif" font-size="10.00">+ FindOp()</text>
<text text-anchor="start" x="104" y="-427.5" font-family="Helvetica,sans-Serif" font-size="10.00">+ FindOp()</text>
<text text-anchor="start" x="104" y="-416.5" font-family="Helvetica,sans-Serif" font-size="10.00">+ GetOpDataParser()</text>
<text text-anchor="start" x="104" y="-405.5" font-family="Helvetica,sans-Serif" font-size="10.00">+ AddCustom()</text>
<text text-anchor="start" x="104" y="-394.5" font-family="Helvetica,sans-Serif" font-size="10.00">+ AddAbs()</text>
<text text-anchor="start" x="104" y="-383.5" font-family="Helvetica,sans-Serif" font-size="10.00">+ AddAdd()</text>
<text text-anchor="start" x="104" y="-372.5" font-family="Helvetica,sans-Serif" font-size="10.00">+ AddAddN()</text>
<text text-anchor="start" x="104" y="-361.5" font-family="Helvetica,sans-Serif" font-size="10.00">+ AddArgMax()</text>
<text text-anchor="start" x="104" y="-350.5" font-family="Helvetica,sans-Serif" font-size="10.00">+ AddArgMin()</text>
<text text-anchor="start" x="104" y="-339.5" font-family="Helvetica,sans-Serif" font-size="10.00">and 164 more...</text>
</a>
</g>
</g>
<!-- Node2&#45;&gt;Node5 -->
<g id="edge4" class="edge">
<title>Node2&#45;&gt;Node5</title>
<path fill="none" stroke="midnightblue" d="M125.5,-539.14C129.95,-529.62 134.44,-519.99 138.84,-510.57"/>
<polygon fill="none" stroke="midnightblue" points="122.31,-537.68 121.25,-548.22 128.66,-540.64 122.31,-537.68"/>
</g>
<!-- Node4 -->
<g id="node4" class="node">
<title>Node4</title>
<g id="a_node4"><a xlink:href="classtflite_1_1_all_ops_resolver.html" target="_top" xlink:title=" ">
<polygon fill="none" stroke="black" points="24.5,-0.5 24.5,-68.5 143.5,-68.5 143.5,-0.5 24.5,-0.5"/>
<text text-anchor="middle" x="84" y="-56.5" font-family="Helvetica,sans-Serif" font-size="10.00">tflite::AllOpsResolver</text>
<polyline fill="none" stroke="black" points="24.5,-49.5 143.5,-49.5 "/>
<text text-anchor="middle" x="84" y="-37.5" font-family="Helvetica,sans-Serif" font-size="10.00"> </text>
<polyline fill="none" stroke="black" points="24.5,-30.5 143.5,-30.5 "/>
<text text-anchor="start" x="32.5" y="-18.5" font-family="Helvetica,sans-Serif" font-size="10.00">+ AllOpsResolver()</text>
<text text-anchor="start" x="32.5" y="-7.5" font-family="Helvetica,sans-Serif" font-size="10.00">+ AllOpsResolver()</text>
</a>
</g>
</g>
<!-- Node3&#45;&gt;Node4 -->
<g id="edge3" class="edge">
<title>Node3&#45;&gt;Node4</title>
<path fill="none" stroke="midnightblue" d="M84,-95.98C84,-86.31 84,-77.04 84,-68.79"/>
<polygon fill="none" stroke="midnightblue" points="80.5,-96.17 84,-106.17 87.5,-96.17 80.5,-96.17"/>
</g>
<!-- Node5&#45;&gt;Node3 -->
<g id="edge5" class="edge">
<title>Node5&#45;&gt;Node3</title>
<path fill="none" stroke="orange" d="M138.23,-323.04C132.76,-310.27 127.17,-297.24 121.77,-284.63"/>
<polygon fill="orange" stroke="orange" points="135.04,-324.48 142.2,-332.29 141.47,-321.72 135.04,-324.48"/>
<text text-anchor="middle" x="154" y="-306" font-family="Helvetica,sans-Serif" font-size="10.00"> &lt; 128 &gt;</text>
</g>
</g>
</svg>
