<?xml version="1.0" encoding="UTF-8" standalone="no"?>
<!DOCTYPE svg PUBLIC "-//W3C//DTD SVG 1.1//EN"
 "http://www.w3.org/Graphics/SVG/1.1/DTD/svg11.dtd">
<!-- Generated by graphviz version 2.43.0 (0)
 -->
<!-- Title: flexbuffers::Object Pages: 1 -->
<!--zoomable 777 -->
<svg id="main" version="1.1" xmlns="http://www.w3.org/2000/svg" xmlns:xlink="http://www.w3.org/1999/xlink" xml:space="preserve" onload="init(evt)">
<style type="text/css"><![CDATA[
.edge:hover path { stroke: red; }
.edge:hover polygon { stroke: red; fill: red; }
]]></style>
<script type="text/javascript"><![CDATA[
var edges = document.getElementsByTagName('g');
if (edges && edges.length) {
  for (var i=0;i<edges.length;i++) {
    if (edges[i].id.substr(0,4)=='edge') {
      edges[i].setAttribute('class','edge');
    }
  }
}
]]></script>
        <defs>
                <circle id="rim" cx="0" cy="0" r="7"/>
                <circle id="rim2" cx="0" cy="0" r="3.5"/>
                <g id="zoomPlus">
                        <use xlink:href="#rim" fill="#404040">
                                <set attributeName="fill" to="#808080" begin="zoomplus.mouseover" end="zoomplus.mouseout"/>
                        </use>
                        <path d="M-4,0h8M0,-4v8" fill="none" stroke="white" stroke-width="1.5" pointer-events="none"/>
                </g>
                <g id="zoomMin">
                        <use xlink:href="#rim" fill="#404040">
                                <set attributeName="fill" to="#808080" begin="zoomminus.mouseover" end="zoomminus.mouseout"/>
                        </use>
                        <path d="M-4,0h8" fill="none" stroke="white" stroke-width="1.5" pointer-events="none"/>
                </g>
                <g id="dirArrow">
                        <path fill="none" stroke="white" stroke-width="1.5" d="M0,-3.0v7 M-2.5,-0.5L0,-3.0L2.5,-0.5"/>
                </g>
               <g id="resetDef">
                       <use xlink:href="#rim2" fill="#404040">
                               <set attributeName="fill" to="#808080" begin="reset.mouseover" end="reset.mouseout"/>
                       </use>
               </g>
        </defs>

<script type="text/javascript">
var viewWidth = 558;
var viewHeight = 777;
var sectionId = 'dynsection-0';
</script>
<script xlink:href="svgpan.js"/>
<svg id="graph" class="graph">
<g id="viewport">
<title>flexbuffers::Object</title>
<!-- Node1 -->
<g id="node1" class="node">
<title>Node1</title>
<g id="a_node1"><a xlink:title=" ">
<polygon fill="#bfbfbf" stroke="black" points="135.5,-689.5 135.5,-768.5 241.5,-768.5 241.5,-689.5 135.5,-689.5"/>
<text text-anchor="middle" x="188.5" y="-756.5" font-family="Helvetica,sans-Serif" font-size="10.00">flexbuffers::Object</text>
<polyline fill="none" stroke="black" points="135.5,-749.5 241.5,-749.5 "/>
<text text-anchor="start" x="143.5" y="-737.5" font-family="Helvetica,sans-Serif" font-size="10.00"># data_</text>
<text text-anchor="start" x="143.5" y="-726.5" font-family="Helvetica,sans-Serif" font-size="10.00"># byte_width_</text>
<polyline fill="none" stroke="black" points="135.5,-719.5 241.5,-719.5 "/>
<text text-anchor="start" x="143.5" y="-707.5" font-family="Helvetica,sans-Serif" font-size="10.00">+ Object()</text>
<text text-anchor="start" x="143.5" y="-696.5" font-family="Helvetica,sans-Serif" font-size="10.00">+ Object()</text>
</a>
</g>
</g>
<!-- Node2 -->
<g id="node2" class="node">
<title>Node2</title>
<g id="a_node2"><a xlink:href="classflexbuffers_1_1_fixed_typed_vector.html" target="_top" xlink:title=" ">
<polygon fill="none" stroke="black" points="20.5,-474.5 20.5,-652.5 198.5,-652.5 198.5,-474.5 20.5,-474.5"/>
<text text-anchor="middle" x="109.5" y="-640.5" font-family="Helvetica,sans-Serif" font-size="10.00">flexbuffers::FixedTypedVector</text>
<polyline fill="none" stroke="black" points="20.5,-633.5 198.5,-633.5 "/>
<text text-anchor="middle" x="109.5" y="-621.5" font-family="Helvetica,sans-Serif" font-size="10.00"> </text>
<polyline fill="none" stroke="black" points="20.5,-614.5 198.5,-614.5 "/>
<text text-anchor="start" x="28.5" y="-602.5" font-family="Helvetica,sans-Serif" font-size="10.00">+ FixedTypedVector()</text>
<text text-anchor="start" x="28.5" y="-591.5" font-family="Helvetica,sans-Serif" font-size="10.00">+ operator[]()</text>
<text text-anchor="start" x="28.5" y="-580.5" font-family="Helvetica,sans-Serif" font-size="10.00">+ IsTheEmptyFixedTypedVector()</text>
<text text-anchor="start" x="28.5" y="-569.5" font-family="Helvetica,sans-Serif" font-size="10.00">+ ElementType()</text>
<text text-anchor="start" x="28.5" y="-558.5" font-family="Helvetica,sans-Serif" font-size="10.00">+ size()</text>
<text text-anchor="start" x="28.5" y="-547.5" font-family="Helvetica,sans-Serif" font-size="10.00">+ FixedTypedVector()</text>
<text text-anchor="start" x="28.5" y="-536.5" font-family="Helvetica,sans-Serif" font-size="10.00">+ operator[]()</text>
<text text-anchor="start" x="28.5" y="-525.5" font-family="Helvetica,sans-Serif" font-size="10.00">+ IsTheEmptyFixedTypedVector()</text>
<text text-anchor="start" x="28.5" y="-514.5" font-family="Helvetica,sans-Serif" font-size="10.00">+ ElementType()</text>
<text text-anchor="start" x="28.5" y="-503.5" font-family="Helvetica,sans-Serif" font-size="10.00">+ size()</text>
<text text-anchor="start" x="28.5" y="-492.5" font-family="Helvetica,sans-Serif" font-size="10.00">+ EmptyFixedTypedVector()</text>
<text text-anchor="start" x="28.5" y="-481.5" font-family="Helvetica,sans-Serif" font-size="10.00">+ EmptyFixedTypedVector()</text>
</a>
</g>
</g>
<!-- Node1&#45;&gt;Node2 -->
<g id="edge1" class="edge">
<title>Node1&#45;&gt;Node2</title>
<path fill="none" stroke="midnightblue" d="M165.35,-680.08C161.14,-671.38 156.64,-662.06 152.08,-652.63"/>
<polygon fill="none" stroke="midnightblue" points="162.28,-681.77 169.78,-689.25 168.58,-678.73 162.28,-681.77"/>
</g>
<!-- Node3 -->
<g id="node3" class="node">
<title>Node3</title>
<g id="a_node3"><a xlink:href="classflexbuffers_1_1_sized.html" target="_top" xlink:title=" ">
<polygon fill="none" stroke="black" points="217,-496.5 217,-630.5 318,-630.5 318,-496.5 217,-496.5"/>
<text text-anchor="middle" x="267.5" y="-618.5" font-family="Helvetica,sans-Serif" font-size="10.00">flexbuffers::Sized</text>
<polyline fill="none" stroke="black" points="217,-611.5 318,-611.5 "/>
<text text-anchor="start" x="225" y="-599.5" font-family="Helvetica,sans-Serif" font-size="10.00"># size_</text>
<polyline fill="none" stroke="black" points="217,-592.5 318,-592.5 "/>
<text text-anchor="start" x="225" y="-580.5" font-family="Helvetica,sans-Serif" font-size="10.00">+ Sized()</text>
<text text-anchor="start" x="225" y="-569.5" font-family="Helvetica,sans-Serif" font-size="10.00">+ Sized()</text>
<text text-anchor="start" x="225" y="-558.5" font-family="Helvetica,sans-Serif" font-size="10.00">+ size()</text>
<text text-anchor="start" x="225" y="-547.5" font-family="Helvetica,sans-Serif" font-size="10.00">+ read_size()</text>
<text text-anchor="start" x="225" y="-536.5" font-family="Helvetica,sans-Serif" font-size="10.00">+ Sized()</text>
<text text-anchor="start" x="225" y="-525.5" font-family="Helvetica,sans-Serif" font-size="10.00">+ Sized()</text>
<text text-anchor="start" x="225" y="-514.5" font-family="Helvetica,sans-Serif" font-size="10.00">+ size()</text>
<text text-anchor="start" x="225" y="-503.5" font-family="Helvetica,sans-Serif" font-size="10.00">+ read_size()</text>
</a>
</g>
</g>
<!-- Node1&#45;&gt;Node3 -->
<g id="edge2" class="edge">
<title>Node1&#45;&gt;Node3</title>
<path fill="none" stroke="midnightblue" d="M211.72,-679.95C219.15,-664.56 227.52,-647.24 235.47,-630.78"/>
<polygon fill="none" stroke="midnightblue" points="208.42,-678.73 207.22,-689.25 214.72,-681.77 208.42,-678.73"/>
</g>
<!-- Node4 -->
<g id="node4" class="node">
<title>Node4</title>
<g id="a_node4"><a xlink:href="classflexbuffers_1_1_blob.html" target="_top" xlink:title=" ">
<polygon fill="none" stroke="black" points="0,-270.5 0,-404.5 115,-404.5 115,-270.5 0,-270.5"/>
<text text-anchor="middle" x="57.5" y="-392.5" font-family="Helvetica,sans-Serif" font-size="10.00">flexbuffers::Blob</text>
<polyline fill="none" stroke="black" points="0,-385.5 115,-385.5 "/>
<text text-anchor="middle" x="57.5" y="-373.5" font-family="Helvetica,sans-Serif" font-size="10.00"> </text>
<polyline fill="none" stroke="black" points="0,-366.5 115,-366.5 "/>
<text text-anchor="start" x="8" y="-354.5" font-family="Helvetica,sans-Serif" font-size="10.00">+ Blob()</text>
<text text-anchor="start" x="8" y="-343.5" font-family="Helvetica,sans-Serif" font-size="10.00">+ IsTheEmptyBlob()</text>
<text text-anchor="start" x="8" y="-332.5" font-family="Helvetica,sans-Serif" font-size="10.00">+ data()</text>
<text text-anchor="start" x="8" y="-321.5" font-family="Helvetica,sans-Serif" font-size="10.00">+ Blob()</text>
<text text-anchor="start" x="8" y="-310.5" font-family="Helvetica,sans-Serif" font-size="10.00">+ IsTheEmptyBlob()</text>
<text text-anchor="start" x="8" y="-299.5" font-family="Helvetica,sans-Serif" font-size="10.00">+ data()</text>
<text text-anchor="start" x="8" y="-288.5" font-family="Helvetica,sans-Serif" font-size="10.00">+ EmptyBlob()</text>
<text text-anchor="start" x="8" y="-277.5" font-family="Helvetica,sans-Serif" font-size="10.00">+ EmptyBlob()</text>
</a>
</g>
</g>
<!-- Node3&#45;&gt;Node4 -->
<g id="edge3" class="edge">
<title>Node3&#45;&gt;Node4</title>
<path fill="none" stroke="midnightblue" d="M222.23,-488.33C217.61,-483.16 212.69,-478.3 207.5,-474 176.54,-448.34 155.42,-463.71 124.5,-438 113.21,-428.61 103.06,-416.85 94.27,-404.73"/>
<polygon fill="none" stroke="midnightblue" points="219.67,-490.72 228.8,-496.1 225.02,-486.2 219.67,-490.72"/>
</g>
<!-- Node5 -->
<g id="node5" class="node">
<title>Node5</title>
<g id="a_node5"><a xlink:href="classflexbuffers_1_1_string.html" target="_top" xlink:title=" ">
<polygon fill="none" stroke="black" points="133.5,-237.5 133.5,-437.5 255.5,-437.5 255.5,-237.5 133.5,-237.5"/>
<text text-anchor="middle" x="194.5" y="-425.5" font-family="Helvetica,sans-Serif" font-size="10.00">flexbuffers::String</text>
<polyline fill="none" stroke="black" points="133.5,-418.5 255.5,-418.5 "/>
<text text-anchor="middle" x="194.5" y="-406.5" font-family="Helvetica,sans-Serif" font-size="10.00"> </text>
<polyline fill="none" stroke="black" points="133.5,-399.5 255.5,-399.5 "/>
<text text-anchor="start" x="141.5" y="-387.5" font-family="Helvetica,sans-Serif" font-size="10.00">+ String()</text>
<text text-anchor="start" x="141.5" y="-376.5" font-family="Helvetica,sans-Serif" font-size="10.00">+ String()</text>
<text text-anchor="start" x="141.5" y="-365.5" font-family="Helvetica,sans-Serif" font-size="10.00">+ length()</text>
<text text-anchor="start" x="141.5" y="-354.5" font-family="Helvetica,sans-Serif" font-size="10.00">+ c_str()</text>
<text text-anchor="start" x="141.5" y="-343.5" font-family="Helvetica,sans-Serif" font-size="10.00">+ str()</text>
<text text-anchor="start" x="141.5" y="-332.5" font-family="Helvetica,sans-Serif" font-size="10.00">+ IsTheEmptyString()</text>
<text text-anchor="start" x="141.5" y="-321.5" font-family="Helvetica,sans-Serif" font-size="10.00">+ String()</text>
<text text-anchor="start" x="141.5" y="-310.5" font-family="Helvetica,sans-Serif" font-size="10.00">+ String()</text>
<text text-anchor="start" x="141.5" y="-299.5" font-family="Helvetica,sans-Serif" font-size="10.00">+ length()</text>
<text text-anchor="start" x="141.5" y="-288.5" font-family="Helvetica,sans-Serif" font-size="10.00">+ c_str()</text>
<text text-anchor="start" x="141.5" y="-277.5" font-family="Helvetica,sans-Serif" font-size="10.00">+ str()</text>
<text text-anchor="start" x="141.5" y="-266.5" font-family="Helvetica,sans-Serif" font-size="10.00">+ IsTheEmptyString()</text>
<text text-anchor="start" x="141.5" y="-255.5" font-family="Helvetica,sans-Serif" font-size="10.00">+ EmptyString()</text>
<text text-anchor="start" x="141.5" y="-244.5" font-family="Helvetica,sans-Serif" font-size="10.00">+ EmptyString()</text>
</a>
</g>
</g>
<!-- Node3&#45;&gt;Node5 -->
<g id="edge4" class="edge">
<title>Node3&#45;&gt;Node5</title>
<path fill="none" stroke="midnightblue" d="M242.76,-486.59C237.66,-470.92 232.21,-454.2 226.87,-437.84"/>
<polygon fill="none" stroke="midnightblue" points="239.47,-487.78 245.89,-496.2 246.12,-485.61 239.47,-487.78"/>
</g>
<!-- Node6 -->
<g id="node6" class="node">
<title>Node6</title>
<g id="a_node6"><a xlink:href="classflexbuffers_1_1_typed_vector.html" target="_top" xlink:title=" ">
<polygon fill="none" stroke="black" points="273.5,-259.5 273.5,-415.5 407.5,-415.5 407.5,-259.5 273.5,-259.5"/>
<text text-anchor="middle" x="340.5" y="-403.5" font-family="Helvetica,sans-Serif" font-size="10.00">flexbuffers::TypedVector</text>
<polyline fill="none" stroke="black" points="273.5,-396.5 407.5,-396.5 "/>
<text text-anchor="start" x="281.5" y="-384.5" font-family="Helvetica,sans-Serif" font-size="10.00">+ Reference</text>
<polyline fill="none" stroke="black" points="273.5,-377.5 407.5,-377.5 "/>
<text text-anchor="start" x="281.5" y="-365.5" font-family="Helvetica,sans-Serif" font-size="10.00">+ TypedVector()</text>
<text text-anchor="start" x="281.5" y="-354.5" font-family="Helvetica,sans-Serif" font-size="10.00">+ operator[]()</text>
<text text-anchor="start" x="281.5" y="-343.5" font-family="Helvetica,sans-Serif" font-size="10.00">+ IsTheEmptyVector()</text>
<text text-anchor="start" x="281.5" y="-332.5" font-family="Helvetica,sans-Serif" font-size="10.00">+ ElementType()</text>
<text text-anchor="start" x="281.5" y="-321.5" font-family="Helvetica,sans-Serif" font-size="10.00">+ TypedVector()</text>
<text text-anchor="start" x="281.5" y="-310.5" font-family="Helvetica,sans-Serif" font-size="10.00">+ operator[]()</text>
<text text-anchor="start" x="281.5" y="-299.5" font-family="Helvetica,sans-Serif" font-size="10.00">+ IsTheEmptyVector()</text>
<text text-anchor="start" x="281.5" y="-288.5" font-family="Helvetica,sans-Serif" font-size="10.00">+ ElementType()</text>
<text text-anchor="start" x="281.5" y="-277.5" font-family="Helvetica,sans-Serif" font-size="10.00">+ EmptyTypedVector()</text>
<text text-anchor="start" x="281.5" y="-266.5" font-family="Helvetica,sans-Serif" font-size="10.00">+ EmptyTypedVector()</text>
</a>
</g>
</g>
<!-- Node3&#45;&gt;Node6 -->
<g id="edge5" class="edge">
<title>Node3&#45;&gt;Node6</title>
<path fill="none" stroke="midnightblue" d="M292.25,-486.56C299.7,-463.7 307.88,-438.6 315.35,-415.67"/>
<polygon fill="none" stroke="midnightblue" points="288.88,-485.61 289.11,-496.2 295.53,-487.78 288.88,-485.61"/>
</g>
<!-- Node7 -->
<g id="node7" class="node">
<title>Node7</title>
<g id="a_node7"><a xlink:href="classflexbuffers_1_1_vector.html" target="_top" xlink:title=" ">
<polygon fill="none" stroke="black" points="425.5,-270.5 425.5,-404.5 549.5,-404.5 549.5,-270.5 425.5,-270.5"/>
<text text-anchor="middle" x="487.5" y="-392.5" font-family="Helvetica,sans-Serif" font-size="10.00">flexbuffers::Vector</text>
<polyline fill="none" stroke="black" points="425.5,-385.5 549.5,-385.5 "/>
<text text-anchor="middle" x="487.5" y="-373.5" font-family="Helvetica,sans-Serif" font-size="10.00"> </text>
<polyline fill="none" stroke="black" points="425.5,-366.5 549.5,-366.5 "/>
<text text-anchor="start" x="433.5" y="-354.5" font-family="Helvetica,sans-Serif" font-size="10.00">+ Vector()</text>
<text text-anchor="start" x="433.5" y="-343.5" font-family="Helvetica,sans-Serif" font-size="10.00">+ operator[]()</text>
<text text-anchor="start" x="433.5" y="-332.5" font-family="Helvetica,sans-Serif" font-size="10.00">+ IsTheEmptyVector()</text>
<text text-anchor="start" x="433.5" y="-321.5" font-family="Helvetica,sans-Serif" font-size="10.00">+ Vector()</text>
<text text-anchor="start" x="433.5" y="-310.5" font-family="Helvetica,sans-Serif" font-size="10.00">+ operator[]()</text>
<text text-anchor="start" x="433.5" y="-299.5" font-family="Helvetica,sans-Serif" font-size="10.00">+ IsTheEmptyVector()</text>
<text text-anchor="start" x="433.5" y="-288.5" font-family="Helvetica,sans-Serif" font-size="10.00">+ EmptyVector()</text>
<text text-anchor="start" x="433.5" y="-277.5" font-family="Helvetica,sans-Serif" font-size="10.00">+ EmptyVector()</text>
</a>
</g>
</g>
<!-- Node3&#45;&gt;Node7 -->
<g id="edge6" class="edge">
<title>Node3&#45;&gt;Node7</title>
<path fill="none" stroke="midnightblue" d="M326.21,-519.14C354.96,-496.54 389.17,-467.5 416.5,-438 426.02,-427.73 435.35,-416.14 443.95,-404.59"/>
<polygon fill="none" stroke="midnightblue" points="324,-516.43 318.26,-525.34 328.3,-521.95 324,-516.43"/>
</g>
<!-- Node8 -->
<g id="node8" class="node">
<title>Node8</title>
<g id="a_node8"><a xlink:href="classflexbuffers_1_1_map.html" target="_top" xlink:title=" ">
<polygon fill="none" stroke="black" points="430.5,-0.5 430.5,-200.5 544.5,-200.5 544.5,-0.5 430.5,-0.5"/>
<text text-anchor="middle" x="487.5" y="-188.5" font-family="Helvetica,sans-Serif" font-size="10.00">flexbuffers::Map</text>
<polyline fill="none" stroke="black" points="430.5,-181.5 544.5,-181.5 "/>
<text text-anchor="middle" x="487.5" y="-169.5" font-family="Helvetica,sans-Serif" font-size="10.00"> </text>
<polyline fill="none" stroke="black" points="430.5,-162.5 544.5,-162.5 "/>
<text text-anchor="start" x="438.5" y="-150.5" font-family="Helvetica,sans-Serif" font-size="10.00">+ Map()</text>
<text text-anchor="start" x="438.5" y="-139.5" font-family="Helvetica,sans-Serif" font-size="10.00">+ operator[]()</text>
<text text-anchor="start" x="438.5" y="-128.5" font-family="Helvetica,sans-Serif" font-size="10.00">+ operator[]()</text>
<text text-anchor="start" x="438.5" y="-117.5" font-family="Helvetica,sans-Serif" font-size="10.00">+ Values()</text>
<text text-anchor="start" x="438.5" y="-106.5" font-family="Helvetica,sans-Serif" font-size="10.00">+ Keys()</text>
<text text-anchor="start" x="438.5" y="-95.5" font-family="Helvetica,sans-Serif" font-size="10.00">+ IsTheEmptyMap()</text>
<text text-anchor="start" x="438.5" y="-84.5" font-family="Helvetica,sans-Serif" font-size="10.00">+ Map()</text>
<text text-anchor="start" x="438.5" y="-73.5" font-family="Helvetica,sans-Serif" font-size="10.00">+ operator[]()</text>
<text text-anchor="start" x="438.5" y="-62.5" font-family="Helvetica,sans-Serif" font-size="10.00">+ operator[]()</text>
<text text-anchor="start" x="438.5" y="-51.5" font-family="Helvetica,sans-Serif" font-size="10.00">+ Values()</text>
<text text-anchor="start" x="438.5" y="-40.5" font-family="Helvetica,sans-Serif" font-size="10.00">+ Keys()</text>
<text text-anchor="start" x="438.5" y="-29.5" font-family="Helvetica,sans-Serif" font-size="10.00">+ IsTheEmptyMap()</text>
<text text-anchor="start" x="438.5" y="-18.5" font-family="Helvetica,sans-Serif" font-size="10.00">+ EmptyMap()</text>
<text text-anchor="start" x="438.5" y="-7.5" font-family="Helvetica,sans-Serif" font-size="10.00">+ EmptyMap()</text>
</a>
</g>
</g>
<!-- Node7&#45;&gt;Node8 -->
<g id="edge7" class="edge">
<title>Node7&#45;&gt;Node8</title>
<path fill="none" stroke="midnightblue" d="M487.5,-260.36C487.5,-241.4 487.5,-220.78 487.5,-200.88"/>
<polygon fill="none" stroke="midnightblue" points="484,-260.41 487.5,-270.41 491,-260.41 484,-260.41"/>
</g>
</g>
</svg>
        <g id="navigator" transform="translate(0 0)" fill="#404254">
                <rect fill="#f2f5e9" fill-opacity="0.5" stroke="#606060" stroke-width=".5" x="0" y="0" width="60" height="60"/>
                <use id="zoomplus" xlink:href="#zoomPlus" x="17" y="9" onmousedown="handleZoom(evt,'in')"/>
                <use id="zoomminus" xlink:href="#zoomMin" x="42" y="9" onmousedown="handleZoom(evt,'out')"/>
                <use id="reset" xlink:href="#resetDef" x="30" y="36" onmousedown="handleReset()"/>
                <g id="arrowUp" xlink:href="#dirArrow" transform="translate(30 24)" onmousedown="handlePan(0,-1)">
                  <use xlink:href="#rim" fill="#404040">
                        <set attributeName="fill" to="#808080" begin="arrowUp.mouseover" end="arrowUp.mouseout"/>
                  </use>
                  <path fill="none" stroke="white" stroke-width="1.5" d="M0,-3.0v7 M-2.5,-0.5L0,-3.0L2.5,-0.5"/>
                </g>
                <g id="arrowRight" xlink:href="#dirArrow" transform="rotate(90) translate(36 -43)" onmousedown="handlePan(1,0)">
                  <use xlink:href="#rim" fill="#404040">
                        <set attributeName="fill" to="#808080" begin="arrowRight.mouseover" end="arrowRight.mouseout"/>
                  </use>
                  <path fill="none" stroke="white" stroke-width="1.5" d="M0,-3.0v7 M-2.5,-0.5L0,-3.0L2.5,-0.5"/>
                </g>
                <g id="arrowDown" xlink:href="#dirArrow" transform="rotate(180) translate(-30 -48)" onmousedown="handlePan(0,1)">
                  <use xlink:href="#rim" fill="#404040">
                        <set attributeName="fill" to="#808080" begin="arrowDown.mouseover" end="arrowDown.mouseout"/>
                  </use>
                  <path fill="none" stroke="white" stroke-width="1.5" d="M0,-3.0v7 M-2.5,-0.5L0,-3.0L2.5,-0.5"/>
                </g>
                <g id="arrowLeft" xlink:href="#dirArrow" transform="rotate(270) translate(-36 17)" onmousedown="handlePan(-1,0)">
                  <use xlink:href="#rim" fill="#404040">
                        <set attributeName="fill" to="#808080" begin="arrowLeft.mouseover" end="arrowLeft.mouseout"/>
                  </use>
                  <path fill="none" stroke="white" stroke-width="1.5" d="M0,-3.0v7 M-2.5,-0.5L0,-3.0L2.5,-0.5"/>
                </g>
        </g>
        <svg viewBox="0 0 15 15" width="100%" height="30px" preserveAspectRatio="xMaxYMin meet">
         <g id="arrow_out" transform="scale(0.3 0.3)">
          <a xlink:href="classflexbuffers_1_1_object__inherit__graph_org.svg" target="_base">
           <rect id="button" ry="5" rx="5" y="6" x="6" height="38" width="38"
                fill="#f2f5e9" fill-opacity="0.5" stroke="#606060" stroke-width="1.0"/>
           <path id="arrow"
             d="M 11.500037,31.436501 C 11.940474,20.09759 22.043105,11.32322 32.158766,21.979434 L 37.068811,17.246167 C 37.068811,17.246167 37.088388,32 37.088388,32 L 22.160133,31.978069 C 22.160133,31.978069 26.997745,27.140456 26.997745,27.140456 C 18.528582,18.264221 13.291696,25.230495 11.500037,31.436501 z"
             style="fill:#404040;"/>
          </a>
         </g>
        </svg>
</svg>
