<?xml version="1.0" encoding="UTF-8" standalone="no"?>
<!DOCTYPE svg PUBLIC "-//W3C//DTD SVG 1.1//EN"
 "http://www.w3.org/Graphics/SVG/1.1/DTD/svg11.dtd">
<!-- Generated by graphviz version 2.43.0 (0)
 -->
<!-- Title: flexbuffers::TypedVector Pages: 1 -->
<svg width="142pt" height="452pt"
 viewBox="0.00 0.00 142.00 452.00" xmlns="http://www.w3.org/2000/svg" xmlns:xlink="http://www.w3.org/1999/xlink">
<g id="graph0" class="graph" transform="scale(1 1) rotate(0) translate(4 448)">
<title>flexbuffers::TypedVector</title>
<!-- Node1 -->
<g id="node1" class="node">
<title>Node1</title>
<g id="a_node1"><a xlink:title=" ">
<polygon fill="#bfbfbf" stroke="black" points="0,-0.5 0,-156.5 134,-156.5 134,-0.5 0,-0.5"/>
<text text-anchor="middle" x="67" y="-144.5" font-family="Helvetica,sans-Serif" font-size="10.00">flexbuffers::TypedVector</text>
<polyline fill="none" stroke="black" points="0,-137.5 134,-137.5 "/>
<text text-anchor="start" x="8" y="-125.5" font-family="Helvetica,sans-Serif" font-size="10.00">+ Reference</text>
<polyline fill="none" stroke="black" points="0,-118.5 134,-118.5 "/>
<text text-anchor="start" x="8" y="-106.5" font-family="Helvetica,sans-Serif" font-size="10.00">+ TypedVector()</text>
<text text-anchor="start" x="8" y="-95.5" font-family="Helvetica,sans-Serif" font-size="10.00">+ operator[]()</text>
<text text-anchor="start" x="8" y="-84.5" font-family="Helvetica,sans-Serif" font-size="10.00">+ IsTheEmptyVector()</text>
<text text-anchor="start" x="8" y="-73.5" font-family="Helvetica,sans-Serif" font-size="10.00">+ ElementType()</text>
<text text-anchor="start" x="8" y="-62.5" font-family="Helvetica,sans-Serif" font-size="10.00">+ TypedVector()</text>
<text text-anchor="start" x="8" y="-51.5" font-family="Helvetica,sans-Serif" font-size="10.00">+ operator[]()</text>
<text text-anchor="start" x="8" y="-40.5" font-family="Helvetica,sans-Serif" font-size="10.00">+ IsTheEmptyVector()</text>
<text text-anchor="start" x="8" y="-29.5" font-family="Helvetica,sans-Serif" font-size="10.00">+ ElementType()</text>
<text text-anchor="start" x="8" y="-18.5" font-family="Helvetica,sans-Serif" font-size="10.00">+ EmptyTypedVector()</text>
<text text-anchor="start" x="8" y="-7.5" font-family="Helvetica,sans-Serif" font-size="10.00">+ EmptyTypedVector()</text>
</a>
</g>
</g>
<!-- Node2 -->
<g id="node2" class="node">
<title>Node2</title>
<g id="a_node2"><a xlink:href="classflexbuffers_1_1_sized.html" target="_top" xlink:title=" ">
<polygon fill="none" stroke="black" points="16.5,-193.5 16.5,-327.5 117.5,-327.5 117.5,-193.5 16.5,-193.5"/>
<text text-anchor="middle" x="67" y="-315.5" font-family="Helvetica,sans-Serif" font-size="10.00">flexbuffers::Sized</text>
<polyline fill="none" stroke="black" points="16.5,-308.5 117.5,-308.5 "/>
<text text-anchor="start" x="24.5" y="-296.5" font-family="Helvetica,sans-Serif" font-size="10.00"># size_</text>
<polyline fill="none" stroke="black" points="16.5,-289.5 117.5,-289.5 "/>
<text text-anchor="start" x="24.5" y="-277.5" font-family="Helvetica,sans-Serif" font-size="10.00">+ Sized()</text>
<text text-anchor="start" x="24.5" y="-266.5" font-family="Helvetica,sans-Serif" font-size="10.00">+ Sized()</text>
<text text-anchor="start" x="24.5" y="-255.5" font-family="Helvetica,sans-Serif" font-size="10.00">+ size()</text>
<text text-anchor="start" x="24.5" y="-244.5" font-family="Helvetica,sans-Serif" font-size="10.00">+ read_size()</text>
<text text-anchor="start" x="24.5" y="-233.5" font-family="Helvetica,sans-Serif" font-size="10.00">+ Sized()</text>
<text text-anchor="start" x="24.5" y="-222.5" font-family="Helvetica,sans-Serif" font-size="10.00">+ Sized()</text>
<text text-anchor="start" x="24.5" y="-211.5" font-family="Helvetica,sans-Serif" font-size="10.00">+ size()</text>
<text text-anchor="start" x="24.5" y="-200.5" font-family="Helvetica,sans-Serif" font-size="10.00">+ read_size()</text>
</a>
</g>
</g>
<!-- Node2&#45;&gt;Node1 -->
<g id="edge1" class="edge">
<title>Node2&#45;&gt;Node1</title>
<path fill="none" stroke="midnightblue" d="M67,-183.3C67,-174.52 67,-165.57 67,-156.78"/>
<polygon fill="none" stroke="midnightblue" points="63.5,-183.5 67,-193.5 70.5,-183.5 63.5,-183.5"/>
</g>
<!-- Node3 -->
<g id="node3" class="node">
<title>Node3</title>
<g id="a_node3"><a xlink:href="classflexbuffers_1_1_object.html" target="_top" xlink:title=" ">
<polygon fill="none" stroke="black" points="14,-364.5 14,-443.5 120,-443.5 120,-364.5 14,-364.5"/>
<text text-anchor="middle" x="67" y="-431.5" font-family="Helvetica,sans-Serif" font-size="10.00">flexbuffers::Object</text>
<polyline fill="none" stroke="black" points="14,-424.5 120,-424.5 "/>
<text text-anchor="start" x="22" y="-412.5" font-family="Helvetica,sans-Serif" font-size="10.00"># data_</text>
<text text-anchor="start" x="22" y="-401.5" font-family="Helvetica,sans-Serif" font-size="10.00"># byte_width_</text>
<polyline fill="none" stroke="black" points="14,-394.5 120,-394.5 "/>
<text text-anchor="start" x="22" y="-382.5" font-family="Helvetica,sans-Serif" font-size="10.00">+ Object()</text>
<text text-anchor="start" x="22" y="-371.5" font-family="Helvetica,sans-Serif" font-size="10.00">+ Object()</text>
</a>
</g>
</g>
<!-- Node3&#45;&gt;Node2 -->
<g id="edge2" class="edge">
<title>Node3&#45;&gt;Node2</title>
<path fill="none" stroke="midnightblue" d="M67,-354.16C67,-345.59 67,-336.55 67,-327.6"/>
<polygon fill="none" stroke="midnightblue" points="63.5,-354.33 67,-364.33 70.5,-354.33 63.5,-354.33"/>
</g>
</g>
</svg>
