<?xml version="1.0" encoding="UTF-8" standalone="no"?>
<!DOCTYPE svg PUBLIC "-//W3C//DTD SVG 1.1//EN"
 "http://www.w3.org/Graphics/SVG/1.1/DTD/svg11.dtd">
<!-- Generated by graphviz version 2.43.0 (0)
 -->
<!-- Title: tflite::MicroMutableOpResolver&lt; tOpCount &gt; Pages: 1 -->
<svg width="176pt" height="907pt"
 viewBox="0.00 0.00 176.00 907.00" xmlns="http://www.w3.org/2000/svg" xmlns:xlink="http://www.w3.org/1999/xlink">
<g id="graph0" class="graph" transform="scale(1 1) rotate(0) translate(4 903)">
<title>tflite::MicroMutableOpResolver&lt; tOpCount &gt;</title>
<!-- Node1 -->
<g id="node1" class="node">
<title>Node1</title>
<g id="a_node1"><a xlink:title=" ">
<polygon fill="#bfbfbf" stroke="black" points="0,-332.5 0,-510.5 168,-510.5 168,-332.5 0,-332.5"/>
<text text-anchor="start" x="8" y="-498.5" font-family="Helvetica,sans-Serif" font-size="10.00">tflite::MicroMutableOpResolver</text>
<text text-anchor="middle" x="84" y="-487.5" font-family="Helvetica,sans-Serif" font-size="10.00">&lt; tOpCount &gt;</text>
<polyline fill="none" stroke="black" points="0,-480.5 168,-480.5 "/>
<text text-anchor="middle" x="84" y="-468.5" font-family="Helvetica,sans-Serif" font-size="10.00"> </text>
<polyline fill="none" stroke="black" points="0,-461.5 168,-461.5 "/>
<text text-anchor="start" x="8" y="-449.5" font-family="Helvetica,sans-Serif" font-size="10.00">+ MicroMutableOpResolver()</text>
<text text-anchor="start" x="8" y="-438.5" font-family="Helvetica,sans-Serif" font-size="10.00">+ FindOp()</text>
<text text-anchor="start" x="8" y="-427.5" font-family="Helvetica,sans-Serif" font-size="10.00">+ FindOp()</text>
<text text-anchor="start" x="8" y="-416.5" font-family="Helvetica,sans-Serif" font-size="10.00">+ GetOpDataParser()</text>
<text text-anchor="start" x="8" y="-405.5" font-family="Helvetica,sans-Serif" font-size="10.00">+ AddCustom()</text>
<text text-anchor="start" x="8" y="-394.5" font-family="Helvetica,sans-Serif" font-size="10.00">+ AddAbs()</text>
<text text-anchor="start" x="8" y="-383.5" font-family="Helvetica,sans-Serif" font-size="10.00">+ AddAdd()</text>
<text text-anchor="start" x="8" y="-372.5" font-family="Helvetica,sans-Serif" font-size="10.00">+ AddAddN()</text>
<text text-anchor="start" x="8" y="-361.5" font-family="Helvetica,sans-Serif" font-size="10.00">+ AddArgMax()</text>
<text text-anchor="start" x="8" y="-350.5" font-family="Helvetica,sans-Serif" font-size="10.00">+ AddArgMin()</text>
<text text-anchor="start" x="8" y="-339.5" font-family="Helvetica,sans-Serif" font-size="10.00">and 164 more...</text>
</a>
</g>
</g>
<!-- Node4 -->
<g id="node4" class="node">
<title>Node4</title>
<g id="a_node4"><a xlink:href="classtflite_1_1_micro_mutable_op_resolver.html" target="_top" xlink:title=" ">
<polygon fill="none" stroke="black" points="0,-106.5 0,-284.5 168,-284.5 168,-106.5 0,-106.5"/>
<text text-anchor="start" x="8" y="-272.5" font-family="Helvetica,sans-Serif" font-size="10.00">tflite::MicroMutableOpResolver</text>
<text text-anchor="middle" x="84" y="-261.5" font-family="Helvetica,sans-Serif" font-size="10.00">&lt; 128 &gt;</text>
<polyline fill="none" stroke="black" points="0,-254.5 168,-254.5 "/>
<text text-anchor="middle" x="84" y="-242.5" font-family="Helvetica,sans-Serif" font-size="10.00"> </text>
<polyline fill="none" stroke="black" points="0,-235.5 168,-235.5 "/>
<text text-anchor="start" x="8" y="-223.5" font-family="Helvetica,sans-Serif" font-size="10.00">+ MicroMutableOpResolver()</text>
<text text-anchor="start" x="8" y="-212.5" font-family="Helvetica,sans-Serif" font-size="10.00">+ MicroMutableOpResolver()</text>
<text text-anchor="start" x="8" y="-201.5" font-family="Helvetica,sans-Serif" font-size="10.00">+ FindOp()</text>
<text text-anchor="start" x="8" y="-190.5" font-family="Helvetica,sans-Serif" font-size="10.00">+ FindOp()</text>
<text text-anchor="start" x="8" y="-179.5" font-family="Helvetica,sans-Serif" font-size="10.00">+ FindOp()</text>
<text text-anchor="start" x="8" y="-168.5" font-family="Helvetica,sans-Serif" font-size="10.00">+ FindOp()</text>
<text text-anchor="start" x="8" y="-157.5" font-family="Helvetica,sans-Serif" font-size="10.00">+ GetOpDataParser()</text>
<text text-anchor="start" x="8" y="-146.5" font-family="Helvetica,sans-Serif" font-size="10.00">+ GetOpDataParser()</text>
<text text-anchor="start" x="8" y="-135.5" font-family="Helvetica,sans-Serif" font-size="10.00">+ AddCustom()</text>
<text text-anchor="start" x="8" y="-124.5" font-family="Helvetica,sans-Serif" font-size="10.00">+ AddCustom()</text>
<text text-anchor="start" x="8" y="-113.5" font-family="Helvetica,sans-Serif" font-size="10.00">and 164 more...</text>
</a>
</g>
</g>
<!-- Node1&#45;&gt;Node4 -->
<g id="edge3" class="edge">
<title>Node1&#45;&gt;Node4</title>
<path fill="none" stroke="orange" d="M84,-321.93C84,-309.51 84,-296.87 84,-284.63"/>
<polygon fill="orange" stroke="orange" points="80.5,-322.29 84,-332.29 87.5,-322.29 80.5,-322.29"/>
<text text-anchor="middle" x="106" y="-306" font-family="Helvetica,sans-Serif" font-size="10.00"> &lt; 128 &gt;</text>
</g>
<!-- Node2 -->
<g id="node2" class="node">
<title>Node2</title>
<g id="a_node2"><a xlink:href="classtflite_1_1_micro_op_resolver.html" target="_top" xlink:title=" ">
<polygon fill="none" stroke="black" points="20,-548.5 20,-726.5 148,-726.5 148,-548.5 20,-548.5"/>
<text text-anchor="middle" x="84" y="-714.5" font-family="Helvetica,sans-Serif" font-size="10.00">tflite::MicroOpResolver</text>
<polyline fill="none" stroke="black" points="20,-707.5 148,-707.5 "/>
<text text-anchor="middle" x="84" y="-695.5" font-family="Helvetica,sans-Serif" font-size="10.00"> </text>
<polyline fill="none" stroke="black" points="20,-688.5 148,-688.5 "/>
<text text-anchor="start" x="28" y="-676.5" font-family="Helvetica,sans-Serif" font-size="10.00">+ FindOp()</text>
<text text-anchor="start" x="28" y="-665.5" font-family="Helvetica,sans-Serif" font-size="10.00">+ FindOp()</text>
<text text-anchor="start" x="28" y="-654.5" font-family="Helvetica,sans-Serif" font-size="10.00">+ FindOp()</text>
<text text-anchor="start" x="28" y="-643.5" font-family="Helvetica,sans-Serif" font-size="10.00">+ FindOp()</text>
<text text-anchor="start" x="28" y="-632.5" font-family="Helvetica,sans-Serif" font-size="10.00">+ GetOpDataParser()</text>
<text text-anchor="start" x="28" y="-621.5" font-family="Helvetica,sans-Serif" font-size="10.00">+ ~MicroOpResolver()</text>
<text text-anchor="start" x="28" y="-610.5" font-family="Helvetica,sans-Serif" font-size="10.00">+ FindOp()</text>
<text text-anchor="start" x="28" y="-599.5" font-family="Helvetica,sans-Serif" font-size="10.00">+ FindOp()</text>
<text text-anchor="start" x="28" y="-588.5" font-family="Helvetica,sans-Serif" font-size="10.00">+ FindOp()</text>
<text text-anchor="start" x="28" y="-577.5" font-family="Helvetica,sans-Serif" font-size="10.00">+ FindOp()</text>
<text text-anchor="start" x="28" y="-566.5" font-family="Helvetica,sans-Serif" font-size="10.00">+ GetOpDataParser()</text>
<text text-anchor="start" x="28" y="-555.5" font-family="Helvetica,sans-Serif" font-size="10.00">+ ~MicroOpResolver()</text>
</a>
</g>
</g>
<!-- Node2&#45;&gt;Node1 -->
<g id="edge1" class="edge">
<title>Node2&#45;&gt;Node1</title>
<path fill="none" stroke="midnightblue" d="M84,-537.96C84,-528.82 84,-519.61 84,-510.57"/>
<polygon fill="none" stroke="midnightblue" points="80.5,-538.22 84,-548.22 87.5,-538.22 80.5,-538.22"/>
</g>
<!-- Node3 -->
<g id="node3" class="node">
<title>Node3</title>
<g id="a_node3"><a xlink:href="classtflite_1_1_op_resolver.html" target="_top" xlink:title=" ">
<polygon fill="none" stroke="black" points="33,-764.5 33,-898.5 135,-898.5 135,-764.5 33,-764.5"/>
<text text-anchor="middle" x="84" y="-886.5" font-family="Helvetica,sans-Serif" font-size="10.00">tflite::OpResolver</text>
<polyline fill="none" stroke="black" points="33,-879.5 135,-879.5 "/>
<text text-anchor="middle" x="84" y="-867.5" font-family="Helvetica,sans-Serif" font-size="10.00"> </text>
<polyline fill="none" stroke="black" points="33,-860.5 135,-860.5 "/>
<text text-anchor="start" x="41" y="-848.5" font-family="Helvetica,sans-Serif" font-size="10.00">+ FindOp()</text>
<text text-anchor="start" x="41" y="-837.5" font-family="Helvetica,sans-Serif" font-size="10.00">+ FindOp()</text>
<text text-anchor="start" x="41" y="-826.5" font-family="Helvetica,sans-Serif" font-size="10.00">+ GetDelegates()</text>
<text text-anchor="start" x="41" y="-815.5" font-family="Helvetica,sans-Serif" font-size="10.00">+ ~OpResolver()</text>
<text text-anchor="start" x="41" y="-804.5" font-family="Helvetica,sans-Serif" font-size="10.00">+ FindOp()</text>
<text text-anchor="start" x="41" y="-793.5" font-family="Helvetica,sans-Serif" font-size="10.00">+ FindOp()</text>
<text text-anchor="start" x="41" y="-782.5" font-family="Helvetica,sans-Serif" font-size="10.00">+ GetDelegates()</text>
<text text-anchor="start" x="41" y="-771.5" font-family="Helvetica,sans-Serif" font-size="10.00">+ ~OpResolver()</text>
</a>
</g>
</g>
<!-- Node3&#45;&gt;Node2 -->
<g id="edge2" class="edge">
<title>Node3&#45;&gt;Node2</title>
<path fill="none" stroke="midnightblue" d="M84,-754.32C84,-745.26 84,-735.95 84,-726.74"/>
<polygon fill="none" stroke="midnightblue" points="80.5,-754.42 84,-764.42 87.5,-754.42 80.5,-754.42"/>
</g>
<!-- Node5 -->
<g id="node5" class="node">
<title>Node5</title>
<g id="a_node5"><a xlink:href="classtflite_1_1_all_ops_resolver.html" target="_top" xlink:title=" ">
<polygon fill="none" stroke="black" points="24.5,-0.5 24.5,-68.5 143.5,-68.5 143.5,-0.5 24.5,-0.5"/>
<text text-anchor="middle" x="84" y="-56.5" font-family="Helvetica,sans-Serif" font-size="10.00">tflite::AllOpsResolver</text>
<polyline fill="none" stroke="black" points="24.5,-49.5 143.5,-49.5 "/>
<text text-anchor="middle" x="84" y="-37.5" font-family="Helvetica,sans-Serif" font-size="10.00"> </text>
<polyline fill="none" stroke="black" points="24.5,-30.5 143.5,-30.5 "/>
<text text-anchor="start" x="32.5" y="-18.5" font-family="Helvetica,sans-Serif" font-size="10.00">+ AllOpsResolver()</text>
<text text-anchor="start" x="32.5" y="-7.5" font-family="Helvetica,sans-Serif" font-size="10.00">+ AllOpsResolver()</text>
</a>
</g>
</g>
<!-- Node4&#45;&gt;Node5 -->
<g id="edge4" class="edge">
<title>Node4&#45;&gt;Node5</title>
<path fill="none" stroke="midnightblue" d="M84,-95.98C84,-86.31 84,-77.04 84,-68.79"/>
<polygon fill="none" stroke="midnightblue" points="80.5,-96.17 84,-106.17 87.5,-96.17 80.5,-96.17"/>
</g>
</g>
</svg>
