<?xml version="1.0" encoding="UTF-8" standalone="no"?>
<!DOCTYPE svg PUBLIC "-//W3C//DTD SVG 1.1//EN"
 "http://www.w3.org/Graphics/SVG/1.1/DTD/svg11.dtd">
<!-- Generated by graphviz version 2.43.0 (0)
 -->
<!-- Title: flatbuffers::FlatBufferBuilder::GetSize Pages: 1 -->
<svg width="736pt" height="186pt"
 viewBox="0.00 0.00 736.00 186.00" xmlns="http://www.w3.org/2000/svg" xmlns:xlink="http://www.w3.org/1999/xlink">
<g id="graph0" class="graph" transform="scale(1 1) rotate(0) translate(4 182)">
<title>flatbuffers::FlatBufferBuilder::GetSize</title>
<!-- Node1 -->
<g id="node1" class="node">
<title>Node1</title>
<g id="a_node1"><a xlink:title="The current size of the serialized buffer, counting from the end.">
<polygon fill="#bfbfbf" stroke="black" points="573,-49.5 573,-79.5 728,-79.5 728,-49.5 573,-49.5"/>
<text text-anchor="start" x="581" y="-67.5" font-family="Helvetica,sans-Serif" font-size="10.00">flatbuffers::FlatBufferBuilder</text>
<text text-anchor="middle" x="650.5" y="-56.5" font-family="Helvetica,sans-Serif" font-size="10.00">::GetSize</text>
</a>
</g>
</g>
<!-- Node2 -->
<g id="node2" class="node">
<title>Node2</title>
<g id="a_node2"><a xlink:href="classflatbuffers_1_1_flat_buffer_builder.html#aec6f9df2a0366b540b24822414d92cbe" target="_top" xlink:title="Store a string in the buffer, which can contain any binary data.">
<polygon fill="none" stroke="black" points="382,-98.5 382,-128.5 537,-128.5 537,-98.5 382,-98.5"/>
<text text-anchor="start" x="390" y="-116.5" font-family="Helvetica,sans-Serif" font-size="10.00">flatbuffers::FlatBufferBuilder</text>
<text text-anchor="middle" x="459.5" y="-105.5" font-family="Helvetica,sans-Serif" font-size="10.00">::CreateString</text>
</a>
</g>
</g>
<!-- Node1&#45;&gt;Node2 -->
<g id="edge1" class="edge">
<title>Node1&#45;&gt;Node2</title>
<path fill="none" stroke="midnightblue" d="M581.81,-82.05C561.05,-87.43 538.42,-93.3 518.38,-98.49"/>
<polygon fill="midnightblue" stroke="midnightblue" points="582.71,-85.43 591.51,-79.53 580.95,-78.66 582.71,-85.43"/>
</g>
<!-- Node7 -->
<g id="node7" class="node">
<title>Node7</title>
<g id="a_node7"><a xlink:href="classflatbuffers_1_1_flat_buffer_builder.html#a43f51ba9c8f4f24ea2247a3979d095b8" target="_top" xlink:title="Write a struct by itself, typically to be part of a union.">
<polygon fill="none" stroke="black" points="382,-49.5 382,-79.5 537,-79.5 537,-49.5 382,-49.5"/>
<text text-anchor="start" x="390" y="-67.5" font-family="Helvetica,sans-Serif" font-size="10.00">flatbuffers::FlatBufferBuilder</text>
<text text-anchor="middle" x="459.5" y="-56.5" font-family="Helvetica,sans-Serif" font-size="10.00">::CreateStruct</text>
</a>
</g>
</g>
<!-- Node1&#45;&gt;Node7 -->
<g id="edge6" class="edge">
<title>Node1&#45;&gt;Node7</title>
<path fill="none" stroke="midnightblue" d="M562.9,-64.5C554.33,-64.5 545.67,-64.5 537.21,-64.5"/>
<polygon fill="midnightblue" stroke="midnightblue" points="562.9,-68 572.9,-64.5 562.9,-61 562.9,-68"/>
</g>
<!-- Node8 -->
<g id="node8" class="node">
<title>Node8</title>
<g id="a_node8"><a xlink:href="classflatbuffers_1_1_flat_buffer_builder.html#ac2b96292fa0fb1534fe7fd218a094d0c" target="_top" xlink:title="Specialized version of CreateVector for non&#45;copying use cases. Write the data any time later to the r...">
<polygon fill="none" stroke="black" points="382,-0.5 382,-30.5 537,-30.5 537,-0.5 382,-0.5"/>
<text text-anchor="start" x="390" y="-18.5" font-family="Helvetica,sans-Serif" font-size="10.00">flatbuffers::FlatBufferBuilder</text>
<text text-anchor="middle" x="459.5" y="-7.5" font-family="Helvetica,sans-Serif" font-size="10.00">::CreateUninitializedVector</text>
</a>
</g>
</g>
<!-- Node1&#45;&gt;Node8 -->
<g id="edge7" class="edge">
<title>Node1&#45;&gt;Node8</title>
<path fill="none" stroke="midnightblue" d="M581.81,-46.95C561.05,-41.57 538.42,-35.7 518.38,-30.51"/>
<polygon fill="midnightblue" stroke="midnightblue" points="580.95,-50.34 591.51,-49.47 582.71,-43.57 580.95,-50.34"/>
</g>
<!-- Node3 -->
<g id="node3" class="node">
<title>Node3</title>
<g id="a_node3"><a xlink:href="classflatbuffers_1_1_flat_buffer_builder.html#ab478a645216d2d613fc7b7c29b0ff9d1" target="_top" xlink:title="Store a string in the buffer, which can contain any binary data. If a string with this exact contents...">
<polygon fill="none" stroke="black" points="191,-147.5 191,-177.5 346,-177.5 346,-147.5 191,-147.5"/>
<text text-anchor="start" x="199" y="-165.5" font-family="Helvetica,sans-Serif" font-size="10.00">flatbuffers::FlatBufferBuilder</text>
<text text-anchor="middle" x="268.5" y="-154.5" font-family="Helvetica,sans-Serif" font-size="10.00">::CreateSharedString</text>
</a>
</g>
</g>
<!-- Node2&#45;&gt;Node3 -->
<g id="edge2" class="edge">
<title>Node2&#45;&gt;Node3</title>
<path fill="none" stroke="midnightblue" d="M390.81,-131.05C370.05,-136.43 347.42,-142.3 327.38,-147.49"/>
<polygon fill="midnightblue" stroke="midnightblue" points="391.71,-134.43 400.51,-128.53 389.95,-127.66 391.71,-134.43"/>
</g>
<!-- Node5 -->
<g id="node5" class="node">
<title>Node5</title>
<g id="a_node5"><a xlink:href="classflatbuffers_1_1_flat_buffer_builder.html#aad93d113ac24e86ed04b5236b3f4c0c5" target="_top" xlink:title="Store a string in the buffer, which is null&#45;terminated.">
<polygon fill="none" stroke="black" points="191,-98.5 191,-128.5 346,-128.5 346,-98.5 191,-98.5"/>
<text text-anchor="start" x="199" y="-116.5" font-family="Helvetica,sans-Serif" font-size="10.00">flatbuffers::FlatBufferBuilder</text>
<text text-anchor="middle" x="268.5" y="-105.5" font-family="Helvetica,sans-Serif" font-size="10.00">::CreateString</text>
</a>
</g>
</g>
<!-- Node2&#45;&gt;Node5 -->
<g id="edge4" class="edge">
<title>Node2&#45;&gt;Node5</title>
<path fill="none" stroke="midnightblue" d="M371.9,-113.5C363.33,-113.5 354.67,-113.5 346.21,-113.5"/>
<polygon fill="midnightblue" stroke="midnightblue" points="371.9,-117 381.9,-113.5 371.9,-110 371.9,-117"/>
</g>
<!-- Node6 -->
<g id="node6" class="node">
<title>Node6</title>
<g id="a_node6"><a xlink:href="classflatbuffers_1_1_flat_buffer_builder.html#a592110519a6c8db1926f1365bf2a58e6" target="_top" xlink:title="Serialize a std::vector&lt;std::string&gt; into a FlatBuffer vector. This is a convenience function for a c...">
<polygon fill="none" stroke="black" points="191,-49.5 191,-79.5 346,-79.5 346,-49.5 191,-49.5"/>
<text text-anchor="start" x="199" y="-67.5" font-family="Helvetica,sans-Serif" font-size="10.00">flatbuffers::FlatBufferBuilder</text>
<text text-anchor="middle" x="268.5" y="-56.5" font-family="Helvetica,sans-Serif" font-size="10.00">::CreateVectorOfStrings</text>
</a>
</g>
</g>
<!-- Node2&#45;&gt;Node6 -->
<g id="edge5" class="edge">
<title>Node2&#45;&gt;Node6</title>
<path fill="none" stroke="midnightblue" d="M390.81,-95.95C370.05,-90.57 347.42,-84.7 327.38,-79.51"/>
<polygon fill="midnightblue" stroke="midnightblue" points="389.95,-99.34 400.51,-98.47 391.71,-92.57 389.95,-99.34"/>
</g>
<!-- Node4 -->
<g id="node4" class="node">
<title>Node4</title>
<g id="a_node4"><a xlink:href="classflatbuffers_1_1_flat_buffer_builder.html#a3eb68613e5883dc4b8fff6cf7d1223d7" target="_top" xlink:title="Store a string in the buffer, which null&#45;terminated. If a string with this exact contents has already...">
<polygon fill="none" stroke="black" points="0,-147.5 0,-177.5 155,-177.5 155,-147.5 0,-147.5"/>
<text text-anchor="start" x="8" y="-165.5" font-family="Helvetica,sans-Serif" font-size="10.00">flatbuffers::FlatBufferBuilder</text>
<text text-anchor="middle" x="77.5" y="-154.5" font-family="Helvetica,sans-Serif" font-size="10.00">::CreateSharedString</text>
</a>
</g>
</g>
<!-- Node3&#45;&gt;Node4 -->
<g id="edge3" class="edge">
<title>Node3&#45;&gt;Node4</title>
<path fill="none" stroke="midnightblue" d="M180.9,-162.5C172.33,-162.5 163.67,-162.5 155.21,-162.5"/>
<polygon fill="midnightblue" stroke="midnightblue" points="180.9,-166 190.9,-162.5 180.9,-159 180.9,-166"/>
</g>
<!-- Node9 -->
<g id="node9" class="node">
<title>Node9</title>
<g id="a_node9"><a xlink:href="classflatbuffers_1_1_flat_buffer_builder.html#a2305b63d367845972b51669dd995cc50" target="_top" xlink:title="Specialized version of CreateVector for non&#45;copying use cases. Write the data any time later to the r...">
<polygon fill="none" stroke="black" points="191,-0.5 191,-30.5 346,-30.5 346,-0.5 191,-0.5"/>
<text text-anchor="start" x="199" y="-18.5" font-family="Helvetica,sans-Serif" font-size="10.00">flatbuffers::FlatBufferBuilder</text>
<text text-anchor="middle" x="268.5" y="-7.5" font-family="Helvetica,sans-Serif" font-size="10.00">::CreateUninitializedVector</text>
</a>
</g>
</g>
<!-- Node8&#45;&gt;Node9 -->
<g id="edge8" class="edge">
<title>Node8&#45;&gt;Node9</title>
<path fill="none" stroke="midnightblue" d="M371.9,-15.5C363.33,-15.5 354.67,-15.5 346.21,-15.5"/>
<polygon fill="midnightblue" stroke="midnightblue" points="371.9,-19 381.9,-15.5 371.9,-12 371.9,-19"/>
</g>
</g>
</svg>
