<?xml version="1.0" encoding="UTF-8" standalone="no"?>
<!DOCTYPE svg PUBLIC "-//W3C//DTD SVG 1.1//EN"
 "http://www.w3.org/Graphics/SVG/1.1/DTD/svg11.dtd">
<!-- Generated by graphviz version 2.43.0 (0)
 -->
<!-- Title: flatbuffers::FlatBufferBuilder::CreateVectorOfStructs Pages: 1 -->
<svg width="361pt" height="88pt"
 viewBox="0.00 0.00 361.00 88.00" xmlns="http://www.w3.org/2000/svg" xmlns:xlink="http://www.w3.org/1999/xlink">
<g id="graph0" class="graph" transform="scale(1 1) rotate(0) translate(4 84)">
<title>flatbuffers::FlatBufferBuilder::CreateVectorOfStructs</title>
<!-- Node1 -->
<g id="node1" class="node">
<title>Node1</title>
<g id="a_node1"><a xlink:title="Serialize an array of structs into a FlatBuffer vector.">
<polygon fill="#bfbfbf" stroke="black" points="198,-24.5 198,-54.5 353,-54.5 353,-24.5 198,-24.5"/>
<text text-anchor="start" x="206" y="-42.5" font-family="Helvetica,sans-Serif" font-size="10.00">flatbuffers::FlatBufferBuilder</text>
<text text-anchor="middle" x="275.5" y="-31.5" font-family="Helvetica,sans-Serif" font-size="10.00">::CreateVectorOfStructs</text>
</a>
</g>
</g>
<!-- Node2 -->
<g id="node2" class="node">
<title>Node2</title>
<g id="a_node2"><a xlink:href="classflatbuffers_1_1_flat_buffer_builder.html#ab1f44cc1b130e13b41e9a80de76e25cf" target="_top" xlink:title="Serialize an array of structs into a FlatBuffer vector in sorted order.">
<polygon fill="none" stroke="black" points="0,-49.5 0,-79.5 162,-79.5 162,-49.5 0,-49.5"/>
<text text-anchor="start" x="8" y="-67.5" font-family="Helvetica,sans-Serif" font-size="10.00">flatbuffers::FlatBufferBuilder</text>
<text text-anchor="middle" x="81" y="-56.5" font-family="Helvetica,sans-Serif" font-size="10.00">::CreateVectorOfSortedStructs</text>
</a>
</g>
</g>
<!-- Node1&#45;&gt;Node2 -->
<g id="edge1" class="edge">
<title>Node1&#45;&gt;Node2</title>
<path fill="none" stroke="midnightblue" d="M187.88,-50.75C179.31,-51.86 170.65,-52.99 162.16,-54.09"/>
<polygon fill="midnightblue" stroke="midnightblue" points="188.4,-54.21 197.87,-49.45 187.5,-47.27 188.4,-54.21"/>
</g>
<!-- Node3 -->
<g id="node3" class="node">
<title>Node3</title>
<g id="a_node3"><a xlink:href="classflatbuffers_1_1_flat_buffer_builder.html#a110c2a3298aebef1a9dfa3c44ee84f42" target="_top" xlink:title="Serialize a std::vector of structs into a FlatBuffer vector.">
<polygon fill="none" stroke="black" points="3.5,-0.5 3.5,-30.5 158.5,-30.5 158.5,-0.5 3.5,-0.5"/>
<text text-anchor="start" x="11.5" y="-18.5" font-family="Helvetica,sans-Serif" font-size="10.00">flatbuffers::FlatBufferBuilder</text>
<text text-anchor="middle" x="81" y="-7.5" font-family="Helvetica,sans-Serif" font-size="10.00">::CreateVectorOfStructs</text>
</a>
</g>
</g>
<!-- Node1&#45;&gt;Node3 -->
<g id="edge2" class="edge">
<title>Node1&#45;&gt;Node3</title>
<path fill="none" stroke="midnightblue" d="M187.81,-28.69C178.1,-27.48 168.26,-26.25 158.69,-25.06"/>
<polygon fill="midnightblue" stroke="midnightblue" points="187.51,-32.18 197.87,-29.95 188.38,-25.24 187.51,-32.18"/>
</g>
</g>
</svg>
