<?xml version="1.0" encoding="UTF-8" standalone="no"?>
<!DOCTYPE svg PUBLIC "-//W3C//DTD SVG 1.1//EN"
 "http://www.w3.org/Graphics/SVG/1.1/DTD/svg11.dtd">
<!-- Generated by graphviz version 2.43.0 (0)
 -->
<!-- Title: flatbuffers::FlatBufferBuilder::CreateString Pages: 1 -->
<svg width="545pt" height="137pt"
 viewBox="0.00 0.00 545.00 137.00" xmlns="http://www.w3.org/2000/svg" xmlns:xlink="http://www.w3.org/1999/xlink">
<g id="graph0" class="graph" transform="scale(1 1) rotate(0) translate(4 133)">
<title>flatbuffers::FlatBufferBuilder::CreateString</title>
<!-- Node1 -->
<g id="node1" class="node">
<title>Node1</title>
<g id="a_node1"><a xlink:title="Store a string in the buffer, which can contain any binary data.">
<polygon fill="#bfbfbf" stroke="black" points="382,-49.5 382,-79.5 537,-79.5 537,-49.5 382,-49.5"/>
<text text-anchor="start" x="390" y="-67.5" font-family="Helvetica,sans-Serif" font-size="10.00">flatbuffers::FlatBufferBuilder</text>
<text text-anchor="middle" x="459.5" y="-56.5" font-family="Helvetica,sans-Serif" font-size="10.00">::CreateString</text>
</a>
</g>
</g>
<!-- Node2 -->
<g id="node2" class="node">
<title>Node2</title>
<g id="a_node2"><a xlink:href="classflatbuffers_1_1_flat_buffer_builder.html#ab478a645216d2d613fc7b7c29b0ff9d1" target="_top" xlink:title="Store a string in the buffer, which can contain any binary data. If a string with this exact contents...">
<polygon fill="none" stroke="black" points="191,-98.5 191,-128.5 346,-128.5 346,-98.5 191,-98.5"/>
<text text-anchor="start" x="199" y="-116.5" font-family="Helvetica,sans-Serif" font-size="10.00">flatbuffers::FlatBufferBuilder</text>
<text text-anchor="middle" x="268.5" y="-105.5" font-family="Helvetica,sans-Serif" font-size="10.00">::CreateSharedString</text>
</a>
</g>
</g>
<!-- Node1&#45;&gt;Node2 -->
<g id="edge1" class="edge">
<title>Node1&#45;&gt;Node2</title>
<path fill="none" stroke="midnightblue" d="M390.81,-82.05C370.05,-87.43 347.42,-93.3 327.38,-98.49"/>
<polygon fill="midnightblue" stroke="midnightblue" points="391.71,-85.43 400.51,-79.53 389.95,-78.66 391.71,-85.43"/>
</g>
<!-- Node4 -->
<g id="node4" class="node">
<title>Node4</title>
<g id="a_node4"><a xlink:href="classflatbuffers_1_1_flat_buffer_builder.html#aad93d113ac24e86ed04b5236b3f4c0c5" target="_top" xlink:title="Store a string in the buffer, which is null&#45;terminated.">
<polygon fill="none" stroke="black" points="191,-49.5 191,-79.5 346,-79.5 346,-49.5 191,-49.5"/>
<text text-anchor="start" x="199" y="-67.5" font-family="Helvetica,sans-Serif" font-size="10.00">flatbuffers::FlatBufferBuilder</text>
<text text-anchor="middle" x="268.5" y="-56.5" font-family="Helvetica,sans-Serif" font-size="10.00">::CreateString</text>
</a>
</g>
</g>
<!-- Node1&#45;&gt;Node4 -->
<g id="edge3" class="edge">
<title>Node1&#45;&gt;Node4</title>
<path fill="none" stroke="midnightblue" d="M371.9,-64.5C363.33,-64.5 354.67,-64.5 346.21,-64.5"/>
<polygon fill="midnightblue" stroke="midnightblue" points="371.9,-68 381.9,-64.5 371.9,-61 371.9,-68"/>
</g>
<!-- Node5 -->
<g id="node5" class="node">
<title>Node5</title>
<g id="a_node5"><a xlink:href="classflatbuffers_1_1_flat_buffer_builder.html#a592110519a6c8db1926f1365bf2a58e6" target="_top" xlink:title="Serialize a std::vector&lt;std::string&gt; into a FlatBuffer vector. This is a convenience function for a c...">
<polygon fill="none" stroke="black" points="191,-0.5 191,-30.5 346,-30.5 346,-0.5 191,-0.5"/>
<text text-anchor="start" x="199" y="-18.5" font-family="Helvetica,sans-Serif" font-size="10.00">flatbuffers::FlatBufferBuilder</text>
<text text-anchor="middle" x="268.5" y="-7.5" font-family="Helvetica,sans-Serif" font-size="10.00">::CreateVectorOfStrings</text>
</a>
</g>
</g>
<!-- Node1&#45;&gt;Node5 -->
<g id="edge4" class="edge">
<title>Node1&#45;&gt;Node5</title>
<path fill="none" stroke="midnightblue" d="M390.81,-46.95C370.05,-41.57 347.42,-35.7 327.38,-30.51"/>
<polygon fill="midnightblue" stroke="midnightblue" points="389.95,-50.34 400.51,-49.47 391.71,-43.57 389.95,-50.34"/>
</g>
<!-- Node3 -->
<g id="node3" class="node">
<title>Node3</title>
<g id="a_node3"><a xlink:href="classflatbuffers_1_1_flat_buffer_builder.html#a3eb68613e5883dc4b8fff6cf7d1223d7" target="_top" xlink:title="Store a string in the buffer, which null&#45;terminated. If a string with this exact contents has already...">
<polygon fill="none" stroke="black" points="0,-98.5 0,-128.5 155,-128.5 155,-98.5 0,-98.5"/>
<text text-anchor="start" x="8" y="-116.5" font-family="Helvetica,sans-Serif" font-size="10.00">flatbuffers::FlatBufferBuilder</text>
<text text-anchor="middle" x="77.5" y="-105.5" font-family="Helvetica,sans-Serif" font-size="10.00">::CreateSharedString</text>
</a>
</g>
</g>
<!-- Node2&#45;&gt;Node3 -->
<g id="edge2" class="edge">
<title>Node2&#45;&gt;Node3</title>
<path fill="none" stroke="midnightblue" d="M180.9,-113.5C172.33,-113.5 163.67,-113.5 155.21,-113.5"/>
<polygon fill="midnightblue" stroke="midnightblue" points="180.9,-117 190.9,-113.5 180.9,-110 180.9,-117"/>
</g>
</g>
</svg>
