<?xml version="1.0" encoding="UTF-8" standalone="no"?>
<!DOCTYPE svg PUBLIC "-//W3C//DTD SVG 1.1//EN"
 "http://www.w3.org/Graphics/SVG/1.1/DTD/svg11.dtd">
<!-- Generated by graphviz version 2.43.0 (0)
 -->
<!-- Title: flexbuffers::Sized Pages: 1 -->
<svg width="558pt" height="733pt"
 viewBox="0.00 0.00 557.50 733.00" xmlns="http://www.w3.org/2000/svg" xmlns:xlink="http://www.w3.org/1999/xlink">
<g id="graph0" class="graph" transform="scale(1 1) rotate(0) translate(4 729)">
<title>flexbuffers::Sized</title>
<!-- Node1 -->
<g id="node1" class="node">
<title>Node1</title>
<g id="a_node1"><a xlink:title=" ">
<polygon fill="#bfbfbf" stroke="black" points="217,-474.5 217,-608.5 318,-608.5 318,-474.5 217,-474.5"/>
<text text-anchor="middle" x="267.5" y="-596.5" font-family="Helvetica,sans-Serif" font-size="10.00">flexbuffers::Sized</text>
<polyline fill="none" stroke="black" points="217,-589.5 318,-589.5 "/>
<text text-anchor="start" x="225" y="-577.5" font-family="Helvetica,sans-Serif" font-size="10.00"># size_</text>
<polyline fill="none" stroke="black" points="217,-570.5 318,-570.5 "/>
<text text-anchor="start" x="225" y="-558.5" font-family="Helvetica,sans-Serif" font-size="10.00">+ Sized()</text>
<text text-anchor="start" x="225" y="-547.5" font-family="Helvetica,sans-Serif" font-size="10.00">+ Sized()</text>
<text text-anchor="start" x="225" y="-536.5" font-family="Helvetica,sans-Serif" font-size="10.00">+ size()</text>
<text text-anchor="start" x="225" y="-525.5" font-family="Helvetica,sans-Serif" font-size="10.00">+ read_size()</text>
<text text-anchor="start" x="225" y="-514.5" font-family="Helvetica,sans-Serif" font-size="10.00">+ Sized()</text>
<text text-anchor="start" x="225" y="-503.5" font-family="Helvetica,sans-Serif" font-size="10.00">+ Sized()</text>
<text text-anchor="start" x="225" y="-492.5" font-family="Helvetica,sans-Serif" font-size="10.00">+ size()</text>
<text text-anchor="start" x="225" y="-481.5" font-family="Helvetica,sans-Serif" font-size="10.00">+ read_size()</text>
</a>
</g>
</g>
<!-- Node3 -->
<g id="node3" class="node">
<title>Node3</title>
<g id="a_node3"><a xlink:href="classflexbuffers_1_1_blob.html" target="_top" xlink:title=" ">
<polygon fill="none" stroke="black" points="0,-270.5 0,-404.5 115,-404.5 115,-270.5 0,-270.5"/>
<text text-anchor="middle" x="57.5" y="-392.5" font-family="Helvetica,sans-Serif" font-size="10.00">flexbuffers::Blob</text>
<polyline fill="none" stroke="black" points="0,-385.5 115,-385.5 "/>
<text text-anchor="middle" x="57.5" y="-373.5" font-family="Helvetica,sans-Serif" font-size="10.00"> </text>
<polyline fill="none" stroke="black" points="0,-366.5 115,-366.5 "/>
<text text-anchor="start" x="8" y="-354.5" font-family="Helvetica,sans-Serif" font-size="10.00">+ Blob()</text>
<text text-anchor="start" x="8" y="-343.5" font-family="Helvetica,sans-Serif" font-size="10.00">+ IsTheEmptyBlob()</text>
<text text-anchor="start" x="8" y="-332.5" font-family="Helvetica,sans-Serif" font-size="10.00">+ data()</text>
<text text-anchor="start" x="8" y="-321.5" font-family="Helvetica,sans-Serif" font-size="10.00">+ Blob()</text>
<text text-anchor="start" x="8" y="-310.5" font-family="Helvetica,sans-Serif" font-size="10.00">+ IsTheEmptyBlob()</text>
<text text-anchor="start" x="8" y="-299.5" font-family="Helvetica,sans-Serif" font-size="10.00">+ data()</text>
<text text-anchor="start" x="8" y="-288.5" font-family="Helvetica,sans-Serif" font-size="10.00">+ EmptyBlob()</text>
<text text-anchor="start" x="8" y="-277.5" font-family="Helvetica,sans-Serif" font-size="10.00">+ EmptyBlob()</text>
</a>
</g>
</g>
<!-- Node1&#45;&gt;Node3 -->
<g id="edge2" class="edge">
<title>Node1&#45;&gt;Node3</title>
<path fill="none" stroke="midnightblue" d="M208.09,-504.85C180.83,-486.83 149.17,-463.41 124.5,-438 114.78,-427.99 105.56,-416.4 97.24,-404.75"/>
<polygon fill="none" stroke="midnightblue" points="206.48,-507.98 216.77,-510.5 210.3,-502.11 206.48,-507.98"/>
</g>
<!-- Node4 -->
<g id="node4" class="node">
<title>Node4</title>
<g id="a_node4"><a xlink:href="classflexbuffers_1_1_string.html" target="_top" xlink:title=" ">
<polygon fill="none" stroke="black" points="133.5,-237.5 133.5,-437.5 255.5,-437.5 255.5,-237.5 133.5,-237.5"/>
<text text-anchor="middle" x="194.5" y="-425.5" font-family="Helvetica,sans-Serif" font-size="10.00">flexbuffers::String</text>
<polyline fill="none" stroke="black" points="133.5,-418.5 255.5,-418.5 "/>
<text text-anchor="middle" x="194.5" y="-406.5" font-family="Helvetica,sans-Serif" font-size="10.00"> </text>
<polyline fill="none" stroke="black" points="133.5,-399.5 255.5,-399.5 "/>
<text text-anchor="start" x="141.5" y="-387.5" font-family="Helvetica,sans-Serif" font-size="10.00">+ String()</text>
<text text-anchor="start" x="141.5" y="-376.5" font-family="Helvetica,sans-Serif" font-size="10.00">+ String()</text>
<text text-anchor="start" x="141.5" y="-365.5" font-family="Helvetica,sans-Serif" font-size="10.00">+ length()</text>
<text text-anchor="start" x="141.5" y="-354.5" font-family="Helvetica,sans-Serif" font-size="10.00">+ c_str()</text>
<text text-anchor="start" x="141.5" y="-343.5" font-family="Helvetica,sans-Serif" font-size="10.00">+ str()</text>
<text text-anchor="start" x="141.5" y="-332.5" font-family="Helvetica,sans-Serif" font-size="10.00">+ IsTheEmptyString()</text>
<text text-anchor="start" x="141.5" y="-321.5" font-family="Helvetica,sans-Serif" font-size="10.00">+ String()</text>
<text text-anchor="start" x="141.5" y="-310.5" font-family="Helvetica,sans-Serif" font-size="10.00">+ String()</text>
<text text-anchor="start" x="141.5" y="-299.5" font-family="Helvetica,sans-Serif" font-size="10.00">+ length()</text>
<text text-anchor="start" x="141.5" y="-288.5" font-family="Helvetica,sans-Serif" font-size="10.00">+ c_str()</text>
<text text-anchor="start" x="141.5" y="-277.5" font-family="Helvetica,sans-Serif" font-size="10.00">+ str()</text>
<text text-anchor="start" x="141.5" y="-266.5" font-family="Helvetica,sans-Serif" font-size="10.00">+ IsTheEmptyString()</text>
<text text-anchor="start" x="141.5" y="-255.5" font-family="Helvetica,sans-Serif" font-size="10.00">+ EmptyString()</text>
<text text-anchor="start" x="141.5" y="-244.5" font-family="Helvetica,sans-Serif" font-size="10.00">+ EmptyString()</text>
</a>
</g>
</g>
<!-- Node1&#45;&gt;Node4 -->
<g id="edge3" class="edge">
<title>Node1&#45;&gt;Node4</title>
<path fill="none" stroke="midnightblue" d="M240.17,-464.87C236.97,-456.01 233.66,-446.87 230.37,-437.75"/>
<polygon fill="none" stroke="midnightblue" points="236.91,-466.14 243.6,-474.36 243.49,-463.76 236.91,-466.14"/>
</g>
<!-- Node5 -->
<g id="node5" class="node">
<title>Node5</title>
<g id="a_node5"><a xlink:href="classflexbuffers_1_1_typed_vector.html" target="_top" xlink:title=" ">
<polygon fill="none" stroke="black" points="273.5,-259.5 273.5,-415.5 407.5,-415.5 407.5,-259.5 273.5,-259.5"/>
<text text-anchor="middle" x="340.5" y="-403.5" font-family="Helvetica,sans-Serif" font-size="10.00">flexbuffers::TypedVector</text>
<polyline fill="none" stroke="black" points="273.5,-396.5 407.5,-396.5 "/>
<text text-anchor="start" x="281.5" y="-384.5" font-family="Helvetica,sans-Serif" font-size="10.00">+ Reference</text>
<polyline fill="none" stroke="black" points="273.5,-377.5 407.5,-377.5 "/>
<text text-anchor="start" x="281.5" y="-365.5" font-family="Helvetica,sans-Serif" font-size="10.00">+ TypedVector()</text>
<text text-anchor="start" x="281.5" y="-354.5" font-family="Helvetica,sans-Serif" font-size="10.00">+ operator[]()</text>
<text text-anchor="start" x="281.5" y="-343.5" font-family="Helvetica,sans-Serif" font-size="10.00">+ IsTheEmptyVector()</text>
<text text-anchor="start" x="281.5" y="-332.5" font-family="Helvetica,sans-Serif" font-size="10.00">+ ElementType()</text>
<text text-anchor="start" x="281.5" y="-321.5" font-family="Helvetica,sans-Serif" font-size="10.00">+ TypedVector()</text>
<text text-anchor="start" x="281.5" y="-310.5" font-family="Helvetica,sans-Serif" font-size="10.00">+ operator[]()</text>
<text text-anchor="start" x="281.5" y="-299.5" font-family="Helvetica,sans-Serif" font-size="10.00">+ IsTheEmptyVector()</text>
<text text-anchor="start" x="281.5" y="-288.5" font-family="Helvetica,sans-Serif" font-size="10.00">+ ElementType()</text>
<text text-anchor="start" x="281.5" y="-277.5" font-family="Helvetica,sans-Serif" font-size="10.00">+ EmptyTypedVector()</text>
<text text-anchor="start" x="281.5" y="-266.5" font-family="Helvetica,sans-Serif" font-size="10.00">+ EmptyTypedVector()</text>
</a>
</g>
</g>
<!-- Node1&#45;&gt;Node5 -->
<g id="edge4" class="edge">
<title>Node1&#45;&gt;Node5</title>
<path fill="none" stroke="midnightblue" d="M294.95,-464.54C300.72,-448.56 306.82,-431.69 312.61,-415.67"/>
<polygon fill="none" stroke="midnightblue" points="291.51,-463.76 291.4,-474.36 298.09,-466.14 291.51,-463.76"/>
</g>
<!-- Node6 -->
<g id="node6" class="node">
<title>Node6</title>
<g id="a_node6"><a xlink:href="classflexbuffers_1_1_vector.html" target="_top" xlink:title=" ">
<polygon fill="none" stroke="black" points="425.5,-270.5 425.5,-404.5 549.5,-404.5 549.5,-270.5 425.5,-270.5"/>
<text text-anchor="middle" x="487.5" y="-392.5" font-family="Helvetica,sans-Serif" font-size="10.00">flexbuffers::Vector</text>
<polyline fill="none" stroke="black" points="425.5,-385.5 549.5,-385.5 "/>
<text text-anchor="middle" x="487.5" y="-373.5" font-family="Helvetica,sans-Serif" font-size="10.00"> </text>
<polyline fill="none" stroke="black" points="425.5,-366.5 549.5,-366.5 "/>
<text text-anchor="start" x="433.5" y="-354.5" font-family="Helvetica,sans-Serif" font-size="10.00">+ Vector()</text>
<text text-anchor="start" x="433.5" y="-343.5" font-family="Helvetica,sans-Serif" font-size="10.00">+ operator[]()</text>
<text text-anchor="start" x="433.5" y="-332.5" font-family="Helvetica,sans-Serif" font-size="10.00">+ IsTheEmptyVector()</text>
<text text-anchor="start" x="433.5" y="-321.5" font-family="Helvetica,sans-Serif" font-size="10.00">+ Vector()</text>
<text text-anchor="start" x="433.5" y="-310.5" font-family="Helvetica,sans-Serif" font-size="10.00">+ operator[]()</text>
<text text-anchor="start" x="433.5" y="-299.5" font-family="Helvetica,sans-Serif" font-size="10.00">+ IsTheEmptyVector()</text>
<text text-anchor="start" x="433.5" y="-288.5" font-family="Helvetica,sans-Serif" font-size="10.00">+ EmptyVector()</text>
<text text-anchor="start" x="433.5" y="-277.5" font-family="Helvetica,sans-Serif" font-size="10.00">+ EmptyVector()</text>
</a>
</g>
</g>
<!-- Node1&#45;&gt;Node6 -->
<g id="edge5" class="edge">
<title>Node1&#45;&gt;Node6</title>
<path fill="none" stroke="midnightblue" d="M326.83,-506.44C355.69,-488.25 389.82,-464.23 416.5,-438 426.72,-427.96 436.48,-416.3 445.32,-404.56"/>
<polygon fill="none" stroke="midnightblue" points="324.7,-503.64 318.05,-511.89 328.39,-509.58 324.7,-503.64"/>
</g>
<!-- Node2 -->
<g id="node2" class="node">
<title>Node2</title>
<g id="a_node2"><a xlink:href="classflexbuffers_1_1_object.html" target="_top" xlink:title=" ">
<polygon fill="none" stroke="black" points="214.5,-645.5 214.5,-724.5 320.5,-724.5 320.5,-645.5 214.5,-645.5"/>
<text text-anchor="middle" x="267.5" y="-712.5" font-family="Helvetica,sans-Serif" font-size="10.00">flexbuffers::Object</text>
<polyline fill="none" stroke="black" points="214.5,-705.5 320.5,-705.5 "/>
<text text-anchor="start" x="222.5" y="-693.5" font-family="Helvetica,sans-Serif" font-size="10.00"># data_</text>
<text text-anchor="start" x="222.5" y="-682.5" font-family="Helvetica,sans-Serif" font-size="10.00"># byte_width_</text>
<polyline fill="none" stroke="black" points="214.5,-675.5 320.5,-675.5 "/>
<text text-anchor="start" x="222.5" y="-663.5" font-family="Helvetica,sans-Serif" font-size="10.00">+ Object()</text>
<text text-anchor="start" x="222.5" y="-652.5" font-family="Helvetica,sans-Serif" font-size="10.00">+ Object()</text>
</a>
</g>
</g>
<!-- Node2&#45;&gt;Node1 -->
<g id="edge1" class="edge">
<title>Node2&#45;&gt;Node1</title>
<path fill="none" stroke="midnightblue" d="M267.5,-635.16C267.5,-626.59 267.5,-617.55 267.5,-608.6"/>
<polygon fill="none" stroke="midnightblue" points="264,-635.33 267.5,-645.33 271,-635.33 264,-635.33"/>
</g>
<!-- Node7 -->
<g id="node7" class="node">
<title>Node7</title>
<g id="a_node7"><a xlink:href="classflexbuffers_1_1_map.html" target="_top" xlink:title=" ">
<polygon fill="none" stroke="black" points="430.5,-0.5 430.5,-200.5 544.5,-200.5 544.5,-0.5 430.5,-0.5"/>
<text text-anchor="middle" x="487.5" y="-188.5" font-family="Helvetica,sans-Serif" font-size="10.00">flexbuffers::Map</text>
<polyline fill="none" stroke="black" points="430.5,-181.5 544.5,-181.5 "/>
<text text-anchor="middle" x="487.5" y="-169.5" font-family="Helvetica,sans-Serif" font-size="10.00"> </text>
<polyline fill="none" stroke="black" points="430.5,-162.5 544.5,-162.5 "/>
<text text-anchor="start" x="438.5" y="-150.5" font-family="Helvetica,sans-Serif" font-size="10.00">+ Map()</text>
<text text-anchor="start" x="438.5" y="-139.5" font-family="Helvetica,sans-Serif" font-size="10.00">+ operator[]()</text>
<text text-anchor="start" x="438.5" y="-128.5" font-family="Helvetica,sans-Serif" font-size="10.00">+ operator[]()</text>
<text text-anchor="start" x="438.5" y="-117.5" font-family="Helvetica,sans-Serif" font-size="10.00">+ Values()</text>
<text text-anchor="start" x="438.5" y="-106.5" font-family="Helvetica,sans-Serif" font-size="10.00">+ Keys()</text>
<text text-anchor="start" x="438.5" y="-95.5" font-family="Helvetica,sans-Serif" font-size="10.00">+ IsTheEmptyMap()</text>
<text text-anchor="start" x="438.5" y="-84.5" font-family="Helvetica,sans-Serif" font-size="10.00">+ Map()</text>
<text text-anchor="start" x="438.5" y="-73.5" font-family="Helvetica,sans-Serif" font-size="10.00">+ operator[]()</text>
<text text-anchor="start" x="438.5" y="-62.5" font-family="Helvetica,sans-Serif" font-size="10.00">+ operator[]()</text>
<text text-anchor="start" x="438.5" y="-51.5" font-family="Helvetica,sans-Serif" font-size="10.00">+ Values()</text>
<text text-anchor="start" x="438.5" y="-40.5" font-family="Helvetica,sans-Serif" font-size="10.00">+ Keys()</text>
<text text-anchor="start" x="438.5" y="-29.5" font-family="Helvetica,sans-Serif" font-size="10.00">+ IsTheEmptyMap()</text>
<text text-anchor="start" x="438.5" y="-18.5" font-family="Helvetica,sans-Serif" font-size="10.00">+ EmptyMap()</text>
<text text-anchor="start" x="438.5" y="-7.5" font-family="Helvetica,sans-Serif" font-size="10.00">+ EmptyMap()</text>
</a>
</g>
</g>
<!-- Node6&#45;&gt;Node7 -->
<g id="edge6" class="edge">
<title>Node6&#45;&gt;Node7</title>
<path fill="none" stroke="midnightblue" d="M487.5,-260.36C487.5,-241.4 487.5,-220.78 487.5,-200.88"/>
<polygon fill="none" stroke="midnightblue" points="484,-260.41 487.5,-270.41 491,-260.41 484,-260.41"/>
</g>
</g>
</svg>
