<?xml version="1.0" encoding="UTF-8" standalone="no"?>
<!DOCTYPE svg PUBLIC "-//W3C//DTD SVG 1.1//EN"
 "http://www.w3.org/Graphics/SVG/1.1/DTD/svg11.dtd">
<!-- Generated by graphviz version 2.43.0 (0)
 -->
<!-- Title: TensorProcessor Pages: 1 -->
<svg width="644pt" height="1014pt"
 viewBox="0.00 0.00 643.50 1014.00" xmlns="http://www.w3.org/2000/svg" xmlns:xlink="http://www.w3.org/1999/xlink">
<g id="graph0" class="graph" transform="scale(1 1) rotate(0) translate(4 1010)">
<title>TensorProcessor</title>
<!-- Node1 -->
<g id="node1" class="node">
<title>Node1</title>
<g id="a_node1"><a xlink:title=" ">
<polygon fill="#bfbfbf" stroke="black" points="302,-116.5 302,-371.5 436,-371.5 436,-116.5 302,-116.5"/>
<text text-anchor="middle" x="369" y="-359.5" font-family="Helvetica,sans-Serif" font-size="10.00">TensorProcessor</text>
<polyline fill="none" stroke="black" points="302,-352.5 436,-352.5 "/>
<text text-anchor="start" x="310" y="-340.5" font-family="Helvetica,sans-Serif" font-size="10.00"># status_</text>
<polyline fill="none" stroke="black" points="302,-333.5 436,-333.5 "/>
<text text-anchor="start" x="310" y="-321.5" font-family="Helvetica,sans-Serif" font-size="10.00">+ TensorProcessor()</text>
<text text-anchor="start" x="310" y="-310.5" font-family="Helvetica,sans-Serif" font-size="10.00">+ ~TensorProcessor()</text>
<text text-anchor="start" x="310" y="-299.5" font-family="Helvetica,sans-Serif" font-size="10.00">+ initialize()</text>
<text text-anchor="start" x="310" y="-288.5" font-family="Helvetica,sans-Serif" font-size="10.00">+ createTask()</text>
<text text-anchor="start" x="310" y="-277.5" font-family="Helvetica,sans-Serif" font-size="10.00">+ createTask()</text>
<text text-anchor="start" x="310" y="-266.5" font-family="Helvetica,sans-Serif" font-size="10.00">+ createTask()</text>
<text text-anchor="start" x="310" y="-255.5" font-family="Helvetica,sans-Serif" font-size="10.00">+ createTask()</text>
<text text-anchor="start" x="310" y="-244.5" font-family="Helvetica,sans-Serif" font-size="10.00">+ execute()</text>
<text text-anchor="start" x="310" y="-233.5" font-family="Helvetica,sans-Serif" font-size="10.00">+ getStatus()</text>
<text text-anchor="start" x="310" y="-222.5" font-family="Helvetica,sans-Serif" font-size="10.00">+ setExecutionFlags()</text>
<text text-anchor="start" x="310" y="-211.5" font-family="Helvetica,sans-Serif" font-size="10.00">+ getExecutionFlags()</text>
<text text-anchor="start" x="310" y="-200.5" font-family="Helvetica,sans-Serif" font-size="10.00">+ isValid()</text>
<text text-anchor="start" x="310" y="-189.5" font-family="Helvetica,sans-Serif" font-size="10.00">+ instatiateProcessors()</text>
<text text-anchor="start" x="310" y="-178.5" font-family="Helvetica,sans-Serif" font-size="10.00">+ getSingletonTPArray()</text>
<text text-anchor="start" x="310" y="-167.5" font-family="Helvetica,sans-Serif" font-size="10.00"># createTask()</text>
<text text-anchor="start" x="310" y="-156.5" font-family="Helvetica,sans-Serif" font-size="10.00"># createTask()</text>
<text text-anchor="start" x="310" y="-145.5" font-family="Helvetica,sans-Serif" font-size="10.00"># onDone_ip()</text>
<text text-anchor="start" x="310" y="-134.5" font-family="Helvetica,sans-Serif" font-size="10.00"># onDone_dmaTx()</text>
<text text-anchor="start" x="310" y="-123.5" font-family="Helvetica,sans-Serif" font-size="10.00"># onDone_dmaRx()</text>
</a>
</g>
</g>
<!-- Node8 -->
<g id="node8" class="node">
<title>Node8</title>
<g id="a_node8"><a xlink:href="struct_tensor_processor_1_1_processor_array.html" target="_top" xlink:title=" ">
<polygon fill="none" stroke="black" points="294.5,-0.5 294.5,-68.5 443.5,-68.5 443.5,-0.5 294.5,-0.5"/>
<text text-anchor="start" x="302.5" y="-56.5" font-family="Helvetica,sans-Serif" font-size="10.00">TensorProcessor::Processor</text>
<text text-anchor="middle" x="369" y="-45.5" font-family="Helvetica,sans-Serif" font-size="10.00">Array</text>
<polyline fill="none" stroke="black" points="294.5,-38.5 443.5,-38.5 "/>
<text text-anchor="start" x="302.5" y="-26.5" font-family="Helvetica,sans-Serif" font-size="10.00">+ len</text>
<polyline fill="none" stroke="black" points="294.5,-19.5 443.5,-19.5 "/>
<text text-anchor="middle" x="369" y="-7.5" font-family="Helvetica,sans-Serif" font-size="10.00"> </text>
</a>
</g>
</g>
<!-- Node1&#45;&gt;Node8 -->
<g id="edge8" class="edge">
<title>Node1&#45;&gt;Node8</title>
<path fill="none" stroke="#404040" d="M340.45,-116.29C340.72,-106.35 341.82,-96.49 344,-87 344.53,-84.71 345.17,-82.41 345.9,-80.11"/>
<polygon fill="none" stroke="#404040" points="345.94,-80 344.32,-72.97 350.19,-68.77 351.81,-75.8 345.94,-80"/>
<text text-anchor="middle" x="355" y="-90" font-family="Helvetica,sans-Serif" font-size="10.00"> +tp</text>
</g>
<!-- Node2 -->
<g id="node2" class="node">
<title>Node2</title>
<g id="a_node2"><a xlink:href="class_processing_unit.html" target="_top" xlink:title=" ">
<polygon fill="none" stroke="black" points="230.5,-419.5 230.5,-586.5 363.5,-586.5 363.5,-419.5 230.5,-419.5"/>
<text text-anchor="middle" x="297" y="-574.5" font-family="Helvetica,sans-Serif" font-size="10.00">ProcessingUnit</text>
<polyline fill="none" stroke="black" points="230.5,-567.5 363.5,-567.5 "/>
<text text-anchor="middle" x="297" y="-555.5" font-family="Helvetica,sans-Serif" font-size="10.00"> </text>
<polyline fill="none" stroke="black" points="230.5,-548.5 363.5,-548.5 "/>
<text text-anchor="start" x="238.5" y="-536.5" font-family="Helvetica,sans-Serif" font-size="10.00">+ ProcessingUnit()</text>
<text text-anchor="start" x="238.5" y="-525.5" font-family="Helvetica,sans-Serif" font-size="10.00">+ ~ProcessingUnit()</text>
<text text-anchor="start" x="238.5" y="-514.5" font-family="Helvetica,sans-Serif" font-size="10.00">+ initialize()</text>
<text text-anchor="start" x="238.5" y="-503.5" font-family="Helvetica,sans-Serif" font-size="10.00">+ execute()</text>
<text text-anchor="start" x="238.5" y="-492.5" font-family="Helvetica,sans-Serif" font-size="10.00">+ setTransactionFlags()</text>
<text text-anchor="start" x="238.5" y="-481.5" font-family="Helvetica,sans-Serif" font-size="10.00">+ getTransactionFlags()</text>
<text text-anchor="start" x="238.5" y="-470.5" font-family="Helvetica,sans-Serif" font-size="10.00"># initialize_ip()</text>
<text text-anchor="start" x="238.5" y="-459.5" font-family="Helvetica,sans-Serif" font-size="10.00"># initialize_dma()</text>
<text text-anchor="start" x="238.5" y="-448.5" font-family="Helvetica,sans-Serif" font-size="10.00"># onDone_ip()</text>
<text text-anchor="start" x="238.5" y="-437.5" font-family="Helvetica,sans-Serif" font-size="10.00"># onDone_dmaTx()</text>
<text text-anchor="start" x="238.5" y="-426.5" font-family="Helvetica,sans-Serif" font-size="10.00"># onDone_dmaRx()</text>
</a>
</g>
</g>
<!-- Node2&#45;&gt;Node1 -->
<g id="edge1" class="edge">
<title>Node2&#45;&gt;Node1</title>
<path fill="none" stroke="darkgreen" d="M322.92,-409.49C326.37,-397.15 329.96,-384.34 333.55,-371.55"/>
<polygon fill="none" stroke="darkgreen" points="319.51,-408.7 320.18,-419.27 326.25,-410.58 319.51,-408.7"/>
</g>
<!-- Node3 -->
<g id="node3" class="node">
<title>Node3</title>
<g id="a_node3"><a xlink:href="struct_processing_unit_1_1_transaction.html" target="_top" xlink:title=" ">
<polygon fill="none" stroke="black" points="286.5,-656.5 286.5,-768.5 437.5,-768.5 437.5,-656.5 286.5,-656.5"/>
<text text-anchor="middle" x="362" y="-756.5" font-family="Helvetica,sans-Serif" font-size="10.00">ProcessingUnit::Transaction</text>
<polyline fill="none" stroke="black" points="286.5,-749.5 437.5,-749.5 "/>
<text text-anchor="start" x="294.5" y="-737.5" font-family="Helvetica,sans-Serif" font-size="10.00">+ mode</text>
<text text-anchor="start" x="294.5" y="-726.5" font-family="Helvetica,sans-Serif" font-size="10.00">+ flags</text>
<text text-anchor="start" x="294.5" y="-715.5" font-family="Helvetica,sans-Serif" font-size="10.00">+ txBufferPtr</text>
<text text-anchor="start" x="294.5" y="-704.5" font-family="Helvetica,sans-Serif" font-size="10.00">+ txBufferSize</text>
<text text-anchor="start" x="294.5" y="-693.5" font-family="Helvetica,sans-Serif" font-size="10.00">+ rxBufferPtr</text>
<text text-anchor="start" x="294.5" y="-682.5" font-family="Helvetica,sans-Serif" font-size="10.00">+ rxBufferSize</text>
<polyline fill="none" stroke="black" points="286.5,-675.5 437.5,-675.5 "/>
<text text-anchor="middle" x="362" y="-663.5" font-family="Helvetica,sans-Serif" font-size="10.00"> </text>
</a>
</g>
</g>
<!-- Node3&#45;&gt;Node2 -->
<g id="edge2" class="edge">
<title>Node3&#45;&gt;Node2</title>
<path fill="none" stroke="#404040" d="M337.62,-656.05C333.81,-646.45 330.11,-636.51 327,-627 323.99,-617.79 321.13,-608.11 318.45,-598.38"/>
<polygon fill="none" stroke="#404040" points="318.38,-598.13 312.97,-593.36 315.28,-586.53 320.69,-591.3 318.38,-598.13"/>
<text text-anchor="middle" x="363" y="-613.5" font-family="Helvetica,sans-Serif" font-size="10.00"> #transaction_</text>
</g>
<!-- Node9 -->
<g id="node9" class="node">
<title>Node9</title>
<g id="a_node9"><a xlink:href="struct_tensor_processor_1_1_task.html" target="_top" xlink:title=" ">
<polygon fill="none" stroke="black" points="381.5,-474.5 381.5,-531.5 504.5,-531.5 504.5,-474.5 381.5,-474.5"/>
<text text-anchor="middle" x="443" y="-519.5" font-family="Helvetica,sans-Serif" font-size="10.00">TensorProcessor::Task</text>
<polyline fill="none" stroke="black" points="381.5,-512.5 504.5,-512.5 "/>
<text text-anchor="middle" x="443" y="-500.5" font-family="Helvetica,sans-Serif" font-size="10.00"> </text>
<polyline fill="none" stroke="black" points="381.5,-493.5 504.5,-493.5 "/>
<text text-anchor="middle" x="443" y="-481.5" font-family="Helvetica,sans-Serif" font-size="10.00"> </text>
</a>
</g>
</g>
<!-- Node3&#45;&gt;Node9 -->
<g id="edge10" class="edge">
<title>Node3&#45;&gt;Node9</title>
<path fill="none" stroke="#404040" d="M386.83,-656.28C391.01,-646.57 395.22,-636.53 399,-627 410.03,-599.23 421.36,-567.47 429.76,-543.18"/>
<polygon fill="none" stroke="#404040" points="429.85,-542.91 428.02,-535.94 433.75,-531.56 435.59,-538.53 429.85,-542.91"/>
<text text-anchor="middle" x="433.5" y="-619" font-family="Helvetica,sans-Serif" font-size="10.00"> +compute</text>
<text text-anchor="middle" x="433.5" y="-608" font-family="Helvetica,sans-Serif" font-size="10.00">+setup</text>
</g>
<!-- Node4 -->
<g id="node4" class="node">
<title>Node4</title>
<g id="a_node4"><a xlink:href="struct_processing_unit_1_1_profile.html" target="_top" xlink:title=" ">
<polygon fill="none" stroke="black" points="142,-645.5 142,-779.5 268,-779.5 268,-645.5 142,-645.5"/>
<text text-anchor="middle" x="205" y="-767.5" font-family="Helvetica,sans-Serif" font-size="10.00">ProcessingUnit::Profile</text>
<polyline fill="none" stroke="black" points="142,-760.5 268,-760.5 "/>
<text text-anchor="start" x="150" y="-748.5" font-family="Helvetica,sans-Serif" font-size="10.00">+ hwInstance</text>
<text text-anchor="start" x="150" y="-737.5" font-family="Helvetica,sans-Serif" font-size="10.00">+ dmaInstance</text>
<text text-anchor="start" x="150" y="-726.5" font-family="Helvetica,sans-Serif" font-size="10.00">+ hwDeviceID</text>
<text text-anchor="start" x="150" y="-715.5" font-family="Helvetica,sans-Serif" font-size="10.00">+ dmaDeviceID</text>
<text text-anchor="start" x="150" y="-704.5" font-family="Helvetica,sans-Serif" font-size="10.00">+ hwIntVecID</text>
<text text-anchor="start" x="150" y="-693.5" font-family="Helvetica,sans-Serif" font-size="10.00">+ dmaTxIntVecID</text>
<text text-anchor="start" x="150" y="-682.5" font-family="Helvetica,sans-Serif" font-size="10.00">+ dmaRxIntVecID</text>
<text text-anchor="start" x="150" y="-671.5" font-family="Helvetica,sans-Serif" font-size="10.00">+ channelSize</text>
<polyline fill="none" stroke="black" points="142,-664.5 268,-664.5 "/>
<text text-anchor="middle" x="205" y="-652.5" font-family="Helvetica,sans-Serif" font-size="10.00"> </text>
</a>
</g>
</g>
<!-- Node4&#45;&gt;Node2 -->
<g id="edge3" class="edge">
<title>Node4&#45;&gt;Node2</title>
<path fill="none" stroke="#404040" d="M234.36,-645.28C241.07,-630.15 248.32,-613.79 255.44,-597.75"/>
<polygon fill="none" stroke="#404040" points="255.46,-597.68 254.24,-590.58 260.33,-586.71 261.55,-593.82 255.46,-597.68"/>
<text text-anchor="middle" x="275" y="-613.5" font-family="Helvetica,sans-Serif" font-size="10.00"> #profile_</text>
</g>
<!-- Node5 -->
<g id="node5" class="node">
<title>Node5</title>
<g id="a_node5"><a xlink:href="struct_d_m_a_hardware_vtbl.html" target="_top" xlink:title=" ">
<polygon fill="none" stroke="black" points="0,-827.5 0,-1005.5 126,-1005.5 126,-827.5 0,-827.5"/>
<text text-anchor="middle" x="63" y="-993.5" font-family="Helvetica,sans-Serif" font-size="10.00">DMAHardwareVtbl</text>
<polyline fill="none" stroke="black" points="0,-986.5 126,-986.5 "/>
<text text-anchor="start" x="8" y="-974.5" font-family="Helvetica,sans-Serif" font-size="10.00">+ new_</text>
<text text-anchor="start" x="8" y="-963.5" font-family="Helvetica,sans-Serif" font-size="10.00">+ delete_</text>
<text text-anchor="start" x="8" y="-952.5" font-family="Helvetica,sans-Serif" font-size="10.00">+ Initialize</text>
<text text-anchor="start" x="8" y="-941.5" font-family="Helvetica,sans-Serif" font-size="10.00">+ Move</text>
<text text-anchor="start" x="8" y="-930.5" font-family="Helvetica,sans-Serif" font-size="10.00">+ InterruptEnable</text>
<text text-anchor="start" x="8" y="-919.5" font-family="Helvetica,sans-Serif" font-size="10.00">+ InterruptDisable</text>
<text text-anchor="start" x="8" y="-908.5" font-family="Helvetica,sans-Serif" font-size="10.00">+ InterruptClear</text>
<text text-anchor="start" x="8" y="-897.5" font-family="Helvetica,sans-Serif" font-size="10.00">+ InterruptGetEnabled</text>
<text text-anchor="start" x="8" y="-886.5" font-family="Helvetica,sans-Serif" font-size="10.00">+ InterruptGetStatus</text>
<text text-anchor="start" x="8" y="-875.5" font-family="Helvetica,sans-Serif" font-size="10.00">+ Reset</text>
<text text-anchor="start" x="8" y="-864.5" font-family="Helvetica,sans-Serif" font-size="10.00">+ ResetIsDone</text>
<text text-anchor="start" x="8" y="-853.5" font-family="Helvetica,sans-Serif" font-size="10.00">+ InterruptSetHandler</text>
<polyline fill="none" stroke="black" points="0,-846.5 126,-846.5 "/>
<text text-anchor="middle" x="63" y="-834.5" font-family="Helvetica,sans-Serif" font-size="10.00"> </text>
</a>
</g>
</g>
<!-- Node5&#45;&gt;Node4 -->
<g id="edge4" class="edge">
<title>Node5&#45;&gt;Node4</title>
<path fill="none" stroke="#404040" d="M124.87,-827.49C133.78,-814.82 142.87,-801.88 151.6,-789.47"/>
<polygon fill="none" stroke="#404040" points="151.6,-789.47 151.78,-782.26 158.5,-779.65 158.32,-786.86 151.6,-789.47"/>
<text text-anchor="middle" x="169.5" y="-801" font-family="Helvetica,sans-Serif" font-size="10.00"> +dmaVtbl</text>
</g>
<!-- Node6 -->
<g id="node6" class="node">
<title>Node6</title>
<g id="a_node6"><a xlink:href="struct_hardware_vtbl.html" target="_top" xlink:title=" ">
<polygon fill="none" stroke="black" points="144,-833 144,-1000 266,-1000 266,-833 144,-833"/>
<text text-anchor="middle" x="205" y="-988" font-family="Helvetica,sans-Serif" font-size="10.00">HardwareVtbl</text>
<polyline fill="none" stroke="black" points="144,-981 266,-981 "/>
<text text-anchor="start" x="152" y="-969" font-family="Helvetica,sans-Serif" font-size="10.00">+ new_</text>
<text text-anchor="start" x="152" y="-958" font-family="Helvetica,sans-Serif" font-size="10.00">+ delete_</text>
<text text-anchor="start" x="152" y="-947" font-family="Helvetica,sans-Serif" font-size="10.00">+ Initialize</text>
<text text-anchor="start" x="152" y="-936" font-family="Helvetica,sans-Serif" font-size="10.00">+ Start</text>
<text text-anchor="start" x="152" y="-925" font-family="Helvetica,sans-Serif" font-size="10.00">+ IsDone</text>
<text text-anchor="start" x="152" y="-914" font-family="Helvetica,sans-Serif" font-size="10.00">+ IsIdle</text>
<text text-anchor="start" x="152" y="-903" font-family="Helvetica,sans-Serif" font-size="10.00">+ IsReady</text>
<text text-anchor="start" x="152" y="-892" font-family="Helvetica,sans-Serif" font-size="10.00">+ EnableAutoRestart</text>
<text text-anchor="start" x="152" y="-881" font-family="Helvetica,sans-Serif" font-size="10.00">+ DisableAutoRestart</text>
<text text-anchor="start" x="152" y="-870" font-family="Helvetica,sans-Serif" font-size="10.00">+ Get_return</text>
<text text-anchor="start" x="152" y="-859" font-family="Helvetica,sans-Serif" font-size="10.00">and 11 more...</text>
<polyline fill="none" stroke="black" points="144,-852 266,-852 "/>
<text text-anchor="middle" x="205" y="-840" font-family="Helvetica,sans-Serif" font-size="10.00"> </text>
</a>
</g>
</g>
<!-- Node6&#45;&gt;Node4 -->
<g id="edge5" class="edge">
<title>Node6&#45;&gt;Node4</title>
<path fill="none" stroke="#404040" d="M205,-832.76C205,-819.24 205,-805.28 205,-791.87"/>
<polygon fill="none" stroke="#404040" points="205,-791.75 201,-785.75 205,-779.75 209,-785.75 205,-791.75"/>
<text text-anchor="middle" x="228" y="-801" font-family="Helvetica,sans-Serif" font-size="10.00"> +hwVtbl</text>
</g>
<!-- Node7 -->
<g id="node7" class="node">
<title>Node7</title>
<g id="a_node7"><a xlink:href="struct_memory_block.html" target="_top" xlink:title=" ">
<polygon fill="none" stroke="black" points="284,-877 284,-956 374,-956 374,-877 284,-877"/>
<text text-anchor="middle" x="329" y="-944" font-family="Helvetica,sans-Serif" font-size="10.00">MemoryBlock</text>
<polyline fill="none" stroke="black" points="284,-937 374,-937 "/>
<text text-anchor="start" x="292" y="-925" font-family="Helvetica,sans-Serif" font-size="10.00">+ baseAddress</text>
<text text-anchor="start" x="292" y="-914" font-family="Helvetica,sans-Serif" font-size="10.00">+ highAddress</text>
<text text-anchor="start" x="292" y="-903" font-family="Helvetica,sans-Serif" font-size="10.00">+ blockIndex</text>
<polyline fill="none" stroke="black" points="284,-896 374,-896 "/>
<text text-anchor="middle" x="329" y="-884" font-family="Helvetica,sans-Serif" font-size="10.00"> </text>
</a>
</g>
</g>
<!-- Node7&#45;&gt;Node4 -->
<g id="edge6" class="edge">
<title>Node7&#45;&gt;Node4</title>
<path fill="none" stroke="#404040" d="M305.38,-876.7C295.95,-861.23 284.98,-843.26 275,-827 267.67,-815.05 259.89,-802.41 252.29,-790.06"/>
<polygon fill="none" stroke="#404040" points="252.25,-790 245.7,-786.99 245.95,-779.79 252.51,-782.79 252.25,-790"/>
<text text-anchor="middle" x="289" y="-801" font-family="Helvetica,sans-Serif" font-size="10.00"> +ddrMem</text>
</g>
<!-- Node8&#45;&gt;Node1 -->
<g id="edge7" class="edge">
<title>Node8&#45;&gt;Node1</title>
<path fill="none" stroke="#404040" d="M369.74,-68.74C369.85,-74.82 369.94,-81.1 370,-87 370.05,-92.48 370.09,-98.07 370.12,-103.71"/>
<polygon fill="none" stroke="#404040" points="370.12,-104.14 374.14,-110.13 370.15,-116.14 366.14,-110.16 370.12,-104.14"/>
<text text-anchor="middle" x="424" y="-90" font-family="Helvetica,sans-Serif" font-size="10.00"> #singleton_tp_array_</text>
</g>
<!-- Node9&#45;&gt;Node1 -->
<g id="edge9" class="edge">
<title>Node9&#45;&gt;Node1</title>
<path fill="none" stroke="#404040" d="M435.08,-474.5C428.58,-451.93 418.85,-418.13 408.84,-383.36"/>
<polygon fill="none" stroke="#404040" points="408.76,-383.08 403.25,-378.42 405.44,-371.55 410.94,-376.21 408.76,-383.08"/>
<text text-anchor="middle" x="451" y="-393" font-family="Helvetica,sans-Serif" font-size="10.00"> #current_task_</text>
</g>
<!-- Node10 -->
<g id="node10" class="node">
<title>Node10</title>
<g id="a_node10"><a xlink:href="struct___event.html" target="_top" xlink:title=" ">
<polygon fill="none" stroke="black" points="455.5,-662 455.5,-763 558.5,-763 558.5,-662 455.5,-662"/>
<text text-anchor="middle" x="507" y="-751" font-family="Helvetica,sans-Serif" font-size="10.00">_Event</text>
<polyline fill="none" stroke="black" points="455.5,-744 558.5,-744 "/>
<text text-anchor="start" x="463.5" y="-732" font-family="Helvetica,sans-Serif" font-size="10.00">+ data</text>
<text text-anchor="start" x="463.5" y="-721" font-family="Helvetica,sans-Serif" font-size="10.00">+ type</text>
<text text-anchor="start" x="463.5" y="-710" font-family="Helvetica,sans-Serif" font-size="10.00">+ absolute_offset</text>
<text text-anchor="start" x="463.5" y="-699" font-family="Helvetica,sans-Serif" font-size="10.00">+ relative_offset</text>
<text text-anchor="start" x="463.5" y="-688" font-family="Helvetica,sans-Serif" font-size="10.00">+ latency</text>
<polyline fill="none" stroke="black" points="455.5,-681 558.5,-681 "/>
<text text-anchor="middle" x="507" y="-669" font-family="Helvetica,sans-Serif" font-size="10.00"> </text>
</a>
</g>
</g>
<!-- Node10&#45;&gt;Node9 -->
<g id="edge11" class="edge">
<title>Node10&#45;&gt;Node9</title>
<path fill="none" stroke="#404040" d="M495.55,-661.89C491.09,-643.87 485.69,-623.41 480,-605 473.59,-584.27 465.38,-561.54 458.32,-542.91"/>
<polygon fill="none" stroke="#404040" points="458.28,-542.81 452.4,-538.64 453.98,-531.6 459.87,-535.77 458.28,-542.81"/>
<text text-anchor="middle" x="529" y="-619" font-family="Helvetica,sans-Serif" font-size="10.00"> +delegate_event</text>
<text text-anchor="middle" x="529" y="-608" font-family="Helvetica,sans-Serif" font-size="10.00">+hardware_event</text>
</g>
<!-- Node10&#45;&gt;Node10 -->
<g id="edge12" class="edge">
<title>Node10&#45;&gt;Node10</title>
<path fill="none" stroke="#404040" d="M558.53,-728.73C569,-726.96 576.5,-721.55 576.5,-712.5 576.5,-707.27 573.99,-703.25 569.85,-700.45"/>
<polygon fill="none" stroke="#404040" points="569.78,-700.42 562.77,-702.1 558.53,-696.27 565.54,-694.59 569.78,-700.42"/>
<text text-anchor="middle" x="606" y="-726.5" font-family="Helvetica,sans-Serif" font-size="10.00"> +first_child</text>
<text text-anchor="middle" x="606" y="-715.5" font-family="Helvetica,sans-Serif" font-size="10.00">+parent</text>
<text text-anchor="middle" x="606" y="-704.5" font-family="Helvetica,sans-Serif" font-size="10.00">+prev</text>
<text text-anchor="middle" x="606" y="-693.5" font-family="Helvetica,sans-Serif" font-size="10.00">+next</text>
</g>
<!-- Node11 -->
<g id="node11" class="node">
<title>Node11</title>
<g id="a_node11"><a xlink:href="struct_timer.html" target="_top" xlink:title=" ">
<polygon fill="none" stroke="black" points="459,-877 459,-956 555,-956 555,-877 459,-877"/>
<text text-anchor="middle" x="507" y="-944" font-family="Helvetica,sans-Serif" font-size="10.00">Timer</text>
<polyline fill="none" stroke="black" points="459,-937 555,-937 "/>
<text text-anchor="start" x="467" y="-925" font-family="Helvetica,sans-Serif" font-size="10.00">+ start_time</text>
<text text-anchor="start" x="467" y="-914" font-family="Helvetica,sans-Serif" font-size="10.00">+ num_samples</text>
<text text-anchor="start" x="467" y="-903" font-family="Helvetica,sans-Serif" font-size="10.00">+ sample_array</text>
<polyline fill="none" stroke="black" points="459,-896 555,-896 "/>
<text text-anchor="middle" x="507" y="-884" font-family="Helvetica,sans-Serif" font-size="10.00"> </text>
</a>
</g>
</g>
<!-- Node11&#45;&gt;Node10 -->
<g id="edge13" class="edge">
<title>Node11&#45;&gt;Node10</title>
<path fill="none" stroke="#404040" d="M507,-876.55C507,-847.88 507,-808.33 507,-775.35"/>
<polygon fill="none" stroke="#404040" points="507,-775.08 503,-769.08 507,-763.08 511,-769.08 507,-775.08"/>
<text text-anchor="middle" x="526" y="-801" font-family="Helvetica,sans-Serif" font-size="10.00"> +timer</text>
</g>
</g>
</svg>
