<?xml version="1.0" encoding="UTF-8" standalone="no"?>
<!DOCTYPE svg PUBLIC "-//W3C//DTD SVG 1.1//EN"
 "http://www.w3.org/Graphics/SVG/1.1/DTD/svg11.dtd">
<!-- Generated by graphviz version 2.43.0 (0)
 -->
<!-- Title: ProcessingUnit Pages: 1 -->
<svg width="410pt" height="584pt"
 viewBox="0.00 0.00 409.50 584.00" xmlns="http://www.w3.org/2000/svg" xmlns:xlink="http://www.w3.org/1999/xlink">
<g id="graph0" class="graph" transform="scale(1 1) rotate(0) translate(4 580)">
<title>ProcessingUnit</title>
<!-- Node1 -->
<g id="node1" class="node">
<title>Node1</title>
<g id="a_node1"><a xlink:title=" ">
<polygon fill="#bfbfbf" stroke="black" points="56,-0.5 56,-167.5 189,-167.5 189,-0.5 56,-0.5"/>
<text text-anchor="middle" x="122.5" y="-155.5" font-family="Helvetica,sans-Serif" font-size="10.00">ProcessingUnit</text>
<polyline fill="none" stroke="black" points="56,-148.5 189,-148.5 "/>
<text text-anchor="middle" x="122.5" y="-136.5" font-family="Helvetica,sans-Serif" font-size="10.00"> </text>
<polyline fill="none" stroke="black" points="56,-129.5 189,-129.5 "/>
<text text-anchor="start" x="64" y="-117.5" font-family="Helvetica,sans-Serif" font-size="10.00">+ ProcessingUnit()</text>
<text text-anchor="start" x="64" y="-106.5" font-family="Helvetica,sans-Serif" font-size="10.00">+ ~ProcessingUnit()</text>
<text text-anchor="start" x="64" y="-95.5" font-family="Helvetica,sans-Serif" font-size="10.00">+ initialize()</text>
<text text-anchor="start" x="64" y="-84.5" font-family="Helvetica,sans-Serif" font-size="10.00">+ execute()</text>
<text text-anchor="start" x="64" y="-73.5" font-family="Helvetica,sans-Serif" font-size="10.00">+ setTransactionFlags()</text>
<text text-anchor="start" x="64" y="-62.5" font-family="Helvetica,sans-Serif" font-size="10.00">+ getTransactionFlags()</text>
<text text-anchor="start" x="64" y="-51.5" font-family="Helvetica,sans-Serif" font-size="10.00"># initialize_ip()</text>
<text text-anchor="start" x="64" y="-40.5" font-family="Helvetica,sans-Serif" font-size="10.00"># initialize_dma()</text>
<text text-anchor="start" x="64" y="-29.5" font-family="Helvetica,sans-Serif" font-size="10.00"># onDone_ip()</text>
<text text-anchor="start" x="64" y="-18.5" font-family="Helvetica,sans-Serif" font-size="10.00"># onDone_dmaTx()</text>
<text text-anchor="start" x="64" y="-7.5" font-family="Helvetica,sans-Serif" font-size="10.00"># onDone_dmaRx()</text>
</a>
</g>
</g>
<!-- Node2 -->
<g id="node2" class="node">
<title>Node2</title>
<g id="a_node2"><a xlink:href="struct_processing_unit_1_1_transaction.html" target="_top" xlink:title=" ">
<polygon fill="none" stroke="black" points="0,-226.5 0,-338.5 151,-338.5 151,-226.5 0,-226.5"/>
<text text-anchor="middle" x="75.5" y="-326.5" font-family="Helvetica,sans-Serif" font-size="10.00">ProcessingUnit::Transaction</text>
<polyline fill="none" stroke="black" points="0,-319.5 151,-319.5 "/>
<text text-anchor="start" x="8" y="-307.5" font-family="Helvetica,sans-Serif" font-size="10.00">+ mode</text>
<text text-anchor="start" x="8" y="-296.5" font-family="Helvetica,sans-Serif" font-size="10.00">+ flags</text>
<text text-anchor="start" x="8" y="-285.5" font-family="Helvetica,sans-Serif" font-size="10.00">+ txBufferPtr</text>
<text text-anchor="start" x="8" y="-274.5" font-family="Helvetica,sans-Serif" font-size="10.00">+ txBufferSize</text>
<text text-anchor="start" x="8" y="-263.5" font-family="Helvetica,sans-Serif" font-size="10.00">+ rxBufferPtr</text>
<text text-anchor="start" x="8" y="-252.5" font-family="Helvetica,sans-Serif" font-size="10.00">+ rxBufferSize</text>
<polyline fill="none" stroke="black" points="0,-245.5 151,-245.5 "/>
<text text-anchor="middle" x="75.5" y="-233.5" font-family="Helvetica,sans-Serif" font-size="10.00"> </text>
</a>
</g>
</g>
<!-- Node2&#45;&gt;Node1 -->
<g id="edge1" class="edge">
<title>Node2&#45;&gt;Node1</title>
<path fill="none" stroke="#404040" d="M88.72,-226.24C92.18,-211.77 96.01,-195.74 99.82,-179.84"/>
<polygon fill="none" stroke="#404040" points="99.92,-179.4 97.43,-172.63 102.71,-167.73 105.21,-174.49 99.92,-179.4"/>
<text text-anchor="middle" x="134.5" y="-189" font-family="Helvetica,sans-Serif" font-size="10.00"> #transaction_</text>
</g>
<!-- Node3 -->
<g id="node3" class="node">
<title>Node3</title>
<g id="a_node3"><a xlink:href="struct_processing_unit_1_1_profile.html" target="_top" xlink:title=" ">
<polygon fill="none" stroke="black" points="169.5,-215.5 169.5,-349.5 295.5,-349.5 295.5,-215.5 169.5,-215.5"/>
<text text-anchor="middle" x="232.5" y="-337.5" font-family="Helvetica,sans-Serif" font-size="10.00">ProcessingUnit::Profile</text>
<polyline fill="none" stroke="black" points="169.5,-330.5 295.5,-330.5 "/>
<text text-anchor="start" x="177.5" y="-318.5" font-family="Helvetica,sans-Serif" font-size="10.00">+ hwInstance</text>
<text text-anchor="start" x="177.5" y="-307.5" font-family="Helvetica,sans-Serif" font-size="10.00">+ dmaInstance</text>
<text text-anchor="start" x="177.5" y="-296.5" font-family="Helvetica,sans-Serif" font-size="10.00">+ hwDeviceID</text>
<text text-anchor="start" x="177.5" y="-285.5" font-family="Helvetica,sans-Serif" font-size="10.00">+ dmaDeviceID</text>
<text text-anchor="start" x="177.5" y="-274.5" font-family="Helvetica,sans-Serif" font-size="10.00">+ hwIntVecID</text>
<text text-anchor="start" x="177.5" y="-263.5" font-family="Helvetica,sans-Serif" font-size="10.00">+ dmaTxIntVecID</text>
<text text-anchor="start" x="177.5" y="-252.5" font-family="Helvetica,sans-Serif" font-size="10.00">+ dmaRxIntVecID</text>
<text text-anchor="start" x="177.5" y="-241.5" font-family="Helvetica,sans-Serif" font-size="10.00">+ channelSize</text>
<polyline fill="none" stroke="black" points="169.5,-234.5 295.5,-234.5 "/>
<text text-anchor="middle" x="232.5" y="-222.5" font-family="Helvetica,sans-Serif" font-size="10.00"> </text>
</a>
</g>
</g>
<!-- Node3&#45;&gt;Node1 -->
<g id="edge2" class="edge">
<title>Node3&#45;&gt;Node1</title>
<path fill="none" stroke="#404040" d="M195.41,-215.25C188.74,-203.32 181.67,-190.69 174.66,-178.17"/>
<polygon fill="none" stroke="#404040" points="174.66,-178.17 168.23,-174.89 168.79,-167.7 175.21,-170.98 174.66,-178.17"/>
<text text-anchor="middle" x="208.5" y="-189" font-family="Helvetica,sans-Serif" font-size="10.00"> #profile_</text>
</g>
<!-- Node4 -->
<g id="node4" class="node">
<title>Node4</title>
<g id="a_node4"><a xlink:href="struct_d_m_a_hardware_vtbl.html" target="_top" xlink:title=" ">
<polygon fill="none" stroke="black" points="27.5,-397.5 27.5,-575.5 153.5,-575.5 153.5,-397.5 27.5,-397.5"/>
<text text-anchor="middle" x="90.5" y="-563.5" font-family="Helvetica,sans-Serif" font-size="10.00">DMAHardwareVtbl</text>
<polyline fill="none" stroke="black" points="27.5,-556.5 153.5,-556.5 "/>
<text text-anchor="start" x="35.5" y="-544.5" font-family="Helvetica,sans-Serif" font-size="10.00">+ new_</text>
<text text-anchor="start" x="35.5" y="-533.5" font-family="Helvetica,sans-Serif" font-size="10.00">+ delete_</text>
<text text-anchor="start" x="35.5" y="-522.5" font-family="Helvetica,sans-Serif" font-size="10.00">+ Initialize</text>
<text text-anchor="start" x="35.5" y="-511.5" font-family="Helvetica,sans-Serif" font-size="10.00">+ Move</text>
<text text-anchor="start" x="35.5" y="-500.5" font-family="Helvetica,sans-Serif" font-size="10.00">+ InterruptEnable</text>
<text text-anchor="start" x="35.5" y="-489.5" font-family="Helvetica,sans-Serif" font-size="10.00">+ InterruptDisable</text>
<text text-anchor="start" x="35.5" y="-478.5" font-family="Helvetica,sans-Serif" font-size="10.00">+ InterruptClear</text>
<text text-anchor="start" x="35.5" y="-467.5" font-family="Helvetica,sans-Serif" font-size="10.00">+ InterruptGetEnabled</text>
<text text-anchor="start" x="35.5" y="-456.5" font-family="Helvetica,sans-Serif" font-size="10.00">+ InterruptGetStatus</text>
<text text-anchor="start" x="35.5" y="-445.5" font-family="Helvetica,sans-Serif" font-size="10.00">+ Reset</text>
<text text-anchor="start" x="35.5" y="-434.5" font-family="Helvetica,sans-Serif" font-size="10.00">+ ResetIsDone</text>
<text text-anchor="start" x="35.5" y="-423.5" font-family="Helvetica,sans-Serif" font-size="10.00">+ InterruptSetHandler</text>
<polyline fill="none" stroke="black" points="27.5,-416.5 153.5,-416.5 "/>
<text text-anchor="middle" x="90.5" y="-404.5" font-family="Helvetica,sans-Serif" font-size="10.00"> </text>
</a>
</g>
</g>
<!-- Node4&#45;&gt;Node3 -->
<g id="edge3" class="edge">
<title>Node4&#45;&gt;Node3</title>
<path fill="none" stroke="#404040" d="M152.37,-397.49C161.28,-384.82 170.37,-371.88 179.1,-359.47"/>
<polygon fill="none" stroke="#404040" points="179.1,-359.47 179.28,-352.26 186,-349.65 185.82,-356.86 179.1,-359.47"/>
<text text-anchor="middle" x="197" y="-371" font-family="Helvetica,sans-Serif" font-size="10.00"> +dmaVtbl</text>
</g>
<!-- Node5 -->
<g id="node5" class="node">
<title>Node5</title>
<g id="a_node5"><a xlink:href="struct_hardware_vtbl.html" target="_top" xlink:title=" ">
<polygon fill="none" stroke="black" points="171.5,-403 171.5,-570 293.5,-570 293.5,-403 171.5,-403"/>
<text text-anchor="middle" x="232.5" y="-558" font-family="Helvetica,sans-Serif" font-size="10.00">HardwareVtbl</text>
<polyline fill="none" stroke="black" points="171.5,-551 293.5,-551 "/>
<text text-anchor="start" x="179.5" y="-539" font-family="Helvetica,sans-Serif" font-size="10.00">+ new_</text>
<text text-anchor="start" x="179.5" y="-528" font-family="Helvetica,sans-Serif" font-size="10.00">+ delete_</text>
<text text-anchor="start" x="179.5" y="-517" font-family="Helvetica,sans-Serif" font-size="10.00">+ Initialize</text>
<text text-anchor="start" x="179.5" y="-506" font-family="Helvetica,sans-Serif" font-size="10.00">+ Start</text>
<text text-anchor="start" x="179.5" y="-495" font-family="Helvetica,sans-Serif" font-size="10.00">+ IsDone</text>
<text text-anchor="start" x="179.5" y="-484" font-family="Helvetica,sans-Serif" font-size="10.00">+ IsIdle</text>
<text text-anchor="start" x="179.5" y="-473" font-family="Helvetica,sans-Serif" font-size="10.00">+ IsReady</text>
<text text-anchor="start" x="179.5" y="-462" font-family="Helvetica,sans-Serif" font-size="10.00">+ EnableAutoRestart</text>
<text text-anchor="start" x="179.5" y="-451" font-family="Helvetica,sans-Serif" font-size="10.00">+ DisableAutoRestart</text>
<text text-anchor="start" x="179.5" y="-440" font-family="Helvetica,sans-Serif" font-size="10.00">+ Get_return</text>
<text text-anchor="start" x="179.5" y="-429" font-family="Helvetica,sans-Serif" font-size="10.00">and 11 more...</text>
<polyline fill="none" stroke="black" points="171.5,-422 293.5,-422 "/>
<text text-anchor="middle" x="232.5" y="-410" font-family="Helvetica,sans-Serif" font-size="10.00"> </text>
</a>
</g>
</g>
<!-- Node5&#45;&gt;Node3 -->
<g id="edge4" class="edge">
<title>Node5&#45;&gt;Node3</title>
<path fill="none" stroke="#404040" d="M232.5,-402.76C232.5,-389.24 232.5,-375.28 232.5,-361.87"/>
<polygon fill="none" stroke="#404040" points="232.5,-361.75 228.5,-355.75 232.5,-349.75 236.5,-355.75 232.5,-361.75"/>
<text text-anchor="middle" x="255.5" y="-371" font-family="Helvetica,sans-Serif" font-size="10.00"> +hwVtbl</text>
</g>
<!-- Node6 -->
<g id="node6" class="node">
<title>Node6</title>
<g id="a_node6"><a xlink:href="struct_memory_block.html" target="_top" xlink:title=" ">
<polygon fill="none" stroke="black" points="311.5,-447 311.5,-526 401.5,-526 401.5,-447 311.5,-447"/>
<text text-anchor="middle" x="356.5" y="-514" font-family="Helvetica,sans-Serif" font-size="10.00">MemoryBlock</text>
<polyline fill="none" stroke="black" points="311.5,-507 401.5,-507 "/>
<text text-anchor="start" x="319.5" y="-495" font-family="Helvetica,sans-Serif" font-size="10.00">+ baseAddress</text>
<text text-anchor="start" x="319.5" y="-484" font-family="Helvetica,sans-Serif" font-size="10.00">+ highAddress</text>
<text text-anchor="start" x="319.5" y="-473" font-family="Helvetica,sans-Serif" font-size="10.00">+ blockIndex</text>
<polyline fill="none" stroke="black" points="311.5,-466 401.5,-466 "/>
<text text-anchor="middle" x="356.5" y="-454" font-family="Helvetica,sans-Serif" font-size="10.00"> </text>
</a>
</g>
</g>
<!-- Node6&#45;&gt;Node3 -->
<g id="edge5" class="edge">
<title>Node6&#45;&gt;Node3</title>
<path fill="none" stroke="#404040" d="M332.88,-446.7C323.45,-431.23 312.48,-413.26 302.5,-397 295.17,-385.05 287.39,-372.41 279.79,-360.06"/>
<polygon fill="none" stroke="#404040" points="279.75,-360 273.2,-356.99 273.45,-349.79 280.01,-352.79 279.75,-360"/>
<text text-anchor="middle" x="316.5" y="-371" font-family="Helvetica,sans-Serif" font-size="10.00"> +ddrMem</text>
</g>
</g>
</svg>
