<?xml version="1.0" encoding="UTF-8" standalone="no"?>
<!DOCTYPE svg PUBLIC "-//W3C//DTD SVG 1.1//EN"
 "http://www.w3.org/Graphics/SVG/1.1/DTD/svg11.dtd">
<!-- Generated by graphviz version 2.43.0 (0)
 -->
<!-- Title: flexbuffers::Vector Pages: 1 -->
<svg width="132pt" height="430pt"
 viewBox="0.00 0.00 132.00 430.00" xmlns="http://www.w3.org/2000/svg" xmlns:xlink="http://www.w3.org/1999/xlink">
<g id="graph0" class="graph" transform="scale(1 1) rotate(0) translate(4 426)">
<title>flexbuffers::Vector</title>
<!-- Node1 -->
<g id="node1" class="node">
<title>Node1</title>
<g id="a_node1"><a xlink:title=" ">
<polygon fill="#bfbfbf" stroke="black" points="0,-0.5 0,-134.5 124,-134.5 124,-0.5 0,-0.5"/>
<text text-anchor="middle" x="62" y="-122.5" font-family="Helvetica,sans-Serif" font-size="10.00">flexbuffers::Vector</text>
<polyline fill="none" stroke="black" points="0,-115.5 124,-115.5 "/>
<text text-anchor="middle" x="62" y="-103.5" font-family="Helvetica,sans-Serif" font-size="10.00"> </text>
<polyline fill="none" stroke="black" points="0,-96.5 124,-96.5 "/>
<text text-anchor="start" x="8" y="-84.5" font-family="Helvetica,sans-Serif" font-size="10.00">+ Vector()</text>
<text text-anchor="start" x="8" y="-73.5" font-family="Helvetica,sans-Serif" font-size="10.00">+ operator[]()</text>
<text text-anchor="start" x="8" y="-62.5" font-family="Helvetica,sans-Serif" font-size="10.00">+ IsTheEmptyVector()</text>
<text text-anchor="start" x="8" y="-51.5" font-family="Helvetica,sans-Serif" font-size="10.00">+ Vector()</text>
<text text-anchor="start" x="8" y="-40.5" font-family="Helvetica,sans-Serif" font-size="10.00">+ operator[]()</text>
<text text-anchor="start" x="8" y="-29.5" font-family="Helvetica,sans-Serif" font-size="10.00">+ IsTheEmptyVector()</text>
<text text-anchor="start" x="8" y="-18.5" font-family="Helvetica,sans-Serif" font-size="10.00">+ EmptyVector()</text>
<text text-anchor="start" x="8" y="-7.5" font-family="Helvetica,sans-Serif" font-size="10.00">+ EmptyVector()</text>
</a>
</g>
</g>
<!-- Node2 -->
<g id="node2" class="node">
<title>Node2</title>
<g id="a_node2"><a xlink:href="classflexbuffers_1_1_sized.html" target="_top" xlink:title=" ">
<polygon fill="none" stroke="black" points="11.5,-171.5 11.5,-305.5 112.5,-305.5 112.5,-171.5 11.5,-171.5"/>
<text text-anchor="middle" x="62" y="-293.5" font-family="Helvetica,sans-Serif" font-size="10.00">flexbuffers::Sized</text>
<polyline fill="none" stroke="black" points="11.5,-286.5 112.5,-286.5 "/>
<text text-anchor="start" x="19.5" y="-274.5" font-family="Helvetica,sans-Serif" font-size="10.00"># size_</text>
<polyline fill="none" stroke="black" points="11.5,-267.5 112.5,-267.5 "/>
<text text-anchor="start" x="19.5" y="-255.5" font-family="Helvetica,sans-Serif" font-size="10.00">+ Sized()</text>
<text text-anchor="start" x="19.5" y="-244.5" font-family="Helvetica,sans-Serif" font-size="10.00">+ Sized()</text>
<text text-anchor="start" x="19.5" y="-233.5" font-family="Helvetica,sans-Serif" font-size="10.00">+ size()</text>
<text text-anchor="start" x="19.5" y="-222.5" font-family="Helvetica,sans-Serif" font-size="10.00">+ read_size()</text>
<text text-anchor="start" x="19.5" y="-211.5" font-family="Helvetica,sans-Serif" font-size="10.00">+ Sized()</text>
<text text-anchor="start" x="19.5" y="-200.5" font-family="Helvetica,sans-Serif" font-size="10.00">+ Sized()</text>
<text text-anchor="start" x="19.5" y="-189.5" font-family="Helvetica,sans-Serif" font-size="10.00">+ size()</text>
<text text-anchor="start" x="19.5" y="-178.5" font-family="Helvetica,sans-Serif" font-size="10.00">+ read_size()</text>
</a>
</g>
</g>
<!-- Node2&#45;&gt;Node1 -->
<g id="edge1" class="edge">
<title>Node2&#45;&gt;Node1</title>
<path fill="none" stroke="midnightblue" d="M62,-160.95C62,-152.16 62,-143.25 62,-134.62"/>
<polygon fill="none" stroke="midnightblue" points="58.5,-161.19 62,-171.19 65.5,-161.19 58.5,-161.19"/>
</g>
<!-- Node3 -->
<g id="node3" class="node">
<title>Node3</title>
<g id="a_node3"><a xlink:href="classflexbuffers_1_1_object.html" target="_top" xlink:title=" ">
<polygon fill="none" stroke="black" points="9,-342.5 9,-421.5 115,-421.5 115,-342.5 9,-342.5"/>
<text text-anchor="middle" x="62" y="-409.5" font-family="Helvetica,sans-Serif" font-size="10.00">flexbuffers::Object</text>
<polyline fill="none" stroke="black" points="9,-402.5 115,-402.5 "/>
<text text-anchor="start" x="17" y="-390.5" font-family="Helvetica,sans-Serif" font-size="10.00"># data_</text>
<text text-anchor="start" x="17" y="-379.5" font-family="Helvetica,sans-Serif" font-size="10.00"># byte_width_</text>
<polyline fill="none" stroke="black" points="9,-372.5 115,-372.5 "/>
<text text-anchor="start" x="17" y="-360.5" font-family="Helvetica,sans-Serif" font-size="10.00">+ Object()</text>
<text text-anchor="start" x="17" y="-349.5" font-family="Helvetica,sans-Serif" font-size="10.00">+ Object()</text>
</a>
</g>
</g>
<!-- Node3&#45;&gt;Node2 -->
<g id="edge2" class="edge">
<title>Node3&#45;&gt;Node2</title>
<path fill="none" stroke="midnightblue" d="M62,-332.16C62,-323.59 62,-314.55 62,-305.6"/>
<polygon fill="none" stroke="midnightblue" points="58.5,-332.33 62,-342.33 65.5,-332.33 58.5,-332.33"/>
</g>
</g>
</svg>
