<?xml version="1.0" encoding="UTF-8" standalone="no"?>
<!DOCTYPE svg PUBLIC "-//W3C//DTD SVG 1.1//EN"
 "http://www.w3.org/Graphics/SVG/1.1/DTD/svg11.dtd">
<!-- Generated by graphviz version 2.43.0 (0)
 -->
<!-- Title: flatbuffers::FlatBufferBuilder::Finish Pages: 1 -->
<svg width="354pt" height="57pt"
 viewBox="0.00 0.00 354.00 57.00" xmlns="http://www.w3.org/2000/svg" xmlns:xlink="http://www.w3.org/1999/xlink">
<g id="graph0" class="graph" transform="scale(1 1) rotate(0) translate(4 53)">
<title>flatbuffers::FlatBufferBuilder::Finish</title>
<!-- Node1 -->
<g id="node1" class="node">
<title>Node1</title>
<g id="a_node1"><a xlink:title="Finish serializing a buffer by writing the root offset.">
<polygon fill="#bfbfbf" stroke="black" points="191,-0.5 191,-30.5 346,-30.5 346,-0.5 191,-0.5"/>
<text text-anchor="start" x="199" y="-18.5" font-family="Helvetica,sans-Serif" font-size="10.00">flatbuffers::FlatBufferBuilder</text>
<text text-anchor="middle" x="268.5" y="-7.5" font-family="Helvetica,sans-Serif" font-size="10.00">::Finish</text>
</a>
</g>
</g>
<!-- Node1&#45;&gt;Node1 -->
<g id="edge1" class="edge">
<title>Node1&#45;&gt;Node1</title>
<path fill="none" stroke="midnightblue" d="M302.26,-40.96C298.07,-45.68 286.82,-49 268.5,-49 238.44,-49 227.4,-40.06 235.39,-30.66"/>
<polygon fill="midnightblue" stroke="midnightblue" points="305.73,-40.42 301.61,-30.66 298.75,-40.86 305.73,-40.42"/>
</g>
<!-- Node2 -->
<g id="node2" class="node">
<title>Node2</title>
<g id="a_node2"><a xlink:href="classflatbuffers_1_1_flat_buffer_builder.html#a7ba8462e408431054c99d25120326220" target="_top" xlink:title="Finish a buffer with a 32 bit size field pre&#45;fixed (size of the buffer following the size field)....">
<polygon fill="none" stroke="black" points="0,-0.5 0,-30.5 155,-30.5 155,-0.5 0,-0.5"/>
<text text-anchor="start" x="8" y="-18.5" font-family="Helvetica,sans-Serif" font-size="10.00">flatbuffers::FlatBufferBuilder</text>
<text text-anchor="middle" x="77.5" y="-7.5" font-family="Helvetica,sans-Serif" font-size="10.00">::FinishSizePrefixed</text>
</a>
</g>
</g>
<!-- Node1&#45;&gt;Node2 -->
<g id="edge2" class="edge">
<title>Node1&#45;&gt;Node2</title>
<path fill="none" stroke="midnightblue" d="M180.9,-15.5C172.33,-15.5 163.67,-15.5 155.21,-15.5"/>
<polygon fill="midnightblue" stroke="midnightblue" points="180.9,-19 190.9,-15.5 180.9,-12 180.9,-19"/>
</g>
</g>
</svg>
