<?xml version="1.0" encoding="UTF-8" standalone="no"?>
<!DOCTYPE svg PUBLIC "-//W3C//DTD SVG 1.1//EN"
 "http://www.w3.org/Graphics/SVG/1.1/DTD/svg11.dtd">
<!-- Generated by graphviz version 2.43.0 (0)
 -->
<!-- Title: TPDelegate Pages: 1 -->
<!--zoomable 898 -->
<svg id="main" version="1.1" xmlns="http://www.w3.org/2000/svg" xmlns:xlink="http://www.w3.org/1999/xlink" xml:space="preserve" onload="init(evt)">
<style type="text/css"><![CDATA[
.edge:hover path { stroke: red; }
.edge:hover polygon { stroke: red; fill: red; }
]]></style>
<script type="text/javascript"><![CDATA[
var edges = document.getElementsByTagName('g');
if (edges && edges.length) {
  for (var i=0;i<edges.length;i++) {
    if (edges[i].id.substr(0,4)=='edge') {
      edges[i].setAttribute('class','edge');
    }
  }
}
]]></script>
        <defs>
                <circle id="rim" cx="0" cy="0" r="7"/>
                <circle id="rim2" cx="0" cy="0" r="3.5"/>
                <g id="zoomPlus">
                        <use xlink:href="#rim" fill="#404040">
                                <set attributeName="fill" to="#808080" begin="zoomplus.mouseover" end="zoomplus.mouseout"/>
                        </use>
                        <path d="M-4,0h8M0,-4v8" fill="none" stroke="white" stroke-width="1.5" pointer-events="none"/>
                </g>
                <g id="zoomMin">
                        <use xlink:href="#rim" fill="#404040">
                                <set attributeName="fill" to="#808080" begin="zoomminus.mouseover" end="zoomminus.mouseout"/>
                        </use>
                        <path d="M-4,0h8" fill="none" stroke="white" stroke-width="1.5" pointer-events="none"/>
                </g>
                <g id="dirArrow">
                        <path fill="none" stroke="white" stroke-width="1.5" d="M0,-3.0v7 M-2.5,-0.5L0,-3.0L2.5,-0.5"/>
                </g>
               <g id="resetDef">
                       <use xlink:href="#rim2" fill="#404040">
                               <set attributeName="fill" to="#808080" begin="reset.mouseover" end="reset.mouseout"/>
                       </use>
               </g>
        </defs>

<script type="text/javascript">
var viewWidth = 801;
var viewHeight = 898;
var sectionId = 'dynsection-0';
</script>
<script xlink:href="svgpan.js"/>
<svg id="graph" class="graph">
<g id="viewport">
<title>TPDelegate</title>
<!-- Node1 -->
<g id="node1" class="node">
<title>Node1</title>
<g id="a_node1"><a xlink:title=" ">
<polygon fill="#bfbfbf" stroke="black" points="0,-55.5 0,-200.5 100,-200.5 100,-55.5 0,-55.5"/>
<text text-anchor="middle" x="50" y="-188.5" font-family="Helvetica,sans-Serif" font-size="10.00">TPDelegate</text>
<polyline fill="none" stroke="black" points="0,-181.5 100,-181.5 "/>
<text text-anchor="middle" x="50" y="-169.5" font-family="Helvetica,sans-Serif" font-size="10.00"> </text>
<polyline fill="none" stroke="black" points="0,-162.5 100,-162.5 "/>
<text text-anchor="start" x="8" y="-150.5" font-family="Helvetica,sans-Serif" font-size="10.00">+ TPDelegate()</text>
<text text-anchor="start" x="8" y="-139.5" font-family="Helvetica,sans-Serif" font-size="10.00">+ ~TPDelegate()</text>
<text text-anchor="start" x="8" y="-128.5" font-family="Helvetica,sans-Serif" font-size="10.00">+ initialize()</text>
<text text-anchor="start" x="8" y="-117.5" font-family="Helvetica,sans-Serif" font-size="10.00">+ createJob()</text>
<text text-anchor="start" x="8" y="-106.5" font-family="Helvetica,sans-Serif" font-size="10.00">+ createJob()</text>
<text text-anchor="start" x="8" y="-95.5" font-family="Helvetica,sans-Serif" font-size="10.00">+ createJob()</text>
<text text-anchor="start" x="8" y="-84.5" font-family="Helvetica,sans-Serif" font-size="10.00">+ createJob()</text>
<text text-anchor="start" x="8" y="-73.5" font-family="Helvetica,sans-Serif" font-size="10.00">+ execute()</text>
<text text-anchor="start" x="8" y="-62.5" font-family="Helvetica,sans-Serif" font-size="10.00">+ isValid()</text>
</a>
</g>
</g>
<!-- Node2 -->
<g id="node2" class="node">
<title>Node2</title>
<g id="a_node2"><a xlink:href="struct_tensor_processor_1_1_processor_array.html" target="_top" xlink:title=" ">
<polygon fill="none" stroke="black" points="106.5,-353 106.5,-421 255.5,-421 255.5,-353 106.5,-353"/>
<text text-anchor="start" x="114.5" y="-409" font-family="Helvetica,sans-Serif" font-size="10.00">TensorProcessor::Processor</text>
<text text-anchor="middle" x="181" y="-398" font-family="Helvetica,sans-Serif" font-size="10.00">Array</text>
<polyline fill="none" stroke="black" points="106.5,-391 255.5,-391 "/>
<text text-anchor="start" x="114.5" y="-379" font-family="Helvetica,sans-Serif" font-size="10.00">+ len</text>
<polyline fill="none" stroke="black" points="106.5,-372 255.5,-372 "/>
<text text-anchor="middle" x="181" y="-360" font-family="Helvetica,sans-Serif" font-size="10.00"> </text>
</a>
</g>
</g>
<!-- Node2&#45;&gt;Node1 -->
<g id="edge1" class="edge">
<title>Node2&#45;&gt;Node1</title>
<path fill="none" stroke="#404040" d="M116.64,-352.88C91.34,-336.22 65.04,-313.45 51,-285 40.18,-263.08 36.87,-237.23 37.11,-212.94"/>
<polygon fill="none" stroke="#404040" points="37.12,-212.78 33.32,-206.65 37.52,-200.79 41.32,-206.92 37.12,-212.78"/>
<text text-anchor="middle" x="105" y="-277" font-family="Helvetica,sans-Serif" font-size="10.00"> #singleton_tp_array_</text>
</g>
<!-- Node3 -->
<g id="node3" class="node">
<title>Node3</title>
<g id="a_node3"><a xlink:href="class_tensor_processor.html" target="_top" xlink:title=" ">
<polygon fill="none" stroke="black" points="267,-0.5 267,-255.5 401,-255.5 401,-0.5 267,-0.5"/>
<text text-anchor="middle" x="334" y="-243.5" font-family="Helvetica,sans-Serif" font-size="10.00">TensorProcessor</text>
<polyline fill="none" stroke="black" points="267,-236.5 401,-236.5 "/>
<text text-anchor="start" x="275" y="-224.5" font-family="Helvetica,sans-Serif" font-size="10.00"># status_</text>
<polyline fill="none" stroke="black" points="267,-217.5 401,-217.5 "/>
<text text-anchor="start" x="275" y="-205.5" font-family="Helvetica,sans-Serif" font-size="10.00">+ TensorProcessor()</text>
<text text-anchor="start" x="275" y="-194.5" font-family="Helvetica,sans-Serif" font-size="10.00">+ ~TensorProcessor()</text>
<text text-anchor="start" x="275" y="-183.5" font-family="Helvetica,sans-Serif" font-size="10.00">+ initialize()</text>
<text text-anchor="start" x="275" y="-172.5" font-family="Helvetica,sans-Serif" font-size="10.00">+ createTask()</text>
<text text-anchor="start" x="275" y="-161.5" font-family="Helvetica,sans-Serif" font-size="10.00">+ createTask()</text>
<text text-anchor="start" x="275" y="-150.5" font-family="Helvetica,sans-Serif" font-size="10.00">+ createTask()</text>
<text text-anchor="start" x="275" y="-139.5" font-family="Helvetica,sans-Serif" font-size="10.00">+ createTask()</text>
<text text-anchor="start" x="275" y="-128.5" font-family="Helvetica,sans-Serif" font-size="10.00">+ execute()</text>
<text text-anchor="start" x="275" y="-117.5" font-family="Helvetica,sans-Serif" font-size="10.00">+ getStatus()</text>
<text text-anchor="start" x="275" y="-106.5" font-family="Helvetica,sans-Serif" font-size="10.00">+ setExecutionFlags()</text>
<text text-anchor="start" x="275" y="-95.5" font-family="Helvetica,sans-Serif" font-size="10.00">+ getExecutionFlags()</text>
<text text-anchor="start" x="275" y="-84.5" font-family="Helvetica,sans-Serif" font-size="10.00">+ isValid()</text>
<text text-anchor="start" x="275" y="-73.5" font-family="Helvetica,sans-Serif" font-size="10.00">+ instatiateProcessors()</text>
<text text-anchor="start" x="275" y="-62.5" font-family="Helvetica,sans-Serif" font-size="10.00">+ getSingletonTPArray()</text>
<text text-anchor="start" x="275" y="-51.5" font-family="Helvetica,sans-Serif" font-size="10.00"># createTask()</text>
<text text-anchor="start" x="275" y="-40.5" font-family="Helvetica,sans-Serif" font-size="10.00"># createTask()</text>
<text text-anchor="start" x="275" y="-29.5" font-family="Helvetica,sans-Serif" font-size="10.00"># onDone_ip()</text>
<text text-anchor="start" x="275" y="-18.5" font-family="Helvetica,sans-Serif" font-size="10.00"># onDone_dmaTx()</text>
<text text-anchor="start" x="275" y="-7.5" font-family="Helvetica,sans-Serif" font-size="10.00"># onDone_dmaRx()</text>
</a>
</g>
</g>
<!-- Node2&#45;&gt;Node3 -->
<g id="edge9" class="edge">
<title>Node2&#45;&gt;Node3</title>
<path fill="none" stroke="#404040" d="M172.92,-352.73C169.01,-329.68 167.2,-298.79 178,-274 194.6,-235.91 226.69,-203.32 257.46,-178.74"/>
<polygon fill="none" stroke="#404040" points="257.48,-178.73 259.76,-171.89 266.95,-171.37 264.67,-178.21 257.48,-178.73"/>
<text text-anchor="middle" x="232" y="-277" font-family="Helvetica,sans-Serif" font-size="10.00"> #singleton_tp_array_</text>
</g>
<!-- Node3&#45;&gt;Node2 -->
<g id="edge2" class="edge">
<title>Node3&#45;&gt;Node2</title>
<path fill="none" stroke="#404040" d="M304.76,-255.87C300.48,-266.03 295.58,-275.88 290,-285 285.45,-292.44 255.3,-320.2 227.86,-344.73"/>
<polygon fill="none" stroke="#404040" points="227.65,-344.91 225.84,-351.89 218.7,-352.9 220.51,-345.92 227.65,-344.91"/>
<text text-anchor="middle" x="306" y="-277" font-family="Helvetica,sans-Serif" font-size="10.00"> +tp</text>
</g>
<!-- Node4 -->
<g id="node4" class="node">
<title>Node4</title>
<g id="a_node4"><a xlink:href="class_processing_unit.html" target="_top" xlink:title=" ">
<polygon fill="none" stroke="black" points="425.5,-303.5 425.5,-470.5 558.5,-470.5 558.5,-303.5 425.5,-303.5"/>
<text text-anchor="middle" x="492" y="-458.5" font-family="Helvetica,sans-Serif" font-size="10.00">ProcessingUnit</text>
<polyline fill="none" stroke="black" points="425.5,-451.5 558.5,-451.5 "/>
<text text-anchor="middle" x="492" y="-439.5" font-family="Helvetica,sans-Serif" font-size="10.00"> </text>
<polyline fill="none" stroke="black" points="425.5,-432.5 558.5,-432.5 "/>
<text text-anchor="start" x="433.5" y="-420.5" font-family="Helvetica,sans-Serif" font-size="10.00">+ ProcessingUnit()</text>
<text text-anchor="start" x="433.5" y="-409.5" font-family="Helvetica,sans-Serif" font-size="10.00">+ ~ProcessingUnit()</text>
<text text-anchor="start" x="433.5" y="-398.5" font-family="Helvetica,sans-Serif" font-size="10.00">+ initialize()</text>
<text text-anchor="start" x="433.5" y="-387.5" font-family="Helvetica,sans-Serif" font-size="10.00">+ execute()</text>
<text text-anchor="start" x="433.5" y="-376.5" font-family="Helvetica,sans-Serif" font-size="10.00">+ setTransactionFlags()</text>
<text text-anchor="start" x="433.5" y="-365.5" font-family="Helvetica,sans-Serif" font-size="10.00">+ getTransactionFlags()</text>
<text text-anchor="start" x="433.5" y="-354.5" font-family="Helvetica,sans-Serif" font-size="10.00"># initialize_ip()</text>
<text text-anchor="start" x="433.5" y="-343.5" font-family="Helvetica,sans-Serif" font-size="10.00"># initialize_dma()</text>
<text text-anchor="start" x="433.5" y="-332.5" font-family="Helvetica,sans-Serif" font-size="10.00"># onDone_ip()</text>
<text text-anchor="start" x="433.5" y="-321.5" font-family="Helvetica,sans-Serif" font-size="10.00"># onDone_dmaTx()</text>
<text text-anchor="start" x="433.5" y="-310.5" font-family="Helvetica,sans-Serif" font-size="10.00"># onDone_dmaRx()</text>
</a>
</g>
</g>
<!-- Node4&#45;&gt;Node3 -->
<g id="edge3" class="edge">
<title>Node4&#45;&gt;Node3</title>
<path fill="none" stroke="darkgreen" d="M436.58,-294.55C432.33,-287.59 428.1,-280.68 424,-274 416.64,-262.01 408.91,-249.47 401.2,-237.01"/>
<polygon fill="none" stroke="darkgreen" points="433.76,-296.66 441.96,-303.37 439.74,-293.01 433.76,-296.66"/>
</g>
<!-- Node5 -->
<g id="node5" class="node">
<title>Node5</title>
<g id="a_node5"><a xlink:href="struct_processing_unit_1_1_transaction.html" target="_top" xlink:title=" ">
<polygon fill="none" stroke="black" points="371.5,-540.5 371.5,-652.5 522.5,-652.5 522.5,-540.5 371.5,-540.5"/>
<text text-anchor="middle" x="447" y="-640.5" font-family="Helvetica,sans-Serif" font-size="10.00">ProcessingUnit::Transaction</text>
<polyline fill="none" stroke="black" points="371.5,-633.5 522.5,-633.5 "/>
<text text-anchor="start" x="379.5" y="-621.5" font-family="Helvetica,sans-Serif" font-size="10.00">+ mode</text>
<text text-anchor="start" x="379.5" y="-610.5" font-family="Helvetica,sans-Serif" font-size="10.00">+ flags</text>
<text text-anchor="start" x="379.5" y="-599.5" font-family="Helvetica,sans-Serif" font-size="10.00">+ txBufferPtr</text>
<text text-anchor="start" x="379.5" y="-588.5" font-family="Helvetica,sans-Serif" font-size="10.00">+ txBufferSize</text>
<text text-anchor="start" x="379.5" y="-577.5" font-family="Helvetica,sans-Serif" font-size="10.00">+ rxBufferPtr</text>
<text text-anchor="start" x="379.5" y="-566.5" font-family="Helvetica,sans-Serif" font-size="10.00">+ rxBufferSize</text>
<polyline fill="none" stroke="black" points="371.5,-559.5 522.5,-559.5 "/>
<text text-anchor="middle" x="447" y="-547.5" font-family="Helvetica,sans-Serif" font-size="10.00"> </text>
</a>
</g>
</g>
<!-- Node5&#45;&gt;Node4 -->
<g id="edge4" class="edge">
<title>Node5&#45;&gt;Node4</title>
<path fill="none" stroke="#404040" d="M458.94,-540.44C462.8,-522.66 467.19,-502.41 471.48,-482.61"/>
<polygon fill="none" stroke="#404040" points="471.52,-482.42 468.89,-475.71 474.07,-470.69 476.7,-477.4 471.52,-482.42"/>
<text text-anchor="middle" x="506" y="-497.5" font-family="Helvetica,sans-Serif" font-size="10.00"> #transaction_</text>
</g>
<!-- Node10 -->
<g id="node10" class="node">
<title>Node10</title>
<g id="a_node10"><a xlink:href="struct_tensor_processor_1_1_task.html" target="_top" xlink:title=" ">
<polygon fill="none" stroke="black" points="284.5,-358.5 284.5,-415.5 407.5,-415.5 407.5,-358.5 284.5,-358.5"/>
<text text-anchor="middle" x="346" y="-403.5" font-family="Helvetica,sans-Serif" font-size="10.00">TensorProcessor::Task</text>
<polyline fill="none" stroke="black" points="284.5,-396.5 407.5,-396.5 "/>
<text text-anchor="middle" x="346" y="-384.5" font-family="Helvetica,sans-Serif" font-size="10.00"> </text>
<polyline fill="none" stroke="black" points="284.5,-377.5 407.5,-377.5 "/>
<text text-anchor="middle" x="346" y="-365.5" font-family="Helvetica,sans-Serif" font-size="10.00"> </text>
</a>
</g>
</g>
<!-- Node5&#45;&gt;Node10 -->
<g id="edge11" class="edge">
<title>Node5&#45;&gt;Node10</title>
<path fill="none" stroke="#404040" d="M420.2,-540.44C402.76,-504.62 380.45,-458.78 364.87,-426.76"/>
<polygon fill="none" stroke="#404040" points="364.7,-426.43 358.48,-422.78 359.45,-415.64 365.67,-419.28 364.7,-426.43"/>
<text text-anchor="middle" x="433.5" y="-503" font-family="Helvetica,sans-Serif" font-size="10.00"> +compute</text>
<text text-anchor="middle" x="433.5" y="-492" font-family="Helvetica,sans-Serif" font-size="10.00">+setup</text>
</g>
<!-- Node6 -->
<g id="node6" class="node">
<title>Node6</title>
<g id="a_node6"><a xlink:href="struct_processing_unit_1_1_profile.html" target="_top" xlink:title=" ">
<polygon fill="none" stroke="black" points="541,-529.5 541,-663.5 667,-663.5 667,-529.5 541,-529.5"/>
<text text-anchor="middle" x="604" y="-651.5" font-family="Helvetica,sans-Serif" font-size="10.00">ProcessingUnit::Profile</text>
<polyline fill="none" stroke="black" points="541,-644.5 667,-644.5 "/>
<text text-anchor="start" x="549" y="-632.5" font-family="Helvetica,sans-Serif" font-size="10.00">+ hwInstance</text>
<text text-anchor="start" x="549" y="-621.5" font-family="Helvetica,sans-Serif" font-size="10.00">+ dmaInstance</text>
<text text-anchor="start" x="549" y="-610.5" font-family="Helvetica,sans-Serif" font-size="10.00">+ hwDeviceID</text>
<text text-anchor="start" x="549" y="-599.5" font-family="Helvetica,sans-Serif" font-size="10.00">+ dmaDeviceID</text>
<text text-anchor="start" x="549" y="-588.5" font-family="Helvetica,sans-Serif" font-size="10.00">+ hwIntVecID</text>
<text text-anchor="start" x="549" y="-577.5" font-family="Helvetica,sans-Serif" font-size="10.00">+ dmaTxIntVecID</text>
<text text-anchor="start" x="549" y="-566.5" font-family="Helvetica,sans-Serif" font-size="10.00">+ dmaRxIntVecID</text>
<text text-anchor="start" x="549" y="-555.5" font-family="Helvetica,sans-Serif" font-size="10.00">+ channelSize</text>
<polyline fill="none" stroke="black" points="541,-548.5 667,-548.5 "/>
<text text-anchor="middle" x="604" y="-536.5" font-family="Helvetica,sans-Serif" font-size="10.00"> </text>
</a>
</g>
</g>
<!-- Node6&#45;&gt;Node4 -->
<g id="edge5" class="edge">
<title>Node6&#45;&gt;Node4</title>
<path fill="none" stroke="#404040" d="M568.25,-529.28C560.01,-514 551.09,-497.47 542.35,-481.28"/>
<polygon fill="none" stroke="#404040" points="542.35,-481.27 535.98,-477.89 536.65,-470.71 543.02,-474.09 542.35,-481.27"/>
<text text-anchor="middle" x="583" y="-497.5" font-family="Helvetica,sans-Serif" font-size="10.00"> #profile_</text>
</g>
<!-- Node7 -->
<g id="node7" class="node">
<title>Node7</title>
<g id="a_node7"><a xlink:href="struct_d_m_a_hardware_vtbl.html" target="_top" xlink:title=" ">
<polygon fill="none" stroke="black" points="667,-711.5 667,-889.5 793,-889.5 793,-711.5 667,-711.5"/>
<text text-anchor="middle" x="730" y="-877.5" font-family="Helvetica,sans-Serif" font-size="10.00">DMAHardwareVtbl</text>
<polyline fill="none" stroke="black" points="667,-870.5 793,-870.5 "/>
<text text-anchor="start" x="675" y="-858.5" font-family="Helvetica,sans-Serif" font-size="10.00">+ new_</text>
<text text-anchor="start" x="675" y="-847.5" font-family="Helvetica,sans-Serif" font-size="10.00">+ delete_</text>
<text text-anchor="start" x="675" y="-836.5" font-family="Helvetica,sans-Serif" font-size="10.00">+ Initialize</text>
<text text-anchor="start" x="675" y="-825.5" font-family="Helvetica,sans-Serif" font-size="10.00">+ Move</text>
<text text-anchor="start" x="675" y="-814.5" font-family="Helvetica,sans-Serif" font-size="10.00">+ InterruptEnable</text>
<text text-anchor="start" x="675" y="-803.5" font-family="Helvetica,sans-Serif" font-size="10.00">+ InterruptDisable</text>
<text text-anchor="start" x="675" y="-792.5" font-family="Helvetica,sans-Serif" font-size="10.00">+ InterruptClear</text>
<text text-anchor="start" x="675" y="-781.5" font-family="Helvetica,sans-Serif" font-size="10.00">+ InterruptGetEnabled</text>
<text text-anchor="start" x="675" y="-770.5" font-family="Helvetica,sans-Serif" font-size="10.00">+ InterruptGetStatus</text>
<text text-anchor="start" x="675" y="-759.5" font-family="Helvetica,sans-Serif" font-size="10.00">+ Reset</text>
<text text-anchor="start" x="675" y="-748.5" font-family="Helvetica,sans-Serif" font-size="10.00">+ ResetIsDone</text>
<text text-anchor="start" x="675" y="-737.5" font-family="Helvetica,sans-Serif" font-size="10.00">+ InterruptSetHandler</text>
<polyline fill="none" stroke="black" points="667,-730.5 793,-730.5 "/>
<text text-anchor="middle" x="730" y="-718.5" font-family="Helvetica,sans-Serif" font-size="10.00"> </text>
</a>
</g>
</g>
<!-- Node7&#45;&gt;Node6 -->
<g id="edge6" class="edge">
<title>Node7&#45;&gt;Node6</title>
<path fill="none" stroke="#404040" d="M678.09,-711.32C672.06,-701.39 665.94,-691.45 660,-682 658.36,-679.39 656.68,-676.75 654.98,-674.08"/>
<polygon fill="none" stroke="#404040" points="654.81,-673.82 648.2,-670.94 648.32,-663.73 654.93,-666.61 654.81,-673.82"/>
<text text-anchor="middle" x="691.5" y="-685" font-family="Helvetica,sans-Serif" font-size="10.00"> +dmaVtbl</text>
</g>
<!-- Node8 -->
<g id="node8" class="node">
<title>Node8</title>
<g id="a_node8"><a xlink:href="struct_hardware_vtbl.html" target="_top" xlink:title=" ">
<polygon fill="none" stroke="black" points="419,-717 419,-884 541,-884 541,-717 419,-717"/>
<text text-anchor="middle" x="480" y="-872" font-family="Helvetica,sans-Serif" font-size="10.00">HardwareVtbl</text>
<polyline fill="none" stroke="black" points="419,-865 541,-865 "/>
<text text-anchor="start" x="427" y="-853" font-family="Helvetica,sans-Serif" font-size="10.00">+ new_</text>
<text text-anchor="start" x="427" y="-842" font-family="Helvetica,sans-Serif" font-size="10.00">+ delete_</text>
<text text-anchor="start" x="427" y="-831" font-family="Helvetica,sans-Serif" font-size="10.00">+ Initialize</text>
<text text-anchor="start" x="427" y="-820" font-family="Helvetica,sans-Serif" font-size="10.00">+ Start</text>
<text text-anchor="start" x="427" y="-809" font-family="Helvetica,sans-Serif" font-size="10.00">+ IsDone</text>
<text text-anchor="start" x="427" y="-798" font-family="Helvetica,sans-Serif" font-size="10.00">+ IsIdle</text>
<text text-anchor="start" x="427" y="-787" font-family="Helvetica,sans-Serif" font-size="10.00">+ IsReady</text>
<text text-anchor="start" x="427" y="-776" font-family="Helvetica,sans-Serif" font-size="10.00">+ EnableAutoRestart</text>
<text text-anchor="start" x="427" y="-765" font-family="Helvetica,sans-Serif" font-size="10.00">+ DisableAutoRestart</text>
<text text-anchor="start" x="427" y="-754" font-family="Helvetica,sans-Serif" font-size="10.00">+ Get_return</text>
<text text-anchor="start" x="427" y="-743" font-family="Helvetica,sans-Serif" font-size="10.00">and 11 more...</text>
<polyline fill="none" stroke="black" points="419,-736 541,-736 "/>
<text text-anchor="middle" x="480" y="-724" font-family="Helvetica,sans-Serif" font-size="10.00"> </text>
</a>
</g>
</g>
<!-- Node8&#45;&gt;Node6 -->
<g id="edge7" class="edge">
<title>Node8&#45;&gt;Node6</title>
<path fill="none" stroke="#404040" d="M530.79,-716.76C539.43,-702.69 548.36,-688.14 556.9,-674.23"/>
<polygon fill="none" stroke="#404040" points="557.05,-673.98 556.78,-666.77 563.33,-663.75 563.6,-670.96 557.05,-673.98"/>
<text text-anchor="middle" x="573" y="-685" font-family="Helvetica,sans-Serif" font-size="10.00"> +hwVtbl</text>
</g>
<!-- Node9 -->
<g id="node9" class="node">
<title>Node9</title>
<g id="a_node9"><a xlink:href="struct_memory_block.html" target="_top" xlink:title=" ">
<polygon fill="none" stroke="black" points="559,-761 559,-840 649,-840 649,-761 559,-761"/>
<text text-anchor="middle" x="604" y="-828" font-family="Helvetica,sans-Serif" font-size="10.00">MemoryBlock</text>
<polyline fill="none" stroke="black" points="559,-821 649,-821 "/>
<text text-anchor="start" x="567" y="-809" font-family="Helvetica,sans-Serif" font-size="10.00">+ baseAddress</text>
<text text-anchor="start" x="567" y="-798" font-family="Helvetica,sans-Serif" font-size="10.00">+ highAddress</text>
<text text-anchor="start" x="567" y="-787" font-family="Helvetica,sans-Serif" font-size="10.00">+ blockIndex</text>
<polyline fill="none" stroke="black" points="559,-780 649,-780 "/>
<text text-anchor="middle" x="604" y="-768" font-family="Helvetica,sans-Serif" font-size="10.00"> </text>
</a>
</g>
</g>
<!-- Node9&#45;&gt;Node6 -->
<g id="edge8" class="edge">
<title>Node9&#45;&gt;Node6</title>
<path fill="none" stroke="#404040" d="M604,-760.55C604,-736.58 604,-704.99 604,-676"/>
<polygon fill="none" stroke="#404040" points="604,-675.76 600,-669.76 604,-663.76 608,-669.76 604,-675.76"/>
<text text-anchor="middle" x="630" y="-685" font-family="Helvetica,sans-Serif" font-size="10.00"> +ddrMem</text>
</g>
<!-- Node10&#45;&gt;Node3 -->
<g id="edge10" class="edge">
<title>Node10&#45;&gt;Node3</title>
<path fill="none" stroke="#404040" d="M344.72,-358.5C343.67,-336.02 342.1,-302.42 340.48,-267.81"/>
<polygon fill="none" stroke="#404040" points="340.47,-267.53 336.19,-261.73 339.91,-255.55 344.18,-261.35 340.47,-267.53"/>
<text text-anchor="middle" x="381" y="-277" font-family="Helvetica,sans-Serif" font-size="10.00"> #current_task_</text>
</g>
<!-- Node11 -->
<g id="node11" class="node">
<title>Node11</title>
<g id="a_node11"><a xlink:href="struct___event.html" target="_top" xlink:title=" ">
<polygon fill="none" stroke="black" points="173.5,-546 173.5,-647 276.5,-647 276.5,-546 173.5,-546"/>
<text text-anchor="middle" x="225" y="-635" font-family="Helvetica,sans-Serif" font-size="10.00">_Event</text>
<polyline fill="none" stroke="black" points="173.5,-628 276.5,-628 "/>
<text text-anchor="start" x="181.5" y="-616" font-family="Helvetica,sans-Serif" font-size="10.00">+ data</text>
<text text-anchor="start" x="181.5" y="-605" font-family="Helvetica,sans-Serif" font-size="10.00">+ type</text>
<text text-anchor="start" x="181.5" y="-594" font-family="Helvetica,sans-Serif" font-size="10.00">+ absolute_offset</text>
<text text-anchor="start" x="181.5" y="-583" font-family="Helvetica,sans-Serif" font-size="10.00">+ relative_offset</text>
<text text-anchor="start" x="181.5" y="-572" font-family="Helvetica,sans-Serif" font-size="10.00">+ latency</text>
<polyline fill="none" stroke="black" points="173.5,-565 276.5,-565 "/>
<text text-anchor="middle" x="225" y="-553" font-family="Helvetica,sans-Serif" font-size="10.00"> </text>
</a>
</g>
</g>
<!-- Node11&#45;&gt;Node10 -->
<g id="edge12" class="edge">
<title>Node11&#45;&gt;Node10</title>
<path fill="none" stroke="#404040" d="M253.98,-545.8C275.34,-509.17 303.97,-460.08 323.59,-426.44"/>
<polygon fill="none" stroke="#404040" points="323.83,-426.02 323.39,-418.83 329.87,-415.66 330.3,-422.86 323.83,-426.02"/>
<text text-anchor="middle" x="330" y="-503" font-family="Helvetica,sans-Serif" font-size="10.00"> +delegate_event</text>
<text text-anchor="middle" x="330" y="-492" font-family="Helvetica,sans-Serif" font-size="10.00">+hardware_event</text>
</g>
<!-- Node11&#45;&gt;Node11 -->
<g id="edge13" class="edge">
<title>Node11&#45;&gt;Node11</title>
<path fill="none" stroke="#404040" d="M276.53,-612.73C287,-610.96 294.5,-605.55 294.5,-596.5 294.5,-591.27 291.99,-587.25 287.85,-584.45"/>
<polygon fill="none" stroke="#404040" points="287.78,-584.42 280.77,-586.1 276.53,-580.27 283.54,-578.59 287.78,-584.42"/>
<text text-anchor="middle" x="324" y="-610.5" font-family="Helvetica,sans-Serif" font-size="10.00"> +first_child</text>
<text text-anchor="middle" x="324" y="-599.5" font-family="Helvetica,sans-Serif" font-size="10.00">+parent</text>
<text text-anchor="middle" x="324" y="-588.5" font-family="Helvetica,sans-Serif" font-size="10.00">+prev</text>
<text text-anchor="middle" x="324" y="-577.5" font-family="Helvetica,sans-Serif" font-size="10.00">+next</text>
</g>
<!-- Node12 -->
<g id="node12" class="node">
<title>Node12</title>
<g id="a_node12"><a xlink:href="struct_timer.html" target="_top" xlink:title=" ">
<polygon fill="none" stroke="black" points="177,-761 177,-840 273,-840 273,-761 177,-761"/>
<text text-anchor="middle" x="225" y="-828" font-family="Helvetica,sans-Serif" font-size="10.00">Timer</text>
<polyline fill="none" stroke="black" points="177,-821 273,-821 "/>
<text text-anchor="start" x="185" y="-809" font-family="Helvetica,sans-Serif" font-size="10.00">+ start_time</text>
<text text-anchor="start" x="185" y="-798" font-family="Helvetica,sans-Serif" font-size="10.00">+ num_samples</text>
<text text-anchor="start" x="185" y="-787" font-family="Helvetica,sans-Serif" font-size="10.00">+ sample_array</text>
<polyline fill="none" stroke="black" points="177,-780 273,-780 "/>
<text text-anchor="middle" x="225" y="-768" font-family="Helvetica,sans-Serif" font-size="10.00"> </text>
</a>
</g>
</g>
<!-- Node12&#45;&gt;Node11 -->
<g id="edge14" class="edge">
<title>Node12&#45;&gt;Node11</title>
<path fill="none" stroke="#404040" d="M225,-760.55C225,-731.88 225,-692.33 225,-659.35"/>
<polygon fill="none" stroke="#404040" points="225,-659.08 221,-653.08 225,-647.08 229,-653.08 225,-659.08"/>
<text text-anchor="middle" x="244" y="-685" font-family="Helvetica,sans-Serif" font-size="10.00"> +timer</text>
</g>
</g>
</svg>
        <g id="navigator" transform="translate(0 0)" fill="#404254">
                <rect fill="#f2f5e9" fill-opacity="0.5" stroke="#606060" stroke-width=".5" x="0" y="0" width="60" height="60"/>
                <use id="zoomplus" xlink:href="#zoomPlus" x="17" y="9" onmousedown="handleZoom(evt,'in')"/>
                <use id="zoomminus" xlink:href="#zoomMin" x="42" y="9" onmousedown="handleZoom(evt,'out')"/>
                <use id="reset" xlink:href="#resetDef" x="30" y="36" onmousedown="handleReset()"/>
                <g id="arrowUp" xlink:href="#dirArrow" transform="translate(30 24)" onmousedown="handlePan(0,-1)">
                  <use xlink:href="#rim" fill="#404040">
                        <set attributeName="fill" to="#808080" begin="arrowUp.mouseover" end="arrowUp.mouseout"/>
                  </use>
                  <path fill="none" stroke="white" stroke-width="1.5" d="M0,-3.0v7 M-2.5,-0.5L0,-3.0L2.5,-0.5"/>
                </g>
                <g id="arrowRight" xlink:href="#dirArrow" transform="rotate(90) translate(36 -43)" onmousedown="handlePan(1,0)">
                  <use xlink:href="#rim" fill="#404040">
                        <set attributeName="fill" to="#808080" begin="arrowRight.mouseover" end="arrowRight.mouseout"/>
                  </use>
                  <path fill="none" stroke="white" stroke-width="1.5" d="M0,-3.0v7 M-2.5,-0.5L0,-3.0L2.5,-0.5"/>
                </g>
                <g id="arrowDown" xlink:href="#dirArrow" transform="rotate(180) translate(-30 -48)" onmousedown="handlePan(0,1)">
                  <use xlink:href="#rim" fill="#404040">
                        <set attributeName="fill" to="#808080" begin="arrowDown.mouseover" end="arrowDown.mouseout"/>
                  </use>
                  <path fill="none" stroke="white" stroke-width="1.5" d="M0,-3.0v7 M-2.5,-0.5L0,-3.0L2.5,-0.5"/>
                </g>
                <g id="arrowLeft" xlink:href="#dirArrow" transform="rotate(270) translate(-36 17)" onmousedown="handlePan(-1,0)">
                  <use xlink:href="#rim" fill="#404040">
                        <set attributeName="fill" to="#808080" begin="arrowLeft.mouseover" end="arrowLeft.mouseout"/>
                  </use>
                  <path fill="none" stroke="white" stroke-width="1.5" d="M0,-3.0v7 M-2.5,-0.5L0,-3.0L2.5,-0.5"/>
                </g>
        </g>
        <svg viewBox="0 0 15 15" width="100%" height="30px" preserveAspectRatio="xMaxYMin meet">
         <g id="arrow_out" transform="scale(0.3 0.3)">
          <a xlink:href="class_t_p_delegate__coll__graph_org.svg" target="_base">
           <rect id="button" ry="5" rx="5" y="6" x="6" height="38" width="38"
                fill="#f2f5e9" fill-opacity="0.5" stroke="#606060" stroke-width="1.0"/>
           <path id="arrow"
             d="M 11.500037,31.436501 C 11.940474,20.09759 22.043105,11.32322 32.158766,21.979434 L 37.068811,17.246167 C 37.068811,17.246167 37.088388,32 37.088388,32 L 22.160133,31.978069 C 22.160133,31.978069 26.997745,27.140456 26.997745,27.140456 C 18.528582,18.264221 13.291696,25.230495 11.500037,31.436501 z"
             style="fill:#404040;"/>
          </a>
         </g>
        </svg>
</svg>
