<?xml version="1.0" encoding="UTF-8" standalone="no"?>
<!DOCTYPE svg PUBLIC "-//W3C//DTD SVG 1.1//EN"
 "http://www.w3.org/Graphics/SVG/1.1/DTD/svg11.dtd">
<!-- Generated by graphviz version 2.43.0 (0)
 -->
<!-- Title: tflite::VectorOfTensors&lt; T &gt; Pages: 1 -->
<svg width="172pt" height="453pt"
 viewBox="0.00 0.00 172.00 453.00" xmlns="http://www.w3.org/2000/svg" xmlns:xlink="http://www.w3.org/1999/xlink">
<g id="graph0" class="graph" transform="scale(1 1) rotate(0) translate(4 449)">
<title>tflite::VectorOfTensors&lt; T &gt;</title>
<!-- Node1 -->
<g id="node1" class="node">
<title>Node1</title>
<g id="a_node1"><a xlink:title=" ">
<polygon fill="#bfbfbf" stroke="black" points="6,-332.5 6,-444.5 158,-444.5 158,-332.5 6,-332.5"/>
<text text-anchor="middle" x="82" y="-432.5" font-family="Helvetica,sans-Serif" font-size="10.00">tflite::VectorOfTensors&lt; T &gt;</text>
<polyline fill="none" stroke="black" points="6,-425.5 158,-425.5 "/>
<text text-anchor="middle" x="82" y="-413.5" font-family="Helvetica,sans-Serif" font-size="10.00"> </text>
<polyline fill="none" stroke="black" points="6,-406.5 158,-406.5 "/>
<text text-anchor="start" x="14" y="-394.5" font-family="Helvetica,sans-Serif" font-size="10.00">+ VectorOfTensors()</text>
<text text-anchor="start" x="14" y="-383.5" font-family="Helvetica,sans-Serif" font-size="10.00">+ data()</text>
<text text-anchor="start" x="14" y="-372.5" font-family="Helvetica,sans-Serif" font-size="10.00">+ shapes()</text>
<text text-anchor="start" x="14" y="-361.5" font-family="Helvetica,sans-Serif" font-size="10.00">+ VectorOfTensors()</text>
<text text-anchor="start" x="14" y="-350.5" font-family="Helvetica,sans-Serif" font-size="10.00">+ data()</text>
<text text-anchor="start" x="14" y="-339.5" font-family="Helvetica,sans-Serif" font-size="10.00">+ shapes()</text>
</a>
</g>
</g>
<!-- Node2 -->
<g id="node2" class="node">
<title>Node2</title>
<g id="a_node2"><a xlink:href="classtflite_1_1_vector_of_tensors.html" target="_top" xlink:title=" ">
<polygon fill="none" stroke="black" points="20,-161.5 20,-284.5 144,-284.5 144,-161.5 20,-161.5"/>
<text text-anchor="start" x="28" y="-272.5" font-family="Helvetica,sans-Serif" font-size="10.00">tflite::VectorOfTensors</text>
<text text-anchor="middle" x="82" y="-261.5" font-family="Helvetica,sans-Serif" font-size="10.00">&lt; uint8_t &gt;</text>
<polyline fill="none" stroke="black" points="20,-254.5 144,-254.5 "/>
<text text-anchor="middle" x="82" y="-242.5" font-family="Helvetica,sans-Serif" font-size="10.00"> </text>
<polyline fill="none" stroke="black" points="20,-235.5 144,-235.5 "/>
<text text-anchor="start" x="28" y="-223.5" font-family="Helvetica,sans-Serif" font-size="10.00">+ VectorOfTensors()</text>
<text text-anchor="start" x="28" y="-212.5" font-family="Helvetica,sans-Serif" font-size="10.00">+ VectorOfTensors()</text>
<text text-anchor="start" x="28" y="-201.5" font-family="Helvetica,sans-Serif" font-size="10.00">+ data()</text>
<text text-anchor="start" x="28" y="-190.5" font-family="Helvetica,sans-Serif" font-size="10.00">+ data()</text>
<text text-anchor="start" x="28" y="-179.5" font-family="Helvetica,sans-Serif" font-size="10.00">+ shapes()</text>
<text text-anchor="start" x="28" y="-168.5" font-family="Helvetica,sans-Serif" font-size="10.00">+ shapes()</text>
</a>
</g>
</g>
<!-- Node1&#45;&gt;Node2 -->
<g id="edge1" class="edge">
<title>Node1&#45;&gt;Node2</title>
<path fill="none" stroke="orange" d="M82,-321.94C82,-309.62 82,-296.79 82,-284.63"/>
<polygon fill="orange" stroke="orange" points="78.5,-322.15 82,-332.15 85.5,-322.15 78.5,-322.15"/>
<text text-anchor="middle" x="112" y="-306" font-family="Helvetica,sans-Serif" font-size="10.00"> &lt; uint8_t &gt;</text>
</g>
<!-- Node3 -->
<g id="node3" class="node">
<title>Node3</title>
<g id="a_node3"><a xlink:href="classtflite_1_1_vector_of_quantized_tensors.html" target="_top" xlink:title=" ">
<polygon fill="none" stroke="black" points="0,-0.5 0,-123.5 164,-123.5 164,-0.5 0,-0.5"/>
<text text-anchor="start" x="8" y="-111.5" font-family="Helvetica,sans-Serif" font-size="10.00">tflite::VectorOfQuantized</text>
<text text-anchor="middle" x="82" y="-100.5" font-family="Helvetica,sans-Serif" font-size="10.00">Tensors</text>
<polyline fill="none" stroke="black" points="0,-93.5 164,-93.5 "/>
<text text-anchor="middle" x="82" y="-81.5" font-family="Helvetica,sans-Serif" font-size="10.00"> </text>
<polyline fill="none" stroke="black" points="0,-74.5 164,-74.5 "/>
<text text-anchor="start" x="8" y="-62.5" font-family="Helvetica,sans-Serif" font-size="10.00">+ VectorOfQuantizedTensors()</text>
<text text-anchor="start" x="8" y="-51.5" font-family="Helvetica,sans-Serif" font-size="10.00">+ scale()</text>
<text text-anchor="start" x="8" y="-40.5" font-family="Helvetica,sans-Serif" font-size="10.00">+ zero_point()</text>
<text text-anchor="start" x="8" y="-29.5" font-family="Helvetica,sans-Serif" font-size="10.00">+ VectorOfQuantizedTensors()</text>
<text text-anchor="start" x="8" y="-18.5" font-family="Helvetica,sans-Serif" font-size="10.00">+ scale()</text>
<text text-anchor="start" x="8" y="-7.5" font-family="Helvetica,sans-Serif" font-size="10.00">+ zero_point()</text>
</a>
</g>
</g>
<!-- Node2&#45;&gt;Node3 -->
<g id="edge2" class="edge">
<title>Node2&#45;&gt;Node3</title>
<path fill="none" stroke="midnightblue" d="M82,-151.17C82,-141.99 82,-132.65 82,-123.66"/>
<polygon fill="none" stroke="midnightblue" points="78.5,-151.44 82,-161.44 85.5,-151.44 78.5,-151.44"/>
</g>
</g>
</svg>
