<?xml version="1.0" encoding="UTF-8" standalone="no"?>
<!DOCTYPE svg PUBLIC "-//W3C//DTD SVG 1.1//EN"
 "http://www.w3.org/Graphics/SVG/1.1/DTD/svg11.dtd">
<!-- Generated by graphviz version 2.43.0 (0)
 -->
<!-- Title: tflite::ErrorReporter Pages: 1 -->
<svg width="145pt" height="270pt"
 viewBox="0.00 0.00 145.00 270.00" xmlns="http://www.w3.org/2000/svg" xmlns:xlink="http://www.w3.org/1999/xlink">
<g id="graph0" class="graph" transform="scale(1 1) rotate(0) translate(4 266)">
<title>tflite::ErrorReporter</title>
<!-- Node1 -->
<g id="node1" class="node">
<title>Node1</title>
<g id="a_node1"><a xlink:title=" ">
<polygon fill="#bfbfbf" stroke="black" points="13.5,-127.5 13.5,-261.5 123.5,-261.5 123.5,-127.5 13.5,-127.5"/>
<text text-anchor="middle" x="68.5" y="-249.5" font-family="Helvetica,sans-Serif" font-size="10.00">tflite::ErrorReporter</text>
<polyline fill="none" stroke="black" points="13.5,-242.5 123.5,-242.5 "/>
<text text-anchor="middle" x="68.5" y="-230.5" font-family="Helvetica,sans-Serif" font-size="10.00"> </text>
<polyline fill="none" stroke="black" points="13.5,-223.5 123.5,-223.5 "/>
<text text-anchor="start" x="21.5" y="-211.5" font-family="Helvetica,sans-Serif" font-size="10.00">+ ~ErrorReporter()</text>
<text text-anchor="start" x="21.5" y="-200.5" font-family="Helvetica,sans-Serif" font-size="10.00">+ Report()</text>
<text text-anchor="start" x="21.5" y="-189.5" font-family="Helvetica,sans-Serif" font-size="10.00">+ Report()</text>
<text text-anchor="start" x="21.5" y="-178.5" font-family="Helvetica,sans-Serif" font-size="10.00">+ ReportError()</text>
<text text-anchor="start" x="21.5" y="-167.5" font-family="Helvetica,sans-Serif" font-size="10.00">+ ~ErrorReporter()</text>
<text text-anchor="start" x="21.5" y="-156.5" font-family="Helvetica,sans-Serif" font-size="10.00">+ Report()</text>
<text text-anchor="start" x="21.5" y="-145.5" font-family="Helvetica,sans-Serif" font-size="10.00">+ Report()</text>
<text text-anchor="start" x="21.5" y="-134.5" font-family="Helvetica,sans-Serif" font-size="10.00">+ ReportError()</text>
</a>
</g>
</g>
<!-- Node2 -->
<g id="node2" class="node">
<title>Node2</title>
<g id="a_node2"><a xlink:href="classtflite_1_1_micro_error_reporter.html" target="_top" xlink:title=" ">
<polygon fill="none" stroke="black" points="0,-0.5 0,-90.5 137,-90.5 137,-0.5 0,-0.5"/>
<text text-anchor="middle" x="68.5" y="-78.5" font-family="Helvetica,sans-Serif" font-size="10.00">tflite::MicroErrorReporter</text>
<polyline fill="none" stroke="black" points="0,-71.5 137,-71.5 "/>
<text text-anchor="middle" x="68.5" y="-59.5" font-family="Helvetica,sans-Serif" font-size="10.00"> </text>
<polyline fill="none" stroke="black" points="0,-52.5 137,-52.5 "/>
<text text-anchor="start" x="8" y="-40.5" font-family="Helvetica,sans-Serif" font-size="10.00">+ ~MicroErrorReporter()</text>
<text text-anchor="start" x="8" y="-29.5" font-family="Helvetica,sans-Serif" font-size="10.00">+ Report()</text>
<text text-anchor="start" x="8" y="-18.5" font-family="Helvetica,sans-Serif" font-size="10.00">+ ~MicroErrorReporter()</text>
<text text-anchor="start" x="8" y="-7.5" font-family="Helvetica,sans-Serif" font-size="10.00">+ Report()</text>
</a>
</g>
</g>
<!-- Node1&#45;&gt;Node2 -->
<g id="edge1" class="edge">
<title>Node1&#45;&gt;Node2</title>
<path fill="none" stroke="midnightblue" d="M68.5,-117.15C68.5,-108.15 68.5,-99.2 68.5,-90.85"/>
<polygon fill="none" stroke="midnightblue" points="65,-117.31 68.5,-127.31 72,-117.31 65,-117.31"/>
</g>
</g>
</svg>
