<?xml version="1.0" encoding="UTF-8" standalone="no"?>
<!DOCTYPE svg PUBLIC "-//W3C//DTD SVG 1.1//EN"
 "http://www.w3.org/Graphics/SVG/1.1/DTD/svg11.dtd">
<!-- Generated by graphviz version 2.43.0 (0)
 -->
<!-- Title: flatbuffers::FlatBufferBuilder::CreateVector Pages: 1 -->
<svg width="553pt" height="137pt"
 viewBox="0.00 0.00 553.00 137.00" xmlns="http://www.w3.org/2000/svg" xmlns:xlink="http://www.w3.org/1999/xlink">
<g id="graph0" class="graph" transform="scale(1 1) rotate(0) translate(4 133)">
<title>flatbuffers::FlatBufferBuilder::CreateVector</title>
<!-- Node1 -->
<g id="node1" class="node">
<title>Node1</title>
<g id="a_node1"><a xlink:title="Serialize an array into a FlatBuffer vector.">
<polygon fill="#bfbfbf" stroke="black" points="390,-49.5 390,-79.5 545,-79.5 545,-49.5 390,-49.5"/>
<text text-anchor="start" x="398" y="-67.5" font-family="Helvetica,sans-Serif" font-size="10.00">flatbuffers::FlatBufferBuilder</text>
<text text-anchor="middle" x="467.5" y="-56.5" font-family="Helvetica,sans-Serif" font-size="10.00">::CreateVector</text>
</a>
</g>
</g>
<!-- Node2 -->
<g id="node2" class="node">
<title>Node2</title>
<g id="a_node2"><a xlink:href="classflatbuffers_1_1_flat_buffer_builder.html#af715dd24dd37cb0151dc7a980ad0f207" target="_top" xlink:title="Serialize a std::vector into a FlatBuffer vector.">
<polygon fill="none" stroke="black" points="197,-98.5 197,-128.5 352,-128.5 352,-98.5 197,-98.5"/>
<text text-anchor="start" x="205" y="-116.5" font-family="Helvetica,sans-Serif" font-size="10.00">flatbuffers::FlatBufferBuilder</text>
<text text-anchor="middle" x="274.5" y="-105.5" font-family="Helvetica,sans-Serif" font-size="10.00">::CreateVector</text>
</a>
</g>
</g>
<!-- Node1&#45;&gt;Node2 -->
<g id="edge1" class="edge">
<title>Node1&#45;&gt;Node2</title>
<path fill="none" stroke="midnightblue" d="M398.09,-82.05C377.12,-87.43 354.24,-93.3 333.99,-98.49"/>
<polygon fill="midnightblue" stroke="midnightblue" points="399.08,-85.41 407.9,-79.53 397.34,-78.63 399.08,-85.41"/>
</g>
<!-- Node3 -->
<g id="node3" class="node">
<title>Node3</title>
<g id="a_node3"><a xlink:href="classflatbuffers_1_1_flat_buffer_builder.html#a2130ef232ff405eebe2e7f184ecd06e6" target="_top" xlink:title="Serialize an array of table offsets as a vector in the buffer in sorted order.">
<polygon fill="none" stroke="black" points="195,-49.5 195,-79.5 354,-79.5 354,-49.5 195,-49.5"/>
<text text-anchor="start" x="203" y="-67.5" font-family="Helvetica,sans-Serif" font-size="10.00">flatbuffers::FlatBufferBuilder</text>
<text text-anchor="middle" x="274.5" y="-56.5" font-family="Helvetica,sans-Serif" font-size="10.00">::CreateVectorOfSortedTables</text>
</a>
</g>
</g>
<!-- Node1&#45;&gt;Node3 -->
<g id="edge2" class="edge">
<title>Node1&#45;&gt;Node3</title>
<path fill="none" stroke="midnightblue" d="M379.66,-64.5C371.21,-64.5 362.66,-64.5 354.29,-64.5"/>
<polygon fill="midnightblue" stroke="midnightblue" points="379.91,-68 389.91,-64.5 379.91,-61 379.91,-68"/>
</g>
<!-- Node5 -->
<g id="node5" class="node">
<title>Node5</title>
<g id="a_node5"><a xlink:href="classflatbuffers_1_1_flat_buffer_builder.html#a592110519a6c8db1926f1365bf2a58e6" target="_top" xlink:title="Serialize a std::vector&lt;std::string&gt; into a FlatBuffer vector. This is a convenience function for a c...">
<polygon fill="none" stroke="black" points="197,-0.5 197,-30.5 352,-30.5 352,-0.5 197,-0.5"/>
<text text-anchor="start" x="205" y="-18.5" font-family="Helvetica,sans-Serif" font-size="10.00">flatbuffers::FlatBufferBuilder</text>
<text text-anchor="middle" x="274.5" y="-7.5" font-family="Helvetica,sans-Serif" font-size="10.00">::CreateVectorOfStrings</text>
</a>
</g>
</g>
<!-- Node1&#45;&gt;Node5 -->
<g id="edge4" class="edge">
<title>Node1&#45;&gt;Node5</title>
<path fill="none" stroke="midnightblue" d="M398.09,-46.95C377.12,-41.57 354.24,-35.7 333.99,-30.51"/>
<polygon fill="midnightblue" stroke="midnightblue" points="397.34,-50.37 407.9,-49.47 399.08,-43.59 397.34,-50.37"/>
</g>
<!-- Node4 -->
<g id="node4" class="node">
<title>Node4</title>
<g id="a_node4"><a xlink:href="classflatbuffers_1_1_flat_buffer_builder.html#ac64d11c219559ea51567eab556e13135" target="_top" xlink:title="Serialize an array of table offsets as a vector in the buffer in sorted order.">
<polygon fill="none" stroke="black" points="0,-49.5 0,-79.5 159,-79.5 159,-49.5 0,-49.5"/>
<text text-anchor="start" x="8" y="-67.5" font-family="Helvetica,sans-Serif" font-size="10.00">flatbuffers::FlatBufferBuilder</text>
<text text-anchor="middle" x="79.5" y="-56.5" font-family="Helvetica,sans-Serif" font-size="10.00">::CreateVectorOfSortedTables</text>
</a>
</g>
</g>
<!-- Node3&#45;&gt;Node4 -->
<g id="edge3" class="edge">
<title>Node3&#45;&gt;Node4</title>
<path fill="none" stroke="midnightblue" d="M184.98,-64.5C176.39,-64.5 167.72,-64.5 159.24,-64.5"/>
<polygon fill="midnightblue" stroke="midnightblue" points="185,-68 195,-64.5 185,-61 185,-68"/>
</g>
</g>
</svg>
