<?xml version="1.0" encoding="UTF-8" standalone="no"?>
<!DOCTYPE svg PUBLIC "-//W3C//DTD SVG 1.1//EN"
 "http://www.w3.org/Graphics/SVG/1.1/DTD/svg11.dtd">
<!-- Generated by graphviz version 2.43.0 (0)
 -->
<!-- Title: Graphical Class Hierarchy Pages: 1 -->
<svg width="299pt" height="127pt"
 viewBox="0.00 0.00 299.00 126.50" xmlns="http://www.w3.org/2000/svg" xmlns:xlink="http://www.w3.org/1999/xlink">
<g id="graph0" class="graph" transform="scale(1 1) rotate(0) translate(4 122.5)">
<title>Graphical Class Hierarchy</title>
<!-- Node429 -->
<g id="node1" class="node">
<title>Node429</title>
<g id="a_node1"><a xlink:title=" ">
<polygon fill="none" stroke="#bfbfbf" points="0,-44.5 0,-63.5 101,-63.5 101,-44.5 0,-44.5"/>
<text text-anchor="middle" x="50.5" y="-51.5" font-family="Helvetica,sans-Serif" font-size="10.00">integral_constant</text>
</a>
</g>
</g>
<!-- Node0 -->
<g id="node2" class="node">
<title>Node0</title>
<g id="a_node2"><a xlink:href="structflatbuffers_1_1integral__constant.html" target="_top" xlink:title=" ">
<polygon fill="none" stroke="black" points="159,-88 159,-118 269,-118 269,-88 159,-88"/>
<text text-anchor="start" x="167" y="-106" font-family="Helvetica,sans-Serif" font-size="10.00">flatbuffers::integral</text>
<text text-anchor="middle" x="214" y="-95" font-family="Helvetica,sans-Serif" font-size="10.00">_constant&lt; T, v &gt;</text>
</a>
</g>
</g>
<!-- Node429&#45;&gt;Node0 -->
<g id="edge1" class="edge">
<title>Node429&#45;&gt;Node0</title>
<path fill="none" stroke="midnightblue" d="M92.84,-66.54C114.36,-73.07 140.83,-81.1 163.44,-87.96"/>
<polygon fill="midnightblue" stroke="midnightblue" points="93.61,-63.12 83.02,-63.56 91.58,-69.82 93.61,-63.12"/>
</g>
<!-- Node431 -->
<g id="node3" class="node">
<title>Node431</title>
<g id="a_node3"><a xlink:href="structtflite_1_1is__int32__or__int64.html" target="_top" xlink:title=" ">
<polygon fill="none" stroke="black" points="165,-39 165,-69 263,-69 263,-39 165,-39"/>
<text text-anchor="start" x="173" y="-57" font-family="Helvetica,sans-Serif" font-size="10.00">tflite::is_int32_or</text>
<text text-anchor="middle" x="214" y="-46" font-family="Helvetica,sans-Serif" font-size="10.00">_int64&lt; T &gt;</text>
</a>
</g>
</g>
<!-- Node429&#45;&gt;Node431 -->
<g id="edge2" class="edge">
<title>Node429&#45;&gt;Node431</title>
<path fill="none" stroke="midnightblue" d="M111.44,-54C129.02,-54 148.02,-54 164.78,-54"/>
<polygon fill="midnightblue" stroke="midnightblue" points="111.27,-50.5 101.27,-54 111.27,-57.5 111.27,-50.5"/>
</g>
<!-- Node432 -->
<g id="node4" class="node">
<title>Node432</title>
<g id="a_node4"><a xlink:href="structtflite_1_1is__small__integer.html" target="_top" xlink:title=" ">
<polygon fill="none" stroke="black" points="137,-0.5 137,-19.5 291,-19.5 291,-0.5 137,-0.5"/>
<text text-anchor="middle" x="214" y="-7.5" font-family="Helvetica,sans-Serif" font-size="10.00">tflite::is_small_integer&lt; T &gt;</text>
</a>
</g>
</g>
<!-- Node429&#45;&gt;Node432 -->
<g id="edge3" class="edge">
<title>Node429&#45;&gt;Node432</title>
<path fill="none" stroke="midnightblue" d="M95.12,-41.61C108.54,-37.84 123.37,-33.71 137,-30 149.77,-26.53 163.77,-22.82 176.24,-19.54"/>
<polygon fill="midnightblue" stroke="midnightblue" points="93.85,-38.33 85.17,-44.41 95.74,-45.07 93.85,-38.33"/>
</g>
</g>
</svg>
