<?xml version="1.0" encoding="UTF-8" standalone="no"?>
<!DOCTYPE svg PUBLIC "-//W3C//DTD SVG 1.1//EN"
 "http://www.w3.org/Graphics/SVG/1.1/DTD/svg11.dtd">
<!-- Generated by graphviz version 2.43.0 (0)
 -->
<!-- Title: Graphical Class Hierarchy Pages: 1 -->
<svg width="632pt" height="88pt"
 viewBox="0.00 0.00 632.00 88.00" xmlns="http://www.w3.org/2000/svg" xmlns:xlink="http://www.w3.org/1999/xlink">
<g id="graph0" class="graph" transform="scale(1 1) rotate(0) translate(4 84)">
<title>Graphical Class Hierarchy</title>
<!-- Node0 -->
<g id="node1" class="node">
<title>Node0</title>
<g id="a_node1"><a xlink:href="classtflite_1_1_op_resolver.html" target="_top" xlink:title=" ">
<polygon fill="none" stroke="black" points="0,-30 0,-49 101,-49 101,-30 0,-30"/>
<text text-anchor="middle" x="50.5" y="-37" font-family="Helvetica,sans-Serif" font-size="10.00">tflite::OpResolver</text>
</a>
</g>
</g>
<!-- Node1 -->
<g id="node2" class="node">
<title>Node1</title>
<g id="a_node2"><a xlink:href="classtflite_1_1_micro_op_resolver.html" target="_top" xlink:title=" ">
<polygon fill="none" stroke="black" points="137,-30 137,-49 265,-49 265,-30 137,-30"/>
<text text-anchor="middle" x="201" y="-37" font-family="Helvetica,sans-Serif" font-size="10.00">tflite::MicroOpResolver</text>
</a>
</g>
</g>
<!-- Node0&#45;&gt;Node1 -->
<g id="edge1" class="edge">
<title>Node0&#45;&gt;Node1</title>
<path fill="none" stroke="midnightblue" d="M111.41,-39.5C119.78,-39.5 128.4,-39.5 136.82,-39.5"/>
<polygon fill="midnightblue" stroke="midnightblue" points="111.36,-36 101.36,-39.5 111.36,-43 111.36,-36"/>
</g>
<!-- Node2 -->
<g id="node3" class="node">
<title>Node2</title>
<g id="a_node3"><a xlink:href="classtflite_1_1_micro_mutable_op_resolver.html" target="_top" xlink:title=" ">
<polygon fill="none" stroke="black" points="301,-49.5 301,-79.5 469,-79.5 469,-49.5 301,-49.5"/>
<text text-anchor="start" x="309" y="-67.5" font-family="Helvetica,sans-Serif" font-size="10.00">tflite::MicroMutableOpResolver</text>
<text text-anchor="middle" x="385" y="-56.5" font-family="Helvetica,sans-Serif" font-size="10.00">&lt; 128 &gt;</text>
</a>
</g>
</g>
<!-- Node1&#45;&gt;Node2 -->
<g id="edge2" class="edge">
<title>Node1&#45;&gt;Node2</title>
<path fill="none" stroke="midnightblue" d="M275.26,-49.56C283.66,-50.72 292.26,-51.9 300.77,-53.07"/>
<polygon fill="midnightblue" stroke="midnightblue" points="275.53,-46.07 265.14,-48.17 274.57,-53 275.53,-46.07"/>
</g>
<!-- Node4 -->
<g id="node5" class="node">
<title>Node4</title>
<g id="a_node5"><a xlink:href="classtflite_1_1_micro_mutable_op_resolver.html" target="_top" xlink:title=" ">
<polygon fill="none" stroke="black" points="301,-0.5 301,-30.5 469,-30.5 469,-0.5 301,-0.5"/>
<text text-anchor="start" x="309" y="-18.5" font-family="Helvetica,sans-Serif" font-size="10.00">tflite::MicroMutableOpResolver</text>
<text text-anchor="middle" x="385" y="-7.5" font-family="Helvetica,sans-Serif" font-size="10.00">&lt; tOpCount &gt;</text>
</a>
</g>
</g>
<!-- Node1&#45;&gt;Node4 -->
<g id="edge4" class="edge">
<title>Node1&#45;&gt;Node4</title>
<path fill="none" stroke="midnightblue" d="M275.26,-29.84C283.66,-28.73 292.26,-27.6 300.77,-26.47"/>
<polygon fill="midnightblue" stroke="midnightblue" points="274.6,-26.4 265.14,-31.17 275.52,-33.34 274.6,-26.4"/>
</g>
<!-- Node3 -->
<g id="node4" class="node">
<title>Node3</title>
<g id="a_node4"><a xlink:href="classtflite_1_1_all_ops_resolver.html" target="_top" xlink:title=" ">
<polygon fill="none" stroke="black" points="505,-55 505,-74 624,-74 624,-55 505,-55"/>
<text text-anchor="middle" x="564.5" y="-62" font-family="Helvetica,sans-Serif" font-size="10.00">tflite::AllOpsResolver</text>
</a>
</g>
</g>
<!-- Node2&#45;&gt;Node3 -->
<g id="edge3" class="edge">
<title>Node2&#45;&gt;Node3</title>
<path fill="none" stroke="midnightblue" d="M479.25,-64.5C487.94,-64.5 496.58,-64.5 504.83,-64.5"/>
<polygon fill="midnightblue" stroke="midnightblue" points="479.03,-61 469.03,-64.5 479.03,-68 479.03,-61"/>
</g>
</g>
</svg>
