<?xml version="1.0" encoding="UTF-8" standalone="no"?>
<!DOCTYPE svg PUBLIC "-//W3C//DTD SVG 1.1//EN"
 "http://www.w3.org/Graphics/SVG/1.1/DTD/svg11.dtd">
<!-- Generated by graphviz version 2.43.0 (0)
 -->
<!-- Title: Graphical Class Hierarchy Pages: 1 -->
<svg width="610pt" height="142pt"
 viewBox="0.00 0.00 610.00 142.00" xmlns="http://www.w3.org/2000/svg" xmlns:xlink="http://www.w3.org/1999/xlink">
<g id="graph0" class="graph" transform="scale(1 1) rotate(0) translate(4 138)">
<title>Graphical Class Hierarchy</title>
<!-- Node0 -->
<g id="node1" class="node">
<title>Node0</title>
<g id="a_node1"><a xlink:href="classflexbuffers_1_1_object.html" target="_top" xlink:title=" ">
<polygon fill="none" stroke="black" points="0,-76.5 0,-95.5 106,-95.5 106,-76.5 0,-76.5"/>
<text text-anchor="middle" x="53" y="-83.5" font-family="Helvetica,sans-Serif" font-size="10.00">flexbuffers::Object</text>
</a>
</g>
</g>
<!-- Node1 -->
<g id="node2" class="node">
<title>Node1</title>
<g id="a_node2"><a xlink:href="classflexbuffers_1_1_fixed_typed_vector.html" target="_top" xlink:title=" ">
<polygon fill="none" stroke="black" points="142,-95.5 142,-114.5 301,-114.5 301,-95.5 142,-95.5"/>
<text text-anchor="middle" x="221.5" y="-102.5" font-family="Helvetica,sans-Serif" font-size="10.00">flexbuffers::FixedTypedVector</text>
</a>
</g>
</g>
<!-- Node0&#45;&gt;Node1 -->
<g id="edge1" class="edge">
<title>Node0&#45;&gt;Node1</title>
<path fill="none" stroke="midnightblue" d="M116.27,-93.11C124.64,-94.06 133.32,-95.05 141.93,-96.03"/>
<polygon fill="midnightblue" stroke="midnightblue" points="116.56,-89.62 106.22,-91.96 115.76,-96.57 116.56,-89.62"/>
</g>
<!-- Node2 -->
<g id="node3" class="node">
<title>Node2</title>
<g id="a_node3"><a xlink:href="classflexbuffers_1_1_sized.html" target="_top" xlink:title=" ">
<polygon fill="none" stroke="black" points="171,-57.5 171,-76.5 272,-76.5 272,-57.5 171,-57.5"/>
<text text-anchor="middle" x="221.5" y="-64.5" font-family="Helvetica,sans-Serif" font-size="10.00">flexbuffers::Sized</text>
</a>
</g>
</g>
<!-- Node0&#45;&gt;Node2 -->
<g id="edge2" class="edge">
<title>Node0&#45;&gt;Node2</title>
<path fill="none" stroke="midnightblue" d="M116.32,-78.89C134.29,-76.84 153.64,-74.63 170.73,-72.68"/>
<polygon fill="midnightblue" stroke="midnightblue" points="115.76,-75.43 106.22,-80.04 116.56,-82.38 115.76,-75.43"/>
</g>
<!-- Node3 -->
<g id="node4" class="node">
<title>Node3</title>
<g id="a_node4"><a xlink:href="classflexbuffers_1_1_blob.html" target="_top" xlink:title=" ">
<polygon fill="none" stroke="black" points="356,-114.5 356,-133.5 452,-133.5 452,-114.5 356,-114.5"/>
<text text-anchor="middle" x="404" y="-121.5" font-family="Helvetica,sans-Serif" font-size="10.00">flexbuffers::Blob</text>
</a>
</g>
</g>
<!-- Node2&#45;&gt;Node3 -->
<g id="edge3" class="edge">
<title>Node2&#45;&gt;Node3</title>
<path fill="none" stroke="midnightblue" d="M280.08,-79.19C287.21,-81.21 294.33,-83.48 301,-86 317.92,-92.4 320.22,-98.24 337,-105 345.85,-108.56 355.61,-111.76 364.85,-114.46"/>
<polygon fill="midnightblue" stroke="midnightblue" points="280.96,-75.8 270.4,-76.59 279.15,-82.56 280.96,-75.8"/>
</g>
<!-- Node4 -->
<g id="node5" class="node">
<title>Node4</title>
<g id="a_node5"><a xlink:href="classflexbuffers_1_1_string.html" target="_top" xlink:title=" ">
<polygon fill="none" stroke="black" points="352.5,-76.5 352.5,-95.5 455.5,-95.5 455.5,-76.5 352.5,-76.5"/>
<text text-anchor="middle" x="404" y="-83.5" font-family="Helvetica,sans-Serif" font-size="10.00">flexbuffers::String</text>
</a>
</g>
</g>
<!-- Node2&#45;&gt;Node4 -->
<g id="edge4" class="edge">
<title>Node2&#45;&gt;Node4</title>
<path fill="none" stroke="midnightblue" d="M282.49,-73.31C305.15,-75.7 330.7,-78.39 352.42,-80.68"/>
<polygon fill="midnightblue" stroke="midnightblue" points="282.61,-69.81 272.3,-72.24 281.88,-76.77 282.61,-69.81"/>
</g>
<!-- Node5 -->
<g id="node6" class="node">
<title>Node5</title>
<g id="a_node6"><a xlink:href="classflexbuffers_1_1_typed_vector.html" target="_top" xlink:title=" ">
<polygon fill="none" stroke="black" points="337,-38.5 337,-57.5 471,-57.5 471,-38.5 337,-38.5"/>
<text text-anchor="middle" x="404" y="-45.5" font-family="Helvetica,sans-Serif" font-size="10.00">flexbuffers::TypedVector</text>
</a>
</g>
</g>
<!-- Node2&#45;&gt;Node5 -->
<g id="edge5" class="edge">
<title>Node2&#45;&gt;Node5</title>
<path fill="none" stroke="midnightblue" d="M282.35,-60.7C299.81,-58.86 318.98,-56.84 336.8,-54.97"/>
<polygon fill="midnightblue" stroke="midnightblue" points="281.88,-57.23 272.3,-61.76 282.61,-64.19 281.88,-57.23"/>
</g>
<!-- Node6 -->
<g id="node7" class="node">
<title>Node6</title>
<g id="a_node7"><a xlink:href="classflexbuffers_1_1_vector.html" target="_top" xlink:title=" ">
<polygon fill="none" stroke="black" points="351.5,-0.5 351.5,-19.5 456.5,-19.5 456.5,-0.5 351.5,-0.5"/>
<text text-anchor="middle" x="404" y="-7.5" font-family="Helvetica,sans-Serif" font-size="10.00">flexbuffers::Vector</text>
</a>
</g>
</g>
<!-- Node2&#45;&gt;Node6 -->
<g id="edge6" class="edge">
<title>Node2&#45;&gt;Node6</title>
<path fill="none" stroke="midnightblue" d="M259.91,-54.16C282.22,-46.61 311.15,-37.01 337,-29 347.36,-25.79 358.7,-22.46 369.01,-19.5"/>
<polygon fill="midnightblue" stroke="midnightblue" points="258.51,-50.94 250.16,-57.47 260.76,-57.57 258.51,-50.94"/>
</g>
<!-- Node7 -->
<g id="node8" class="node">
<title>Node7</title>
<g id="a_node8"><a xlink:href="classflexbuffers_1_1_map.html" target="_top" xlink:title=" ">
<polygon fill="none" stroke="black" points="507,-0.5 507,-19.5 602,-19.5 602,-0.5 507,-0.5"/>
<text text-anchor="middle" x="554.5" y="-7.5" font-family="Helvetica,sans-Serif" font-size="10.00">flexbuffers::Map</text>
</a>
</g>
</g>
<!-- Node6&#45;&gt;Node7 -->
<g id="edge7" class="edge">
<title>Node6&#45;&gt;Node7</title>
<path fill="none" stroke="midnightblue" d="M466.59,-10C479.95,-10 493.86,-10 506.55,-10"/>
<polygon fill="midnightblue" stroke="midnightblue" points="466.52,-6.5 456.52,-10 466.52,-13.5 466.52,-6.5"/>
</g>
</g>
</svg>
