<?xml version="1.0" encoding="UTF-8" standalone="no"?>
<!DOCTYPE svg PUBLIC "-//W3C//DTD SVG 1.1//EN"
 "http://www.w3.org/Graphics/SVG/1.1/DTD/svg11.dtd">
<!-- Generated by graphviz version 2.43.0 (0)
 -->
<!-- Title: TfLiteSparsity Pages: 1 -->
<svg width="302pt" height="309pt"
 viewBox="0.00 0.00 301.50 309.00" xmlns="http://www.w3.org/2000/svg" xmlns:xlink="http://www.w3.org/1999/xlink">
<g id="graph0" class="graph" transform="scale(1 1) rotate(0) translate(4 305)">
<title>TfLiteSparsity</title>
<!-- Node1 -->
<g id="node1" class="node">
<title>Node1</title>
<g id="a_node1"><a xlink:title=" ">
<polygon fill="#bfbfbf" stroke="black" points="0,-0.5 0,-57.5 124,-57.5 124,-0.5 0,-0.5"/>
<text text-anchor="middle" x="62" y="-45.5" font-family="Helvetica,sans-Serif" font-size="10.00">TfLiteSparsity</text>
<polyline fill="none" stroke="black" points="0,-38.5 124,-38.5 "/>
<text text-anchor="start" x="8" y="-26.5" font-family="Helvetica,sans-Serif" font-size="10.00">+ dim_metadata_size</text>
<polyline fill="none" stroke="black" points="0,-19.5 124,-19.5 "/>
<text text-anchor="middle" x="62" y="-7.5" font-family="Helvetica,sans-Serif" font-size="10.00"> </text>
</a>
</g>
</g>
<!-- Node2 -->
<g id="node2" class="node">
<title>Node2</title>
<g id="a_node2"><a xlink:href="struct_tf_lite_int_array.html" target="_top" xlink:title=" ">
<polygon fill="none" stroke="black" points="20.5,-232.5 20.5,-300.5 103.5,-300.5 103.5,-232.5 20.5,-232.5"/>
<text text-anchor="middle" x="62" y="-288.5" font-family="Helvetica,sans-Serif" font-size="10.00">TfLiteIntArray</text>
<polyline fill="none" stroke="black" points="20.5,-281.5 103.5,-281.5 "/>
<text text-anchor="start" x="28.5" y="-269.5" font-family="Helvetica,sans-Serif" font-size="10.00">+ size</text>
<text text-anchor="start" x="28.5" y="-258.5" font-family="Helvetica,sans-Serif" font-size="10.00">+ data</text>
<polyline fill="none" stroke="black" points="20.5,-251.5 103.5,-251.5 "/>
<text text-anchor="middle" x="62" y="-239.5" font-family="Helvetica,sans-Serif" font-size="10.00"> </text>
</a>
</g>
</g>
<!-- Node2&#45;&gt;Node1 -->
<g id="edge1" class="edge">
<title>Node2&#45;&gt;Node1</title>
<path fill="none" stroke="#404040" d="M59.31,-232.49C58.03,-215.1 56.64,-193.41 56,-174 55,-143.35 54.78,-135.64 56,-105 56.45,-93.62 57.3,-81.29 58.21,-69.98"/>
<polygon fill="none" stroke="#404040" points="58.23,-69.71 54.75,-63.39 59.25,-57.75 62.72,-64.07 58.23,-69.71"/>
<text text-anchor="middle" x="99" y="-142.5" font-family="Helvetica,sans-Serif" font-size="10.00"> +traversal_order</text>
<text text-anchor="middle" x="99" y="-131.5" font-family="Helvetica,sans-Serif" font-size="10.00">+block_map</text>
</g>
<!-- Node3 -->
<g id="node3" class="node">
<title>Node3</title>
<g id="a_node3"><a xlink:href="struct_tf_lite_dimension_metadata.html" target="_top" xlink:title=" ">
<polygon fill="none" stroke="black" points="150.5,-105.5 150.5,-173.5 293.5,-173.5 293.5,-105.5 150.5,-105.5"/>
<text text-anchor="middle" x="222" y="-161.5" font-family="Helvetica,sans-Serif" font-size="10.00">TfLiteDimensionMetadata</text>
<polyline fill="none" stroke="black" points="150.5,-154.5 293.5,-154.5 "/>
<text text-anchor="start" x="158.5" y="-142.5" font-family="Helvetica,sans-Serif" font-size="10.00">+ format</text>
<text text-anchor="start" x="158.5" y="-131.5" font-family="Helvetica,sans-Serif" font-size="10.00">+ dense_size</text>
<polyline fill="none" stroke="black" points="150.5,-124.5 293.5,-124.5 "/>
<text text-anchor="middle" x="222" y="-112.5" font-family="Helvetica,sans-Serif" font-size="10.00"> </text>
</a>
</g>
</g>
<!-- Node2&#45;&gt;Node3 -->
<g id="edge3" class="edge">
<title>Node2&#45;&gt;Node3</title>
<path fill="none" stroke="#404040" d="M103.62,-232.98C123.94,-217.11 148.58,-197.86 170.11,-181.04"/>
<polygon fill="none" stroke="#404040" points="170.3,-180.89 172.56,-174.05 179.75,-173.51 177.49,-180.35 170.3,-180.89"/>
<text text-anchor="middle" x="195" y="-206" font-family="Helvetica,sans-Serif" font-size="10.00"> +array_indices</text>
<text text-anchor="middle" x="195" y="-195" font-family="Helvetica,sans-Serif" font-size="10.00">+array_segments</text>
</g>
<!-- Node3&#45;&gt;Node1 -->
<g id="edge2" class="edge">
<title>Node3&#45;&gt;Node1</title>
<path fill="none" stroke="#404040" d="M173.13,-105.36C154.04,-92.41 132.15,-77.57 112.88,-64.5"/>
<polygon fill="none" stroke="#404040" points="112.7,-64.38 105.49,-64.33 102.77,-57.65 109.98,-57.71 112.7,-64.38"/>
<text text-anchor="middle" x="183.5" y="-79" font-family="Helvetica,sans-Serif" font-size="10.00"> +dim_metadata</text>
</g>
</g>
</svg>
