<?xml version="1.0" encoding="UTF-8" standalone="no"?>
<!DOCTYPE svg PUBLIC "-//W3C//DTD SVG 1.1//EN"
 "http://www.w3.org/Graphics/SVG/1.1/DTD/svg11.dtd">
<!-- Generated by graphviz version 2.43.0 (0)
 -->
<!-- Title: TfLiteDimensionMetadata Pages: 1 -->
<svg width="168pt" height="204pt"
 viewBox="0.00 0.00 167.50 204.00" xmlns="http://www.w3.org/2000/svg" xmlns:xlink="http://www.w3.org/1999/xlink">
<g id="graph0" class="graph" transform="scale(1 1) rotate(0) translate(4 200)">
<title>TfLiteDimensionMetadata</title>
<!-- Node1 -->
<g id="node1" class="node">
<title>Node1</title>
<g id="a_node1"><a xlink:title=" ">
<polygon fill="#bfbfbf" stroke="black" points="0,-0.5 0,-68.5 143,-68.5 143,-0.5 0,-0.5"/>
<text text-anchor="middle" x="71.5" y="-56.5" font-family="Helvetica,sans-Serif" font-size="10.00">TfLiteDimensionMetadata</text>
<polyline fill="none" stroke="black" points="0,-49.5 143,-49.5 "/>
<text text-anchor="start" x="8" y="-37.5" font-family="Helvetica,sans-Serif" font-size="10.00">+ format</text>
<text text-anchor="start" x="8" y="-26.5" font-family="Helvetica,sans-Serif" font-size="10.00">+ dense_size</text>
<polyline fill="none" stroke="black" points="0,-19.5 143,-19.5 "/>
<text text-anchor="middle" x="71.5" y="-7.5" font-family="Helvetica,sans-Serif" font-size="10.00"> </text>
</a>
</g>
</g>
<!-- Node2 -->
<g id="node2" class="node">
<title>Node2</title>
<g id="a_node2"><a xlink:href="struct_tf_lite_int_array.html" target="_top" xlink:title=" ">
<polygon fill="none" stroke="black" points="30,-127.5 30,-195.5 113,-195.5 113,-127.5 30,-127.5"/>
<text text-anchor="middle" x="71.5" y="-183.5" font-family="Helvetica,sans-Serif" font-size="10.00">TfLiteIntArray</text>
<polyline fill="none" stroke="black" points="30,-176.5 113,-176.5 "/>
<text text-anchor="start" x="38" y="-164.5" font-family="Helvetica,sans-Serif" font-size="10.00">+ size</text>
<text text-anchor="start" x="38" y="-153.5" font-family="Helvetica,sans-Serif" font-size="10.00">+ data</text>
<polyline fill="none" stroke="black" points="30,-146.5 113,-146.5 "/>
<text text-anchor="middle" x="71.5" y="-134.5" font-family="Helvetica,sans-Serif" font-size="10.00"> </text>
</a>
</g>
</g>
<!-- Node2&#45;&gt;Node1 -->
<g id="edge1" class="edge">
<title>Node2&#45;&gt;Node1</title>
<path fill="none" stroke="#404040" d="M71.5,-127.33C71.5,-113.2 71.5,-96.49 71.5,-81.22"/>
<polygon fill="none" stroke="#404040" points="71.5,-80.82 67.5,-74.82 71.5,-68.82 75.5,-74.82 71.5,-80.82"/>
<text text-anchor="middle" x="115.5" y="-101" font-family="Helvetica,sans-Serif" font-size="10.00"> +array_indices</text>
<text text-anchor="middle" x="115.5" y="-90" font-family="Helvetica,sans-Serif" font-size="10.00">+array_segments</text>
</g>
</g>
</svg>
