<?xml version="1.0" encoding="UTF-8" standalone="no"?>
<!DOCTYPE svg PUBLIC "-//W3C//DTD SVG 1.1//EN"
 "http://www.w3.org/Graphics/SVG/1.1/DTD/svg11.dtd">
<!-- Generated by graphviz version 2.43.0 (0)
 -->
<!-- Title: tflite::BidirectionalSequenceRNNOptionsT Pages: 1 -->
<svg width="217pt" height="226pt"
 viewBox="0.00 0.00 217.00 226.00" xmlns="http://www.w3.org/2000/svg" xmlns:xlink="http://www.w3.org/1999/xlink">
<g id="graph0" class="graph" transform="scale(1 1) rotate(0) translate(4 222)">
<title>tflite::BidirectionalSequenceRNNOptionsT</title>
<!-- Node1 -->
<g id="node1" class="node">
<title>Node1</title>
<g id="a_node1"><a xlink:title=" ">
<polygon fill="#bfbfbf" stroke="black" points="0,-0.5 0,-123.5 209,-123.5 209,-0.5 0,-0.5"/>
<text text-anchor="start" x="8" y="-111.5" font-family="Helvetica,sans-Serif" font-size="10.00">tflite::BidirectionalSequence</text>
<text text-anchor="middle" x="104.5" y="-100.5" font-family="Helvetica,sans-Serif" font-size="10.00">RNNOptionsT</text>
<polyline fill="none" stroke="black" points="0,-93.5 209,-93.5 "/>
<text text-anchor="start" x="8" y="-81.5" font-family="Helvetica,sans-Serif" font-size="10.00">+ time_major</text>
<text text-anchor="start" x="8" y="-70.5" font-family="Helvetica,sans-Serif" font-size="10.00">+ fused_activation_function</text>
<text text-anchor="start" x="8" y="-59.5" font-family="Helvetica,sans-Serif" font-size="10.00">+ merge_outputs</text>
<text text-anchor="start" x="8" y="-48.5" font-family="Helvetica,sans-Serif" font-size="10.00">+ asymmetric_quantize</text>
<text text-anchor="start" x="8" y="-37.5" font-family="Helvetica,sans-Serif" font-size="10.00">_inputs</text>
<polyline fill="none" stroke="black" points="0,-30.5 209,-30.5 "/>
<text text-anchor="start" x="8" y="-18.5" font-family="Helvetica,sans-Serif" font-size="10.00">+ BidirectionalSequenceRNNOptionsT()</text>
<text text-anchor="start" x="8" y="-7.5" font-family="Helvetica,sans-Serif" font-size="10.00">+ BidirectionalSequenceRNNOptionsT()</text>
</a>
</g>
</g>
<!-- Node2 -->
<g id="node2" class="node">
<title>Node2</title>
<g id="a_node2"><a xlink:title=" ">
<polygon fill="none" stroke="#bfbfbf" points="67.5,-160.5 67.5,-217.5 141.5,-217.5 141.5,-160.5 67.5,-160.5"/>
<text text-anchor="middle" x="104.5" y="-205.5" font-family="Helvetica,sans-Serif" font-size="10.00">NativeTable</text>
<polyline fill="none" stroke="#bfbfbf" points="67.5,-198.5 141.5,-198.5 "/>
<text text-anchor="middle" x="104.5" y="-186.5" font-family="Helvetica,sans-Serif" font-size="10.00"> </text>
<polyline fill="none" stroke="#bfbfbf" points="67.5,-179.5 141.5,-179.5 "/>
<text text-anchor="middle" x="104.5" y="-167.5" font-family="Helvetica,sans-Serif" font-size="10.00"> </text>
</a>
</g>
</g>
<!-- Node2&#45;&gt;Node1 -->
<g id="edge1" class="edge">
<title>Node2&#45;&gt;Node1</title>
<path fill="none" stroke="midnightblue" d="M104.5,-150.1C104.5,-141.74 104.5,-132.68 104.5,-123.67"/>
<polygon fill="none" stroke="midnightblue" points="101,-150.26 104.5,-160.26 108,-150.26 101,-150.26"/>
</g>
</g>
</svg>
