<?xml version="1.0" encoding="UTF-8" standalone="no"?>
<!DOCTYPE svg PUBLIC "-//W3C//DTD SVG 1.1//EN"
 "http://www.w3.org/Graphics/SVG/1.1/DTD/svg11.dtd">
<!-- Generated by graphviz version 2.43.0 (0)
 -->
<!-- Title: TfLiteMatrixSetDiagParams Pages: 1 -->
<svg width="158pt" height="171pt"
 viewBox="0.00 0.00 158.00 171.00" xmlns="http://www.w3.org/2000/svg" xmlns:xlink="http://www.w3.org/1999/xlink">
<g id="graph0" class="graph" transform="scale(1 1) rotate(0) translate(4 167)">
<title>TfLiteMatrixSetDiagParams</title>
<!-- Node1 -->
<g id="node1" class="node">
<title>Node1</title>
<g id="a_node1"><a xlink:title=" ">
<polygon fill="#bfbfbf" stroke="black" points="0,-0.5 0,-57.5 150,-57.5 150,-0.5 0,-0.5"/>
<text text-anchor="middle" x="75" y="-45.5" font-family="Helvetica,sans-Serif" font-size="10.00">TfLiteMatrixSetDiagParams</text>
<polyline fill="none" stroke="black" points="0,-38.5 150,-38.5 "/>
<text text-anchor="middle" x="75" y="-26.5" font-family="Helvetica,sans-Serif" font-size="10.00"> </text>
<polyline fill="none" stroke="black" points="0,-19.5 150,-19.5 "/>
<text text-anchor="middle" x="75" y="-7.5" font-family="Helvetica,sans-Serif" font-size="10.00"> </text>
</a>
</g>
</g>
<!-- Node2 -->
<g id="node2" class="node">
<title>Node2</title>
<g id="a_node2"><a xlink:href="struct_empty_struct_placeholder.html" target="_top" xlink:title=" ">
<polygon fill="none" stroke="black" points="8,-105.5 8,-162.5 142,-162.5 142,-105.5 8,-105.5"/>
<text text-anchor="middle" x="75" y="-150.5" font-family="Helvetica,sans-Serif" font-size="10.00">EmptyStructPlaceholder</text>
<polyline fill="none" stroke="black" points="8,-143.5 142,-143.5 "/>
<text text-anchor="start" x="16" y="-131.5" font-family="Helvetica,sans-Serif" font-size="10.00">+ dummy</text>
<polyline fill="none" stroke="black" points="8,-124.5 142,-124.5 "/>
<text text-anchor="middle" x="75" y="-112.5" font-family="Helvetica,sans-Serif" font-size="10.00"> </text>
</a>
</g>
</g>
<!-- Node2&#45;&gt;Node1 -->
<g id="edge1" class="edge">
<title>Node2&#45;&gt;Node1</title>
<path fill="none" stroke="#404040" d="M75,-105.4C75,-94.55 75,-81.87 75,-70.05"/>
<polygon fill="none" stroke="#404040" points="75,-69.68 71,-63.68 75,-57.68 79,-63.68 75,-69.68"/>
<text text-anchor="middle" x="109.5" y="-79" font-family="Helvetica,sans-Serif" font-size="10.00"> +placeholder</text>
</g>
</g>
</svg>
