<?xml version="1.0" encoding="UTF-8" standalone="no"?>
<!DOCTYPE svg PUBLIC "-//W3C//DTD SVG 1.1//EN"
 "http://www.w3.org/Graphics/SVG/1.1/DTD/svg11.dtd">
<!-- Generated by graphviz version 2.43.0 (0)
 -->
<!-- Title: tflite::ActivationParams Pages: 1 -->
<svg width="165pt" height="215pt"
 viewBox="0.00 0.00 165.00 215.00" xmlns="http://www.w3.org/2000/svg" xmlns:xlink="http://www.w3.org/1999/xlink">
<g id="graph0" class="graph" transform="scale(1 1) rotate(0) translate(4 211)">
<title>tflite::ActivationParams</title>
<!-- Node1 -->
<g id="node1" class="node">
<title>Node1</title>
<g id="a_node1"><a xlink:title=" ">
<polygon fill="#bfbfbf" stroke="black" points="0,-127.5 0,-206.5 157,-206.5 157,-127.5 0,-127.5"/>
<text text-anchor="middle" x="78.5" y="-194.5" font-family="Helvetica,sans-Serif" font-size="10.00">tflite::ActivationParams</text>
<polyline fill="none" stroke="black" points="0,-187.5 157,-187.5 "/>
<text text-anchor="start" x="8" y="-175.5" font-family="Helvetica,sans-Serif" font-size="10.00">+ activation_type</text>
<text text-anchor="start" x="8" y="-164.5" font-family="Helvetica,sans-Serif" font-size="10.00">+ quantized_activation_min</text>
<text text-anchor="start" x="8" y="-153.5" font-family="Helvetica,sans-Serif" font-size="10.00">+ quantized_activation_max</text>
<polyline fill="none" stroke="black" points="0,-146.5 157,-146.5 "/>
<text text-anchor="middle" x="78.5" y="-134.5" font-family="Helvetica,sans-Serif" font-size="10.00"> </text>
</a>
</g>
</g>
<!-- Node2 -->
<g id="node2" class="node">
<title>Node2</title>
<g id="a_node2"><a xlink:href="structtflite_1_1_relu_params.html" target="_top" xlink:title=" ">
<polygon fill="none" stroke="black" points="22.5,-0.5 22.5,-90.5 134.5,-90.5 134.5,-0.5 22.5,-0.5"/>
<text text-anchor="middle" x="78.5" y="-78.5" font-family="Helvetica,sans-Serif" font-size="10.00">tflite::ReluParams</text>
<polyline fill="none" stroke="black" points="22.5,-71.5 134.5,-71.5 "/>
<text text-anchor="start" x="30.5" y="-59.5" font-family="Helvetica,sans-Serif" font-size="10.00">+ input_offset</text>
<text text-anchor="start" x="30.5" y="-48.5" font-family="Helvetica,sans-Serif" font-size="10.00">+ output_offset</text>
<text text-anchor="start" x="30.5" y="-37.5" font-family="Helvetica,sans-Serif" font-size="10.00">+ output_multiplier</text>
<text text-anchor="start" x="30.5" y="-26.5" font-family="Helvetica,sans-Serif" font-size="10.00">+ output_shift</text>
<polyline fill="none" stroke="black" points="22.5,-19.5 134.5,-19.5 "/>
<text text-anchor="middle" x="78.5" y="-7.5" font-family="Helvetica,sans-Serif" font-size="10.00"> </text>
</a>
</g>
</g>
<!-- Node1&#45;&gt;Node2 -->
<g id="edge1" class="edge">
<title>Node1&#45;&gt;Node2</title>
<path fill="none" stroke="midnightblue" d="M78.5,-117.19C78.5,-108.49 78.5,-99.48 78.5,-90.91"/>
<polygon fill="none" stroke="midnightblue" points="75,-117.2 78.5,-127.2 82,-117.2 75,-117.2"/>
</g>
</g>
</svg>
