<?xml version="1.0" encoding="UTF-8" standalone="no"?>
<!DOCTYPE svg PUBLIC "-//W3C//DTD SVG 1.1//EN"
 "http://www.w3.org/Graphics/SVG/1.1/DTD/svg11.dtd">
<!-- Generated by graphviz version 2.43.0 (0)
 -->
<!-- Title: ProcessingUnit::Profile Pages: 1 -->
<svg width="382pt" height="369pt"
 viewBox="0.00 0.00 382.00 369.00" xmlns="http://www.w3.org/2000/svg" xmlns:xlink="http://www.w3.org/1999/xlink">
<g id="graph0" class="graph" transform="scale(1 1) rotate(0) translate(4 365)">
<title>ProcessingUnit::Profile</title>
<!-- Node1 -->
<g id="node1" class="node">
<title>Node1</title>
<g id="a_node1"><a xlink:title=" ">
<polygon fill="#bfbfbf" stroke="black" points="142,-0.5 142,-134.5 268,-134.5 268,-0.5 142,-0.5"/>
<text text-anchor="middle" x="205" y="-122.5" font-family="Helvetica,sans-Serif" font-size="10.00">ProcessingUnit::Profile</text>
<polyline fill="none" stroke="black" points="142,-115.5 268,-115.5 "/>
<text text-anchor="start" x="150" y="-103.5" font-family="Helvetica,sans-Serif" font-size="10.00">+ hwInstance</text>
<text text-anchor="start" x="150" y="-92.5" font-family="Helvetica,sans-Serif" font-size="10.00">+ dmaInstance</text>
<text text-anchor="start" x="150" y="-81.5" font-family="Helvetica,sans-Serif" font-size="10.00">+ hwDeviceID</text>
<text text-anchor="start" x="150" y="-70.5" font-family="Helvetica,sans-Serif" font-size="10.00">+ dmaDeviceID</text>
<text text-anchor="start" x="150" y="-59.5" font-family="Helvetica,sans-Serif" font-size="10.00">+ hwIntVecID</text>
<text text-anchor="start" x="150" y="-48.5" font-family="Helvetica,sans-Serif" font-size="10.00">+ dmaTxIntVecID</text>
<text text-anchor="start" x="150" y="-37.5" font-family="Helvetica,sans-Serif" font-size="10.00">+ dmaRxIntVecID</text>
<text text-anchor="start" x="150" y="-26.5" font-family="Helvetica,sans-Serif" font-size="10.00">+ channelSize</text>
<polyline fill="none" stroke="black" points="142,-19.5 268,-19.5 "/>
<text text-anchor="middle" x="205" y="-7.5" font-family="Helvetica,sans-Serif" font-size="10.00"> </text>
</a>
</g>
</g>
<!-- Node2 -->
<g id="node2" class="node">
<title>Node2</title>
<g id="a_node2"><a xlink:href="struct_d_m_a_hardware_vtbl.html" target="_top" xlink:title=" ">
<polygon fill="none" stroke="black" points="0,-182.5 0,-360.5 126,-360.5 126,-182.5 0,-182.5"/>
<text text-anchor="middle" x="63" y="-348.5" font-family="Helvetica,sans-Serif" font-size="10.00">DMAHardwareVtbl</text>
<polyline fill="none" stroke="black" points="0,-341.5 126,-341.5 "/>
<text text-anchor="start" x="8" y="-329.5" font-family="Helvetica,sans-Serif" font-size="10.00">+ new_</text>
<text text-anchor="start" x="8" y="-318.5" font-family="Helvetica,sans-Serif" font-size="10.00">+ delete_</text>
<text text-anchor="start" x="8" y="-307.5" font-family="Helvetica,sans-Serif" font-size="10.00">+ Initialize</text>
<text text-anchor="start" x="8" y="-296.5" font-family="Helvetica,sans-Serif" font-size="10.00">+ Move</text>
<text text-anchor="start" x="8" y="-285.5" font-family="Helvetica,sans-Serif" font-size="10.00">+ InterruptEnable</text>
<text text-anchor="start" x="8" y="-274.5" font-family="Helvetica,sans-Serif" font-size="10.00">+ InterruptDisable</text>
<text text-anchor="start" x="8" y="-263.5" font-family="Helvetica,sans-Serif" font-size="10.00">+ InterruptClear</text>
<text text-anchor="start" x="8" y="-252.5" font-family="Helvetica,sans-Serif" font-size="10.00">+ InterruptGetEnabled</text>
<text text-anchor="start" x="8" y="-241.5" font-family="Helvetica,sans-Serif" font-size="10.00">+ InterruptGetStatus</text>
<text text-anchor="start" x="8" y="-230.5" font-family="Helvetica,sans-Serif" font-size="10.00">+ Reset</text>
<text text-anchor="start" x="8" y="-219.5" font-family="Helvetica,sans-Serif" font-size="10.00">+ ResetIsDone</text>
<text text-anchor="start" x="8" y="-208.5" font-family="Helvetica,sans-Serif" font-size="10.00">+ InterruptSetHandler</text>
<polyline fill="none" stroke="black" points="0,-201.5 126,-201.5 "/>
<text text-anchor="middle" x="63" y="-189.5" font-family="Helvetica,sans-Serif" font-size="10.00"> </text>
</a>
</g>
</g>
<!-- Node2&#45;&gt;Node1 -->
<g id="edge1" class="edge">
<title>Node2&#45;&gt;Node1</title>
<path fill="none" stroke="#404040" d="M124.87,-182.49C133.78,-169.82 142.87,-156.88 151.6,-144.47"/>
<polygon fill="none" stroke="#404040" points="151.6,-144.47 151.78,-137.26 158.5,-134.65 158.32,-141.86 151.6,-144.47"/>
<text text-anchor="middle" x="169.5" y="-156" font-family="Helvetica,sans-Serif" font-size="10.00"> +dmaVtbl</text>
</g>
<!-- Node3 -->
<g id="node3" class="node">
<title>Node3</title>
<g id="a_node3"><a xlink:href="struct_hardware_vtbl.html" target="_top" xlink:title=" ">
<polygon fill="none" stroke="black" points="144,-188 144,-355 266,-355 266,-188 144,-188"/>
<text text-anchor="middle" x="205" y="-343" font-family="Helvetica,sans-Serif" font-size="10.00">HardwareVtbl</text>
<polyline fill="none" stroke="black" points="144,-336 266,-336 "/>
<text text-anchor="start" x="152" y="-324" font-family="Helvetica,sans-Serif" font-size="10.00">+ new_</text>
<text text-anchor="start" x="152" y="-313" font-family="Helvetica,sans-Serif" font-size="10.00">+ delete_</text>
<text text-anchor="start" x="152" y="-302" font-family="Helvetica,sans-Serif" font-size="10.00">+ Initialize</text>
<text text-anchor="start" x="152" y="-291" font-family="Helvetica,sans-Serif" font-size="10.00">+ Start</text>
<text text-anchor="start" x="152" y="-280" font-family="Helvetica,sans-Serif" font-size="10.00">+ IsDone</text>
<text text-anchor="start" x="152" y="-269" font-family="Helvetica,sans-Serif" font-size="10.00">+ IsIdle</text>
<text text-anchor="start" x="152" y="-258" font-family="Helvetica,sans-Serif" font-size="10.00">+ IsReady</text>
<text text-anchor="start" x="152" y="-247" font-family="Helvetica,sans-Serif" font-size="10.00">+ EnableAutoRestart</text>
<text text-anchor="start" x="152" y="-236" font-family="Helvetica,sans-Serif" font-size="10.00">+ DisableAutoRestart</text>
<text text-anchor="start" x="152" y="-225" font-family="Helvetica,sans-Serif" font-size="10.00">+ Get_return</text>
<text text-anchor="start" x="152" y="-214" font-family="Helvetica,sans-Serif" font-size="10.00">and 11 more...</text>
<polyline fill="none" stroke="black" points="144,-207 266,-207 "/>
<text text-anchor="middle" x="205" y="-195" font-family="Helvetica,sans-Serif" font-size="10.00"> </text>
</a>
</g>
</g>
<!-- Node3&#45;&gt;Node1 -->
<g id="edge2" class="edge">
<title>Node3&#45;&gt;Node1</title>
<path fill="none" stroke="#404040" d="M205,-187.76C205,-174.24 205,-160.28 205,-146.87"/>
<polygon fill="none" stroke="#404040" points="205,-146.75 201,-140.75 205,-134.75 209,-140.75 205,-146.75"/>
<text text-anchor="middle" x="228" y="-156" font-family="Helvetica,sans-Serif" font-size="10.00"> +hwVtbl</text>
</g>
<!-- Node4 -->
<g id="node4" class="node">
<title>Node4</title>
<g id="a_node4"><a xlink:href="struct_memory_block.html" target="_top" xlink:title=" ">
<polygon fill="none" stroke="black" points="284,-232 284,-311 374,-311 374,-232 284,-232"/>
<text text-anchor="middle" x="329" y="-299" font-family="Helvetica,sans-Serif" font-size="10.00">MemoryBlock</text>
<polyline fill="none" stroke="black" points="284,-292 374,-292 "/>
<text text-anchor="start" x="292" y="-280" font-family="Helvetica,sans-Serif" font-size="10.00">+ baseAddress</text>
<text text-anchor="start" x="292" y="-269" font-family="Helvetica,sans-Serif" font-size="10.00">+ highAddress</text>
<text text-anchor="start" x="292" y="-258" font-family="Helvetica,sans-Serif" font-size="10.00">+ blockIndex</text>
<polyline fill="none" stroke="black" points="284,-251 374,-251 "/>
<text text-anchor="middle" x="329" y="-239" font-family="Helvetica,sans-Serif" font-size="10.00"> </text>
</a>
</g>
</g>
<!-- Node4&#45;&gt;Node1 -->
<g id="edge3" class="edge">
<title>Node4&#45;&gt;Node1</title>
<path fill="none" stroke="#404040" d="M305.38,-231.7C295.95,-216.23 284.98,-198.26 275,-182 267.67,-170.05 259.89,-157.41 252.29,-145.06"/>
<polygon fill="none" stroke="#404040" points="252.25,-145 245.7,-141.99 245.95,-134.79 252.51,-137.79 252.25,-145"/>
<text text-anchor="middle" x="289" y="-156" font-family="Helvetica,sans-Serif" font-size="10.00"> +ddrMem</text>
</g>
</g>
</svg>
