<?xml version="1.0" encoding="UTF-8" standalone="no"?>
<!DOCTYPE svg PUBLIC "-//W3C//DTD SVG 1.1//EN"
 "http://www.w3.org/Graphics/SVG/1.1/DTD/svg11.dtd">
<!-- Generated by graphviz version 2.43.0 (0)
 -->
<!-- Title: tflite::SubgraphAllocations Pages: 1 -->
<!--zoomable 601 -->
<svg id="main" version="1.1" xmlns="http://www.w3.org/2000/svg" xmlns:xlink="http://www.w3.org/1999/xlink" xml:space="preserve" onload="init(evt)">
<style type="text/css"><![CDATA[
.edge:hover path { stroke: red; }
.edge:hover polygon { stroke: red; fill: red; }
]]></style>
<script type="text/javascript"><![CDATA[
var edges = document.getElementsByTagName('g');
if (edges && edges.length) {
  for (var i=0;i<edges.length;i++) {
    if (edges[i].id.substr(0,4)=='edge') {
      edges[i].setAttribute('class','edge');
    }
  }
}
]]></script>
        <defs>
                <circle id="rim" cx="0" cy="0" r="7"/>
                <circle id="rim2" cx="0" cy="0" r="3.5"/>
                <g id="zoomPlus">
                        <use xlink:href="#rim" fill="#404040">
                                <set attributeName="fill" to="#808080" begin="zoomplus.mouseover" end="zoomplus.mouseout"/>
                        </use>
                        <path d="M-4,0h8M0,-4v8" fill="none" stroke="white" stroke-width="1.5" pointer-events="none"/>
                </g>
                <g id="zoomMin">
                        <use xlink:href="#rim" fill="#404040">
                                <set attributeName="fill" to="#808080" begin="zoomminus.mouseover" end="zoomminus.mouseout"/>
                        </use>
                        <path d="M-4,0h8" fill="none" stroke="white" stroke-width="1.5" pointer-events="none"/>
                </g>
                <g id="dirArrow">
                        <path fill="none" stroke="white" stroke-width="1.5" d="M0,-3.0v7 M-2.5,-0.5L0,-3.0L2.5,-0.5"/>
                </g>
               <g id="resetDef">
                       <use xlink:href="#rim2" fill="#404040">
                               <set attributeName="fill" to="#808080" begin="reset.mouseover" end="reset.mouseout"/>
                       </use>
               </g>
        </defs>

<script type="text/javascript">
var viewWidth = 684;
var viewHeight = 601;
var sectionId = 'dynsection-0';
</script>
<script xlink:href="svgpan.js"/>
<svg id="graph" class="graph">
<g id="viewport">
<title>tflite::SubgraphAllocations</title>
<!-- Node1 -->
<g id="node1" class="node">
<title>Node1</title>
<g id="a_node1"><a xlink:title=" ">
<polygon fill="#bfbfbf" stroke="black" points="339.5,-0.5 339.5,-57.5 484.5,-57.5 484.5,-0.5 339.5,-0.5"/>
<text text-anchor="middle" x="412" y="-45.5" font-family="Helvetica,sans-Serif" font-size="10.00">tflite::SubgraphAllocations</text>
<polyline fill="none" stroke="black" points="339.5,-38.5 484.5,-38.5 "/>
<text text-anchor="middle" x="412" y="-26.5" font-family="Helvetica,sans-Serif" font-size="10.00"> </text>
<polyline fill="none" stroke="black" points="339.5,-19.5 484.5,-19.5 "/>
<text text-anchor="middle" x="412" y="-7.5" font-family="Helvetica,sans-Serif" font-size="10.00"> </text>
</a>
</g>
</g>
<!-- Node2 -->
<g id="node2" class="node">
<title>Node2</title>
<g id="a_node2"><a xlink:href="struct_tf_lite_eval_tensor.html" target="_top" xlink:title=" ">
<polygon fill="none" stroke="black" points="293.5,-105.5 293.5,-162.5 390.5,-162.5 390.5,-105.5 293.5,-105.5"/>
<text text-anchor="middle" x="342" y="-150.5" font-family="Helvetica,sans-Serif" font-size="10.00">TfLiteEvalTensor</text>
<polyline fill="none" stroke="black" points="293.5,-143.5 390.5,-143.5 "/>
<text text-anchor="start" x="301.5" y="-131.5" font-family="Helvetica,sans-Serif" font-size="10.00">+ type</text>
<polyline fill="none" stroke="black" points="293.5,-124.5 390.5,-124.5 "/>
<text text-anchor="middle" x="342" y="-112.5" font-family="Helvetica,sans-Serif" font-size="10.00"> </text>
</a>
</g>
</g>
<!-- Node2&#45;&gt;Node1 -->
<g id="edge1" class="edge">
<title>Node2&#45;&gt;Node1</title>
<path fill="none" stroke="#404040" d="M360.76,-105.4C368.61,-93.85 377.85,-80.25 386.31,-67.8"/>
<polygon fill="none" stroke="#404040" points="386.44,-67.6 386.51,-60.39 393.19,-57.68 393.13,-64.89 386.44,-67.6"/>
<text text-anchor="middle" x="404" y="-79" font-family="Helvetica,sans-Serif" font-size="10.00"> +tensors</text>
</g>
<!-- Node3 -->
<g id="node3" class="node">
<title>Node3</title>
<g id="a_node3"><a xlink:href="union_tf_lite_ptr_union.html" target="_top" xlink:title=" ">
<polygon fill="none" stroke="black" points="177,-210.5 177,-399.5 263,-399.5 263,-210.5 177,-210.5"/>
<text text-anchor="middle" x="220" y="-387.5" font-family="Helvetica,sans-Serif" font-size="10.00">TfLitePtrUnion</text>
<polyline fill="none" stroke="black" points="177,-380.5 263,-380.5 "/>
<text text-anchor="start" x="185" y="-368.5" font-family="Helvetica,sans-Serif" font-size="10.00">+ i32</text>
<text text-anchor="start" x="185" y="-357.5" font-family="Helvetica,sans-Serif" font-size="10.00">+ u32</text>
<text text-anchor="start" x="185" y="-346.5" font-family="Helvetica,sans-Serif" font-size="10.00">+ i64</text>
<text text-anchor="start" x="185" y="-335.5" font-family="Helvetica,sans-Serif" font-size="10.00">+ u64</text>
<text text-anchor="start" x="185" y="-324.5" font-family="Helvetica,sans-Serif" font-size="10.00">+ f</text>
<text text-anchor="start" x="185" y="-313.5" font-family="Helvetica,sans-Serif" font-size="10.00">+ f64</text>
<text text-anchor="start" x="185" y="-302.5" font-family="Helvetica,sans-Serif" font-size="10.00">+ raw</text>
<text text-anchor="start" x="185" y="-291.5" font-family="Helvetica,sans-Serif" font-size="10.00">+ raw_const</text>
<text text-anchor="start" x="185" y="-280.5" font-family="Helvetica,sans-Serif" font-size="10.00">+ uint8</text>
<text text-anchor="start" x="185" y="-269.5" font-family="Helvetica,sans-Serif" font-size="10.00">+ b</text>
<text text-anchor="start" x="185" y="-258.5" font-family="Helvetica,sans-Serif" font-size="10.00">+ i16</text>
<text text-anchor="start" x="185" y="-247.5" font-family="Helvetica,sans-Serif" font-size="10.00">+ int8</text>
<text text-anchor="start" x="185" y="-236.5" font-family="Helvetica,sans-Serif" font-size="10.00">+ data</text>
<polyline fill="none" stroke="black" points="177,-229.5 263,-229.5 "/>
<text text-anchor="middle" x="220" y="-217.5" font-family="Helvetica,sans-Serif" font-size="10.00"> </text>
</a>
</g>
</g>
<!-- Node3&#45;&gt;Node2 -->
<g id="edge2" class="edge">
<title>Node3&#45;&gt;Node2</title>
<path fill="none" stroke="#404040" d="M263.14,-227.98C273.26,-211.99 284.47,-195.57 296,-181 298.45,-177.9 301.1,-174.79 303.83,-171.73"/>
<polygon fill="none" stroke="#404040" points="304.02,-171.52 305.19,-164.4 312.21,-162.74 311.04,-169.86 304.02,-171.52"/>
<text text-anchor="middle" x="313" y="-184" font-family="Helvetica,sans-Serif" font-size="10.00"> +data</text>
</g>
<!-- Node4 -->
<g id="node4" class="node">
<title>Node4</title>
<g id="a_node4"><a xlink:href="struct_tf_lite_complex128.html" target="_top" xlink:title=" ">
<polygon fill="none" stroke="black" points="0,-502.5 0,-570.5 106,-570.5 106,-502.5 0,-502.5"/>
<text text-anchor="middle" x="53" y="-558.5" font-family="Helvetica,sans-Serif" font-size="10.00">TfLiteComplex128</text>
<polyline fill="none" stroke="black" points="0,-551.5 106,-551.5 "/>
<text text-anchor="start" x="8" y="-539.5" font-family="Helvetica,sans-Serif" font-size="10.00">+ re</text>
<text text-anchor="start" x="8" y="-528.5" font-family="Helvetica,sans-Serif" font-size="10.00">+ im</text>
<polyline fill="none" stroke="black" points="0,-521.5 106,-521.5 "/>
<text text-anchor="middle" x="53" y="-509.5" font-family="Helvetica,sans-Serif" font-size="10.00"> </text>
</a>
</g>
</g>
<!-- Node4&#45;&gt;Node3 -->
<g id="edge3" class="edge">
<title>Node4&#45;&gt;Node3</title>
<path fill="none" stroke="#404040" d="M77.28,-502.13C101.4,-468.98 139.1,-417.17 169.7,-375.12"/>
<polygon fill="none" stroke="#404040" points="169.85,-374.92 170.15,-367.71 176.91,-365.21 176.62,-372.42 169.85,-374.92"/>
<text text-anchor="middle" x="154.5" y="-437.5" font-family="Helvetica,sans-Serif" font-size="10.00"> +c128</text>
</g>
<!-- Node5 -->
<g id="node5" class="node">
<title>Node5</title>
<g id="a_node5"><a xlink:href="struct_tf_lite_complex64.html" target="_top" xlink:title=" ">
<polygon fill="none" stroke="black" points="124,-502.5 124,-570.5 224,-570.5 224,-502.5 124,-502.5"/>
<text text-anchor="middle" x="174" y="-558.5" font-family="Helvetica,sans-Serif" font-size="10.00">TfLiteComplex64</text>
<polyline fill="none" stroke="black" points="124,-551.5 224,-551.5 "/>
<text text-anchor="start" x="132" y="-539.5" font-family="Helvetica,sans-Serif" font-size="10.00">+ re</text>
<text text-anchor="start" x="132" y="-528.5" font-family="Helvetica,sans-Serif" font-size="10.00">+ im</text>
<polyline fill="none" stroke="black" points="124,-521.5 224,-521.5 "/>
<text text-anchor="middle" x="174" y="-509.5" font-family="Helvetica,sans-Serif" font-size="10.00"> </text>
</a>
</g>
</g>
<!-- Node5&#45;&gt;Node3 -->
<g id="edge4" class="edge">
<title>Node5&#45;&gt;Node3</title>
<path fill="none" stroke="#404040" d="M180.69,-502.13C185.49,-478.16 192.25,-444.42 198.82,-411.68"/>
<polygon fill="none" stroke="#404040" points="198.86,-411.45 196.12,-404.78 201.22,-399.68 203.97,-406.35 198.86,-411.45"/>
<text text-anchor="middle" x="211.5" y="-437.5" font-family="Helvetica,sans-Serif" font-size="10.00"> +c64</text>
</g>
<!-- Node6 -->
<g id="node6" class="node">
<title>Node6</title>
<g id="a_node6"><a xlink:href="struct_tf_lite_float16.html" target="_top" xlink:title=" ">
<polygon fill="none" stroke="black" points="242.5,-508 242.5,-565 323.5,-565 323.5,-508 242.5,-508"/>
<text text-anchor="middle" x="283" y="-553" font-family="Helvetica,sans-Serif" font-size="10.00">TfLiteFloat16</text>
<polyline fill="none" stroke="black" points="242.5,-546 323.5,-546 "/>
<text text-anchor="start" x="250.5" y="-534" font-family="Helvetica,sans-Serif" font-size="10.00">+ data</text>
<polyline fill="none" stroke="black" points="242.5,-527 323.5,-527 "/>
<text text-anchor="middle" x="283" y="-515" font-family="Helvetica,sans-Serif" font-size="10.00"> </text>
</a>
</g>
</g>
<!-- Node6&#45;&gt;Node3 -->
<g id="edge5" class="edge">
<title>Node6&#45;&gt;Node3</title>
<path fill="none" stroke="#404040" d="M275.4,-507.82C268.77,-483.66 258.71,-447.03 248.98,-411.56"/>
<polygon fill="none" stroke="#404040" points="248.87,-411.18 243.43,-406.45 245.69,-399.6 251.14,-404.33 248.87,-411.18"/>
<text text-anchor="middle" x="277" y="-437.5" font-family="Helvetica,sans-Serif" font-size="10.00"> +f16</text>
</g>
<!-- Node7 -->
<g id="node7" class="node">
<title>Node7</title>
<g id="a_node7"><a xlink:href="struct_tf_lite_int_array.html" target="_top" xlink:title=" ">
<polygon fill="none" stroke="black" points="341.5,-502.5 341.5,-570.5 424.5,-570.5 424.5,-502.5 341.5,-502.5"/>
<text text-anchor="middle" x="383" y="-558.5" font-family="Helvetica,sans-Serif" font-size="10.00">TfLiteIntArray</text>
<polyline fill="none" stroke="black" points="341.5,-551.5 424.5,-551.5 "/>
<text text-anchor="start" x="349.5" y="-539.5" font-family="Helvetica,sans-Serif" font-size="10.00">+ size</text>
<text text-anchor="start" x="349.5" y="-528.5" font-family="Helvetica,sans-Serif" font-size="10.00">+ data</text>
<polyline fill="none" stroke="black" points="341.5,-521.5 424.5,-521.5 "/>
<text text-anchor="middle" x="383" y="-509.5" font-family="Helvetica,sans-Serif" font-size="10.00"> </text>
</a>
</g>
</g>
<!-- Node7&#45;&gt;Node2 -->
<g id="edge6" class="edge">
<title>Node7&#45;&gt;Node2</title>
<path fill="none" stroke="#404040" d="M376.39,-502.22C371.19,-474.88 364.16,-435.07 360,-400 350.57,-320.42 345.65,-226.78 343.46,-174.83"/>
<polygon fill="none" stroke="#404040" points="343.45,-174.54 339.21,-168.71 342.96,-162.55 347.2,-168.38 343.45,-174.54"/>
<text text-anchor="middle" x="378" y="-302.5" font-family="Helvetica,sans-Serif" font-size="10.00"> +dims</text>
</g>
<!-- Node10 -->
<g id="node10" class="node">
<title>Node10</title>
<g id="a_node10"><a xlink:href="struct_tf_lite_node.html" target="_top" xlink:title=" ">
<polygon fill="none" stroke="black" points="404.5,-254.5 404.5,-355.5 553.5,-355.5 553.5,-254.5 404.5,-254.5"/>
<text text-anchor="middle" x="479" y="-343.5" font-family="Helvetica,sans-Serif" font-size="10.00">TfLiteNode</text>
<polyline fill="none" stroke="black" points="404.5,-336.5 553.5,-336.5 "/>
<text text-anchor="start" x="412.5" y="-324.5" font-family="Helvetica,sans-Serif" font-size="10.00">+ user_data</text>
<text text-anchor="start" x="412.5" y="-313.5" font-family="Helvetica,sans-Serif" font-size="10.00">+ builtin_data</text>
<text text-anchor="start" x="412.5" y="-302.5" font-family="Helvetica,sans-Serif" font-size="10.00">+ custom_initial_data</text>
<text text-anchor="start" x="412.5" y="-291.5" font-family="Helvetica,sans-Serif" font-size="10.00">+ custom_initial_data_size</text>
<text text-anchor="start" x="412.5" y="-280.5" font-family="Helvetica,sans-Serif" font-size="10.00">+ might_have_side_effect</text>
<polyline fill="none" stroke="black" points="404.5,-273.5 553.5,-273.5 "/>
<text text-anchor="middle" x="479" y="-261.5" font-family="Helvetica,sans-Serif" font-size="10.00"> </text>
</a>
</g>
</g>
<!-- Node7&#45;&gt;Node10 -->
<g id="edge11" class="edge">
<title>Node7&#45;&gt;Node10</title>
<path fill="none" stroke="#404040" d="M389.67,-502.34C395.05,-478.39 403.6,-445.54 415,-418 422.2,-400.6 431.58,-382.55 440.92,-366.15"/>
<polygon fill="none" stroke="#404040" points="441,-366.01 440.56,-358.81 447.03,-355.64 447.48,-362.83 441,-366.01"/>
<text text-anchor="middle" x="453.5" y="-454" font-family="Helvetica,sans-Serif" font-size="10.00"> +outputs</text>
<text text-anchor="middle" x="453.5" y="-443" font-family="Helvetica,sans-Serif" font-size="10.00">+inputs</text>
<text text-anchor="middle" x="453.5" y="-432" font-family="Helvetica,sans-Serif" font-size="10.00">+intermediates</text>
<text text-anchor="middle" x="453.5" y="-421" font-family="Helvetica,sans-Serif" font-size="10.00">+temporaries</text>
</g>
<!-- Node8 -->
<g id="node8" class="node">
<title>Node8</title>
<g id="a_node8"><a xlink:href="structtflite_1_1_node_and_registration.html" target="_top" xlink:title=" ">
<polygon fill="none" stroke="black" points="408.5,-105.5 408.5,-162.5 557.5,-162.5 557.5,-105.5 408.5,-105.5"/>
<text text-anchor="middle" x="483" y="-150.5" font-family="Helvetica,sans-Serif" font-size="10.00">tflite::NodeAndRegistration</text>
<polyline fill="none" stroke="black" points="408.5,-143.5 557.5,-143.5 "/>
<text text-anchor="middle" x="483" y="-131.5" font-family="Helvetica,sans-Serif" font-size="10.00"> </text>
<polyline fill="none" stroke="black" points="408.5,-124.5 557.5,-124.5 "/>
<text text-anchor="middle" x="483" y="-112.5" font-family="Helvetica,sans-Serif" font-size="10.00"> </text>
</a>
</g>
</g>
<!-- Node8&#45;&gt;Node1 -->
<g id="edge7" class="edge">
<title>Node8&#45;&gt;Node1</title>
<path fill="none" stroke="#404040" d="M463.97,-105.4C456.01,-93.85 446.64,-80.25 438.05,-67.8"/>
<polygon fill="none" stroke="#404040" points="437.89,-67.56 431.19,-64.89 431.08,-57.68 437.78,-60.35 437.89,-67.56"/>
<text text-anchor="middle" x="512" y="-79" font-family="Helvetica,sans-Serif" font-size="10.00"> +node_and_registrations</text>
</g>
<!-- Node9 -->
<g id="node9" class="node">
<title>Node9</title>
<g id="a_node9"><a xlink:href="struct_tf_lite_registration.html" target="_top" xlink:title=" ">
<polygon fill="none" stroke="black" points="572,-238 572,-372 676,-372 676,-238 572,-238"/>
<text text-anchor="middle" x="624" y="-360" font-family="Helvetica,sans-Serif" font-size="10.00">TfLiteRegistration</text>
<polyline fill="none" stroke="black" points="572,-353 676,-353 "/>
<text text-anchor="start" x="580" y="-341" font-family="Helvetica,sans-Serif" font-size="10.00">+ init</text>
<text text-anchor="start" x="580" y="-330" font-family="Helvetica,sans-Serif" font-size="10.00">+ free</text>
<text text-anchor="start" x="580" y="-319" font-family="Helvetica,sans-Serif" font-size="10.00">+ prepare</text>
<text text-anchor="start" x="580" y="-308" font-family="Helvetica,sans-Serif" font-size="10.00">+ invoke</text>
<text text-anchor="start" x="580" y="-297" font-family="Helvetica,sans-Serif" font-size="10.00">+ profiling_string</text>
<text text-anchor="start" x="580" y="-286" font-family="Helvetica,sans-Serif" font-size="10.00">+ builtin_code</text>
<text text-anchor="start" x="580" y="-275" font-family="Helvetica,sans-Serif" font-size="10.00">+ custom_name</text>
<text text-anchor="start" x="580" y="-264" font-family="Helvetica,sans-Serif" font-size="10.00">+ version</text>
<polyline fill="none" stroke="black" points="572,-257 676,-257 "/>
<text text-anchor="middle" x="624" y="-245" font-family="Helvetica,sans-Serif" font-size="10.00"> </text>
</a>
</g>
</g>
<!-- Node9&#45;&gt;Node8 -->
<g id="edge8" class="edge">
<title>Node9&#45;&gt;Node8</title>
<path fill="none" stroke="#404040" d="M583.97,-237.82C577.33,-228.21 570.24,-218.65 563,-210 551.6,-196.37 537.87,-182.71 525.04,-170.85"/>
<polygon fill="none" stroke="#404040" points="524.79,-170.62 517.65,-169.55 515.89,-162.56 523.03,-163.63 524.79,-170.62"/>
<text text-anchor="middle" x="578" y="-184" font-family="Helvetica,sans-Serif" font-size="10.00"> +registration</text>
</g>
<!-- Node10&#45;&gt;Node8 -->
<g id="edge9" class="edge">
<title>Node10&#45;&gt;Node8</title>
<path fill="none" stroke="#404040" d="M480.18,-254.21C480.78,-228.95 481.49,-198.69 482.05,-174.98"/>
<polygon fill="none" stroke="#404040" points="482.06,-174.89 478.2,-168.8 482.34,-162.9 486.2,-168.99 482.06,-174.89"/>
<text text-anchor="middle" x="499" y="-184" font-family="Helvetica,sans-Serif" font-size="10.00"> +node</text>
</g>
<!-- Node11 -->
<g id="node11" class="node">
<title>Node11</title>
<g id="a_node11"><a xlink:href="struct_tf_lite_delegate.html" target="_top" xlink:title=" ">
<polygon fill="none" stroke="black" points="442.5,-480.5 442.5,-592.5 583.5,-592.5 583.5,-480.5 442.5,-480.5"/>
<text text-anchor="middle" x="513" y="-580.5" font-family="Helvetica,sans-Serif" font-size="10.00">TfLiteDelegate</text>
<polyline fill="none" stroke="black" points="442.5,-573.5 583.5,-573.5 "/>
<text text-anchor="start" x="450.5" y="-561.5" font-family="Helvetica,sans-Serif" font-size="10.00">+ data_</text>
<text text-anchor="start" x="450.5" y="-550.5" font-family="Helvetica,sans-Serif" font-size="10.00">+ Prepare</text>
<text text-anchor="start" x="450.5" y="-539.5" font-family="Helvetica,sans-Serif" font-size="10.00">+ CopyFromBufferHandle</text>
<text text-anchor="start" x="450.5" y="-528.5" font-family="Helvetica,sans-Serif" font-size="10.00">+ CopyToBufferHandle</text>
<text text-anchor="start" x="450.5" y="-517.5" font-family="Helvetica,sans-Serif" font-size="10.00">+ FreeBufferHandle</text>
<text text-anchor="start" x="450.5" y="-506.5" font-family="Helvetica,sans-Serif" font-size="10.00">+ flags</text>
<polyline fill="none" stroke="black" points="442.5,-499.5 583.5,-499.5 "/>
<text text-anchor="middle" x="513" y="-487.5" font-family="Helvetica,sans-Serif" font-size="10.00"> </text>
</a>
</g>
</g>
<!-- Node11&#45;&gt;Node10 -->
<g id="edge10" class="edge">
<title>Node11&#45;&gt;Node10</title>
<path fill="none" stroke="#404040" d="M504.81,-480.24C499.79,-446.3 493.34,-402.78 488.14,-367.72"/>
<polygon fill="none" stroke="#404040" points="488.12,-367.57 483.29,-362.22 486.36,-355.7 491.2,-361.05 488.12,-367.57"/>
<text text-anchor="middle" x="529.5" y="-437.5" font-family="Helvetica,sans-Serif" font-size="10.00"> +delegate</text>
</g>
</g>
</svg>
        <g id="navigator" transform="translate(0 0)" fill="#404254">
                <rect fill="#f2f5e9" fill-opacity="0.5" stroke="#606060" stroke-width=".5" x="0" y="0" width="60" height="60"/>
                <use id="zoomplus" xlink:href="#zoomPlus" x="17" y="9" onmousedown="handleZoom(evt,'in')"/>
                <use id="zoomminus" xlink:href="#zoomMin" x="42" y="9" onmousedown="handleZoom(evt,'out')"/>
                <use id="reset" xlink:href="#resetDef" x="30" y="36" onmousedown="handleReset()"/>
                <g id="arrowUp" xlink:href="#dirArrow" transform="translate(30 24)" onmousedown="handlePan(0,-1)">
                  <use xlink:href="#rim" fill="#404040">
                        <set attributeName="fill" to="#808080" begin="arrowUp.mouseover" end="arrowUp.mouseout"/>
                  </use>
                  <path fill="none" stroke="white" stroke-width="1.5" d="M0,-3.0v7 M-2.5,-0.5L0,-3.0L2.5,-0.5"/>
                </g>
                <g id="arrowRight" xlink:href="#dirArrow" transform="rotate(90) translate(36 -43)" onmousedown="handlePan(1,0)">
                  <use xlink:href="#rim" fill="#404040">
                        <set attributeName="fill" to="#808080" begin="arrowRight.mouseover" end="arrowRight.mouseout"/>
                  </use>
                  <path fill="none" stroke="white" stroke-width="1.5" d="M0,-3.0v7 M-2.5,-0.5L0,-3.0L2.5,-0.5"/>
                </g>
                <g id="arrowDown" xlink:href="#dirArrow" transform="rotate(180) translate(-30 -48)" onmousedown="handlePan(0,1)">
                  <use xlink:href="#rim" fill="#404040">
                        <set attributeName="fill" to="#808080" begin="arrowDown.mouseover" end="arrowDown.mouseout"/>
                  </use>
                  <path fill="none" stroke="white" stroke-width="1.5" d="M0,-3.0v7 M-2.5,-0.5L0,-3.0L2.5,-0.5"/>
                </g>
                <g id="arrowLeft" xlink:href="#dirArrow" transform="rotate(270) translate(-36 17)" onmousedown="handlePan(-1,0)">
                  <use xlink:href="#rim" fill="#404040">
                        <set attributeName="fill" to="#808080" begin="arrowLeft.mouseover" end="arrowLeft.mouseout"/>
                  </use>
                  <path fill="none" stroke="white" stroke-width="1.5" d="M0,-3.0v7 M-2.5,-0.5L0,-3.0L2.5,-0.5"/>
                </g>
        </g>
        <svg viewBox="0 0 15 15" width="100%" height="30px" preserveAspectRatio="xMaxYMin meet">
         <g id="arrow_out" transform="scale(0.3 0.3)">
          <a xlink:href="structtflite_1_1_subgraph_allocations__coll__graph_org.svg" target="_base">
           <rect id="button" ry="5" rx="5" y="6" x="6" height="38" width="38"
                fill="#f2f5e9" fill-opacity="0.5" stroke="#606060" stroke-width="1.0"/>
           <path id="arrow"
             d="M 11.500037,31.436501 C 11.940474,20.09759 22.043105,11.32322 32.158766,21.979434 L 37.068811,17.246167 C 37.068811,17.246167 37.088388,32 37.088388,32 L 22.160133,31.978069 C 22.160133,31.978069 26.997745,27.140456 26.997745,27.140456 C 18.528582,18.264221 13.291696,25.230495 11.500037,31.436501 z"
             style="fill:#404040;"/>
          </a>
         </g>
        </svg>
</svg>
