<?xml version="1.0" encoding="UTF-8" standalone="no"?>
<!DOCTYPE svg PUBLIC "-//W3C//DTD SVG 1.1//EN"
 "http://www.w3.org/Graphics/SVG/1.1/DTD/svg11.dtd">
<!-- Generated by graphviz version 2.43.0 (0)
 -->
<!-- Title: TfLiteTensor Pages: 1 -->
<svg width="962pt" height="634pt"
 viewBox="0.00 0.00 961.50 634.00" xmlns="http://www.w3.org/2000/svg" xmlns:xlink="http://www.w3.org/1999/xlink">
<g id="graph0" class="graph" transform="scale(1 1) rotate(0) translate(4 630)">
<title>TfLiteTensor</title>
<!-- Node1 -->
<g id="node1" class="node">
<title>Node1</title>
<g id="a_node1"><a xlink:title=" ">
<polygon fill="#bfbfbf" stroke="black" points="507.5,-0.5 507.5,-134.5 610.5,-134.5 610.5,-0.5 507.5,-0.5"/>
<text text-anchor="middle" x="559" y="-122.5" font-family="Helvetica,sans-Serif" font-size="10.00">TfLiteTensor</text>
<polyline fill="none" stroke="black" points="507.5,-115.5 610.5,-115.5 "/>
<text text-anchor="start" x="515.5" y="-103.5" font-family="Helvetica,sans-Serif" font-size="10.00">+ type</text>
<text text-anchor="start" x="515.5" y="-92.5" font-family="Helvetica,sans-Serif" font-size="10.00">+ allocation_type</text>
<text text-anchor="start" x="515.5" y="-81.5" font-family="Helvetica,sans-Serif" font-size="10.00">+ bytes</text>
<text text-anchor="start" x="515.5" y="-70.5" font-family="Helvetica,sans-Serif" font-size="10.00">+ allocation</text>
<text text-anchor="start" x="515.5" y="-59.5" font-family="Helvetica,sans-Serif" font-size="10.00">+ name</text>
<text text-anchor="start" x="515.5" y="-48.5" font-family="Helvetica,sans-Serif" font-size="10.00">+ buffer_handle</text>
<text text-anchor="start" x="515.5" y="-37.5" font-family="Helvetica,sans-Serif" font-size="10.00">+ data_is_stale</text>
<text text-anchor="start" x="515.5" y="-26.5" font-family="Helvetica,sans-Serif" font-size="10.00">+ is_variable</text>
<polyline fill="none" stroke="black" points="507.5,-19.5 610.5,-19.5 "/>
<text text-anchor="middle" x="559" y="-7.5" font-family="Helvetica,sans-Serif" font-size="10.00"> </text>
</a>
</g>
</g>
<!-- Node2 -->
<g id="node2" class="node">
<title>Node2</title>
<g id="a_node2"><a xlink:href="union_tf_lite_ptr_union.html" target="_top" xlink:title=" ">
<polygon fill="none" stroke="black" points="185,-182.5 185,-371.5 271,-371.5 271,-182.5 185,-182.5"/>
<text text-anchor="middle" x="228" y="-359.5" font-family="Helvetica,sans-Serif" font-size="10.00">TfLitePtrUnion</text>
<polyline fill="none" stroke="black" points="185,-352.5 271,-352.5 "/>
<text text-anchor="start" x="193" y="-340.5" font-family="Helvetica,sans-Serif" font-size="10.00">+ i32</text>
<text text-anchor="start" x="193" y="-329.5" font-family="Helvetica,sans-Serif" font-size="10.00">+ u32</text>
<text text-anchor="start" x="193" y="-318.5" font-family="Helvetica,sans-Serif" font-size="10.00">+ i64</text>
<text text-anchor="start" x="193" y="-307.5" font-family="Helvetica,sans-Serif" font-size="10.00">+ u64</text>
<text text-anchor="start" x="193" y="-296.5" font-family="Helvetica,sans-Serif" font-size="10.00">+ f</text>
<text text-anchor="start" x="193" y="-285.5" font-family="Helvetica,sans-Serif" font-size="10.00">+ f64</text>
<text text-anchor="start" x="193" y="-274.5" font-family="Helvetica,sans-Serif" font-size="10.00">+ raw</text>
<text text-anchor="start" x="193" y="-263.5" font-family="Helvetica,sans-Serif" font-size="10.00">+ raw_const</text>
<text text-anchor="start" x="193" y="-252.5" font-family="Helvetica,sans-Serif" font-size="10.00">+ uint8</text>
<text text-anchor="start" x="193" y="-241.5" font-family="Helvetica,sans-Serif" font-size="10.00">+ b</text>
<text text-anchor="start" x="193" y="-230.5" font-family="Helvetica,sans-Serif" font-size="10.00">+ i16</text>
<text text-anchor="start" x="193" y="-219.5" font-family="Helvetica,sans-Serif" font-size="10.00">+ int8</text>
<text text-anchor="start" x="193" y="-208.5" font-family="Helvetica,sans-Serif" font-size="10.00">+ data</text>
<polyline fill="none" stroke="black" points="185,-201.5 271,-201.5 "/>
<text text-anchor="middle" x="228" y="-189.5" font-family="Helvetica,sans-Serif" font-size="10.00"> </text>
</a>
</g>
</g>
<!-- Node2&#45;&gt;Node1 -->
<g id="edge1" class="edge">
<title>Node2&#45;&gt;Node1</title>
<path fill="none" stroke="#404040" d="M271.08,-188.71C280.51,-175.43 291.49,-162.88 304,-153 359.88,-108.85 439.83,-87.31 495.24,-77.11"/>
<polygon fill="none" stroke="#404040" points="495.56,-77.05 500.78,-72.08 507.38,-74.98 502.16,-79.96 495.56,-77.05"/>
<text text-anchor="middle" x="321" y="-156" font-family="Helvetica,sans-Serif" font-size="10.00"> +data</text>
</g>
<!-- Node3 -->
<g id="node3" class="node">
<title>Node3</title>
<g id="a_node3"><a xlink:href="struct_tf_lite_complex128.html" target="_top" xlink:title=" ">
<polygon fill="none" stroke="black" points="0,-430.5 0,-498.5 106,-498.5 106,-430.5 0,-430.5"/>
<text text-anchor="middle" x="53" y="-486.5" font-family="Helvetica,sans-Serif" font-size="10.00">TfLiteComplex128</text>
<polyline fill="none" stroke="black" points="0,-479.5 106,-479.5 "/>
<text text-anchor="start" x="8" y="-467.5" font-family="Helvetica,sans-Serif" font-size="10.00">+ re</text>
<text text-anchor="start" x="8" y="-456.5" font-family="Helvetica,sans-Serif" font-size="10.00">+ im</text>
<polyline fill="none" stroke="black" points="0,-449.5 106,-449.5 "/>
<text text-anchor="middle" x="53" y="-437.5" font-family="Helvetica,sans-Serif" font-size="10.00"> </text>
</a>
</g>
</g>
<!-- Node3&#45;&gt;Node2 -->
<g id="edge2" class="edge">
<title>Node3&#45;&gt;Node2</title>
<path fill="none" stroke="#404040" d="M84.29,-430.34C109.9,-403.19 146.65,-364.23 176.58,-332.51"/>
<polygon fill="none" stroke="#404040" points="176.59,-332.5 177.8,-325.39 184.82,-323.77 183.62,-330.88 176.59,-332.5"/>
<text text-anchor="middle" x="137.5" y="-398.5" font-family="Helvetica,sans-Serif" font-size="10.00"> +c128</text>
</g>
<!-- Node4 -->
<g id="node4" class="node">
<title>Node4</title>
<g id="a_node4"><a xlink:href="struct_tf_lite_complex64.html" target="_top" xlink:title=" ">
<polygon fill="none" stroke="black" points="124,-430.5 124,-498.5 224,-498.5 224,-430.5 124,-430.5"/>
<text text-anchor="middle" x="174" y="-486.5" font-family="Helvetica,sans-Serif" font-size="10.00">TfLiteComplex64</text>
<polyline fill="none" stroke="black" points="124,-479.5 224,-479.5 "/>
<text text-anchor="start" x="132" y="-467.5" font-family="Helvetica,sans-Serif" font-size="10.00">+ re</text>
<text text-anchor="start" x="132" y="-456.5" font-family="Helvetica,sans-Serif" font-size="10.00">+ im</text>
<polyline fill="none" stroke="black" points="124,-449.5 224,-449.5 "/>
<text text-anchor="middle" x="174" y="-437.5" font-family="Helvetica,sans-Serif" font-size="10.00"> </text>
</a>
</g>
</g>
<!-- Node4&#45;&gt;Node2 -->
<g id="edge3" class="edge">
<title>Node4&#45;&gt;Node2</title>
<path fill="none" stroke="#404040" d="M183.65,-430.34C187.57,-416.87 192.34,-400.51 197.27,-383.56"/>
<polygon fill="none" stroke="#404040" points="197.35,-383.28 195.19,-376.4 200.71,-371.76 202.87,-378.64 197.35,-383.28"/>
<text text-anchor="middle" x="209.5" y="-398.5" font-family="Helvetica,sans-Serif" font-size="10.00"> +c64</text>
</g>
<!-- Node5 -->
<g id="node5" class="node">
<title>Node5</title>
<g id="a_node5"><a xlink:href="struct_tf_lite_float16.html" target="_top" xlink:title=" ">
<polygon fill="none" stroke="black" points="242.5,-436 242.5,-493 323.5,-493 323.5,-436 242.5,-436"/>
<text text-anchor="middle" x="283" y="-481" font-family="Helvetica,sans-Serif" font-size="10.00">TfLiteFloat16</text>
<polyline fill="none" stroke="black" points="242.5,-474 323.5,-474 "/>
<text text-anchor="start" x="250.5" y="-462" font-family="Helvetica,sans-Serif" font-size="10.00">+ data</text>
<polyline fill="none" stroke="black" points="242.5,-455 323.5,-455 "/>
<text text-anchor="middle" x="283" y="-443" font-family="Helvetica,sans-Serif" font-size="10.00"> </text>
</a>
</g>
</g>
<!-- Node5&#45;&gt;Node2 -->
<g id="edge4" class="edge">
<title>Node5&#45;&gt;Node2</title>
<path fill="none" stroke="#404040" d="M274.77,-435.73C270.5,-421.35 265,-402.78 259.27,-383.46"/>
<polygon fill="none" stroke="#404040" points="259.19,-383.2 253.65,-378.59 255.78,-371.7 261.32,-376.32 259.19,-383.2"/>
<text text-anchor="middle" x="281" y="-398.5" font-family="Helvetica,sans-Serif" font-size="10.00"> +f16</text>
</g>
<!-- Node6 -->
<g id="node6" class="node">
<title>Node6</title>
<g id="a_node6"><a xlink:href="struct_tf_lite_sparsity.html" target="_top" xlink:title=" ">
<polygon fill="none" stroke="black" points="384,-248.5 384,-305.5 508,-305.5 508,-248.5 384,-248.5"/>
<text text-anchor="middle" x="446" y="-293.5" font-family="Helvetica,sans-Serif" font-size="10.00">TfLiteSparsity</text>
<polyline fill="none" stroke="black" points="384,-286.5 508,-286.5 "/>
<text text-anchor="start" x="392" y="-274.5" font-family="Helvetica,sans-Serif" font-size="10.00">+ dim_metadata_size</text>
<polyline fill="none" stroke="black" points="384,-267.5 508,-267.5 "/>
<text text-anchor="middle" x="446" y="-255.5" font-family="Helvetica,sans-Serif" font-size="10.00"> </text>
</a>
</g>
</g>
<!-- Node6&#45;&gt;Node1 -->
<g id="edge5" class="edge">
<title>Node6&#45;&gt;Node1</title>
<path fill="none" stroke="#404040" d="M461.01,-248.45C475.32,-222.16 497.56,-181.32 517.23,-145.19"/>
<polygon fill="none" stroke="#404040" points="517.24,-145.19 516.59,-138.01 522.98,-134.65 523.62,-141.83 517.24,-145.19"/>
<text text-anchor="middle" x="538.5" y="-156" font-family="Helvetica,sans-Serif" font-size="10.00"> +sparsity</text>
</g>
<!-- Node7 -->
<g id="node7" class="node">
<title>Node7</title>
<g id="a_node7"><a xlink:href="struct_tf_lite_int_array.html" target="_top" xlink:title=" ">
<polygon fill="none" stroke="black" points="409.5,-557.5 409.5,-625.5 492.5,-625.5 492.5,-557.5 409.5,-557.5"/>
<text text-anchor="middle" x="451" y="-613.5" font-family="Helvetica,sans-Serif" font-size="10.00">TfLiteIntArray</text>
<polyline fill="none" stroke="black" points="409.5,-606.5 492.5,-606.5 "/>
<text text-anchor="start" x="417.5" y="-594.5" font-family="Helvetica,sans-Serif" font-size="10.00">+ size</text>
<text text-anchor="start" x="417.5" y="-583.5" font-family="Helvetica,sans-Serif" font-size="10.00">+ data</text>
<polyline fill="none" stroke="black" points="409.5,-576.5 492.5,-576.5 "/>
<text text-anchor="middle" x="451" y="-564.5" font-family="Helvetica,sans-Serif" font-size="10.00"> </text>
</a>
</g>
</g>
<!-- Node7&#45;&gt;Node1 -->
<g id="edge10" class="edge">
<title>Node7&#45;&gt;Node1</title>
<path fill="none" stroke="#404040" d="M428.11,-557.5C405.7,-523.02 373.08,-466.45 360,-412 343.6,-343.72 240.23,-404.28 375,-182 402.09,-137.31 454.14,-107.66 495.99,-89.91"/>
<polygon fill="none" stroke="#404040" points="496.11,-89.86 500.15,-83.89 507.22,-85.32 503.17,-91.29 496.11,-89.86"/>
<text text-anchor="middle" x="402" y="-404" font-family="Helvetica,sans-Serif" font-size="10.00"> +dims</text>
<text text-anchor="middle" x="402" y="-393" font-family="Helvetica,sans-Serif" font-size="10.00">+dims_signature</text>
</g>
<!-- Node7&#45;&gt;Node6 -->
<g id="edge6" class="edge">
<title>Node7&#45;&gt;Node6</title>
<path fill="none" stroke="#404040" d="M450.47,-557.35C449.54,-499.45 447.63,-380.13 446.64,-317.84"/>
<polygon fill="none" stroke="#404040" points="446.64,-317.81 442.54,-311.88 446.45,-305.81 450.54,-311.75 446.64,-317.81"/>
<text text-anchor="middle" x="493" y="-467.5" font-family="Helvetica,sans-Serif" font-size="10.00"> +traversal_order</text>
<text text-anchor="middle" x="493" y="-456.5" font-family="Helvetica,sans-Serif" font-size="10.00">+block_map</text>
</g>
<!-- Node8 -->
<g id="node8" class="node">
<title>Node8</title>
<g id="a_node8"><a xlink:href="struct_tf_lite_dimension_metadata.html" target="_top" xlink:title=" ">
<polygon fill="none" stroke="black" points="555.5,-430.5 555.5,-498.5 698.5,-498.5 698.5,-430.5 555.5,-430.5"/>
<text text-anchor="middle" x="627" y="-486.5" font-family="Helvetica,sans-Serif" font-size="10.00">TfLiteDimensionMetadata</text>
<polyline fill="none" stroke="black" points="555.5,-479.5 698.5,-479.5 "/>
<text text-anchor="start" x="563.5" y="-467.5" font-family="Helvetica,sans-Serif" font-size="10.00">+ format</text>
<text text-anchor="start" x="563.5" y="-456.5" font-family="Helvetica,sans-Serif" font-size="10.00">+ dense_size</text>
<polyline fill="none" stroke="black" points="555.5,-449.5 698.5,-449.5 "/>
<text text-anchor="middle" x="627" y="-437.5" font-family="Helvetica,sans-Serif" font-size="10.00"> </text>
</a>
</g>
</g>
<!-- Node7&#45;&gt;Node8 -->
<g id="edge8" class="edge">
<title>Node7&#45;&gt;Node8</title>
<path fill="none" stroke="#404040" d="M492.71,-560.88C515.95,-544.37 545.22,-523.58 570.49,-505.63"/>
<polygon fill="none" stroke="#404040" points="570.54,-505.6 573.11,-498.87 580.32,-498.65 577.75,-505.39 570.54,-505.6"/>
<text text-anchor="middle" x="594" y="-531" font-family="Helvetica,sans-Serif" font-size="10.00"> +array_indices</text>
<text text-anchor="middle" x="594" y="-520" font-family="Helvetica,sans-Serif" font-size="10.00">+array_segments</text>
</g>
<!-- Node8&#45;&gt;Node6 -->
<g id="edge7" class="edge">
<title>Node8&#45;&gt;Node6</title>
<path fill="none" stroke="#404040" d="M582.67,-430.46C561.76,-413.95 537.06,-393.03 517,-372 500.4,-354.6 484.07,-333.36 471.27,-315.47"/>
<polygon fill="none" stroke="#404040" points="471.26,-315.46 464.53,-312.86 464.35,-305.65 471.07,-308.25 471.26,-315.46"/>
<text text-anchor="middle" x="598.5" y="-398.5" font-family="Helvetica,sans-Serif" font-size="10.00"> +dim_metadata</text>
</g>
<!-- Node9 -->
<g id="node9" class="node">
<title>Node9</title>
<g id="a_node9"><a xlink:href="struct_tf_lite_delegate.html" target="_top" xlink:title=" ">
<polygon fill="none" stroke="black" points="526.5,-221 526.5,-333 667.5,-333 667.5,-221 526.5,-221"/>
<text text-anchor="middle" x="597" y="-321" font-family="Helvetica,sans-Serif" font-size="10.00">TfLiteDelegate</text>
<polyline fill="none" stroke="black" points="526.5,-314 667.5,-314 "/>
<text text-anchor="start" x="534.5" y="-302" font-family="Helvetica,sans-Serif" font-size="10.00">+ data_</text>
<text text-anchor="start" x="534.5" y="-291" font-family="Helvetica,sans-Serif" font-size="10.00">+ Prepare</text>
<text text-anchor="start" x="534.5" y="-280" font-family="Helvetica,sans-Serif" font-size="10.00">+ CopyFromBufferHandle</text>
<text text-anchor="start" x="534.5" y="-269" font-family="Helvetica,sans-Serif" font-size="10.00">+ CopyToBufferHandle</text>
<text text-anchor="start" x="534.5" y="-258" font-family="Helvetica,sans-Serif" font-size="10.00">+ FreeBufferHandle</text>
<text text-anchor="start" x="534.5" y="-247" font-family="Helvetica,sans-Serif" font-size="10.00">+ flags</text>
<polyline fill="none" stroke="black" points="526.5,-240 667.5,-240 "/>
<text text-anchor="middle" x="597" y="-228" font-family="Helvetica,sans-Serif" font-size="10.00"> </text>
</a>
</g>
</g>
<!-- Node9&#45;&gt;Node1 -->
<g id="edge9" class="edge">
<title>Node9&#45;&gt;Node1</title>
<path fill="none" stroke="#404040" d="M586.92,-220.94C582.74,-198.14 577.82,-171.27 573.29,-146.5"/>
<polygon fill="none" stroke="#404040" points="573.26,-146.34 568.24,-141.16 571.09,-134.54 576.11,-139.72 573.26,-146.34"/>
<text text-anchor="middle" x="602.5" y="-156" font-family="Helvetica,sans-Serif" font-size="10.00"> +delegate</text>
</g>
<!-- Node10 -->
<g id="node10" class="node">
<title>Node10</title>
<g id="a_node10"><a xlink:href="struct_tf_lite_quantization.html" target="_top" xlink:title=" ">
<polygon fill="none" stroke="black" points="685.5,-243 685.5,-311 792.5,-311 792.5,-243 685.5,-243"/>
<text text-anchor="middle" x="739" y="-299" font-family="Helvetica,sans-Serif" font-size="10.00">TfLiteQuantization</text>
<polyline fill="none" stroke="black" points="685.5,-292 792.5,-292 "/>
<text text-anchor="start" x="693.5" y="-280" font-family="Helvetica,sans-Serif" font-size="10.00">+ type</text>
<text text-anchor="start" x="693.5" y="-269" font-family="Helvetica,sans-Serif" font-size="10.00">+ params</text>
<polyline fill="none" stroke="black" points="685.5,-262 792.5,-262 "/>
<text text-anchor="middle" x="739" y="-250" font-family="Helvetica,sans-Serif" font-size="10.00"> </text>
</a>
</g>
</g>
<!-- Node10&#45;&gt;Node1 -->
<g id="edge11" class="edge">
<title>Node10&#45;&gt;Node1</title>
<path fill="none" stroke="#404040" d="M719.73,-242.99C708.26,-224.37 692.88,-201.09 677,-182 659.66,-161.16 638.86,-140.09 619.58,-121.85"/>
<polygon fill="none" stroke="#404040" points="619.32,-121.61 612.21,-120.44 610.56,-113.42 617.67,-114.59 619.32,-121.61"/>
<text text-anchor="middle" x="695.5" y="-156" font-family="Helvetica,sans-Serif" font-size="10.00"> +quantization</text>
</g>
<!-- Node11 -->
<g id="node11" class="node">
<title>Node11</title>
<g id="a_node11"><a xlink:href="struct_tf_lite_quantization_params.html" target="_top" xlink:title=" ">
<polygon fill="none" stroke="black" points="810.5,-243 810.5,-311 953.5,-311 953.5,-243 810.5,-243"/>
<text text-anchor="middle" x="882" y="-299" font-family="Helvetica,sans-Serif" font-size="10.00">TfLiteQuantizationParams</text>
<polyline fill="none" stroke="black" points="810.5,-292 953.5,-292 "/>
<text text-anchor="start" x="818.5" y="-280" font-family="Helvetica,sans-Serif" font-size="10.00">+ scale</text>
<text text-anchor="start" x="818.5" y="-269" font-family="Helvetica,sans-Serif" font-size="10.00">+ zero_point</text>
<polyline fill="none" stroke="black" points="810.5,-262 953.5,-262 "/>
<text text-anchor="middle" x="882" y="-250" font-family="Helvetica,sans-Serif" font-size="10.00"> </text>
</a>
</g>
</g>
<!-- Node11&#45;&gt;Node1 -->
<g id="edge12" class="edge">
<title>Node11&#45;&gt;Node1</title>
<path fill="none" stroke="#404040" d="M859.37,-242.82C844.75,-223.23 824.33,-199.02 802,-182 746.92,-140.01 673.8,-108.5 622.21,-89.46"/>
<polygon fill="none" stroke="#404040" points="622.17,-89.45 615.17,-91.16 610.89,-85.36 617.9,-83.64 622.17,-89.45"/>
<text text-anchor="middle" x="796.5" y="-156" font-family="Helvetica,sans-Serif" font-size="10.00"> +params</text>
</g>
</g>
</svg>
