<?xml version="1.0" encoding="UTF-8" standalone="no"?>
<!DOCTYPE svg PUBLIC "-//W3C//DTD SVG 1.1//EN"
 "http://www.w3.org/Graphics/SVG/1.1/DTD/svg11.dtd">
<!-- Generated by graphviz version 2.43.0 (0)
 -->
<!-- Title: TfLitePoolParams Pages: 1 -->
<svg width="123pt" height="270pt"
 viewBox="0.00 0.00 123.00 270.00" xmlns="http://www.w3.org/2000/svg" xmlns:xlink="http://www.w3.org/1999/xlink">
<g id="graph0" class="graph" transform="scale(1 1) rotate(0) translate(4 266)">
<title>TfLitePoolParams</title>
<!-- Node1 -->
<g id="node1" class="node">
<title>Node1</title>
<g id="a_node1"><a xlink:title=" ">
<polygon fill="#bfbfbf" stroke="black" points="7,-0.5 7,-123.5 108,-123.5 108,-0.5 7,-0.5"/>
<text text-anchor="middle" x="57.5" y="-111.5" font-family="Helvetica,sans-Serif" font-size="10.00">TfLitePoolParams</text>
<polyline fill="none" stroke="black" points="7,-104.5 108,-104.5 "/>
<text text-anchor="start" x="15" y="-92.5" font-family="Helvetica,sans-Serif" font-size="10.00">+ stride_width</text>
<text text-anchor="start" x="15" y="-81.5" font-family="Helvetica,sans-Serif" font-size="10.00">+ stride_height</text>
<text text-anchor="start" x="15" y="-70.5" font-family="Helvetica,sans-Serif" font-size="10.00">+ filter_width</text>
<text text-anchor="start" x="15" y="-59.5" font-family="Helvetica,sans-Serif" font-size="10.00">+ filter_height</text>
<text text-anchor="start" x="15" y="-48.5" font-family="Helvetica,sans-Serif" font-size="10.00">+ activation</text>
<text text-anchor="start" x="15" y="-37.5" font-family="Helvetica,sans-Serif" font-size="10.00">+ computed</text>
<text text-anchor="start" x="15" y="-26.5" font-family="Helvetica,sans-Serif" font-size="10.00">+ computed</text>
<polyline fill="none" stroke="black" points="7,-19.5 108,-19.5 "/>
<text text-anchor="middle" x="57.5" y="-7.5" font-family="Helvetica,sans-Serif" font-size="10.00"> </text>
</a>
</g>
</g>
<!-- Node2 -->
<g id="node2" class="node">
<title>Node2</title>
<g id="a_node2"><a xlink:href="struct_tf_lite_padding_values.html" target="_top" xlink:title=" ">
<polygon fill="none" stroke="black" points="0,-171.5 0,-261.5 115,-261.5 115,-171.5 0,-171.5"/>
<text text-anchor="middle" x="57.5" y="-249.5" font-family="Helvetica,sans-Serif" font-size="10.00">TfLitePaddingValues</text>
<polyline fill="none" stroke="black" points="0,-242.5 115,-242.5 "/>
<text text-anchor="start" x="8" y="-230.5" font-family="Helvetica,sans-Serif" font-size="10.00">+ width</text>
<text text-anchor="start" x="8" y="-219.5" font-family="Helvetica,sans-Serif" font-size="10.00">+ height</text>
<text text-anchor="start" x="8" y="-208.5" font-family="Helvetica,sans-Serif" font-size="10.00">+ width_offset</text>
<text text-anchor="start" x="8" y="-197.5" font-family="Helvetica,sans-Serif" font-size="10.00">+ height_offset</text>
<polyline fill="none" stroke="black" points="0,-190.5 115,-190.5 "/>
<text text-anchor="middle" x="57.5" y="-178.5" font-family="Helvetica,sans-Serif" font-size="10.00"> </text>
</a>
</g>
</g>
<!-- Node2&#45;&gt;Node1 -->
<g id="edge1" class="edge">
<title>Node2&#45;&gt;Node1</title>
<path fill="none" stroke="#404040" d="M57.5,-171.39C57.5,-160.24 57.5,-147.97 57.5,-135.81"/>
<polygon fill="none" stroke="#404040" points="57.5,-135.74 53.5,-129.74 57.5,-123.74 61.5,-129.74 57.5,-135.74"/>
<text text-anchor="middle" x="83" y="-145" font-family="Helvetica,sans-Serif" font-size="10.00"> +padding</text>
</g>
</g>
</svg>
