<?xml version="1.0" encoding="UTF-8" standalone="no"?>
<!DOCTYPE svg PUBLIC "-//W3C//DTD SVG 1.1//EN"
 "http://www.w3.org/Graphics/SVG/1.1/DTD/svg11.dtd">
<!-- Generated by graphviz version 2.43.0 (0)
 -->
<!-- Title: tflite::DepthwiseConv2DOptionsT Pages: 1 -->
<svg width="187pt" height="237pt"
 viewBox="0.00 0.00 187.00 237.00" xmlns="http://www.w3.org/2000/svg" xmlns:xlink="http://www.w3.org/1999/xlink">
<g id="graph0" class="graph" transform="scale(1 1) rotate(0) translate(4 233)">
<title>tflite::DepthwiseConv2DOptionsT</title>
<!-- Node1 -->
<g id="node1" class="node">
<title>Node1</title>
<g id="a_node1"><a xlink:title=" ">
<polygon fill="#bfbfbf" stroke="black" points="0,-0.5 0,-134.5 179,-134.5 179,-0.5 0,-0.5"/>
<text text-anchor="middle" x="89.5" y="-122.5" font-family="Helvetica,sans-Serif" font-size="10.00">tflite::DepthwiseConv2DOptionsT</text>
<polyline fill="none" stroke="black" points="0,-115.5 179,-115.5 "/>
<text text-anchor="start" x="8" y="-103.5" font-family="Helvetica,sans-Serif" font-size="10.00">+ padding</text>
<text text-anchor="start" x="8" y="-92.5" font-family="Helvetica,sans-Serif" font-size="10.00">+ stride_w</text>
<text text-anchor="start" x="8" y="-81.5" font-family="Helvetica,sans-Serif" font-size="10.00">+ stride_h</text>
<text text-anchor="start" x="8" y="-70.5" font-family="Helvetica,sans-Serif" font-size="10.00">+ depth_multiplier</text>
<text text-anchor="start" x="8" y="-59.5" font-family="Helvetica,sans-Serif" font-size="10.00">+ fused_activation_function</text>
<text text-anchor="start" x="8" y="-48.5" font-family="Helvetica,sans-Serif" font-size="10.00">+ dilation_w_factor</text>
<text text-anchor="start" x="8" y="-37.5" font-family="Helvetica,sans-Serif" font-size="10.00">+ dilation_h_factor</text>
<polyline fill="none" stroke="black" points="0,-30.5 179,-30.5 "/>
<text text-anchor="start" x="8" y="-18.5" font-family="Helvetica,sans-Serif" font-size="10.00">+ DepthwiseConv2DOptionsT()</text>
<text text-anchor="start" x="8" y="-7.5" font-family="Helvetica,sans-Serif" font-size="10.00">+ DepthwiseConv2DOptionsT()</text>
</a>
</g>
</g>
<!-- Node2 -->
<g id="node2" class="node">
<title>Node2</title>
<g id="a_node2"><a xlink:title=" ">
<polygon fill="none" stroke="#bfbfbf" points="52.5,-171.5 52.5,-228.5 126.5,-228.5 126.5,-171.5 52.5,-171.5"/>
<text text-anchor="middle" x="89.5" y="-216.5" font-family="Helvetica,sans-Serif" font-size="10.00">NativeTable</text>
<polyline fill="none" stroke="#bfbfbf" points="52.5,-209.5 126.5,-209.5 "/>
<text text-anchor="middle" x="89.5" y="-197.5" font-family="Helvetica,sans-Serif" font-size="10.00"> </text>
<polyline fill="none" stroke="#bfbfbf" points="52.5,-190.5 126.5,-190.5 "/>
<text text-anchor="middle" x="89.5" y="-178.5" font-family="Helvetica,sans-Serif" font-size="10.00"> </text>
</a>
</g>
</g>
<!-- Node2&#45;&gt;Node1 -->
<g id="edge1" class="edge">
<title>Node2&#45;&gt;Node1</title>
<path fill="none" stroke="midnightblue" d="M89.5,-161.16C89.5,-152.78 89.5,-143.67 89.5,-134.53"/>
<polygon fill="none" stroke="midnightblue" points="86,-161.32 89.5,-171.32 93,-161.32 86,-161.32"/>
</g>
</g>
</svg>
