<?xml version="1.0" encoding="UTF-8" standalone="no"?>
<!DOCTYPE svg PUBLIC "-//W3C//DTD SVG 1.1//EN"
 "http://www.w3.org/Graphics/SVG/1.1/DTD/svg11.dtd">
<!-- Generated by graphviz version 2.43.0 (0)
 -->
<!-- Title: ConvParameters Pages: 1 -->
<svg width="624pt" height="204pt"
 viewBox="0.00 0.00 623.50 204.00" xmlns="http://www.w3.org/2000/svg" xmlns:xlink="http://www.w3.org/1999/xlink">
<g id="graph0" class="graph" transform="scale(1 1) rotate(0) translate(4 200)">
<title>ConvParameters</title>
<!-- Node1 -->
<g id="node1" class="node">
<title>Node1</title>
<g id="a_node1"><a xlink:title=" ">
<polygon fill="#bfbfbf" stroke="black" points="272.5,-0.5 272.5,-68.5 385.5,-68.5 385.5,-0.5 272.5,-0.5"/>
<text text-anchor="middle" x="329" y="-56.5" font-family="Helvetica,sans-Serif" font-size="10.00">ConvParameters</text>
<polyline fill="none" stroke="black" points="272.5,-49.5 385.5,-49.5 "/>
<text text-anchor="start" x="280.5" y="-37.5" font-family="Helvetica,sans-Serif" font-size="10.00">+ depth_multiplier_</text>
<text text-anchor="start" x="280.5" y="-26.5" font-family="Helvetica,sans-Serif" font-size="10.00">+ type_</text>
<polyline fill="none" stroke="black" points="272.5,-19.5 385.5,-19.5 "/>
<text text-anchor="middle" x="329" y="-7.5" font-family="Helvetica,sans-Serif" font-size="10.00"> </text>
</a>
</g>
</g>
<!-- Node2 -->
<g id="node2" class="node">
<title>Node2</title>
<g id="a_node2"><a xlink:href="struct_conv_qant_activation.html" target="_top" xlink:title=" ">
<polygon fill="none" stroke="black" points="0,-122 0,-190 114,-190 114,-122 0,-122"/>
<text text-anchor="middle" x="57" y="-178" font-family="Helvetica,sans-Serif" font-size="10.00">ConvQantActivation</text>
<polyline fill="none" stroke="black" points="0,-171 114,-171 "/>
<text text-anchor="start" x="8" y="-159" font-family="Helvetica,sans-Serif" font-size="10.00">+ max_</text>
<text text-anchor="start" x="8" y="-148" font-family="Helvetica,sans-Serif" font-size="10.00">+ min_</text>
<polyline fill="none" stroke="black" points="0,-141 114,-141 "/>
<text text-anchor="middle" x="57" y="-129" font-family="Helvetica,sans-Serif" font-size="10.00"> </text>
</a>
</g>
</g>
<!-- Node2&#45;&gt;Node1 -->
<g id="edge1" class="edge">
<title>Node2&#45;&gt;Node1</title>
<path fill="none" stroke="#404040" d="M77.46,-121.86C86.83,-109.21 98.99,-95.75 113,-87 157.49,-59.23 215.68,-46.44 260.46,-40.54"/>
<polygon fill="none" stroke="#404040" points="260.5,-40.53 265.98,-35.84 272.41,-39.08 266.94,-43.78 260.5,-40.53"/>
<text text-anchor="middle" x="172.5" y="-90" font-family="Helvetica,sans-Serif" font-size="10.00"> +quantized_activation_</text>
</g>
<!-- Node3 -->
<g id="node3" class="node">
<title>Node3</title>
<g id="a_node3"><a xlink:href="struct_conv_offset.html" target="_top" xlink:title=" ">
<polygon fill="none" stroke="black" points="150.5,-116.5 150.5,-195.5 221.5,-195.5 221.5,-116.5 150.5,-116.5"/>
<text text-anchor="middle" x="186" y="-183.5" font-family="Helvetica,sans-Serif" font-size="10.00">ConvOffset</text>
<polyline fill="none" stroke="black" points="150.5,-176.5 221.5,-176.5 "/>
<text text-anchor="start" x="158.5" y="-164.5" font-family="Helvetica,sans-Serif" font-size="10.00">+ input_</text>
<text text-anchor="start" x="158.5" y="-153.5" font-family="Helvetica,sans-Serif" font-size="10.00">+ filter_</text>
<text text-anchor="start" x="158.5" y="-142.5" font-family="Helvetica,sans-Serif" font-size="10.00">+ output_</text>
<polyline fill="none" stroke="black" points="150.5,-135.5 221.5,-135.5 "/>
<text text-anchor="middle" x="186" y="-123.5" font-family="Helvetica,sans-Serif" font-size="10.00"> </text>
</a>
</g>
</g>
<!-- Node3&#45;&gt;Node1 -->
<g id="edge2" class="edge">
<title>Node3&#45;&gt;Node1</title>
<path fill="none" stroke="#404040" d="M218.12,-116.21C227.28,-106.17 237.6,-95.74 248,-87 252.66,-83.08 257.65,-79.23 262.77,-75.51"/>
<polygon fill="none" stroke="#404040" points="262.9,-75.42 265.51,-68.7 272.72,-68.53 270.11,-75.25 262.9,-75.42"/>
<text text-anchor="middle" x="270.5" y="-90" font-family="Helvetica,sans-Serif" font-size="10.00"> +offset_</text>
</g>
<!-- Node4 -->
<g id="node4" class="node">
<title>Node4</title>
<g id="a_node4"><a xlink:href="struct_conv_dilation.html" target="_top" xlink:title=" ">
<polygon fill="none" stroke="black" points="240,-122 240,-190 320,-190 320,-122 240,-122"/>
<text text-anchor="middle" x="280" y="-178" font-family="Helvetica,sans-Serif" font-size="10.00">ConvDilation</text>
<polyline fill="none" stroke="black" points="240,-171 320,-171 "/>
<text text-anchor="start" x="248" y="-159" font-family="Helvetica,sans-Serif" font-size="10.00">+ height_</text>
<text text-anchor="start" x="248" y="-148" font-family="Helvetica,sans-Serif" font-size="10.00">+ width_</text>
<polyline fill="none" stroke="black" points="240,-141 320,-141 "/>
<text text-anchor="middle" x="280" y="-129" font-family="Helvetica,sans-Serif" font-size="10.00"> </text>
</a>
</g>
</g>
<!-- Node4&#45;&gt;Node1 -->
<g id="edge3" class="edge">
<title>Node4&#45;&gt;Node1</title>
<path fill="none" stroke="#404040" d="M289.52,-121.73C293.05,-110.55 297.34,-98.1 302,-87 303.03,-84.54 304.14,-82.04 305.3,-79.54"/>
<polygon fill="none" stroke="#404040" points="305.35,-79.42 304.37,-72.28 310.58,-68.62 311.57,-75.77 305.35,-79.42"/>
<text text-anchor="middle" x="329" y="-90" font-family="Helvetica,sans-Serif" font-size="10.00"> +dilation_</text>
</g>
<!-- Node5 -->
<g id="node5" class="node">
<title>Node5</title>
<g id="a_node5"><a xlink:href="struct_conv_padding.html" target="_top" xlink:title=" ">
<polygon fill="none" stroke="black" points="338,-122 338,-190 418,-190 418,-122 338,-122"/>
<text text-anchor="middle" x="378" y="-178" font-family="Helvetica,sans-Serif" font-size="10.00">ConvPadding</text>
<polyline fill="none" stroke="black" points="338,-171 418,-171 "/>
<text text-anchor="start" x="346" y="-159" font-family="Helvetica,sans-Serif" font-size="10.00">+ height_</text>
<text text-anchor="start" x="346" y="-148" font-family="Helvetica,sans-Serif" font-size="10.00">+ width_</text>
<polyline fill="none" stroke="black" points="338,-141 418,-141 "/>
<text text-anchor="middle" x="378" y="-129" font-family="Helvetica,sans-Serif" font-size="10.00"> </text>
</a>
</g>
</g>
<!-- Node5&#45;&gt;Node1 -->
<g id="edge4" class="edge">
<title>Node5&#45;&gt;Node1</title>
<path fill="none" stroke="#404040" d="M368.48,-121.73C364.95,-110.55 360.66,-98.1 356,-87 354.97,-84.54 353.86,-82.04 352.7,-79.54"/>
<polygon fill="none" stroke="#404040" points="352.65,-79.42 346.43,-75.77 347.42,-68.62 353.63,-72.28 352.65,-79.42"/>
<text text-anchor="middle" x="388" y="-90" font-family="Helvetica,sans-Serif" font-size="10.00"> +padding_</text>
</g>
<!-- Node6 -->
<g id="node6" class="node">
<title>Node6</title>
<g id="a_node6"><a xlink:href="struct_conv_stride.html" target="_top" xlink:title=" ">
<polygon fill="none" stroke="black" points="436,-122 436,-190 506,-190 506,-122 436,-122"/>
<text text-anchor="middle" x="471" y="-178" font-family="Helvetica,sans-Serif" font-size="10.00">ConvStride</text>
<polyline fill="none" stroke="black" points="436,-171 506,-171 "/>
<text text-anchor="start" x="444" y="-159" font-family="Helvetica,sans-Serif" font-size="10.00">+ height_</text>
<text text-anchor="start" x="444" y="-148" font-family="Helvetica,sans-Serif" font-size="10.00">+ width_</text>
<polyline fill="none" stroke="black" points="436,-141 506,-141 "/>
<text text-anchor="middle" x="471" y="-129" font-family="Helvetica,sans-Serif" font-size="10.00"> </text>
</a>
</g>
</g>
<!-- Node6&#45;&gt;Node1 -->
<g id="edge5" class="edge">
<title>Node6&#45;&gt;Node1</title>
<path fill="none" stroke="#404040" d="M450.36,-121.92C441.9,-110 431.42,-97.04 420,-87 412.73,-80.61 404.54,-74.65 396.13,-69.21"/>
<polygon fill="none" stroke="#404040" points="396.02,-69.15 388.82,-69.4 385.81,-62.85 393.02,-62.59 396.02,-69.15"/>
<text text-anchor="middle" x="451.5" y="-90" font-family="Helvetica,sans-Serif" font-size="10.00"> +stride_</text>
</g>
<!-- Node7 -->
<g id="node7" class="node">
<title>Node7</title>
<g id="a_node7"><a xlink:href="struct_conv_activation.html" target="_top" xlink:title=" ">
<polygon fill="none" stroke="black" points="524.5,-122 524.5,-190 615.5,-190 615.5,-122 524.5,-122"/>
<text text-anchor="middle" x="570" y="-178" font-family="Helvetica,sans-Serif" font-size="10.00">ConvActivation</text>
<polyline fill="none" stroke="black" points="524.5,-171 615.5,-171 "/>
<text text-anchor="start" x="532.5" y="-159" font-family="Helvetica,sans-Serif" font-size="10.00">+ max_</text>
<text text-anchor="start" x="532.5" y="-148" font-family="Helvetica,sans-Serif" font-size="10.00">+ min_</text>
<polyline fill="none" stroke="black" points="524.5,-141 615.5,-141 "/>
<text text-anchor="middle" x="570" y="-129" font-family="Helvetica,sans-Serif" font-size="10.00"> </text>
</a>
</g>
</g>
<!-- Node7&#45;&gt;Node1 -->
<g id="edge6" class="edge">
<title>Node7&#45;&gt;Node1</title>
<path fill="none" stroke="#404040" d="M530.54,-121.73C514.89,-109.65 496.28,-96.62 478,-87 452.69,-73.68 423.22,-62.65 397.2,-54.26"/>
<polygon fill="none" stroke="#404040" points="396.96,-54.19 390.04,-56.21 385.51,-50.6 392.44,-48.58 396.96,-54.19"/>
<text text-anchor="middle" x="529" y="-90" font-family="Helvetica,sans-Serif" font-size="10.00"> +activation_</text>
</g>
</g>
</svg>
