<?xml version="1.0" encoding="UTF-8" standalone="no"?>
<!DOCTYPE svg PUBLIC "-//W3C//DTD SVG 1.1//EN"
 "http://www.w3.org/Graphics/SVG/1.1/DTD/svg11.dtd">
<!-- Generated by graphviz version 2.43.0 (0)
 -->
<!-- Title: tflite::TensorT Pages: 1 -->
<svg width="116pt" height="248pt"
 viewBox="0.00 0.00 116.00 248.00" xmlns="http://www.w3.org/2000/svg" xmlns:xlink="http://www.w3.org/1999/xlink">
<g id="graph0" class="graph" transform="scale(1 1) rotate(0) translate(4 244)">
<title>tflite::TensorT</title>
<!-- Node1 -->
<g id="node1" class="node">
<title>Node1</title>
<g id="a_node1"><a xlink:title=" ">
<polygon fill="#bfbfbf" stroke="black" points="0,-0.5 0,-145.5 108,-145.5 108,-0.5 0,-0.5"/>
<text text-anchor="middle" x="54" y="-133.5" font-family="Helvetica,sans-Serif" font-size="10.00">tflite::TensorT</text>
<polyline fill="none" stroke="black" points="0,-126.5 108,-126.5 "/>
<text text-anchor="start" x="8" y="-114.5" font-family="Helvetica,sans-Serif" font-size="10.00">+ shape</text>
<text text-anchor="start" x="8" y="-103.5" font-family="Helvetica,sans-Serif" font-size="10.00">+ type</text>
<text text-anchor="start" x="8" y="-92.5" font-family="Helvetica,sans-Serif" font-size="10.00">+ buffer</text>
<text text-anchor="start" x="8" y="-81.5" font-family="Helvetica,sans-Serif" font-size="10.00">+ name</text>
<text text-anchor="start" x="8" y="-70.5" font-family="Helvetica,sans-Serif" font-size="10.00">+ quantization</text>
<text text-anchor="start" x="8" y="-59.5" font-family="Helvetica,sans-Serif" font-size="10.00">+ is_variable</text>
<text text-anchor="start" x="8" y="-48.5" font-family="Helvetica,sans-Serif" font-size="10.00">+ sparsity</text>
<text text-anchor="start" x="8" y="-37.5" font-family="Helvetica,sans-Serif" font-size="10.00">+ shape_signature</text>
<polyline fill="none" stroke="black" points="0,-30.5 108,-30.5 "/>
<text text-anchor="start" x="8" y="-18.5" font-family="Helvetica,sans-Serif" font-size="10.00">+ TensorT()</text>
<text text-anchor="start" x="8" y="-7.5" font-family="Helvetica,sans-Serif" font-size="10.00">+ TensorT()</text>
</a>
</g>
</g>
<!-- Node2 -->
<g id="node2" class="node">
<title>Node2</title>
<g id="a_node2"><a xlink:title=" ">
<polygon fill="none" stroke="#bfbfbf" points="17,-182.5 17,-239.5 91,-239.5 91,-182.5 17,-182.5"/>
<text text-anchor="middle" x="54" y="-227.5" font-family="Helvetica,sans-Serif" font-size="10.00">NativeTable</text>
<polyline fill="none" stroke="#bfbfbf" points="17,-220.5 91,-220.5 "/>
<text text-anchor="middle" x="54" y="-208.5" font-family="Helvetica,sans-Serif" font-size="10.00"> </text>
<polyline fill="none" stroke="#bfbfbf" points="17,-201.5 91,-201.5 "/>
<text text-anchor="middle" x="54" y="-189.5" font-family="Helvetica,sans-Serif" font-size="10.00"> </text>
</a>
</g>
</g>
<!-- Node2&#45;&gt;Node1 -->
<g id="edge1" class="edge">
<title>Node2&#45;&gt;Node1</title>
<path fill="none" stroke="midnightblue" d="M54,-172.36C54,-164 54,-154.87 54,-145.66"/>
<polygon fill="none" stroke="midnightblue" points="50.5,-172.48 54,-182.48 57.5,-172.48 50.5,-172.48"/>
</g>
</g>
</svg>
