<?xml version="1.0" encoding="UTF-8" standalone="no"?>
<!DOCTYPE svg PUBLIC "-//W3C//DTD SVG 1.1//EN"
 "http://www.w3.org/Graphics/SVG/1.1/DTD/svg11.dtd">
<!-- Generated by graphviz version 2.43.0 (0)
 -->
<!-- Title: tflite::OperatorT Pages: 1 -->
<svg width="244pt" height="391pt"
 viewBox="0.00 0.00 243.50 391.00" xmlns="http://www.w3.org/2000/svg" xmlns:xlink="http://www.w3.org/1999/xlink">
<g id="graph0" class="graph" transform="scale(1 1) rotate(0) translate(4 387)">
<title>tflite::OperatorT</title>
<!-- Node1 -->
<g id="node1" class="node">
<title>Node1</title>
<g id="a_node1"><a xlink:title=" ">
<polygon fill="#bfbfbf" stroke="black" points="24,-0.5 24,-134.5 176,-134.5 176,-0.5 24,-0.5"/>
<text text-anchor="middle" x="100" y="-122.5" font-family="Helvetica,sans-Serif" font-size="10.00">tflite::OperatorT</text>
<polyline fill="none" stroke="black" points="24,-115.5 176,-115.5 "/>
<text text-anchor="start" x="32" y="-103.5" font-family="Helvetica,sans-Serif" font-size="10.00">+ opcode_index</text>
<text text-anchor="start" x="32" y="-92.5" font-family="Helvetica,sans-Serif" font-size="10.00">+ inputs</text>
<text text-anchor="start" x="32" y="-81.5" font-family="Helvetica,sans-Serif" font-size="10.00">+ outputs</text>
<text text-anchor="start" x="32" y="-70.5" font-family="Helvetica,sans-Serif" font-size="10.00">+ custom_options</text>
<text text-anchor="start" x="32" y="-59.5" font-family="Helvetica,sans-Serif" font-size="10.00">+ custom_options_format</text>
<text text-anchor="start" x="32" y="-48.5" font-family="Helvetica,sans-Serif" font-size="10.00">+ mutating_variable_inputs</text>
<text text-anchor="start" x="32" y="-37.5" font-family="Helvetica,sans-Serif" font-size="10.00">+ intermediates</text>
<polyline fill="none" stroke="black" points="24,-30.5 176,-30.5 "/>
<text text-anchor="start" x="32" y="-18.5" font-family="Helvetica,sans-Serif" font-size="10.00">+ OperatorT()</text>
<text text-anchor="start" x="32" y="-7.5" font-family="Helvetica,sans-Serif" font-size="10.00">+ OperatorT()</text>
</a>
</g>
</g>
<!-- Node2 -->
<g id="node2" class="node">
<title>Node2</title>
<g id="a_node2"><a xlink:title=" ">
<polygon fill="none" stroke="#bfbfbf" points="0,-254 0,-311 74,-311 74,-254 0,-254"/>
<text text-anchor="middle" x="37" y="-299" font-family="Helvetica,sans-Serif" font-size="10.00">NativeTable</text>
<polyline fill="none" stroke="#bfbfbf" points="0,-292 74,-292 "/>
<text text-anchor="middle" x="37" y="-280" font-family="Helvetica,sans-Serif" font-size="10.00"> </text>
<polyline fill="none" stroke="#bfbfbf" points="0,-273 74,-273 "/>
<text text-anchor="middle" x="37" y="-261" font-family="Helvetica,sans-Serif" font-size="10.00"> </text>
</a>
</g>
</g>
<!-- Node2&#45;&gt;Node1 -->
<g id="edge1" class="edge">
<title>Node2&#45;&gt;Node1</title>
<path fill="none" stroke="midnightblue" d="M48.1,-243.96C57.01,-213.84 69.74,-170.79 80.37,-134.88"/>
<polygon fill="none" stroke="midnightblue" points="44.72,-243.07 45.24,-253.65 51.43,-245.06 44.72,-243.07"/>
</g>
<!-- Node3 -->
<g id="node3" class="node">
<title>Node3</title>
<g id="a_node3"><a xlink:href="structtflite_1_1_builtin_options_union.html" target="_top" xlink:title=" ">
<polygon fill="none" stroke="black" points="92.5,-182.5 92.5,-382.5 235.5,-382.5 235.5,-182.5 92.5,-182.5"/>
<text text-anchor="middle" x="164" y="-370.5" font-family="Helvetica,sans-Serif" font-size="10.00">tflite::BuiltinOptionsUnion</text>
<polyline fill="none" stroke="black" points="92.5,-363.5 235.5,-363.5 "/>
<text text-anchor="start" x="100.5" y="-351.5" font-family="Helvetica,sans-Serif" font-size="10.00">+ type</text>
<text text-anchor="start" x="100.5" y="-340.5" font-family="Helvetica,sans-Serif" font-size="10.00">+ value</text>
<polyline fill="none" stroke="black" points="92.5,-333.5 235.5,-333.5 "/>
<text text-anchor="start" x="100.5" y="-321.5" font-family="Helvetica,sans-Serif" font-size="10.00">+ BuiltinOptionsUnion()</text>
<text text-anchor="start" x="100.5" y="-310.5" font-family="Helvetica,sans-Serif" font-size="10.00">+ BuiltinOptionsUnion()</text>
<text text-anchor="start" x="100.5" y="-299.5" font-family="Helvetica,sans-Serif" font-size="10.00">+ BuiltinOptionsUnion()</text>
<text text-anchor="start" x="100.5" y="-288.5" font-family="Helvetica,sans-Serif" font-size="10.00">+ operator=()</text>
<text text-anchor="start" x="100.5" y="-277.5" font-family="Helvetica,sans-Serif" font-size="10.00">+ operator=()</text>
<text text-anchor="start" x="100.5" y="-266.5" font-family="Helvetica,sans-Serif" font-size="10.00">+ ~BuiltinOptionsUnion()</text>
<text text-anchor="start" x="100.5" y="-255.5" font-family="Helvetica,sans-Serif" font-size="10.00">+ Reset()</text>
<text text-anchor="start" x="100.5" y="-244.5" font-family="Helvetica,sans-Serif" font-size="10.00">+ Set()</text>
<text text-anchor="start" x="100.5" y="-233.5" font-family="Helvetica,sans-Serif" font-size="10.00">+ Pack()</text>
<text text-anchor="start" x="100.5" y="-222.5" font-family="Helvetica,sans-Serif" font-size="10.00">+ AsConv2DOptions()</text>
<text text-anchor="start" x="100.5" y="-211.5" font-family="Helvetica,sans-Serif" font-size="10.00">and 448 more...</text>
<text text-anchor="start" x="100.5" y="-200.5" font-family="Helvetica,sans-Serif" font-size="10.00">+ UnPack()</text>
<text text-anchor="start" x="100.5" y="-189.5" font-family="Helvetica,sans-Serif" font-size="10.00">+ UnPack()</text>
</a>
</g>
</g>
<!-- Node3&#45;&gt;Node1 -->
<g id="edge2" class="edge">
<title>Node3&#45;&gt;Node1</title>
<path fill="none" stroke="#404040" d="M134.25,-182.48C130.6,-170.34 126.91,-158.07 123.38,-146.31"/>
<polygon fill="none" stroke="#404040" points="123.35,-146.22 117.8,-141.63 119.9,-134.73 125.46,-139.33 123.35,-146.22"/>
<text text-anchor="middle" x="171" y="-156" font-family="Helvetica,sans-Serif" font-size="10.00"> +builtin_options</text>
</g>
</g>
</svg>
