<?xml version="1.0" encoding="UTF-8" standalone="no"?>
<!DOCTYPE svg PUBLIC "-//W3C//DTD SVG 1.1//EN"
 "http://www.w3.org/Graphics/SVG/1.1/DTD/svg11.dtd">
<!-- Generated by graphviz version 2.43.0 (0)
 -->
<!-- Title: Tensor Pages: 1 -->
<svg width="150pt" height="182pt"
 viewBox="0.00 0.00 150.00 182.00" xmlns="http://www.w3.org/2000/svg" xmlns:xlink="http://www.w3.org/1999/xlink">
<g id="graph0" class="graph" transform="scale(1 1) rotate(0) translate(4 178)">
<title>Tensor</title>
<!-- Node1 -->
<g id="node1" class="node">
<title>Node1</title>
<g id="a_node1"><a xlink:title=" ">
<polygon fill="#bfbfbf" stroke="black" points="39,-0.5 39,-57.5 87,-57.5 87,-0.5 39,-0.5"/>
<text text-anchor="middle" x="63" y="-45.5" font-family="Helvetica,sans-Serif" font-size="10.00">Tensor</text>
<polyline fill="none" stroke="black" points="39,-38.5 87,-38.5 "/>
<text text-anchor="middle" x="63" y="-26.5" font-family="Helvetica,sans-Serif" font-size="10.00"> </text>
<polyline fill="none" stroke="black" points="39,-19.5 87,-19.5 "/>
<text text-anchor="middle" x="63" y="-7.5" font-family="Helvetica,sans-Serif" font-size="10.00"> </text>
</a>
</g>
</g>
<!-- Node2 -->
<g id="node2" class="node">
<title>Node2</title>
<g id="a_node2"><a xlink:href="union_data.html" target="_top" xlink:title=" ">
<polygon fill="none" stroke="black" points="0,-105.5 0,-173.5 46,-173.5 46,-105.5 0,-105.5"/>
<text text-anchor="middle" x="23" y="-161.5" font-family="Helvetica,sans-Serif" font-size="10.00">Data</text>
<polyline fill="none" stroke="black" points="0,-154.5 46,-154.5 "/>
<text text-anchor="start" x="8" y="-142.5" font-family="Helvetica,sans-Serif" font-size="10.00">+ u32</text>
<text text-anchor="start" x="8" y="-131.5" font-family="Helvetica,sans-Serif" font-size="10.00">+ f32</text>
<polyline fill="none" stroke="black" points="0,-124.5 46,-124.5 "/>
<text text-anchor="middle" x="23" y="-112.5" font-family="Helvetica,sans-Serif" font-size="10.00"> </text>
</a>
</g>
</g>
<!-- Node2&#45;&gt;Node1 -->
<g id="edge1" class="edge">
<title>Node2&#45;&gt;Node1</title>
<path fill="none" stroke="#404040" d="M32.15,-105.46C35.04,-95.87 38.43,-85.44 42,-76 42.84,-73.78 43.73,-71.52 44.67,-69.25"/>
<polygon fill="none" stroke="#404040" points="44.78,-68.99 43.47,-61.9 49.52,-57.97 50.82,-65.06 44.78,-68.99"/>
<text text-anchor="middle" x="61.5" y="-79" font-family="Helvetica,sans-Serif" font-size="10.00"> +data_</text>
</g>
<!-- Node3 -->
<g id="node3" class="node">
<title>Node3</title>
<g id="a_node3"><a xlink:href="struct_tensor_shape.html" target="_top" xlink:title=" ">
<polygon fill="none" stroke="black" points="64,-111 64,-168 142,-168 142,-111 64,-111"/>
<text text-anchor="middle" x="103" y="-156" font-family="Helvetica,sans-Serif" font-size="10.00">TensorShape</text>
<polyline fill="none" stroke="black" points="64,-149 142,-149 "/>
<text text-anchor="start" x="72" y="-137" font-family="Helvetica,sans-Serif" font-size="10.00">+ dims_</text>
<polyline fill="none" stroke="black" points="64,-130 142,-130 "/>
<text text-anchor="middle" x="103" y="-118" font-family="Helvetica,sans-Serif" font-size="10.00"> </text>
</a>
</g>
</g>
<!-- Node3&#45;&gt;Node1 -->
<g id="edge2" class="edge">
<title>Node3&#45;&gt;Node1</title>
<path fill="none" stroke="#404040" d="M93.46,-110.74C89.66,-99.87 85.21,-87.32 81,-76 80.14,-73.68 79.24,-71.29 78.33,-68.89"/>
<polygon fill="none" stroke="#404040" points="78.32,-68.87 72.43,-64.71 74.01,-57.67 79.9,-61.83 78.32,-68.87"/>
<text text-anchor="middle" x="107" y="-79" font-family="Helvetica,sans-Serif" font-size="10.00"> +shape_</text>
</g>
</g>
</svg>
