<?xml version="1.0" encoding="UTF-8" standalone="no"?>
<!DOCTYPE svg PUBLIC "-//W3C//DTD SVG 1.1//EN"
 "http://www.w3.org/Graphics/SVG/1.1/DTD/svg11.dtd">
<!-- Generated by graphviz version 2.43.0 (0)
 -->
<!-- Title: tflite::HashtableOptionsT Pages: 1 -->
<svg width="146pt" height="193pt"
 viewBox="0.00 0.00 146.00 193.00" xmlns="http://www.w3.org/2000/svg" xmlns:xlink="http://www.w3.org/1999/xlink">
<g id="graph0" class="graph" transform="scale(1 1) rotate(0) translate(4 189)">
<title>tflite::HashtableOptionsT</title>
<!-- Node1 -->
<g id="node1" class="node">
<title>Node1</title>
<g id="a_node1"><a xlink:title=" ">
<polygon fill="#bfbfbf" stroke="black" points="0,-0.5 0,-90.5 138,-90.5 138,-0.5 0,-0.5"/>
<text text-anchor="middle" x="69" y="-78.5" font-family="Helvetica,sans-Serif" font-size="10.00">tflite::HashtableOptionsT</text>
<polyline fill="none" stroke="black" points="0,-71.5 138,-71.5 "/>
<text text-anchor="start" x="8" y="-59.5" font-family="Helvetica,sans-Serif" font-size="10.00">+ table_id</text>
<text text-anchor="start" x="8" y="-48.5" font-family="Helvetica,sans-Serif" font-size="10.00">+ key_dtype</text>
<text text-anchor="start" x="8" y="-37.5" font-family="Helvetica,sans-Serif" font-size="10.00">+ value_dtype</text>
<polyline fill="none" stroke="black" points="0,-30.5 138,-30.5 "/>
<text text-anchor="start" x="8" y="-18.5" font-family="Helvetica,sans-Serif" font-size="10.00">+ HashtableOptionsT()</text>
<text text-anchor="start" x="8" y="-7.5" font-family="Helvetica,sans-Serif" font-size="10.00">+ HashtableOptionsT()</text>
</a>
</g>
</g>
<!-- Node2 -->
<g id="node2" class="node">
<title>Node2</title>
<g id="a_node2"><a xlink:title=" ">
<polygon fill="none" stroke="#bfbfbf" points="32,-127.5 32,-184.5 106,-184.5 106,-127.5 32,-127.5"/>
<text text-anchor="middle" x="69" y="-172.5" font-family="Helvetica,sans-Serif" font-size="10.00">NativeTable</text>
<polyline fill="none" stroke="#bfbfbf" points="32,-165.5 106,-165.5 "/>
<text text-anchor="middle" x="69" y="-153.5" font-family="Helvetica,sans-Serif" font-size="10.00"> </text>
<polyline fill="none" stroke="#bfbfbf" points="32,-146.5 106,-146.5 "/>
<text text-anchor="middle" x="69" y="-134.5" font-family="Helvetica,sans-Serif" font-size="10.00"> </text>
</a>
</g>
</g>
<!-- Node2&#45;&gt;Node1 -->
<g id="edge1" class="edge">
<title>Node2&#45;&gt;Node1</title>
<path fill="none" stroke="midnightblue" d="M69,-117.21C69,-108.61 69,-99.39 69,-90.55"/>
<polygon fill="none" stroke="midnightblue" points="65.5,-117.34 69,-127.34 72.5,-117.34 65.5,-117.34"/>
</g>
</g>
</svg>
