<?xml version="1.0" encoding="UTF-8" standalone="no"?>
<!DOCTYPE svg PUBLIC "-//W3C//DTD SVG 1.1//EN"
 "http://www.w3.org/Graphics/SVG/1.1/DTD/svg11.dtd">
<!-- Generated by graphviz version 2.43.0 (0)
 -->
<!-- Title: TfLiteNode Pages: 1 -->
<svg width="269pt" height="303pt"
 viewBox="0.00 0.00 268.50 303.00" xmlns="http://www.w3.org/2000/svg" xmlns:xlink="http://www.w3.org/1999/xlink">
<g id="graph0" class="graph" transform="scale(1 1) rotate(0) translate(4 299)">
<title>TfLiteNode</title>
<!-- Node1 -->
<g id="node1" class="node">
<title>Node1</title>
<g id="a_node1"><a xlink:title=" ">
<polygon fill="#bfbfbf" stroke="black" points="61,-0.5 61,-101.5 210,-101.5 210,-0.5 61,-0.5"/>
<text text-anchor="middle" x="135.5" y="-89.5" font-family="Helvetica,sans-Serif" font-size="10.00">TfLiteNode</text>
<polyline fill="none" stroke="black" points="61,-82.5 210,-82.5 "/>
<text text-anchor="start" x="69" y="-70.5" font-family="Helvetica,sans-Serif" font-size="10.00">+ user_data</text>
<text text-anchor="start" x="69" y="-59.5" font-family="Helvetica,sans-Serif" font-size="10.00">+ builtin_data</text>
<text text-anchor="start" x="69" y="-48.5" font-family="Helvetica,sans-Serif" font-size="10.00">+ custom_initial_data</text>
<text text-anchor="start" x="69" y="-37.5" font-family="Helvetica,sans-Serif" font-size="10.00">+ custom_initial_data_size</text>
<text text-anchor="start" x="69" y="-26.5" font-family="Helvetica,sans-Serif" font-size="10.00">+ might_have_side_effect</text>
<polyline fill="none" stroke="black" points="61,-19.5 210,-19.5 "/>
<text text-anchor="middle" x="135.5" y="-7.5" font-family="Helvetica,sans-Serif" font-size="10.00"> </text>
</a>
</g>
</g>
<!-- Node2 -->
<g id="node2" class="node">
<title>Node2</title>
<g id="a_node2"><a xlink:href="struct_tf_lite_delegate.html" target="_top" xlink:title=" ">
<polygon fill="none" stroke="black" points="0,-182.5 0,-294.5 141,-294.5 141,-182.5 0,-182.5"/>
<text text-anchor="middle" x="70.5" y="-282.5" font-family="Helvetica,sans-Serif" font-size="10.00">TfLiteDelegate</text>
<polyline fill="none" stroke="black" points="0,-275.5 141,-275.5 "/>
<text text-anchor="start" x="8" y="-263.5" font-family="Helvetica,sans-Serif" font-size="10.00">+ data_</text>
<text text-anchor="start" x="8" y="-252.5" font-family="Helvetica,sans-Serif" font-size="10.00">+ Prepare</text>
<text text-anchor="start" x="8" y="-241.5" font-family="Helvetica,sans-Serif" font-size="10.00">+ CopyFromBufferHandle</text>
<text text-anchor="start" x="8" y="-230.5" font-family="Helvetica,sans-Serif" font-size="10.00">+ CopyToBufferHandle</text>
<text text-anchor="start" x="8" y="-219.5" font-family="Helvetica,sans-Serif" font-size="10.00">+ FreeBufferHandle</text>
<text text-anchor="start" x="8" y="-208.5" font-family="Helvetica,sans-Serif" font-size="10.00">+ flags</text>
<polyline fill="none" stroke="black" points="0,-201.5 141,-201.5 "/>
<text text-anchor="middle" x="70.5" y="-189.5" font-family="Helvetica,sans-Serif" font-size="10.00"> </text>
</a>
</g>
</g>
<!-- Node2&#45;&gt;Node1 -->
<g id="edge1" class="edge">
<title>Node2&#45;&gt;Node1</title>
<path fill="none" stroke="#404040" d="M89.83,-182.35C97.47,-160.52 106.29,-135.35 114.13,-112.98"/>
<polygon fill="none" stroke="#404040" points="114.16,-112.9 112.37,-105.91 118.13,-101.57 119.92,-108.56 114.16,-112.9"/>
<text text-anchor="middle" x="139" y="-139.5" font-family="Helvetica,sans-Serif" font-size="10.00"> +delegate</text>
</g>
<!-- Node3 -->
<g id="node3" class="node">
<title>Node3</title>
<g id="a_node3"><a xlink:href="struct_tf_lite_int_array.html" target="_top" xlink:title=" ">
<polygon fill="none" stroke="black" points="159,-204.5 159,-272.5 242,-272.5 242,-204.5 159,-204.5"/>
<text text-anchor="middle" x="200.5" y="-260.5" font-family="Helvetica,sans-Serif" font-size="10.00">TfLiteIntArray</text>
<polyline fill="none" stroke="black" points="159,-253.5 242,-253.5 "/>
<text text-anchor="start" x="167" y="-241.5" font-family="Helvetica,sans-Serif" font-size="10.00">+ size</text>
<text text-anchor="start" x="167" y="-230.5" font-family="Helvetica,sans-Serif" font-size="10.00">+ data</text>
<polyline fill="none" stroke="black" points="159,-223.5 242,-223.5 "/>
<text text-anchor="middle" x="200.5" y="-211.5" font-family="Helvetica,sans-Serif" font-size="10.00"> </text>
</a>
</g>
</g>
<!-- Node3&#45;&gt;Node1 -->
<g id="edge2" class="edge">
<title>Node3&#45;&gt;Node1</title>
<path fill="none" stroke="#404040" d="M194.15,-204.47C189.06,-180.58 181.03,-147.75 170.5,-120 169.56,-117.53 168.56,-115.03 167.51,-112.53"/>
<polygon fill="none" stroke="#404040" points="167.5,-112.51 161.4,-108.66 162.62,-101.55 168.71,-105.4 167.5,-112.51"/>
<text text-anchor="middle" x="222" y="-156" font-family="Helvetica,sans-Serif" font-size="10.00"> +outputs</text>
<text text-anchor="middle" x="222" y="-145" font-family="Helvetica,sans-Serif" font-size="10.00">+inputs</text>
<text text-anchor="middle" x="222" y="-134" font-family="Helvetica,sans-Serif" font-size="10.00">+intermediates</text>
<text text-anchor="middle" x="222" y="-123" font-family="Helvetica,sans-Serif" font-size="10.00">+temporaries</text>
</g>
</g>
</svg>
