<?xml version="1.0" encoding="UTF-8" standalone="no"?>
<!DOCTYPE svg PUBLIC "-//W3C//DTD SVG 1.1//EN"
 "http://www.w3.org/Graphics/SVG/1.1/DTD/svg11.dtd">
<!-- Generated by graphviz version 2.43.0 (0)
 -->
<!-- Title: tflite::PoolParams Pages: 1 -->
<svg width="175pt" height="303pt"
 viewBox="0.00 0.00 174.50 303.00" xmlns="http://www.w3.org/2000/svg" xmlns:xlink="http://www.w3.org/1999/xlink">
<g id="graph0" class="graph" transform="scale(1 1) rotate(0) translate(4 299)">
<title>tflite::PoolParams</title>
<!-- Node1 -->
<g id="node1" class="node">
<title>Node1</title>
<g id="a_node1"><a xlink:title=" ">
<polygon fill="#bfbfbf" stroke="black" points="0,-0.5 0,-156.5 157,-156.5 157,-0.5 0,-0.5"/>
<text text-anchor="middle" x="78.5" y="-144.5" font-family="Helvetica,sans-Serif" font-size="10.00">tflite::PoolParams</text>
<polyline fill="none" stroke="black" points="0,-137.5 157,-137.5 "/>
<text text-anchor="start" x="8" y="-125.5" font-family="Helvetica,sans-Serif" font-size="10.00">+ activation</text>
<text text-anchor="start" x="8" y="-114.5" font-family="Helvetica,sans-Serif" font-size="10.00">+ padding_type</text>
<text text-anchor="start" x="8" y="-103.5" font-family="Helvetica,sans-Serif" font-size="10.00">+ stride_height</text>
<text text-anchor="start" x="8" y="-92.5" font-family="Helvetica,sans-Serif" font-size="10.00">+ stride_width</text>
<text text-anchor="start" x="8" y="-81.5" font-family="Helvetica,sans-Serif" font-size="10.00">+ filter_height</text>
<text text-anchor="start" x="8" y="-70.5" font-family="Helvetica,sans-Serif" font-size="10.00">+ filter_width</text>
<text text-anchor="start" x="8" y="-59.5" font-family="Helvetica,sans-Serif" font-size="10.00">+ quantized_activation_min</text>
<text text-anchor="start" x="8" y="-48.5" font-family="Helvetica,sans-Serif" font-size="10.00">+ quantized_activation_max</text>
<text text-anchor="start" x="8" y="-37.5" font-family="Helvetica,sans-Serif" font-size="10.00">+ float_activation_min</text>
<text text-anchor="start" x="8" y="-26.5" font-family="Helvetica,sans-Serif" font-size="10.00">+ float_activation_max</text>
<polyline fill="none" stroke="black" points="0,-19.5 157,-19.5 "/>
<text text-anchor="middle" x="78.5" y="-7.5" font-family="Helvetica,sans-Serif" font-size="10.00"> </text>
</a>
</g>
</g>
<!-- Node2 -->
<g id="node2" class="node">
<title>Node2</title>
<g id="a_node2"><a xlink:href="structtflite_1_1_padding_values.html" target="_top" xlink:title=" ">
<polygon fill="none" stroke="black" points="20.5,-204.5 20.5,-294.5 136.5,-294.5 136.5,-204.5 20.5,-204.5"/>
<text text-anchor="middle" x="78.5" y="-282.5" font-family="Helvetica,sans-Serif" font-size="10.00">tflite::PaddingValues</text>
<polyline fill="none" stroke="black" points="20.5,-275.5 136.5,-275.5 "/>
<text text-anchor="start" x="28.5" y="-263.5" font-family="Helvetica,sans-Serif" font-size="10.00">+ width</text>
<text text-anchor="start" x="28.5" y="-252.5" font-family="Helvetica,sans-Serif" font-size="10.00">+ height</text>
<text text-anchor="start" x="28.5" y="-241.5" font-family="Helvetica,sans-Serif" font-size="10.00">+ width_offset</text>
<text text-anchor="start" x="28.5" y="-230.5" font-family="Helvetica,sans-Serif" font-size="10.00">+ height_offset</text>
<polyline fill="none" stroke="black" points="20.5,-223.5 136.5,-223.5 "/>
<text text-anchor="middle" x="78.5" y="-211.5" font-family="Helvetica,sans-Serif" font-size="10.00"> </text>
</a>
</g>
</g>
<!-- Node2&#45;&gt;Node1 -->
<g id="edge1" class="edge">
<title>Node2&#45;&gt;Node1</title>
<path fill="none" stroke="#404040" d="M78.5,-204.1C78.5,-193.17 78.5,-181.07 78.5,-168.85"/>
<polygon fill="none" stroke="#404040" points="78.5,-168.61 74.5,-162.61 78.5,-156.61 82.5,-162.61 78.5,-168.61"/>
<text text-anchor="middle" x="122.5" y="-178" font-family="Helvetica,sans-Serif" font-size="10.00"> +padding_values</text>
</g>
</g>
</svg>
