<?xml version="1.0" encoding="UTF-8" standalone="no"?>
<!DOCTYPE svg PUBLIC "-//W3C//DTD SVG 1.1//EN"
 "http://www.w3.org/Graphics/SVG/1.1/DTD/svg11.dtd">
<!-- Generated by graphviz version 2.43.0 (0)
 -->
<!-- Title: flatbuffers::is_same&lt; T, U &gt; Pages: 1 -->
<svg width="128pt" height="171pt"
 viewBox="0.00 0.00 128.00 171.00" xmlns="http://www.w3.org/2000/svg" xmlns:xlink="http://www.w3.org/1999/xlink">
<g id="graph0" class="graph" transform="scale(1 1) rotate(0) translate(4 167)">
<title>flatbuffers::is_same&lt; T, U &gt;</title>
<!-- Node1 -->
<g id="node1" class="node">
<title>Node1</title>
<g id="a_node1"><a xlink:title=" ">
<polygon fill="#bfbfbf" stroke="black" points="3.5,-0.5 3.5,-68.5 116.5,-68.5 116.5,-0.5 3.5,-0.5"/>
<text text-anchor="start" x="11.5" y="-56.5" font-family="Helvetica,sans-Serif" font-size="10.00">flatbuffers::is_same</text>
<text text-anchor="middle" x="60" y="-45.5" font-family="Helvetica,sans-Serif" font-size="10.00">&lt; T, U &gt;</text>
<polyline fill="none" stroke="black" points="3.5,-38.5 116.5,-38.5 "/>
<text text-anchor="middle" x="60" y="-26.5" font-family="Helvetica,sans-Serif" font-size="10.00"> </text>
<polyline fill="none" stroke="black" points="3.5,-19.5 116.5,-19.5 "/>
<text text-anchor="middle" x="60" y="-7.5" font-family="Helvetica,sans-Serif" font-size="10.00"> </text>
</a>
</g>
</g>
<!-- Node2 -->
<g id="node2" class="node">
<title>Node2</title>
<g id="a_node2"><a xlink:title=" ">
<polygon fill="none" stroke="#bfbfbf" points="0,-105.5 0,-162.5 120,-162.5 120,-105.5 0,-105.5"/>
<text text-anchor="middle" x="60" y="-150.5" font-family="Helvetica,sans-Serif" font-size="10.00">std::is_same&lt; T, U &gt;</text>
<polyline fill="none" stroke="#bfbfbf" points="0,-143.5 120,-143.5 "/>
<text text-anchor="middle" x="60" y="-131.5" font-family="Helvetica,sans-Serif" font-size="10.00"> </text>
<polyline fill="none" stroke="#bfbfbf" points="0,-124.5 120,-124.5 "/>
<text text-anchor="middle" x="60" y="-112.5" font-family="Helvetica,sans-Serif" font-size="10.00"> </text>
</a>
</g>
</g>
<!-- Node2&#45;&gt;Node1 -->
<g id="edge1" class="edge">
<title>Node2&#45;&gt;Node1</title>
<path fill="none" stroke="midnightblue" d="M60,-95.06C60,-86.39 60,-77.24 60,-68.79"/>
<polygon fill="none" stroke="midnightblue" points="56.5,-95.32 60,-105.32 63.5,-95.32 56.5,-95.32"/>
</g>
</g>
</svg>
