<?xml version="1.0" encoding="UTF-8" standalone="no"?>
<!DOCTYPE svg PUBLIC "-//W3C//DTD SVG 1.1//EN"
 "http://www.w3.org/Graphics/SVG/1.1/DTD/svg11.dtd">
<!-- Generated by graphviz version 2.43.0 (0)
 -->
<!-- Title: tflite::ModelT Pages: 1 -->
<svg width="138pt" height="248pt"
 viewBox="0.00 0.00 138.00 248.00" xmlns="http://www.w3.org/2000/svg" xmlns:xlink="http://www.w3.org/1999/xlink">
<g id="graph0" class="graph" transform="scale(1 1) rotate(0) translate(4 244)">
<title>tflite::ModelT</title>
<!-- Node1 -->
<g id="node1" class="node">
<title>Node1</title>
<g id="a_node1"><a xlink:title=" ">
<polygon fill="#bfbfbf" stroke="black" points="10.5,-0.5 10.5,-145.5 119.5,-145.5 119.5,-0.5 10.5,-0.5"/>
<text text-anchor="middle" x="65" y="-133.5" font-family="Helvetica,sans-Serif" font-size="10.00">tflite::ModelT</text>
<polyline fill="none" stroke="black" points="10.5,-126.5 119.5,-126.5 "/>
<text text-anchor="start" x="18.5" y="-114.5" font-family="Helvetica,sans-Serif" font-size="10.00">+ version</text>
<text text-anchor="start" x="18.5" y="-103.5" font-family="Helvetica,sans-Serif" font-size="10.00">+ operator_codes</text>
<text text-anchor="start" x="18.5" y="-92.5" font-family="Helvetica,sans-Serif" font-size="10.00">+ subgraphs</text>
<text text-anchor="start" x="18.5" y="-81.5" font-family="Helvetica,sans-Serif" font-size="10.00">+ description</text>
<text text-anchor="start" x="18.5" y="-70.5" font-family="Helvetica,sans-Serif" font-size="10.00">+ buffers</text>
<text text-anchor="start" x="18.5" y="-59.5" font-family="Helvetica,sans-Serif" font-size="10.00">+ metadata_buffer</text>
<text text-anchor="start" x="18.5" y="-48.5" font-family="Helvetica,sans-Serif" font-size="10.00">+ metadata</text>
<text text-anchor="start" x="18.5" y="-37.5" font-family="Helvetica,sans-Serif" font-size="10.00">+ signature_defs</text>
<polyline fill="none" stroke="black" points="10.5,-30.5 119.5,-30.5 "/>
<text text-anchor="start" x="18.5" y="-18.5" font-family="Helvetica,sans-Serif" font-size="10.00">+ ModelT()</text>
<text text-anchor="start" x="18.5" y="-7.5" font-family="Helvetica,sans-Serif" font-size="10.00">+ ModelT()</text>
</a>
</g>
</g>
<!-- Node2 -->
<g id="node2" class="node">
<title>Node2</title>
<g id="a_node2"><a xlink:title=" ">
<polygon fill="none" stroke="#bfbfbf" points="0,-182.5 0,-239.5 130,-239.5 130,-182.5 0,-182.5"/>
<text text-anchor="middle" x="65" y="-227.5" font-family="Helvetica,sans-Serif" font-size="10.00">flatbuffers::NativeTable</text>
<polyline fill="none" stroke="#bfbfbf" points="0,-220.5 130,-220.5 "/>
<text text-anchor="middle" x="65" y="-208.5" font-family="Helvetica,sans-Serif" font-size="10.00"> </text>
<polyline fill="none" stroke="#bfbfbf" points="0,-201.5 130,-201.5 "/>
<text text-anchor="middle" x="65" y="-189.5" font-family="Helvetica,sans-Serif" font-size="10.00"> </text>
</a>
</g>
</g>
<!-- Node2&#45;&gt;Node1 -->
<g id="edge1" class="edge">
<title>Node2&#45;&gt;Node1</title>
<path fill="none" stroke="midnightblue" d="M65,-172.36C65,-164 65,-154.87 65,-145.66"/>
<polygon fill="none" stroke="midnightblue" points="61.5,-172.48 65,-182.48 68.5,-172.48 61.5,-172.48"/>
</g>
</g>
</svg>
