<?xml version="1.0" encoding="UTF-8" standalone="no"?>
<!DOCTYPE svg PUBLIC "-//W3C//DTD SVG 1.1//EN"
 "http://www.w3.org/Graphics/SVG/1.1/DTD/svg11.dtd">
<!-- Generated by graphviz version 2.43.0 (0)
 -->
<!-- Title: tflite::OpDataQuantizeReference Pages: 1 -->
<svg width="211pt" height="204pt"
 viewBox="0.00 0.00 210.50 204.00" xmlns="http://www.w3.org/2000/svg" xmlns:xlink="http://www.w3.org/1999/xlink">
<g id="graph0" class="graph" transform="scale(1 1) rotate(0) translate(4 200)">
<title>tflite::OpDataQuantizeReference</title>
<!-- Node1 -->
<g id="node1" class="node">
<title>Node1</title>
<g id="a_node1"><a xlink:title=" ">
<polygon fill="#bfbfbf" stroke="black" points="0,-0.5 0,-79.5 175,-79.5 175,-0.5 0,-0.5"/>
<text text-anchor="middle" x="87.5" y="-67.5" font-family="Helvetica,sans-Serif" font-size="10.00">tflite::OpDataQuantizeReference</text>
<polyline fill="none" stroke="black" points="0,-60.5 175,-60.5 "/>
<text text-anchor="start" x="8" y="-48.5" font-family="Helvetica,sans-Serif" font-size="10.00">+ requantize_output_multiplier</text>
<text text-anchor="start" x="8" y="-37.5" font-family="Helvetica,sans-Serif" font-size="10.00">+ requantize_output_shift</text>
<text text-anchor="start" x="8" y="-26.5" font-family="Helvetica,sans-Serif" font-size="10.00">+ input_zero_point</text>
<polyline fill="none" stroke="black" points="0,-19.5 175,-19.5 "/>
<text text-anchor="middle" x="87.5" y="-7.5" font-family="Helvetica,sans-Serif" font-size="10.00"> </text>
</a>
</g>
</g>
<!-- Node2 -->
<g id="node2" class="node">
<title>Node2</title>
<g id="a_node2"><a xlink:href="structtflite_1_1_quantization_params.html" target="_top" xlink:title=" ">
<polygon fill="none" stroke="black" points="16,-127.5 16,-195.5 159,-195.5 159,-127.5 16,-127.5"/>
<text text-anchor="middle" x="87.5" y="-183.5" font-family="Helvetica,sans-Serif" font-size="10.00">tflite::QuantizationParams</text>
<polyline fill="none" stroke="black" points="16,-176.5 159,-176.5 "/>
<text text-anchor="start" x="24" y="-164.5" font-family="Helvetica,sans-Serif" font-size="10.00">+ zero_point</text>
<text text-anchor="start" x="24" y="-153.5" font-family="Helvetica,sans-Serif" font-size="10.00">+ scale</text>
<polyline fill="none" stroke="black" points="16,-146.5 159,-146.5 "/>
<text text-anchor="middle" x="87.5" y="-134.5" font-family="Helvetica,sans-Serif" font-size="10.00"> </text>
</a>
</g>
</g>
<!-- Node2&#45;&gt;Node1 -->
<g id="edge1" class="edge">
<title>Node2&#45;&gt;Node1</title>
<path fill="none" stroke="#404040" d="M87.5,-127.21C87.5,-116.24 87.5,-103.78 87.5,-91.81"/>
<polygon fill="none" stroke="#404040" points="87.5,-91.6 83.5,-85.6 87.5,-79.6 91.5,-85.6 87.5,-91.6"/>
<text text-anchor="middle" x="145" y="-101" font-family="Helvetica,sans-Serif" font-size="10.00"> +quantization_params</text>
</g>
</g>
</svg>
