<?xml version="1.0" encoding="UTF-8" standalone="no"?>
<!DOCTYPE svg PUBLIC "-//W3C//DTD SVG 1.1//EN"
 "http://www.w3.org/Graphics/SVG/1.1/DTD/svg11.dtd">
<!-- Generated by graphviz version 2.43.0 (0)
 -->
<!-- Title: tflite::UnidirectionalSequenceLSTMOptionsT Pages: 1 -->
<svg width="229pt" height="237pt"
 viewBox="0.00 0.00 229.00 237.00" xmlns="http://www.w3.org/2000/svg" xmlns:xlink="http://www.w3.org/1999/xlink">
<g id="graph0" class="graph" transform="scale(1 1) rotate(0) translate(4 233)">
<title>tflite::UnidirectionalSequenceLSTMOptionsT</title>
<!-- Node1 -->
<g id="node1" class="node">
<title>Node1</title>
<g id="a_node1"><a xlink:title=" ">
<polygon fill="#bfbfbf" stroke="black" points="0,-0.5 0,-134.5 221,-134.5 221,-0.5 0,-0.5"/>
<text text-anchor="start" x="8" y="-122.5" font-family="Helvetica,sans-Serif" font-size="10.00">tflite::UnidirectionalSequence</text>
<text text-anchor="middle" x="110.5" y="-111.5" font-family="Helvetica,sans-Serif" font-size="10.00">LSTMOptionsT</text>
<polyline fill="none" stroke="black" points="0,-104.5 221,-104.5 "/>
<text text-anchor="start" x="8" y="-92.5" font-family="Helvetica,sans-Serif" font-size="10.00">+ fused_activation_function</text>
<text text-anchor="start" x="8" y="-81.5" font-family="Helvetica,sans-Serif" font-size="10.00">+ cell_clip</text>
<text text-anchor="start" x="8" y="-70.5" font-family="Helvetica,sans-Serif" font-size="10.00">+ proj_clip</text>
<text text-anchor="start" x="8" y="-59.5" font-family="Helvetica,sans-Serif" font-size="10.00">+ time_major</text>
<text text-anchor="start" x="8" y="-48.5" font-family="Helvetica,sans-Serif" font-size="10.00">+ asymmetric_quantize</text>
<text text-anchor="start" x="8" y="-37.5" font-family="Helvetica,sans-Serif" font-size="10.00">_inputs</text>
<polyline fill="none" stroke="black" points="0,-30.5 221,-30.5 "/>
<text text-anchor="start" x="8" y="-18.5" font-family="Helvetica,sans-Serif" font-size="10.00">+ UnidirectionalSequenceLSTMOptionsT()</text>
<text text-anchor="start" x="8" y="-7.5" font-family="Helvetica,sans-Serif" font-size="10.00">+ UnidirectionalSequenceLSTMOptionsT()</text>
</a>
</g>
</g>
<!-- Node2 -->
<g id="node2" class="node">
<title>Node2</title>
<g id="a_node2"><a xlink:title=" ">
<polygon fill="none" stroke="#bfbfbf" points="73.5,-171.5 73.5,-228.5 147.5,-228.5 147.5,-171.5 73.5,-171.5"/>
<text text-anchor="middle" x="110.5" y="-216.5" font-family="Helvetica,sans-Serif" font-size="10.00">NativeTable</text>
<polyline fill="none" stroke="#bfbfbf" points="73.5,-209.5 147.5,-209.5 "/>
<text text-anchor="middle" x="110.5" y="-197.5" font-family="Helvetica,sans-Serif" font-size="10.00"> </text>
<polyline fill="none" stroke="#bfbfbf" points="73.5,-190.5 147.5,-190.5 "/>
<text text-anchor="middle" x="110.5" y="-178.5" font-family="Helvetica,sans-Serif" font-size="10.00"> </text>
</a>
</g>
</g>
<!-- Node2&#45;&gt;Node1 -->
<g id="edge1" class="edge">
<title>Node2&#45;&gt;Node1</title>
<path fill="none" stroke="midnightblue" d="M110.5,-161.16C110.5,-152.78 110.5,-143.67 110.5,-134.53"/>
<polygon fill="none" stroke="midnightblue" points="107,-161.32 110.5,-171.32 114,-161.32 107,-161.32"/>
</g>
</g>
</svg>
