<?xml version="1.0" encoding="UTF-8" standalone="no"?>
<!DOCTYPE svg PUBLIC "-//W3C//DTD SVG 1.1//EN"
 "http://www.w3.org/Graphics/SVG/1.1/DTD/svg11.dtd">
<!-- Generated by graphviz version 2.43.0 (0)
 -->
<!-- Title: tflite::reference_ops::BroadcastComparison4DSlowCommon Pages: 1 -->
<!--zoomable 474 -->
<svg id="main" version="1.1" xmlns="http://www.w3.org/2000/svg" xmlns:xlink="http://www.w3.org/1999/xlink" xml:space="preserve" onload="init(evt)">
<style type="text/css"><![CDATA[
.edge:hover path { stroke: red; }
.edge:hover polygon { stroke: red; fill: red; }
]]></style>
<script type="text/javascript"><![CDATA[
var edges = document.getElementsByTagName('g');
if (edges && edges.length) {
  for (var i=0;i<edges.length;i++) {
    if (edges[i].id.substr(0,4)=='edge') {
      edges[i].setAttribute('class','edge');
    }
  }
}
]]></script>
        <defs>
                <circle id="rim" cx="0" cy="0" r="7"/>
                <circle id="rim2" cx="0" cy="0" r="3.5"/>
                <g id="zoomPlus">
                        <use xlink:href="#rim" fill="#404040">
                                <set attributeName="fill" to="#808080" begin="zoomplus.mouseover" end="zoomplus.mouseout"/>
                        </use>
                        <path d="M-4,0h8M0,-4v8" fill="none" stroke="white" stroke-width="1.5" pointer-events="none"/>
                </g>
                <g id="zoomMin">
                        <use xlink:href="#rim" fill="#404040">
                                <set attributeName="fill" to="#808080" begin="zoomminus.mouseover" end="zoomminus.mouseout"/>
                        </use>
                        <path d="M-4,0h8" fill="none" stroke="white" stroke-width="1.5" pointer-events="none"/>
                </g>
                <g id="dirArrow">
                        <path fill="none" stroke="white" stroke-width="1.5" d="M0,-3.0v7 M-2.5,-0.5L0,-3.0L2.5,-0.5"/>
                </g>
               <g id="resetDef">
                       <use xlink:href="#rim2" fill="#404040">
                               <set attributeName="fill" to="#808080" begin="reset.mouseover" end="reset.mouseout"/>
                       </use>
               </g>
        </defs>

<script type="text/javascript">
var viewWidth = 287;
var viewHeight = 474;
var sectionId = 'dynsection-0';
</script>
<script xlink:href="svgpan.js"/>
<svg id="graph" class="graph">
<g id="viewport">
<title>tflite::reference_ops::BroadcastComparison4DSlowCommon</title>
<!-- Node1 -->
<g id="node1" class="node">
<title>Node1</title>
<g id="a_node1"><a xlink:title=" ">
<polygon fill="#bfbfbf" stroke="black" points="60,-0.5 60,-79.5 227,-79.5 227,-0.5 60,-0.5"/>
<text text-anchor="start" x="68" y="-67.5" font-family="Helvetica,sans-Serif" font-size="10.00">tflite::reference_ops</text>
<text text-anchor="start" x="68" y="-56.5" font-family="Helvetica,sans-Serif" font-size="10.00">::BroadcastComparison4DSlow</text>
<text text-anchor="middle" x="143.5" y="-45.5" font-family="Helvetica,sans-Serif" font-size="10.00">Common</text>
<polyline fill="none" stroke="black" points="60,-38.5 227,-38.5 "/>
<text text-anchor="middle" x="143.5" y="-26.5" font-family="Helvetica,sans-Serif" font-size="10.00"> </text>
<polyline fill="none" stroke="black" points="60,-19.5 227,-19.5 "/>
<text text-anchor="middle" x="143.5" y="-7.5" font-family="Helvetica,sans-Serif" font-size="10.00"> </text>
</a>
</g>
</g>
<!-- Node2 -->
<g id="node2" class="node">
<title>Node2</title>
<g id="a_node2"><a xlink:href="structtflite_1_1_nd_array_desc.html" target="_top" xlink:title=" ">
<polygon fill="none" stroke="black" points="1,-210 1,-278 138,-278 138,-210 1,-210"/>
<text text-anchor="middle" x="69.5" y="-266" font-family="Helvetica,sans-Serif" font-size="10.00">tflite::NdArrayDesc&lt; 4 &gt;</text>
<polyline fill="none" stroke="black" points="1,-259 138,-259 "/>
<text text-anchor="start" x="9" y="-247" font-family="Helvetica,sans-Serif" font-size="10.00">+ extents</text>
<text text-anchor="start" x="9" y="-236" font-family="Helvetica,sans-Serif" font-size="10.00">+ strides</text>
<polyline fill="none" stroke="black" points="1,-229 138,-229 "/>
<text text-anchor="middle" x="69.5" y="-217" font-family="Helvetica,sans-Serif" font-size="10.00"> </text>
</a>
</g>
</g>
<!-- Node2&#45;&gt;Node1 -->
<g id="edge1" class="edge">
<title>Node2&#45;&gt;Node1</title>
<path fill="none" stroke="#404040" d="M81.72,-209.64C93.54,-177.39 111.59,-128.1 125.14,-91.12"/>
<polygon fill="none" stroke="#404040" points="125.24,-90.85 123.54,-83.84 129.36,-79.59 131.06,-86.6 125.24,-90.85"/>
<text text-anchor="middle" x="142.5" y="-112" font-family="Helvetica,sans-Serif" font-size="10.00"> +desc1</text>
<text text-anchor="middle" x="142.5" y="-101" font-family="Helvetica,sans-Serif" font-size="10.00">+desc2</text>
</g>
<!-- Node3 -->
<g id="node3" class="node">
<title>Node3</title>
<g id="a_node3"><a xlink:href="structtflite_1_1_nd_array_desc.html" target="_top" xlink:title=" ">
<polygon fill="none" stroke="black" points="0,-397.5 0,-465.5 139,-465.5 139,-397.5 0,-397.5"/>
<text text-anchor="middle" x="69.5" y="-453.5" font-family="Helvetica,sans-Serif" font-size="10.00">tflite::NdArrayDesc&lt; N &gt;</text>
<polyline fill="none" stroke="black" points="0,-446.5 139,-446.5 "/>
<text text-anchor="start" x="8" y="-434.5" font-family="Helvetica,sans-Serif" font-size="10.00">+ extents</text>
<text text-anchor="start" x="8" y="-423.5" font-family="Helvetica,sans-Serif" font-size="10.00">+ strides</text>
<polyline fill="none" stroke="black" points="0,-416.5 139,-416.5 "/>
<text text-anchor="middle" x="69.5" y="-404.5" font-family="Helvetica,sans-Serif" font-size="10.00"> </text>
</a>
</g>
</g>
<!-- Node3&#45;&gt;Node2 -->
<g id="edge2" class="edge">
<title>Node3&#45;&gt;Node2</title>
<path fill="none" stroke="orange" d="M69.5,-386.99C69.5,-353.73 69.5,-308.57 69.5,-278.19"/>
<polygon fill="orange" stroke="orange" points="66,-387.34 69.5,-397.34 73,-387.34 66,-387.34"/>
<text text-anchor="middle" x="85.5" y="-371" font-family="Helvetica,sans-Serif" font-size="10.00"> &lt; 4 &gt;</text>
</g>
<!-- Node4 -->
<g id="node4" class="node">
<title>Node4</title>
<g id="a_node4"><a xlink:href="classtflite_1_1_runtime_shape.html" target="_top" xlink:title=" ">
<polygon fill="none" stroke="black" points="156.5,-138.5 156.5,-349.5 278.5,-349.5 278.5,-138.5 156.5,-138.5"/>
<text text-anchor="middle" x="217.5" y="-337.5" font-family="Helvetica,sans-Serif" font-size="10.00">tflite::RuntimeShape</text>
<polyline fill="none" stroke="black" points="156.5,-330.5 278.5,-330.5 "/>
<text text-anchor="start" x="164.5" y="-318.5" font-family="Helvetica,sans-Serif" font-size="10.00">+ dims_</text>
<text text-anchor="start" x="164.5" y="-307.5" font-family="Helvetica,sans-Serif" font-size="10.00">+ dims_pointer_</text>
<text text-anchor="start" x="164.5" y="-296.5" font-family="Helvetica,sans-Serif" font-size="10.00">+ kMaxSmallSize</text>
<polyline fill="none" stroke="black" points="156.5,-289.5 278.5,-289.5 "/>
<text text-anchor="start" x="164.5" y="-277.5" font-family="Helvetica,sans-Serif" font-size="10.00">+ operator=()</text>
<text text-anchor="start" x="164.5" y="-266.5" font-family="Helvetica,sans-Serif" font-size="10.00">+ RuntimeShape()</text>
<text text-anchor="start" x="164.5" y="-255.5" font-family="Helvetica,sans-Serif" font-size="10.00">+ RuntimeShape()</text>
<text text-anchor="start" x="164.5" y="-244.5" font-family="Helvetica,sans-Serif" font-size="10.00">+ RuntimeShape()</text>
<text text-anchor="start" x="164.5" y="-233.5" font-family="Helvetica,sans-Serif" font-size="10.00">+ RuntimeShape()</text>
<text text-anchor="start" x="164.5" y="-222.5" font-family="Helvetica,sans-Serif" font-size="10.00">+ RuntimeShape()</text>
<text text-anchor="start" x="164.5" y="-211.5" font-family="Helvetica,sans-Serif" font-size="10.00">+ RuntimeShape()</text>
<text text-anchor="start" x="164.5" y="-200.5" font-family="Helvetica,sans-Serif" font-size="10.00">+ operator==()</text>
<text text-anchor="start" x="164.5" y="-189.5" font-family="Helvetica,sans-Serif" font-size="10.00">+ ~RuntimeShape()</text>
<text text-anchor="start" x="164.5" y="-178.5" font-family="Helvetica,sans-Serif" font-size="10.00">+ DimensionsCount()</text>
<text text-anchor="start" x="164.5" y="-167.5" font-family="Helvetica,sans-Serif" font-size="10.00">and 32 more...</text>
<text text-anchor="start" x="164.5" y="-156.5" font-family="Helvetica,sans-Serif" font-size="10.00">+ ExtendedShape()</text>
<text text-anchor="start" x="164.5" y="-145.5" font-family="Helvetica,sans-Serif" font-size="10.00">+ ExtendedShape()</text>
</a>
</g>
</g>
<!-- Node4&#45;&gt;Node1 -->
<g id="edge3" class="edge">
<title>Node4&#45;&gt;Node1</title>
<path fill="none" stroke="#404040" d="M181.29,-138.25C176.41,-124.67 171.4,-110.98 166.5,-98 165.62,-95.66 164.7,-93.27 163.77,-90.86"/>
<polygon fill="none" stroke="#404040" points="163.71,-90.71 157.8,-86.59 159.33,-79.54 165.24,-83.66 163.71,-90.71"/>
<text text-anchor="middle" x="212.5" y="-106.5" font-family="Helvetica,sans-Serif" font-size="10.00"> +output_shape</text>
</g>
</g>
</svg>
        <g id="navigator" transform="translate(0 0)" fill="#404254">
                <rect fill="#f2f5e9" fill-opacity="0.5" stroke="#606060" stroke-width=".5" x="0" y="0" width="60" height="60"/>
                <use id="zoomplus" xlink:href="#zoomPlus" x="17" y="9" onmousedown="handleZoom(evt,'in')"/>
                <use id="zoomminus" xlink:href="#zoomMin" x="42" y="9" onmousedown="handleZoom(evt,'out')"/>
                <use id="reset" xlink:href="#resetDef" x="30" y="36" onmousedown="handleReset()"/>
                <g id="arrowUp" xlink:href="#dirArrow" transform="translate(30 24)" onmousedown="handlePan(0,-1)">
                  <use xlink:href="#rim" fill="#404040">
                        <set attributeName="fill" to="#808080" begin="arrowUp.mouseover" end="arrowUp.mouseout"/>
                  </use>
                  <path fill="none" stroke="white" stroke-width="1.5" d="M0,-3.0v7 M-2.5,-0.5L0,-3.0L2.5,-0.5"/>
                </g>
                <g id="arrowRight" xlink:href="#dirArrow" transform="rotate(90) translate(36 -43)" onmousedown="handlePan(1,0)">
                  <use xlink:href="#rim" fill="#404040">
                        <set attributeName="fill" to="#808080" begin="arrowRight.mouseover" end="arrowRight.mouseout"/>
                  </use>
                  <path fill="none" stroke="white" stroke-width="1.5" d="M0,-3.0v7 M-2.5,-0.5L0,-3.0L2.5,-0.5"/>
                </g>
                <g id="arrowDown" xlink:href="#dirArrow" transform="rotate(180) translate(-30 -48)" onmousedown="handlePan(0,1)">
                  <use xlink:href="#rim" fill="#404040">
                        <set attributeName="fill" to="#808080" begin="arrowDown.mouseover" end="arrowDown.mouseout"/>
                  </use>
                  <path fill="none" stroke="white" stroke-width="1.5" d="M0,-3.0v7 M-2.5,-0.5L0,-3.0L2.5,-0.5"/>
                </g>
                <g id="arrowLeft" xlink:href="#dirArrow" transform="rotate(270) translate(-36 17)" onmousedown="handlePan(-1,0)">
                  <use xlink:href="#rim" fill="#404040">
                        <set attributeName="fill" to="#808080" begin="arrowLeft.mouseover" end="arrowLeft.mouseout"/>
                  </use>
                  <path fill="none" stroke="white" stroke-width="1.5" d="M0,-3.0v7 M-2.5,-0.5L0,-3.0L2.5,-0.5"/>
                </g>
        </g>
        <svg viewBox="0 0 15 15" width="100%" height="30px" preserveAspectRatio="xMaxYMin meet">
         <g id="arrow_out" transform="scale(0.3 0.3)">
          <a xlink:href="structtflite_1_1reference__ops_1_1_broadcast_comparison4_d_slow_common__coll__graph_org.svg" target="_base">
           <rect id="button" ry="5" rx="5" y="6" x="6" height="38" width="38"
                fill="#f2f5e9" fill-opacity="0.5" stroke="#606060" stroke-width="1.0"/>
           <path id="arrow"
             d="M 11.500037,31.436501 C 11.940474,20.09759 22.043105,11.32322 32.158766,21.979434 L 37.068811,17.246167 C 37.068811,17.246167 37.088388,32 37.088388,32 L 22.160133,31.978069 C 22.160133,31.978069 26.997745,27.140456 26.997745,27.140456 C 18.528582,18.264221 13.291696,25.230495 11.500037,31.436501 z"
             style="fill:#404040;"/>
          </a>
         </g>
        </svg>
</svg>
