<?xml version="1.0" encoding="UTF-8" standalone="no"?>
<!DOCTYPE svg PUBLIC "-//W3C//DTD SVG 1.1//EN"
 "http://www.w3.org/Graphics/SVG/1.1/DTD/svg11.dtd">
<!-- Generated by graphviz version 2.43.0 (0)
 -->
<!-- Title: tflite::is_small_integer&lt; T &gt; Pages: 1 -->
<svg width="167pt" height="226pt"
 viewBox="0.00 0.00 167.00 226.00" xmlns="http://www.w3.org/2000/svg" xmlns:xlink="http://www.w3.org/1999/xlink">
<g id="graph0" class="graph" transform="scale(1 1) rotate(0) translate(4 222)">
<title>tflite::is_small_integer&lt; T &gt;</title>
<!-- Node1 -->
<g id="node1" class="node">
<title>Node1</title>
<g id="a_node1"><a xlink:title=" ">
<polygon fill="#bfbfbf" stroke="black" points="2.5,-0.5 2.5,-57.5 156.5,-57.5 156.5,-0.5 2.5,-0.5"/>
<text text-anchor="middle" x="79.5" y="-45.5" font-family="Helvetica,sans-Serif" font-size="10.00">tflite::is_small_integer&lt; T &gt;</text>
<polyline fill="none" stroke="black" points="2.5,-38.5 156.5,-38.5 "/>
<text text-anchor="middle" x="79.5" y="-26.5" font-family="Helvetica,sans-Serif" font-size="10.00"> </text>
<polyline fill="none" stroke="black" points="2.5,-19.5 156.5,-19.5 "/>
<text text-anchor="middle" x="79.5" y="-7.5" font-family="Helvetica,sans-Serif" font-size="10.00"> </text>
</a>
</g>
</g>
<!-- Node2 -->
<g id="node2" class="node">
<title>Node2</title>
<g id="a_node2"><a xlink:title=" ">
<polygon fill="none" stroke="#bfbfbf" points="0,-94.5 0,-217.5 159,-217.5 159,-94.5 0,-94.5"/>
<text text-anchor="start" x="8" y="-205.5" font-family="Helvetica,sans-Serif" font-size="10.00">std::integral_constant</text>
<text text-anchor="start" x="8" y="-194.5" font-family="Helvetica,sans-Serif" font-size="10.00">&lt; bool, std::is_same&lt;</text>
<text text-anchor="start" x="8" y="-183.5" font-family="Helvetica,sans-Serif" font-size="10.00"> T, int8_t &gt;::value||std</text>
<text text-anchor="start" x="8" y="-172.5" font-family="Helvetica,sans-Serif" font-size="10.00">::is_same&lt; T, uint8_t &gt;::</text>
<text text-anchor="start" x="8" y="-161.5" font-family="Helvetica,sans-Serif" font-size="10.00">value||std::is_same&lt; T, int16</text>
<text text-anchor="start" x="8" y="-150.5" font-family="Helvetica,sans-Serif" font-size="10.00">_t &gt;::value||std::is_same&lt; T,</text>
<text text-anchor="middle" x="79.5" y="-139.5" font-family="Helvetica,sans-Serif" font-size="10.00"> uint16_t &gt;::value &gt;</text>
<polyline fill="none" stroke="#bfbfbf" points="0,-132.5 159,-132.5 "/>
<text text-anchor="middle" x="79.5" y="-120.5" font-family="Helvetica,sans-Serif" font-size="10.00"> </text>
<polyline fill="none" stroke="#bfbfbf" points="0,-113.5 159,-113.5 "/>
<text text-anchor="middle" x="79.5" y="-101.5" font-family="Helvetica,sans-Serif" font-size="10.00"> </text>
</a>
</g>
</g>
<!-- Node2&#45;&gt;Node1 -->
<g id="edge1" class="edge">
<title>Node2&#45;&gt;Node1</title>
<path fill="none" stroke="midnightblue" d="M79.5,-84.14C79.5,-74.8 79.5,-65.71 79.5,-57.74"/>
<polygon fill="none" stroke="midnightblue" points="76,-84.33 79.5,-94.33 83,-84.33 76,-84.33"/>
</g>
</g>
</svg>
