<?xml version="1.0" encoding="UTF-8" standalone="no"?>
<!DOCTYPE svg PUBLIC "-//W3C//DTD SVG 1.1//EN"
 "http://www.w3.org/Graphics/SVG/1.1/DTD/svg11.dtd">
<!-- Generated by graphviz version 2.43.0 (0)
 -->
<!-- Title: tflite::is_int32_or_int64&lt; T &gt; Pages: 1 -->
<svg width="145pt" height="215pt"
 viewBox="0.00 0.00 145.00 215.00" xmlns="http://www.w3.org/2000/svg" xmlns:xlink="http://www.w3.org/1999/xlink">
<g id="graph0" class="graph" transform="scale(1 1) rotate(0) translate(4 211)">
<title>tflite::is_int32_or_int64&lt; T &gt;</title>
<!-- Node1 -->
<g id="node1" class="node">
<title>Node1</title>
<g id="a_node1"><a xlink:title=" ">
<polygon fill="#bfbfbf" stroke="black" points="19.5,-0.5 19.5,-68.5 117.5,-68.5 117.5,-0.5 19.5,-0.5"/>
<text text-anchor="start" x="27.5" y="-56.5" font-family="Helvetica,sans-Serif" font-size="10.00">tflite::is_int32_or</text>
<text text-anchor="middle" x="68.5" y="-45.5" font-family="Helvetica,sans-Serif" font-size="10.00">_int64&lt; T &gt;</text>
<polyline fill="none" stroke="black" points="19.5,-38.5 117.5,-38.5 "/>
<text text-anchor="middle" x="68.5" y="-26.5" font-family="Helvetica,sans-Serif" font-size="10.00"> </text>
<polyline fill="none" stroke="black" points="19.5,-19.5 117.5,-19.5 "/>
<text text-anchor="middle" x="68.5" y="-7.5" font-family="Helvetica,sans-Serif" font-size="10.00"> </text>
</a>
</g>
</g>
<!-- Node2 -->
<g id="node2" class="node">
<title>Node2</title>
<g id="a_node2"><a xlink:title=" ">
<polygon fill="none" stroke="#bfbfbf" points="0,-105.5 0,-206.5 137,-206.5 137,-105.5 0,-105.5"/>
<text text-anchor="start" x="8" y="-194.5" font-family="Helvetica,sans-Serif" font-size="10.00">std::integral_constant</text>
<text text-anchor="start" x="8" y="-183.5" font-family="Helvetica,sans-Serif" font-size="10.00">&lt; bool, std::is_same&lt;</text>
<text text-anchor="start" x="8" y="-172.5" font-family="Helvetica,sans-Serif" font-size="10.00"> T, int32_t &gt;::value||std</text>
<text text-anchor="start" x="8" y="-161.5" font-family="Helvetica,sans-Serif" font-size="10.00">::is_same&lt; T, int64_t &gt;::</text>
<text text-anchor="middle" x="68.5" y="-150.5" font-family="Helvetica,sans-Serif" font-size="10.00">value &gt;</text>
<polyline fill="none" stroke="#bfbfbf" points="0,-143.5 137,-143.5 "/>
<text text-anchor="middle" x="68.5" y="-131.5" font-family="Helvetica,sans-Serif" font-size="10.00"> </text>
<polyline fill="none" stroke="#bfbfbf" points="0,-124.5 137,-124.5 "/>
<text text-anchor="middle" x="68.5" y="-112.5" font-family="Helvetica,sans-Serif" font-size="10.00"> </text>
</a>
</g>
</g>
<!-- Node2&#45;&gt;Node1 -->
<g id="edge1" class="edge">
<title>Node2&#45;&gt;Node1</title>
<path fill="none" stroke="midnightblue" d="M68.5,-95.17C68.5,-86.11 68.5,-77.05 68.5,-68.83"/>
<polygon fill="none" stroke="midnightblue" points="65,-95.36 68.5,-105.36 72,-95.36 65,-95.36"/>
</g>
</g>
</svg>
