<?xml version="1.0" encoding="UTF-8" standalone="no"?>
<!DOCTYPE svg PUBLIC "-//W3C//DTD SVG 1.1//EN"
 "http://www.w3.org/Graphics/SVG/1.1/DTD/svg11.dtd">
<!-- Generated by graphviz version 2.43.0 (0)
 -->
<!-- Title: tflite::AddOptionsT Pages: 1 -->
<svg width="162pt" height="182pt"
 viewBox="0.00 0.00 162.00 182.00" xmlns="http://www.w3.org/2000/svg" xmlns:xlink="http://www.w3.org/1999/xlink">
<g id="graph0" class="graph" transform="scale(1 1) rotate(0) translate(4 178)">
<title>tflite::AddOptionsT</title>
<!-- Node1 -->
<g id="node1" class="node">
<title>Node1</title>
<g id="a_node1"><a xlink:title=" ">
<polygon fill="#bfbfbf" stroke="black" points="0,-0.5 0,-79.5 154,-79.5 154,-0.5 0,-0.5"/>
<text text-anchor="middle" x="77" y="-67.5" font-family="Helvetica,sans-Serif" font-size="10.00">tflite::AddOptionsT</text>
<polyline fill="none" stroke="black" points="0,-60.5 154,-60.5 "/>
<text text-anchor="start" x="8" y="-48.5" font-family="Helvetica,sans-Serif" font-size="10.00">+ fused_activation_function</text>
<text text-anchor="start" x="8" y="-37.5" font-family="Helvetica,sans-Serif" font-size="10.00">+ pot_scale_int16</text>
<polyline fill="none" stroke="black" points="0,-30.5 154,-30.5 "/>
<text text-anchor="start" x="8" y="-18.5" font-family="Helvetica,sans-Serif" font-size="10.00">+ AddOptionsT()</text>
<text text-anchor="start" x="8" y="-7.5" font-family="Helvetica,sans-Serif" font-size="10.00">+ AddOptionsT()</text>
</a>
</g>
</g>
<!-- Node2 -->
<g id="node2" class="node">
<title>Node2</title>
<g id="a_node2"><a xlink:title=" ">
<polygon fill="none" stroke="#bfbfbf" points="40,-116.5 40,-173.5 114,-173.5 114,-116.5 40,-116.5"/>
<text text-anchor="middle" x="77" y="-161.5" font-family="Helvetica,sans-Serif" font-size="10.00">NativeTable</text>
<polyline fill="none" stroke="#bfbfbf" points="40,-154.5 114,-154.5 "/>
<text text-anchor="middle" x="77" y="-142.5" font-family="Helvetica,sans-Serif" font-size="10.00"> </text>
<polyline fill="none" stroke="#bfbfbf" points="40,-135.5 114,-135.5 "/>
<text text-anchor="middle" x="77" y="-123.5" font-family="Helvetica,sans-Serif" font-size="10.00"> </text>
</a>
</g>
</g>
<!-- Node2&#45;&gt;Node1 -->
<g id="edge1" class="edge">
<title>Node2&#45;&gt;Node1</title>
<path fill="none" stroke="midnightblue" d="M77,-106.16C77,-97.47 77,-88.23 77,-79.52"/>
<polygon fill="none" stroke="midnightblue" points="73.5,-106.4 77,-116.4 80.5,-106.4 73.5,-106.4"/>
</g>
</g>
</svg>
