<?xml version="1.0" encoding="UTF-8" standalone="no"?>
<!DOCTYPE svg PUBLIC "-//W3C//DTD SVG 1.1//EN"
 "http://www.w3.org/Graphics/SVG/1.1/DTD/svg11.dtd">
<!-- Generated by graphviz version 2.43.0 (0)
 -->
<!-- Title: TPDelegate::Job Pages: 1 -->
<!--zoomable 469 -->
<svg id="main" version="1.1" xmlns="http://www.w3.org/2000/svg" xmlns:xlink="http://www.w3.org/1999/xlink" xml:space="preserve" onload="init(evt)">
<style type="text/css"><![CDATA[
.edge:hover path { stroke: red; }
.edge:hover polygon { stroke: red; fill: red; }
]]></style>
<script type="text/javascript"><![CDATA[
var edges = document.getElementsByTagName('g');
if (edges && edges.length) {
  for (var i=0;i<edges.length;i++) {
    if (edges[i].id.substr(0,4)=='edge') {
      edges[i].setAttribute('class','edge');
    }
  }
}
]]></script>
        <defs>
                <circle id="rim" cx="0" cy="0" r="7"/>
                <circle id="rim2" cx="0" cy="0" r="3.5"/>
                <g id="zoomPlus">
                        <use xlink:href="#rim" fill="#404040">
                                <set attributeName="fill" to="#808080" begin="zoomplus.mouseover" end="zoomplus.mouseout"/>
                        </use>
                        <path d="M-4,0h8M0,-4v8" fill="none" stroke="white" stroke-width="1.5" pointer-events="none"/>
                </g>
                <g id="zoomMin">
                        <use xlink:href="#rim" fill="#404040">
                                <set attributeName="fill" to="#808080" begin="zoomminus.mouseover" end="zoomminus.mouseout"/>
                        </use>
                        <path d="M-4,0h8" fill="none" stroke="white" stroke-width="1.5" pointer-events="none"/>
                </g>
                <g id="dirArrow">
                        <path fill="none" stroke="white" stroke-width="1.5" d="M0,-3.0v7 M-2.5,-0.5L0,-3.0L2.5,-0.5"/>
                </g>
               <g id="resetDef">
                       <use xlink:href="#rim2" fill="#404040">
                               <set attributeName="fill" to="#808080" begin="reset.mouseover" end="reset.mouseout"/>
                       </use>
               </g>
        </defs>

<script type="text/javascript">
var viewWidth = 357;
var viewHeight = 469;
var sectionId = 'dynsection-0';
</script>
<script xlink:href="svgpan.js"/>
<svg id="graph" class="graph">
<g id="viewport">
<title>TPDelegate::Job</title>
<!-- Node1 -->
<g id="node1" class="node">
<title>Node1</title>
<g id="a_node1"><a xlink:title=" ">
<polygon fill="#bfbfbf" stroke="black" points="80.5,-0.5 80.5,-57.5 180.5,-57.5 180.5,-0.5 80.5,-0.5"/>
<text text-anchor="middle" x="130.5" y="-45.5" font-family="Helvetica,sans-Serif" font-size="10.00">TPDelegate::Job</text>
<polyline fill="none" stroke="black" points="80.5,-38.5 180.5,-38.5 "/>
<text text-anchor="start" x="88.5" y="-26.5" font-family="Helvetica,sans-Serif" font-size="10.00">+ task_array_len</text>
<polyline fill="none" stroke="black" points="80.5,-19.5 180.5,-19.5 "/>
<text text-anchor="middle" x="130.5" y="-7.5" font-family="Helvetica,sans-Serif" font-size="10.00"> </text>
</a>
</g>
</g>
<!-- Node2 -->
<g id="node2" class="node">
<title>Node2</title>
<g id="a_node2"><a xlink:href="struct_tensor_processor_1_1_task.html" target="_top" xlink:title=" ">
<polygon fill="none" stroke="black" points="69,-105.5 69,-162.5 192,-162.5 192,-105.5 69,-105.5"/>
<text text-anchor="middle" x="130.5" y="-150.5" font-family="Helvetica,sans-Serif" font-size="10.00">TensorProcessor::Task</text>
<polyline fill="none" stroke="black" points="69,-143.5 192,-143.5 "/>
<text text-anchor="middle" x="130.5" y="-131.5" font-family="Helvetica,sans-Serif" font-size="10.00"> </text>
<polyline fill="none" stroke="black" points="69,-124.5 192,-124.5 "/>
<text text-anchor="middle" x="130.5" y="-112.5" font-family="Helvetica,sans-Serif" font-size="10.00"> </text>
</a>
</g>
</g>
<!-- Node2&#45;&gt;Node1 -->
<g id="edge1" class="edge">
<title>Node2&#45;&gt;Node1</title>
<path fill="none" stroke="#404040" d="M130.5,-105.4C130.5,-94.55 130.5,-81.87 130.5,-70.05"/>
<polygon fill="none" stroke="#404040" points="130.5,-69.68 126.5,-63.68 130.5,-57.68 134.5,-63.68 130.5,-69.68"/>
<text text-anchor="middle" x="162.5" y="-79" font-family="Helvetica,sans-Serif" font-size="10.00"> +task_array</text>
</g>
<!-- Node3 -->
<g id="node3" class="node">
<title>Node3</title>
<g id="a_node3"><a xlink:href="struct_processing_unit_1_1_transaction.html" target="_top" xlink:title=" ">
<polygon fill="none" stroke="black" points="0,-221.5 0,-333.5 151,-333.5 151,-221.5 0,-221.5"/>
<text text-anchor="middle" x="75.5" y="-321.5" font-family="Helvetica,sans-Serif" font-size="10.00">ProcessingUnit::Transaction</text>
<polyline fill="none" stroke="black" points="0,-314.5 151,-314.5 "/>
<text text-anchor="start" x="8" y="-302.5" font-family="Helvetica,sans-Serif" font-size="10.00">+ mode</text>
<text text-anchor="start" x="8" y="-291.5" font-family="Helvetica,sans-Serif" font-size="10.00">+ flags</text>
<text text-anchor="start" x="8" y="-280.5" font-family="Helvetica,sans-Serif" font-size="10.00">+ txBufferPtr</text>
<text text-anchor="start" x="8" y="-269.5" font-family="Helvetica,sans-Serif" font-size="10.00">+ txBufferSize</text>
<text text-anchor="start" x="8" y="-258.5" font-family="Helvetica,sans-Serif" font-size="10.00">+ rxBufferPtr</text>
<text text-anchor="start" x="8" y="-247.5" font-family="Helvetica,sans-Serif" font-size="10.00">+ rxBufferSize</text>
<polyline fill="none" stroke="black" points="0,-240.5 151,-240.5 "/>
<text text-anchor="middle" x="75.5" y="-228.5" font-family="Helvetica,sans-Serif" font-size="10.00"> </text>
</a>
</g>
</g>
<!-- Node3&#45;&gt;Node2 -->
<g id="edge2" class="edge">
<title>Node3&#45;&gt;Node2</title>
<path fill="none" stroke="#404040" d="M94.2,-221.4C98.97,-208.09 104.24,-193.97 109.5,-181 110.45,-178.65 111.46,-176.24 112.49,-173.82"/>
<polygon fill="none" stroke="#404040" points="112.61,-173.54 111.37,-166.44 117.45,-162.56 118.69,-169.67 112.61,-173.54"/>
<text text-anchor="middle" x="137" y="-195" font-family="Helvetica,sans-Serif" font-size="10.00"> +compute</text>
<text text-anchor="middle" x="137" y="-184" font-family="Helvetica,sans-Serif" font-size="10.00">+setup</text>
</g>
<!-- Node4 -->
<g id="node4" class="node">
<title>Node4</title>
<g id="a_node4"><a xlink:href="struct___event.html" target="_top" xlink:title=" ">
<polygon fill="none" stroke="black" points="169,-227 169,-328 272,-328 272,-227 169,-227"/>
<text text-anchor="middle" x="220.5" y="-316" font-family="Helvetica,sans-Serif" font-size="10.00">_Event</text>
<polyline fill="none" stroke="black" points="169,-309 272,-309 "/>
<text text-anchor="start" x="177" y="-297" font-family="Helvetica,sans-Serif" font-size="10.00">+ data</text>
<text text-anchor="start" x="177" y="-286" font-family="Helvetica,sans-Serif" font-size="10.00">+ type</text>
<text text-anchor="start" x="177" y="-275" font-family="Helvetica,sans-Serif" font-size="10.00">+ absolute_offset</text>
<text text-anchor="start" x="177" y="-264" font-family="Helvetica,sans-Serif" font-size="10.00">+ relative_offset</text>
<text text-anchor="start" x="177" y="-253" font-family="Helvetica,sans-Serif" font-size="10.00">+ latency</text>
<polyline fill="none" stroke="black" points="169,-246 272,-246 "/>
<text text-anchor="middle" x="220.5" y="-234" font-family="Helvetica,sans-Serif" font-size="10.00"> </text>
</a>
</g>
</g>
<!-- Node4&#45;&gt;Node2 -->
<g id="edge3" class="edge">
<title>Node4&#45;&gt;Node2</title>
<path fill="none" stroke="#404040" d="M192.71,-226.81C184,-211.88 174.14,-195.6 164.5,-181 162.72,-178.3 160.83,-175.53 158.91,-172.77"/>
<polygon fill="none" stroke="#404040" points="158.82,-172.65 152.07,-170.09 151.84,-162.88 158.58,-165.44 158.82,-172.65"/>
<text text-anchor="middle" x="221.5" y="-195" font-family="Helvetica,sans-Serif" font-size="10.00"> +delegate_event</text>
<text text-anchor="middle" x="221.5" y="-184" font-family="Helvetica,sans-Serif" font-size="10.00">+hardware_event</text>
</g>
<!-- Node4&#45;&gt;Node4 -->
<g id="edge4" class="edge">
<title>Node4&#45;&gt;Node4</title>
<path fill="none" stroke="#404040" d="M272.03,-291.93C282.5,-290.36 290,-285.55 290,-277.5 290,-272.97 287.63,-269.47 283.69,-266.99"/>
<polygon fill="none" stroke="#404040" points="283.4,-266.9 276.44,-268.78 272.03,-263.07 278.99,-261.19 283.4,-266.9"/>
<text text-anchor="middle" x="319.5" y="-291.5" font-family="Helvetica,sans-Serif" font-size="10.00"> +first_child</text>
<text text-anchor="middle" x="319.5" y="-280.5" font-family="Helvetica,sans-Serif" font-size="10.00">+parent</text>
<text text-anchor="middle" x="319.5" y="-269.5" font-family="Helvetica,sans-Serif" font-size="10.00">+prev</text>
<text text-anchor="middle" x="319.5" y="-258.5" font-family="Helvetica,sans-Serif" font-size="10.00">+next</text>
</g>
<!-- Node5 -->
<g id="node5" class="node">
<title>Node5</title>
<g id="a_node5"><a xlink:href="struct_timer.html" target="_top" xlink:title=" ">
<polygon fill="none" stroke="black" points="172.5,-381.5 172.5,-460.5 268.5,-460.5 268.5,-381.5 172.5,-381.5"/>
<text text-anchor="middle" x="220.5" y="-448.5" font-family="Helvetica,sans-Serif" font-size="10.00">Timer</text>
<polyline fill="none" stroke="black" points="172.5,-441.5 268.5,-441.5 "/>
<text text-anchor="start" x="180.5" y="-429.5" font-family="Helvetica,sans-Serif" font-size="10.00">+ start_time</text>
<text text-anchor="start" x="180.5" y="-418.5" font-family="Helvetica,sans-Serif" font-size="10.00">+ num_samples</text>
<text text-anchor="start" x="180.5" y="-407.5" font-family="Helvetica,sans-Serif" font-size="10.00">+ sample_array</text>
<polyline fill="none" stroke="black" points="172.5,-400.5 268.5,-400.5 "/>
<text text-anchor="middle" x="220.5" y="-388.5" font-family="Helvetica,sans-Serif" font-size="10.00"> </text>
</a>
</g>
</g>
<!-- Node5&#45;&gt;Node4 -->
<g id="edge5" class="edge">
<title>Node5&#45;&gt;Node4</title>
<path fill="none" stroke="#404040" d="M220.5,-381.33C220.5,-368.61 220.5,-354.14 220.5,-340.14"/>
<polygon fill="none" stroke="#404040" points="220.5,-340.03 216.5,-334.03 220.5,-328.03 224.5,-334.03 220.5,-340.03"/>
<text text-anchor="middle" x="239.5" y="-355" font-family="Helvetica,sans-Serif" font-size="10.00"> +timer</text>
</g>
</g>
</svg>
        <g id="navigator" transform="translate(0 0)" fill="#404254">
                <rect fill="#f2f5e9" fill-opacity="0.5" stroke="#606060" stroke-width=".5" x="0" y="0" width="60" height="60"/>
                <use id="zoomplus" xlink:href="#zoomPlus" x="17" y="9" onmousedown="handleZoom(evt,'in')"/>
                <use id="zoomminus" xlink:href="#zoomMin" x="42" y="9" onmousedown="handleZoom(evt,'out')"/>
                <use id="reset" xlink:href="#resetDef" x="30" y="36" onmousedown="handleReset()"/>
                <g id="arrowUp" xlink:href="#dirArrow" transform="translate(30 24)" onmousedown="handlePan(0,-1)">
                  <use xlink:href="#rim" fill="#404040">
                        <set attributeName="fill" to="#808080" begin="arrowUp.mouseover" end="arrowUp.mouseout"/>
                  </use>
                  <path fill="none" stroke="white" stroke-width="1.5" d="M0,-3.0v7 M-2.5,-0.5L0,-3.0L2.5,-0.5"/>
                </g>
                <g id="arrowRight" xlink:href="#dirArrow" transform="rotate(90) translate(36 -43)" onmousedown="handlePan(1,0)">
                  <use xlink:href="#rim" fill="#404040">
                        <set attributeName="fill" to="#808080" begin="arrowRight.mouseover" end="arrowRight.mouseout"/>
                  </use>
                  <path fill="none" stroke="white" stroke-width="1.5" d="M0,-3.0v7 M-2.5,-0.5L0,-3.0L2.5,-0.5"/>
                </g>
                <g id="arrowDown" xlink:href="#dirArrow" transform="rotate(180) translate(-30 -48)" onmousedown="handlePan(0,1)">
                  <use xlink:href="#rim" fill="#404040">
                        <set attributeName="fill" to="#808080" begin="arrowDown.mouseover" end="arrowDown.mouseout"/>
                  </use>
                  <path fill="none" stroke="white" stroke-width="1.5" d="M0,-3.0v7 M-2.5,-0.5L0,-3.0L2.5,-0.5"/>
                </g>
                <g id="arrowLeft" xlink:href="#dirArrow" transform="rotate(270) translate(-36 17)" onmousedown="handlePan(-1,0)">
                  <use xlink:href="#rim" fill="#404040">
                        <set attributeName="fill" to="#808080" begin="arrowLeft.mouseover" end="arrowLeft.mouseout"/>
                  </use>
                  <path fill="none" stroke="white" stroke-width="1.5" d="M0,-3.0v7 M-2.5,-0.5L0,-3.0L2.5,-0.5"/>
                </g>
        </g>
        <svg viewBox="0 0 15 15" width="100%" height="30px" preserveAspectRatio="xMaxYMin meet">
         <g id="arrow_out" transform="scale(0.3 0.3)">
          <a xlink:href="struct_t_p_delegate_1_1_job__coll__graph_org.svg" target="_base">
           <rect id="button" ry="5" rx="5" y="6" x="6" height="38" width="38"
                fill="#f2f5e9" fill-opacity="0.5" stroke="#606060" stroke-width="1.0"/>
           <path id="arrow"
             d="M 11.500037,31.436501 C 11.940474,20.09759 22.043105,11.32322 32.158766,21.979434 L 37.068811,17.246167 C 37.068811,17.246167 37.088388,32 37.088388,32 L 22.160133,31.978069 C 22.160133,31.978069 26.997745,27.140456 26.997745,27.140456 C 18.528582,18.264221 13.291696,25.230495 11.500037,31.436501 z"
             style="fill:#404040;"/>
          </a>
         </g>
        </svg>
</svg>
