<?xml version="1.0" encoding="UTF-8" standalone="no"?>
<!DOCTYPE svg PUBLIC "-//W3C//DTD SVG 1.1//EN"
 "http://www.w3.org/Graphics/SVG/1.1/DTD/svg11.dtd">
<!-- Generated by graphviz version 2.43.0 (0)
 -->
<!-- Title: tflite::DimensionMetadataT Pages: 1 -->
<svg width="264pt" height="358pt"
 viewBox="0.00 0.00 263.50 358.00" xmlns="http://www.w3.org/2000/svg" xmlns:xlink="http://www.w3.org/1999/xlink">
<g id="graph0" class="graph" transform="scale(1 1) rotate(0) translate(4 354)">
<title>tflite::DimensionMetadataT</title>
<!-- Node1 -->
<g id="node1" class="node">
<title>Node1</title>
<g id="a_node1"><a xlink:title=" ">
<polygon fill="#bfbfbf" stroke="black" points="30,-0.5 30,-79.5 180,-79.5 180,-0.5 30,-0.5"/>
<text text-anchor="middle" x="105" y="-67.5" font-family="Helvetica,sans-Serif" font-size="10.00">tflite::DimensionMetadataT</text>
<polyline fill="none" stroke="black" points="30,-60.5 180,-60.5 "/>
<text text-anchor="start" x="38" y="-48.5" font-family="Helvetica,sans-Serif" font-size="10.00">+ format</text>
<text text-anchor="start" x="38" y="-37.5" font-family="Helvetica,sans-Serif" font-size="10.00">+ dense_size</text>
<polyline fill="none" stroke="black" points="30,-30.5 180,-30.5 "/>
<text text-anchor="start" x="38" y="-18.5" font-family="Helvetica,sans-Serif" font-size="10.00">+ DimensionMetadataT()</text>
<text text-anchor="start" x="38" y="-7.5" font-family="Helvetica,sans-Serif" font-size="10.00">+ DimensionMetadataT()</text>
</a>
</g>
</g>
<!-- Node2 -->
<g id="node2" class="node">
<title>Node2</title>
<g id="a_node2"><a xlink:title=" ">
<polygon fill="none" stroke="#bfbfbf" points="0,-215.5 0,-272.5 74,-272.5 74,-215.5 0,-215.5"/>
<text text-anchor="middle" x="37" y="-260.5" font-family="Helvetica,sans-Serif" font-size="10.00">NativeTable</text>
<polyline fill="none" stroke="#bfbfbf" points="0,-253.5 74,-253.5 "/>
<text text-anchor="middle" x="37" y="-241.5" font-family="Helvetica,sans-Serif" font-size="10.00"> </text>
<polyline fill="none" stroke="#bfbfbf" points="0,-234.5 74,-234.5 "/>
<text text-anchor="middle" x="37" y="-222.5" font-family="Helvetica,sans-Serif" font-size="10.00"> </text>
</a>
</g>
</g>
<!-- Node2&#45;&gt;Node1 -->
<g id="edge1" class="edge">
<title>Node2&#45;&gt;Node1</title>
<path fill="none" stroke="midnightblue" d="M49.54,-205.74C61.6,-169.93 79.74,-116.03 91.96,-79.73"/>
<polygon fill="none" stroke="midnightblue" points="46.19,-204.74 46.31,-215.34 52.82,-206.98 46.19,-204.74"/>
</g>
<!-- Node3 -->
<g id="node3" class="node">
<title>Node3</title>
<g id="a_node3"><a xlink:href="structtflite_1_1_sparse_index_vector_union.html" target="_top" xlink:title=" ">
<polygon fill="none" stroke="black" points="92.5,-138.5 92.5,-349.5 255.5,-349.5 255.5,-138.5 92.5,-138.5"/>
<text text-anchor="start" x="100.5" y="-337.5" font-family="Helvetica,sans-Serif" font-size="10.00">tflite::SparseIndexVector</text>
<text text-anchor="middle" x="174" y="-326.5" font-family="Helvetica,sans-Serif" font-size="10.00">Union</text>
<polyline fill="none" stroke="black" points="92.5,-319.5 255.5,-319.5 "/>
<text text-anchor="start" x="100.5" y="-307.5" font-family="Helvetica,sans-Serif" font-size="10.00">+ type</text>
<text text-anchor="start" x="100.5" y="-296.5" font-family="Helvetica,sans-Serif" font-size="10.00">+ value</text>
<polyline fill="none" stroke="black" points="92.5,-289.5 255.5,-289.5 "/>
<text text-anchor="start" x="100.5" y="-277.5" font-family="Helvetica,sans-Serif" font-size="10.00">+ SparseIndexVectorUnion()</text>
<text text-anchor="start" x="100.5" y="-266.5" font-family="Helvetica,sans-Serif" font-size="10.00">+ SparseIndexVectorUnion()</text>
<text text-anchor="start" x="100.5" y="-255.5" font-family="Helvetica,sans-Serif" font-size="10.00">+ SparseIndexVectorUnion()</text>
<text text-anchor="start" x="100.5" y="-244.5" font-family="Helvetica,sans-Serif" font-size="10.00">+ operator=()</text>
<text text-anchor="start" x="100.5" y="-233.5" font-family="Helvetica,sans-Serif" font-size="10.00">+ operator=()</text>
<text text-anchor="start" x="100.5" y="-222.5" font-family="Helvetica,sans-Serif" font-size="10.00">+ ~SparseIndexVectorUnion()</text>
<text text-anchor="start" x="100.5" y="-211.5" font-family="Helvetica,sans-Serif" font-size="10.00">+ Reset()</text>
<text text-anchor="start" x="100.5" y="-200.5" font-family="Helvetica,sans-Serif" font-size="10.00">+ Set()</text>
<text text-anchor="start" x="100.5" y="-189.5" font-family="Helvetica,sans-Serif" font-size="10.00">+ Pack()</text>
<text text-anchor="start" x="100.5" y="-178.5" font-family="Helvetica,sans-Serif" font-size="10.00">+ AsInt32Vector()</text>
<text text-anchor="start" x="100.5" y="-167.5" font-family="Helvetica,sans-Serif" font-size="10.00">and 20 more...</text>
<text text-anchor="start" x="100.5" y="-156.5" font-family="Helvetica,sans-Serif" font-size="10.00">+ UnPack()</text>
<text text-anchor="start" x="100.5" y="-145.5" font-family="Helvetica,sans-Serif" font-size="10.00">+ UnPack()</text>
</a>
</g>
</g>
<!-- Node3&#45;&gt;Node1 -->
<g id="edge2" class="edge">
<title>Node3&#45;&gt;Node1</title>
<path fill="none" stroke="#404040" d="M138.29,-138.45C132.69,-122.05 127.13,-105.78 122.21,-91.37"/>
<polygon fill="none" stroke="#404040" points="122.11,-91.09 116.39,-86.71 118.23,-79.73 123.96,-84.12 122.11,-91.09"/>
<text text-anchor="middle" x="176" y="-112" font-family="Helvetica,sans-Serif" font-size="10.00"> +array_indices</text>
<text text-anchor="middle" x="176" y="-101" font-family="Helvetica,sans-Serif" font-size="10.00">+array_segments</text>
</g>
</g>
</svg>
