<?xml version="1.0" encoding="UTF-8" standalone="no"?>
<!DOCTYPE svg PUBLIC "-//W3C//DTD SVG 1.1//EN"
 "http://www.w3.org/Graphics/SVG/1.1/DTD/svg11.dtd">
<!-- Generated by graphviz version 2.43.0 (0)
 -->
<!-- Title: TfLiteContext Pages: 1 -->
<svg width="997pt" height="871pt"
 viewBox="0.00 0.00 996.50 871.00" xmlns="http://www.w3.org/2000/svg" xmlns:xlink="http://www.w3.org/1999/xlink">
<g id="graph0" class="graph" transform="scale(1 1) rotate(0) translate(4 867)">
<title>TfLiteContext</title>
<!-- Node1 -->
<g id="node1" class="node">
<title>Node1</title>
<g id="a_node1"><a xlink:title=" ">
<polygon fill="#bfbfbf" stroke="black" points="94,-0.5 94,-178.5 291,-178.5 291,-0.5 94,-0.5"/>
<text text-anchor="middle" x="192.5" y="-166.5" font-family="Helvetica,sans-Serif" font-size="10.00">TfLiteContext</text>
<polyline fill="none" stroke="black" points="94,-159.5 291,-159.5 "/>
<text text-anchor="start" x="102" y="-147.5" font-family="Helvetica,sans-Serif" font-size="10.00">+ tensors_size</text>
<text text-anchor="start" x="102" y="-136.5" font-family="Helvetica,sans-Serif" font-size="10.00">+ GetExecutionPlan</text>
<text text-anchor="start" x="102" y="-125.5" font-family="Helvetica,sans-Serif" font-size="10.00">+ impl_</text>
<text text-anchor="start" x="102" y="-114.5" font-family="Helvetica,sans-Serif" font-size="10.00">+ ResizeTensor</text>
<text text-anchor="start" x="102" y="-103.5" font-family="Helvetica,sans-Serif" font-size="10.00">+ ReportError</text>
<text text-anchor="start" x="102" y="-92.5" font-family="Helvetica,sans-Serif" font-size="10.00">+ AddTensors</text>
<text text-anchor="start" x="102" y="-81.5" font-family="Helvetica,sans-Serif" font-size="10.00">+ GetNodeAndRegistration</text>
<text text-anchor="start" x="102" y="-70.5" font-family="Helvetica,sans-Serif" font-size="10.00">+ ReplaceNodeSubsetsWithDelegate</text>
<text text-anchor="start" x="102" y="-59.5" font-family="Helvetica,sans-Serif" font-size="10.00">Kernels</text>
<text text-anchor="start" x="102" y="-48.5" font-family="Helvetica,sans-Serif" font-size="10.00">+ recommended_num_threads</text>
<text text-anchor="start" x="102" y="-37.5" font-family="Helvetica,sans-Serif" font-size="10.00">+ SetExternalContext</text>
<text text-anchor="start" x="102" y="-26.5" font-family="Helvetica,sans-Serif" font-size="10.00">and 9 more...</text>
<polyline fill="none" stroke="black" points="94,-19.5 291,-19.5 "/>
<text text-anchor="middle" x="192.5" y="-7.5" font-family="Helvetica,sans-Serif" font-size="10.00"> </text>
</a>
</g>
</g>
<!-- Node2 -->
<g id="node2" class="node">
<title>Node2</title>
<g id="a_node2"><a xlink:href="struct_tf_lite_external_context.html" target="_top" xlink:title=" ">
<polygon fill="none" stroke="black" points="0,-270.5 0,-338.5 123,-338.5 123,-270.5 0,-270.5"/>
<text text-anchor="middle" x="61.5" y="-326.5" font-family="Helvetica,sans-Serif" font-size="10.00">TfLiteExternalContext</text>
<polyline fill="none" stroke="black" points="0,-319.5 123,-319.5 "/>
<text text-anchor="start" x="8" y="-307.5" font-family="Helvetica,sans-Serif" font-size="10.00">+ type</text>
<text text-anchor="start" x="8" y="-296.5" font-family="Helvetica,sans-Serif" font-size="10.00">+ Refresh</text>
<polyline fill="none" stroke="black" points="0,-289.5 123,-289.5 "/>
<text text-anchor="middle" x="61.5" y="-277.5" font-family="Helvetica,sans-Serif" font-size="10.00"> </text>
</a>
</g>
</g>
<!-- Node2&#45;&gt;Node1 -->
<g id="edge1" class="edge">
<title>Node2&#45;&gt;Node1</title>
<path fill="none" stroke="#404040" d="M61.73,-270.06C63.14,-248.14 67.47,-219.49 79.5,-197 81.76,-192.78 84.25,-188.62 86.93,-184.56"/>
<polygon fill="none" stroke="#404040" points="87.03,-184.42 87.22,-177.21 93.95,-174.62 93.75,-181.83 87.03,-184.42"/>
<text text-anchor="middle" x="133.5" y="-205.5" font-family="Helvetica,sans-Serif" font-size="10.00"> +GetExternalContext</text>
</g>
<!-- Node3 -->
<g id="node3" class="node">
<title>Node3</title>
<g id="a_node3"><a xlink:href="struct_tf_lite_eval_tensor.html" target="_top" xlink:title=" ">
<polygon fill="none" stroke="black" points="142,-276 142,-333 239,-333 239,-276 142,-276"/>
<text text-anchor="middle" x="190.5" y="-321" font-family="Helvetica,sans-Serif" font-size="10.00">TfLiteEvalTensor</text>
<polyline fill="none" stroke="black" points="142,-314 239,-314 "/>
<text text-anchor="start" x="150" y="-302" font-family="Helvetica,sans-Serif" font-size="10.00">+ type</text>
<polyline fill="none" stroke="black" points="142,-295 239,-295 "/>
<text text-anchor="middle" x="190.5" y="-283" font-family="Helvetica,sans-Serif" font-size="10.00"> </text>
</a>
</g>
</g>
<!-- Node3&#45;&gt;Node1 -->
<g id="edge2" class="edge">
<title>Node3&#45;&gt;Node1</title>
<path fill="none" stroke="#404040" d="M190.76,-275.65C190.97,-253.85 191.26,-222.11 191.56,-191.05"/>
<polygon fill="none" stroke="#404040" points="191.56,-190.74 187.62,-184.71 191.67,-178.74 195.61,-184.78 191.56,-190.74"/>
<text text-anchor="middle" x="232.5" y="-205.5" font-family="Helvetica,sans-Serif" font-size="10.00"> +GetEvalTensor</text>
</g>
<!-- Node4 -->
<g id="node4" class="node">
<title>Node4</title>
<g id="a_node4"><a xlink:href="union_tf_lite_ptr_union.html" target="_top" xlink:title=" ">
<polygon fill="none" stroke="black" points="147.5,-419.5 147.5,-608.5 233.5,-608.5 233.5,-419.5 147.5,-419.5"/>
<text text-anchor="middle" x="190.5" y="-596.5" font-family="Helvetica,sans-Serif" font-size="10.00">TfLitePtrUnion</text>
<polyline fill="none" stroke="black" points="147.5,-589.5 233.5,-589.5 "/>
<text text-anchor="start" x="155.5" y="-577.5" font-family="Helvetica,sans-Serif" font-size="10.00">+ i32</text>
<text text-anchor="start" x="155.5" y="-566.5" font-family="Helvetica,sans-Serif" font-size="10.00">+ u32</text>
<text text-anchor="start" x="155.5" y="-555.5" font-family="Helvetica,sans-Serif" font-size="10.00">+ i64</text>
<text text-anchor="start" x="155.5" y="-544.5" font-family="Helvetica,sans-Serif" font-size="10.00">+ u64</text>
<text text-anchor="start" x="155.5" y="-533.5" font-family="Helvetica,sans-Serif" font-size="10.00">+ f</text>
<text text-anchor="start" x="155.5" y="-522.5" font-family="Helvetica,sans-Serif" font-size="10.00">+ f64</text>
<text text-anchor="start" x="155.5" y="-511.5" font-family="Helvetica,sans-Serif" font-size="10.00">+ raw</text>
<text text-anchor="start" x="155.5" y="-500.5" font-family="Helvetica,sans-Serif" font-size="10.00">+ raw_const</text>
<text text-anchor="start" x="155.5" y="-489.5" font-family="Helvetica,sans-Serif" font-size="10.00">+ uint8</text>
<text text-anchor="start" x="155.5" y="-478.5" font-family="Helvetica,sans-Serif" font-size="10.00">+ b</text>
<text text-anchor="start" x="155.5" y="-467.5" font-family="Helvetica,sans-Serif" font-size="10.00">+ i16</text>
<text text-anchor="start" x="155.5" y="-456.5" font-family="Helvetica,sans-Serif" font-size="10.00">+ int8</text>
<text text-anchor="start" x="155.5" y="-445.5" font-family="Helvetica,sans-Serif" font-size="10.00">+ data</text>
<polyline fill="none" stroke="black" points="147.5,-438.5 233.5,-438.5 "/>
<text text-anchor="middle" x="190.5" y="-426.5" font-family="Helvetica,sans-Serif" font-size="10.00"> </text>
</a>
</g>
</g>
<!-- Node4&#45;&gt;Node3 -->
<g id="edge3" class="edge">
<title>Node4&#45;&gt;Node3</title>
<path fill="none" stroke="#404040" d="M190.5,-419.27C190.5,-393.17 190.5,-366.23 190.5,-345.11"/>
<polygon fill="none" stroke="#404040" points="190.5,-345.09 186.5,-339.09 190.5,-333.09 194.5,-339.09 190.5,-345.09"/>
<text text-anchor="middle" x="207.5" y="-393" font-family="Helvetica,sans-Serif" font-size="10.00"> +data</text>
</g>
<!-- Node9 -->
<g id="node9" class="node">
<title>Node9</title>
<g id="a_node9"><a xlink:href="struct_tf_lite_tensor.html" target="_top" xlink:title=" ">
<polygon fill="none" stroke="black" points="413,-237.5 413,-371.5 516,-371.5 516,-237.5 413,-237.5"/>
<text text-anchor="middle" x="464.5" y="-359.5" font-family="Helvetica,sans-Serif" font-size="10.00">TfLiteTensor</text>
<polyline fill="none" stroke="black" points="413,-352.5 516,-352.5 "/>
<text text-anchor="start" x="421" y="-340.5" font-family="Helvetica,sans-Serif" font-size="10.00">+ type</text>
<text text-anchor="start" x="421" y="-329.5" font-family="Helvetica,sans-Serif" font-size="10.00">+ allocation_type</text>
<text text-anchor="start" x="421" y="-318.5" font-family="Helvetica,sans-Serif" font-size="10.00">+ bytes</text>
<text text-anchor="start" x="421" y="-307.5" font-family="Helvetica,sans-Serif" font-size="10.00">+ allocation</text>
<text text-anchor="start" x="421" y="-296.5" font-family="Helvetica,sans-Serif" font-size="10.00">+ name</text>
<text text-anchor="start" x="421" y="-285.5" font-family="Helvetica,sans-Serif" font-size="10.00">+ buffer_handle</text>
<text text-anchor="start" x="421" y="-274.5" font-family="Helvetica,sans-Serif" font-size="10.00">+ data_is_stale</text>
<text text-anchor="start" x="421" y="-263.5" font-family="Helvetica,sans-Serif" font-size="10.00">+ is_variable</text>
<polyline fill="none" stroke="black" points="413,-256.5 516,-256.5 "/>
<text text-anchor="middle" x="464.5" y="-244.5" font-family="Helvetica,sans-Serif" font-size="10.00"> </text>
</a>
</g>
</g>
<!-- Node4&#45;&gt;Node9 -->
<g id="edge9" class="edge">
<title>Node4&#45;&gt;Node9</title>
<path fill="none" stroke="#404040" d="M233.66,-428.55C236.47,-425.19 239.42,-421.98 242.5,-419 287.76,-375.2 353.29,-344.52 401.42,-326.2"/>
<polygon fill="none" stroke="#404040" points="401.7,-326.1 405.93,-320.26 412.95,-321.92 408.72,-327.76 401.7,-326.1"/>
<text text-anchor="middle" x="290.5" y="-393" font-family="Helvetica,sans-Serif" font-size="10.00"> +data</text>
</g>
<!-- Node5 -->
<g id="node5" class="node">
<title>Node5</title>
<g id="a_node5"><a xlink:href="struct_tf_lite_complex128.html" target="_top" xlink:title=" ">
<polygon fill="none" stroke="black" points="358.5,-667.5 358.5,-735.5 464.5,-735.5 464.5,-667.5 358.5,-667.5"/>
<text text-anchor="middle" x="411.5" y="-723.5" font-family="Helvetica,sans-Serif" font-size="10.00">TfLiteComplex128</text>
<polyline fill="none" stroke="black" points="358.5,-716.5 464.5,-716.5 "/>
<text text-anchor="start" x="366.5" y="-704.5" font-family="Helvetica,sans-Serif" font-size="10.00">+ re</text>
<text text-anchor="start" x="366.5" y="-693.5" font-family="Helvetica,sans-Serif" font-size="10.00">+ im</text>
<polyline fill="none" stroke="black" points="358.5,-686.5 464.5,-686.5 "/>
<text text-anchor="middle" x="411.5" y="-674.5" font-family="Helvetica,sans-Serif" font-size="10.00"> </text>
</a>
</g>
</g>
<!-- Node5&#45;&gt;Node4 -->
<g id="edge4" class="edge">
<title>Node5&#45;&gt;Node4</title>
<path fill="none" stroke="#404040" d="M366.2,-667.47C345.89,-653.69 321.21,-638.29 297.5,-627 277.09,-617.28 265.38,-623.4 243.53,-608.4"/>
<polygon fill="none" stroke="#404040" points="243.35,-608.26 236.16,-607.74 233.88,-600.9 241.07,-601.42 243.35,-608.26"/>
<text text-anchor="middle" x="354" y="-635.5" font-family="Helvetica,sans-Serif" font-size="10.00"> +c128</text>
</g>
<!-- Node6 -->
<g id="node6" class="node">
<title>Node6</title>
<g id="a_node6"><a xlink:href="struct_tf_lite_complex64.html" target="_top" xlink:title=" ">
<polygon fill="none" stroke="black" points="140.5,-667.5 140.5,-735.5 240.5,-735.5 240.5,-667.5 140.5,-667.5"/>
<text text-anchor="middle" x="190.5" y="-723.5" font-family="Helvetica,sans-Serif" font-size="10.00">TfLiteComplex64</text>
<polyline fill="none" stroke="black" points="140.5,-716.5 240.5,-716.5 "/>
<text text-anchor="start" x="148.5" y="-704.5" font-family="Helvetica,sans-Serif" font-size="10.00">+ re</text>
<text text-anchor="start" x="148.5" y="-693.5" font-family="Helvetica,sans-Serif" font-size="10.00">+ im</text>
<polyline fill="none" stroke="black" points="140.5,-686.5 240.5,-686.5 "/>
<text text-anchor="middle" x="190.5" y="-674.5" font-family="Helvetica,sans-Serif" font-size="10.00"> </text>
</a>
</g>
</g>
<!-- Node6&#45;&gt;Node4 -->
<g id="edge5" class="edge">
<title>Node6&#45;&gt;Node4</title>
<path fill="none" stroke="#404040" d="M190.5,-667.34C190.5,-654 190.5,-637.82 190.5,-621.05"/>
<polygon fill="none" stroke="#404040" points="190.5,-620.76 186.5,-614.76 190.5,-608.76 194.5,-614.76 190.5,-620.76"/>
<text text-anchor="middle" x="205" y="-635.5" font-family="Helvetica,sans-Serif" font-size="10.00"> +c64</text>
</g>
<!-- Node7 -->
<g id="node7" class="node">
<title>Node7</title>
<g id="a_node7"><a xlink:href="struct_tf_lite_float16.html" target="_top" xlink:title=" ">
<polygon fill="none" stroke="black" points="259,-673 259,-730 340,-730 340,-673 259,-673"/>
<text text-anchor="middle" x="299.5" y="-718" font-family="Helvetica,sans-Serif" font-size="10.00">TfLiteFloat16</text>
<polyline fill="none" stroke="black" points="259,-711 340,-711 "/>
<text text-anchor="start" x="267" y="-699" font-family="Helvetica,sans-Serif" font-size="10.00">+ data</text>
<polyline fill="none" stroke="black" points="259,-692 340,-692 "/>
<text text-anchor="middle" x="299.5" y="-680" font-family="Helvetica,sans-Serif" font-size="10.00"> </text>
</a>
</g>
</g>
<!-- Node7&#45;&gt;Node4 -->
<g id="edge6" class="edge">
<title>Node7&#45;&gt;Node4</title>
<path fill="none" stroke="#404040" d="M281.66,-672.7C270.23,-654.68 255.2,-630.62 242.5,-609 241.58,-607.44 240.66,-605.87 239.74,-604.28"/>
<polygon fill="none" stroke="#404040" points="239.6,-604.04 233.14,-600.84 233.61,-593.65 240.07,-596.85 239.6,-604.04"/>
<text text-anchor="middle" x="279.5" y="-635.5" font-family="Helvetica,sans-Serif" font-size="10.00"> +f16</text>
</g>
<!-- Node8 -->
<g id="node8" class="node">
<title>Node8</title>
<g id="a_node8"><a xlink:href="struct_tf_lite_int_array.html" target="_top" xlink:title=" ">
<polygon fill="none" stroke="black" points="716,-794.5 716,-862.5 799,-862.5 799,-794.5 716,-794.5"/>
<text text-anchor="middle" x="757.5" y="-850.5" font-family="Helvetica,sans-Serif" font-size="10.00">TfLiteIntArray</text>
<polyline fill="none" stroke="black" points="716,-843.5 799,-843.5 "/>
<text text-anchor="start" x="724" y="-831.5" font-family="Helvetica,sans-Serif" font-size="10.00">+ size</text>
<text text-anchor="start" x="724" y="-820.5" font-family="Helvetica,sans-Serif" font-size="10.00">+ data</text>
<polyline fill="none" stroke="black" points="716,-813.5 799,-813.5 "/>
<text text-anchor="middle" x="757.5" y="-801.5" font-family="Helvetica,sans-Serif" font-size="10.00"> </text>
</a>
</g>
</g>
<!-- Node8&#45;&gt;Node3 -->
<g id="edge7" class="edge">
<title>Node8&#45;&gt;Node3</title>
<path fill="none" stroke="#404040" d="M715.58,-828.12C587.87,-829.04 207.73,-824.18 131.5,-736 33.63,-622.78 122.87,-426.52 168.01,-343.9"/>
<polygon fill="none" stroke="#404040" points="168.1,-343.74 167.52,-336.55 173.93,-333.25 174.51,-340.44 168.1,-343.74"/>
<text text-anchor="middle" x="109.5" y="-635.5" font-family="Helvetica,sans-Serif" font-size="10.00"> +dims</text>
</g>
<!-- Node8&#45;&gt;Node9 -->
<g id="edge15" class="edge">
<title>Node8&#45;&gt;Node9</title>
<path fill="none" stroke="#404040" d="M744.95,-794.47C738.85,-777.26 731.91,-755.74 727.5,-736 696.57,-597.46 770.06,-535.18 688.5,-419 650.74,-365.21 579.77,-335.41 527.8,-320"/>
<polygon fill="none" stroke="#404040" points="527.57,-319.94 520.7,-322.15 516.02,-316.66 522.89,-314.45 527.57,-319.94"/>
<text text-anchor="middle" x="762.5" y="-641" font-family="Helvetica,sans-Serif" font-size="10.00"> +dims</text>
<text text-anchor="middle" x="762.5" y="-630" font-family="Helvetica,sans-Serif" font-size="10.00">+dims_signature</text>
</g>
<!-- Node10 -->
<g id="node10" class="node">
<title>Node10</title>
<g id="a_node10"><a xlink:href="struct_tf_lite_sparsity.html" target="_top" xlink:title=" ">
<polygon fill="none" stroke="black" points="752.5,-485.5 752.5,-542.5 876.5,-542.5 876.5,-485.5 752.5,-485.5"/>
<text text-anchor="middle" x="814.5" y="-530.5" font-family="Helvetica,sans-Serif" font-size="10.00">TfLiteSparsity</text>
<polyline fill="none" stroke="black" points="752.5,-523.5 876.5,-523.5 "/>
<text text-anchor="start" x="760.5" y="-511.5" font-family="Helvetica,sans-Serif" font-size="10.00">+ dim_metadata_size</text>
<polyline fill="none" stroke="black" points="752.5,-504.5 876.5,-504.5 "/>
<text text-anchor="middle" x="814.5" y="-492.5" font-family="Helvetica,sans-Serif" font-size="10.00"> </text>
</a>
</g>
</g>
<!-- Node8&#45;&gt;Node10 -->
<g id="edge11" class="edge">
<title>Node8&#45;&gt;Node10</title>
<path fill="none" stroke="#404040" d="M799.16,-818.92C824.79,-811.59 856.45,-798.54 876.5,-776 888.83,-762.13 884.97,-754.22 888.5,-736 897.75,-688.31 911.59,-673.17 896.5,-627 887.38,-599.12 868.4,-572.43 850.99,-552.1"/>
<polygon fill="none" stroke="#404040" points="850.84,-551.93 843.86,-550.09 842.88,-542.95 849.85,-544.79 850.84,-551.93"/>
<text text-anchor="middle" x="945.5" y="-704.5" font-family="Helvetica,sans-Serif" font-size="10.00"> +traversal_order</text>
<text text-anchor="middle" x="945.5" y="-693.5" font-family="Helvetica,sans-Serif" font-size="10.00">+block_map</text>
</g>
<!-- Node11 -->
<g id="node11" class="node">
<title>Node11</title>
<g id="a_node11"><a xlink:href="struct_tf_lite_dimension_metadata.html" target="_top" xlink:title=" ">
<polygon fill="none" stroke="black" points="736,-667.5 736,-735.5 879,-735.5 879,-667.5 736,-667.5"/>
<text text-anchor="middle" x="807.5" y="-723.5" font-family="Helvetica,sans-Serif" font-size="10.00">TfLiteDimensionMetadata</text>
<polyline fill="none" stroke="black" points="736,-716.5 879,-716.5 "/>
<text text-anchor="start" x="744" y="-704.5" font-family="Helvetica,sans-Serif" font-size="10.00">+ format</text>
<text text-anchor="start" x="744" y="-693.5" font-family="Helvetica,sans-Serif" font-size="10.00">+ dense_size</text>
<polyline fill="none" stroke="black" points="736,-686.5 879,-686.5 "/>
<text text-anchor="middle" x="807.5" y="-674.5" font-family="Helvetica,sans-Serif" font-size="10.00"> </text>
</a>
</g>
</g>
<!-- Node8&#45;&gt;Node11 -->
<g id="edge13" class="edge">
<title>Node8&#45;&gt;Node11</title>
<path fill="none" stroke="#404040" d="M770.77,-794.33C776.53,-779.92 783.37,-762.82 789.58,-747.31"/>
<polygon fill="none" stroke="#404040" points="789.71,-746.97 788.23,-739.91 794.17,-735.82 795.66,-742.88 789.71,-746.97"/>
<text text-anchor="middle" x="828.5" y="-768" font-family="Helvetica,sans-Serif" font-size="10.00"> +array_indices</text>
<text text-anchor="middle" x="828.5" y="-757" font-family="Helvetica,sans-Serif" font-size="10.00">+array_segments</text>
</g>
<!-- Node9&#45;&gt;Node1 -->
<g id="edge8" class="edge">
<title>Node9&#45;&gt;Node1</title>
<path fill="none" stroke="#404040" d="M412.7,-262.93C381.08,-238.18 339.46,-205.58 300.92,-175.4"/>
<polygon fill="none" stroke="#404040" points="300.64,-175.18 293.45,-174.63 291.19,-167.79 298.38,-168.34 300.64,-175.18"/>
<text text-anchor="middle" x="381.5" y="-211" font-family="Helvetica,sans-Serif" font-size="10.00"> +tensors</text>
<text text-anchor="middle" x="381.5" y="-200" font-family="Helvetica,sans-Serif" font-size="10.00">+GetTensor</text>
</g>
<!-- Node10&#45;&gt;Node9 -->
<g id="edge10" class="edge">
<title>Node10&#45;&gt;Node9</title>
<path fill="none" stroke="#404040" d="M800.22,-485.37C784.48,-457.51 756.67,-415.14 721.5,-390 663.33,-348.42 583.46,-326.41 528.27,-315.4"/>
<polygon fill="none" stroke="#404040" points="527.98,-315.35 521.33,-318.15 516.19,-313.09 522.84,-310.29 527.98,-315.35"/>
<text text-anchor="middle" x="760" y="-393" font-family="Helvetica,sans-Serif" font-size="10.00"> +sparsity</text>
</g>
<!-- Node11&#45;&gt;Node10 -->
<g id="edge12" class="edge">
<title>Node11&#45;&gt;Node10</title>
<path fill="none" stroke="#404040" d="M808.75,-667.34C809.94,-635.83 811.73,-588.4 813,-554.85"/>
<polygon fill="none" stroke="#404040" points="813,-554.73 809.23,-548.58 813.45,-542.74 817.22,-548.88 813,-554.73"/>
<text text-anchor="middle" x="851" y="-635.5" font-family="Helvetica,sans-Serif" font-size="10.00"> +dim_metadata</text>
</g>
<!-- Node12 -->
<g id="node12" class="node">
<title>Node12</title>
<g id="a_node12"><a xlink:href="struct_tf_lite_delegate.html" target="_top" xlink:title=" ">
<polygon fill="none" stroke="black" points="252,-458 252,-570 393,-570 393,-458 252,-458"/>
<text text-anchor="middle" x="322.5" y="-558" font-family="Helvetica,sans-Serif" font-size="10.00">TfLiteDelegate</text>
<polyline fill="none" stroke="black" points="252,-551 393,-551 "/>
<text text-anchor="start" x="260" y="-539" font-family="Helvetica,sans-Serif" font-size="10.00">+ data_</text>
<text text-anchor="start" x="260" y="-528" font-family="Helvetica,sans-Serif" font-size="10.00">+ Prepare</text>
<text text-anchor="start" x="260" y="-517" font-family="Helvetica,sans-Serif" font-size="10.00">+ CopyFromBufferHandle</text>
<text text-anchor="start" x="260" y="-506" font-family="Helvetica,sans-Serif" font-size="10.00">+ CopyToBufferHandle</text>
<text text-anchor="start" x="260" y="-495" font-family="Helvetica,sans-Serif" font-size="10.00">+ FreeBufferHandle</text>
<text text-anchor="start" x="260" y="-484" font-family="Helvetica,sans-Serif" font-size="10.00">+ flags</text>
<polyline fill="none" stroke="black" points="252,-477 393,-477 "/>
<text text-anchor="middle" x="322.5" y="-465" font-family="Helvetica,sans-Serif" font-size="10.00"> </text>
</a>
</g>
</g>
<!-- Node12&#45;&gt;Node9 -->
<g id="edge14" class="edge">
<title>Node12&#45;&gt;Node9</title>
<path fill="none" stroke="#404040" d="M359.5,-457.77C373.8,-436.53 390.34,-412.09 405.5,-390 407.34,-387.33 409.21,-384.61 411.1,-381.86"/>
<polygon fill="none" stroke="#404040" points="411.2,-381.72 411.32,-374.51 418.02,-371.85 417.9,-379.06 411.2,-381.72"/>
<text text-anchor="middle" x="433" y="-393" font-family="Helvetica,sans-Serif" font-size="10.00"> +delegate</text>
</g>
<!-- Node13 -->
<g id="node13" class="node">
<title>Node13</title>
<g id="a_node13"><a xlink:href="struct_tf_lite_quantization.html" target="_top" xlink:title=" ">
<polygon fill="none" stroke="black" points="411,-480 411,-548 518,-548 518,-480 411,-480"/>
<text text-anchor="middle" x="464.5" y="-536" font-family="Helvetica,sans-Serif" font-size="10.00">TfLiteQuantization</text>
<polyline fill="none" stroke="black" points="411,-529 518,-529 "/>
<text text-anchor="start" x="419" y="-517" font-family="Helvetica,sans-Serif" font-size="10.00">+ type</text>
<text text-anchor="start" x="419" y="-506" font-family="Helvetica,sans-Serif" font-size="10.00">+ params</text>
<polyline fill="none" stroke="black" points="411,-499 518,-499 "/>
<text text-anchor="middle" x="464.5" y="-487" font-family="Helvetica,sans-Serif" font-size="10.00"> </text>
</a>
</g>
</g>
<!-- Node13&#45;&gt;Node9 -->
<g id="edge16" class="edge">
<title>Node13&#45;&gt;Node9</title>
<path fill="none" stroke="#404040" d="M464.5,-479.66C464.5,-453.85 464.5,-417.02 464.5,-383.88"/>
<polygon fill="none" stroke="#404040" points="464.5,-383.86 460.5,-377.86 464.5,-371.86 468.5,-377.86 464.5,-383.86"/>
<text text-anchor="middle" x="501" y="-393" font-family="Helvetica,sans-Serif" font-size="10.00"> +quantization</text>
</g>
<!-- Node14 -->
<g id="node14" class="node">
<title>Node14</title>
<g id="a_node14"><a xlink:href="struct_tf_lite_quantization_params.html" target="_top" xlink:title=" ">
<polygon fill="none" stroke="black" points="536,-480 536,-548 679,-548 679,-480 536,-480"/>
<text text-anchor="middle" x="607.5" y="-536" font-family="Helvetica,sans-Serif" font-size="10.00">TfLiteQuantizationParams</text>
<polyline fill="none" stroke="black" points="536,-529 679,-529 "/>
<text text-anchor="start" x="544" y="-517" font-family="Helvetica,sans-Serif" font-size="10.00">+ scale</text>
<text text-anchor="start" x="544" y="-506" font-family="Helvetica,sans-Serif" font-size="10.00">+ zero_point</text>
<polyline fill="none" stroke="black" points="536,-499 679,-499 "/>
<text text-anchor="middle" x="607.5" y="-487" font-family="Helvetica,sans-Serif" font-size="10.00"> </text>
</a>
</g>
</g>
<!-- Node14&#45;&gt;Node9 -->
<g id="edge17" class="edge">
<title>Node14&#45;&gt;Node9</title>
<path fill="none" stroke="#404040" d="M592.48,-479.86C580.27,-454.34 561.8,-418.69 541.5,-390 536.18,-382.48 530.26,-374.91 524.13,-367.56"/>
<polygon fill="none" stroke="#404040" points="524.08,-367.5 517.14,-365.54 516.28,-358.38 523.22,-360.34 524.08,-367.5"/>
<text text-anchor="middle" x="572" y="-393" font-family="Helvetica,sans-Serif" font-size="10.00"> +params</text>
</g>
</g>
</svg>
