<?xml version="1.0" encoding="UTF-8" standalone="no"?>
<!DOCTYPE svg PUBLIC "-//W3C//DTD SVG 1.1//EN"
 "http://www.w3.org/Graphics/SVG/1.1/DTD/svg11.dtd">
<!-- Generated by graphviz version 2.43.0 (0)
 -->
<!-- Title: tflite::Conv3DParams Pages: 1 -->
<svg width="162pt" height="303pt"
 viewBox="0.00 0.00 161.50 303.00" xmlns="http://www.w3.org/2000/svg" xmlns:xlink="http://www.w3.org/1999/xlink">
<g id="graph0" class="graph" transform="scale(1 1) rotate(0) translate(4 299)">
<title>tflite::Conv3DParams</title>
<!-- Node1 -->
<g id="node1" class="node">
<title>Node1</title>
<g id="a_node1"><a xlink:title=" ">
<polygon fill="#bfbfbf" stroke="black" points="0,-0.5 0,-134.5 131,-134.5 131,-0.5 0,-0.5"/>
<text text-anchor="middle" x="65.5" y="-122.5" font-family="Helvetica,sans-Serif" font-size="10.00">tflite::Conv3DParams</text>
<polyline fill="none" stroke="black" points="0,-115.5 131,-115.5 "/>
<text text-anchor="start" x="8" y="-103.5" font-family="Helvetica,sans-Serif" font-size="10.00">+ stride_width</text>
<text text-anchor="start" x="8" y="-92.5" font-family="Helvetica,sans-Serif" font-size="10.00">+ stride_height</text>
<text text-anchor="start" x="8" y="-81.5" font-family="Helvetica,sans-Serif" font-size="10.00">+ stride_depth</text>
<text text-anchor="start" x="8" y="-70.5" font-family="Helvetica,sans-Serif" font-size="10.00">+ dilation_width</text>
<text text-anchor="start" x="8" y="-59.5" font-family="Helvetica,sans-Serif" font-size="10.00">+ dilation_height</text>
<text text-anchor="start" x="8" y="-48.5" font-family="Helvetica,sans-Serif" font-size="10.00">+ dilation_depth</text>
<text text-anchor="start" x="8" y="-37.5" font-family="Helvetica,sans-Serif" font-size="10.00">+ float_activation_min</text>
<text text-anchor="start" x="8" y="-26.5" font-family="Helvetica,sans-Serif" font-size="10.00">+ float_activation_max</text>
<polyline fill="none" stroke="black" points="0,-19.5 131,-19.5 "/>
<text text-anchor="middle" x="65.5" y="-7.5" font-family="Helvetica,sans-Serif" font-size="10.00"> </text>
</a>
</g>
</g>
<!-- Node2 -->
<g id="node2" class="node">
<title>Node2</title>
<g id="a_node2"><a xlink:href="structtflite_1_1_padding3_d_values.html" target="_top" xlink:title=" ">
<polygon fill="none" stroke="black" points="1,-182.5 1,-294.5 130,-294.5 130,-182.5 1,-182.5"/>
<text text-anchor="middle" x="65.5" y="-282.5" font-family="Helvetica,sans-Serif" font-size="10.00">tflite::Padding3DValues</text>
<polyline fill="none" stroke="black" points="1,-275.5 130,-275.5 "/>
<text text-anchor="start" x="9" y="-263.5" font-family="Helvetica,sans-Serif" font-size="10.00">+ width</text>
<text text-anchor="start" x="9" y="-252.5" font-family="Helvetica,sans-Serif" font-size="10.00">+ height</text>
<text text-anchor="start" x="9" y="-241.5" font-family="Helvetica,sans-Serif" font-size="10.00">+ depth</text>
<text text-anchor="start" x="9" y="-230.5" font-family="Helvetica,sans-Serif" font-size="10.00">+ width_offset</text>
<text text-anchor="start" x="9" y="-219.5" font-family="Helvetica,sans-Serif" font-size="10.00">+ height_offset</text>
<text text-anchor="start" x="9" y="-208.5" font-family="Helvetica,sans-Serif" font-size="10.00">+ depth_offset</text>
<polyline fill="none" stroke="black" points="1,-201.5 130,-201.5 "/>
<text text-anchor="middle" x="65.5" y="-189.5" font-family="Helvetica,sans-Serif" font-size="10.00"> </text>
</a>
</g>
</g>
<!-- Node2&#45;&gt;Node1 -->
<g id="edge1" class="edge">
<title>Node2&#45;&gt;Node1</title>
<path fill="none" stroke="#404040" d="M65.5,-182.16C65.5,-170.87 65.5,-158.79 65.5,-146.88"/>
<polygon fill="none" stroke="#404040" points="65.5,-146.56 61.5,-140.56 65.5,-134.56 69.5,-140.56 65.5,-146.56"/>
<text text-anchor="middle" x="109.5" y="-156" font-family="Helvetica,sans-Serif" font-size="10.00"> +padding_values</text>
</g>
</g>
</svg>
