<?xml version="1.0" encoding="UTF-8" standalone="no"?>
<!DOCTYPE svg PUBLIC "-//W3C//DTD SVG 1.1//EN"
 "http://www.w3.org/Graphics/SVG/1.1/DTD/svg11.dtd">
<!-- Generated by graphviz version 2.43.0 (0)
 -->
<!-- Title: tflite::ResizeNearestNeighborOptionsT Pages: 1 -->
<svg width="202pt" height="193pt"
 viewBox="0.00 0.00 202.00 193.00" xmlns="http://www.w3.org/2000/svg" xmlns:xlink="http://www.w3.org/1999/xlink">
<g id="graph0" class="graph" transform="scale(1 1) rotate(0) translate(4 189)">
<title>tflite::ResizeNearestNeighborOptionsT</title>
<!-- Node1 -->
<g id="node1" class="node">
<title>Node1</title>
<g id="a_node1"><a xlink:title=" ">
<polygon fill="#bfbfbf" stroke="black" points="0,-0.5 0,-90.5 194,-90.5 194,-0.5 0,-0.5"/>
<text text-anchor="start" x="8" y="-78.5" font-family="Helvetica,sans-Serif" font-size="10.00">tflite::ResizeNearestNeighbor</text>
<text text-anchor="middle" x="97" y="-67.5" font-family="Helvetica,sans-Serif" font-size="10.00">OptionsT</text>
<polyline fill="none" stroke="black" points="0,-60.5 194,-60.5 "/>
<text text-anchor="start" x="8" y="-48.5" font-family="Helvetica,sans-Serif" font-size="10.00">+ align_corners</text>
<text text-anchor="start" x="8" y="-37.5" font-family="Helvetica,sans-Serif" font-size="10.00">+ half_pixel_centers</text>
<polyline fill="none" stroke="black" points="0,-30.5 194,-30.5 "/>
<text text-anchor="start" x="8" y="-18.5" font-family="Helvetica,sans-Serif" font-size="10.00">+ ResizeNearestNeighborOptionsT()</text>
<text text-anchor="start" x="8" y="-7.5" font-family="Helvetica,sans-Serif" font-size="10.00">+ ResizeNearestNeighborOptionsT()</text>
</a>
</g>
</g>
<!-- Node2 -->
<g id="node2" class="node">
<title>Node2</title>
<g id="a_node2"><a xlink:title=" ">
<polygon fill="none" stroke="#bfbfbf" points="60,-127.5 60,-184.5 134,-184.5 134,-127.5 60,-127.5"/>
<text text-anchor="middle" x="97" y="-172.5" font-family="Helvetica,sans-Serif" font-size="10.00">NativeTable</text>
<polyline fill="none" stroke="#bfbfbf" points="60,-165.5 134,-165.5 "/>
<text text-anchor="middle" x="97" y="-153.5" font-family="Helvetica,sans-Serif" font-size="10.00"> </text>
<polyline fill="none" stroke="#bfbfbf" points="60,-146.5 134,-146.5 "/>
<text text-anchor="middle" x="97" y="-134.5" font-family="Helvetica,sans-Serif" font-size="10.00"> </text>
</a>
</g>
</g>
<!-- Node2&#45;&gt;Node1 -->
<g id="edge1" class="edge">
<title>Node2&#45;&gt;Node1</title>
<path fill="none" stroke="midnightblue" d="M97,-117.21C97,-108.61 97,-99.39 97,-90.55"/>
<polygon fill="none" stroke="midnightblue" points="93.5,-117.34 97,-127.34 100.5,-117.34 93.5,-117.34"/>
</g>
</g>
</svg>
