<?xml version="1.0" encoding="UTF-8" standalone="no"?>
<!DOCTYPE svg PUBLIC "-//W3C//DTD SVG 1.1//EN"
 "http://www.w3.org/Graphics/SVG/1.1/DTD/svg11.dtd">
<!-- Generated by graphviz version 2.43.0 (0)
 -->
<!-- Title: TfLiteSpaceToBatchNDParams Pages: 1 -->
<svg width="171pt" height="171pt"
 viewBox="0.00 0.00 171.00 171.00" xmlns="http://www.w3.org/2000/svg" xmlns:xlink="http://www.w3.org/1999/xlink">
<g id="graph0" class="graph" transform="scale(1 1) rotate(0) translate(4 167)">
<title>TfLiteSpaceToBatchNDParams</title>
<!-- Node1 -->
<g id="node1" class="node">
<title>Node1</title>
<g id="a_node1"><a xlink:title=" ">
<polygon fill="#bfbfbf" stroke="black" points="0,-0.5 0,-57.5 163,-57.5 163,-0.5 0,-0.5"/>
<text text-anchor="middle" x="81.5" y="-45.5" font-family="Helvetica,sans-Serif" font-size="10.00">TfLiteSpaceToBatchNDParams</text>
<polyline fill="none" stroke="black" points="0,-38.5 163,-38.5 "/>
<text text-anchor="middle" x="81.5" y="-26.5" font-family="Helvetica,sans-Serif" font-size="10.00"> </text>
<polyline fill="none" stroke="black" points="0,-19.5 163,-19.5 "/>
<text text-anchor="middle" x="81.5" y="-7.5" font-family="Helvetica,sans-Serif" font-size="10.00"> </text>
</a>
</g>
</g>
<!-- Node2 -->
<g id="node2" class="node">
<title>Node2</title>
<g id="a_node2"><a xlink:href="struct_empty_struct_placeholder.html" target="_top" xlink:title=" ">
<polygon fill="none" stroke="black" points="14.5,-105.5 14.5,-162.5 148.5,-162.5 148.5,-105.5 14.5,-105.5"/>
<text text-anchor="middle" x="81.5" y="-150.5" font-family="Helvetica,sans-Serif" font-size="10.00">EmptyStructPlaceholder</text>
<polyline fill="none" stroke="black" points="14.5,-143.5 148.5,-143.5 "/>
<text text-anchor="start" x="22.5" y="-131.5" font-family="Helvetica,sans-Serif" font-size="10.00">+ dummy</text>
<polyline fill="none" stroke="black" points="14.5,-124.5 148.5,-124.5 "/>
<text text-anchor="middle" x="81.5" y="-112.5" font-family="Helvetica,sans-Serif" font-size="10.00"> </text>
</a>
</g>
</g>
<!-- Node2&#45;&gt;Node1 -->
<g id="edge1" class="edge">
<title>Node2&#45;&gt;Node1</title>
<path fill="none" stroke="#404040" d="M81.5,-105.4C81.5,-94.55 81.5,-81.87 81.5,-70.05"/>
<polygon fill="none" stroke="#404040" points="81.5,-69.68 77.5,-63.68 81.5,-57.68 85.5,-63.68 81.5,-69.68"/>
<text text-anchor="middle" x="116" y="-79" font-family="Helvetica,sans-Serif" font-size="10.00"> +placeholder</text>
</g>
</g>
</svg>
