<?xml version="1.0" encoding="UTF-8" standalone="no"?>
<!DOCTYPE svg PUBLIC "-//W3C//DTD SVG 1.1//EN"
 "http://www.w3.org/Graphics/SVG/1.1/DTD/svg11.dtd">
<!-- Generated by graphviz version 2.43.0 (0)
 -->
<!-- Title: tflite::NodeAndRegistration Pages: 1 -->
<svg width="325pt" height="441pt"
 viewBox="0.00 0.00 325.00 441.00" xmlns="http://www.w3.org/2000/svg" xmlns:xlink="http://www.w3.org/1999/xlink">
<g id="graph0" class="graph" transform="scale(1 1) rotate(0) translate(4 437)">
<title>tflite::NodeAndRegistration</title>
<!-- Node1 -->
<g id="node1" class="node">
<title>Node1</title>
<g id="a_node1"><a xlink:title=" ">
<polygon fill="#bfbfbf" stroke="black" points="22.5,-0.5 22.5,-57.5 171.5,-57.5 171.5,-0.5 22.5,-0.5"/>
<text text-anchor="middle" x="97" y="-45.5" font-family="Helvetica,sans-Serif" font-size="10.00">tflite::NodeAndRegistration</text>
<polyline fill="none" stroke="black" points="22.5,-38.5 171.5,-38.5 "/>
<text text-anchor="middle" x="97" y="-26.5" font-family="Helvetica,sans-Serif" font-size="10.00"> </text>
<polyline fill="none" stroke="black" points="22.5,-19.5 171.5,-19.5 "/>
<text text-anchor="middle" x="97" y="-7.5" font-family="Helvetica,sans-Serif" font-size="10.00"> </text>
</a>
</g>
</g>
<!-- Node2 -->
<g id="node2" class="node">
<title>Node2</title>
<g id="a_node2"><a xlink:href="struct_tf_lite_registration.html" target="_top" xlink:title=" ">
<polygon fill="none" stroke="black" points="0,-105.5 0,-239.5 104,-239.5 104,-105.5 0,-105.5"/>
<text text-anchor="middle" x="52" y="-227.5" font-family="Helvetica,sans-Serif" font-size="10.00">TfLiteRegistration</text>
<polyline fill="none" stroke="black" points="0,-220.5 104,-220.5 "/>
<text text-anchor="start" x="8" y="-208.5" font-family="Helvetica,sans-Serif" font-size="10.00">+ init</text>
<text text-anchor="start" x="8" y="-197.5" font-family="Helvetica,sans-Serif" font-size="10.00">+ free</text>
<text text-anchor="start" x="8" y="-186.5" font-family="Helvetica,sans-Serif" font-size="10.00">+ prepare</text>
<text text-anchor="start" x="8" y="-175.5" font-family="Helvetica,sans-Serif" font-size="10.00">+ invoke</text>
<text text-anchor="start" x="8" y="-164.5" font-family="Helvetica,sans-Serif" font-size="10.00">+ profiling_string</text>
<text text-anchor="start" x="8" y="-153.5" font-family="Helvetica,sans-Serif" font-size="10.00">+ builtin_code</text>
<text text-anchor="start" x="8" y="-142.5" font-family="Helvetica,sans-Serif" font-size="10.00">+ custom_name</text>
<text text-anchor="start" x="8" y="-131.5" font-family="Helvetica,sans-Serif" font-size="10.00">+ version</text>
<polyline fill="none" stroke="black" points="0,-124.5 104,-124.5 "/>
<text text-anchor="middle" x="52" y="-112.5" font-family="Helvetica,sans-Serif" font-size="10.00"> </text>
</a>
</g>
</g>
<!-- Node2&#45;&gt;Node1 -->
<g id="edge1" class="edge">
<title>Node2&#45;&gt;Node1</title>
<path fill="none" stroke="#404040" d="M70.77,-105.3C73.75,-95.44 76.88,-85.43 80,-76 80.74,-73.76 81.52,-71.46 82.33,-69.15"/>
<polygon fill="none" stroke="#404040" points="82.41,-68.92 80.66,-61.93 86.44,-57.62 88.19,-64.62 82.41,-68.92"/>
<text text-anchor="middle" x="114" y="-79" font-family="Helvetica,sans-Serif" font-size="10.00"> +registration</text>
</g>
<!-- Node3 -->
<g id="node3" class="node">
<title>Node3</title>
<g id="a_node3"><a xlink:href="struct_tf_lite_node.html" target="_top" xlink:title=" ">
<polygon fill="none" stroke="black" points="122.5,-122 122.5,-223 271.5,-223 271.5,-122 122.5,-122"/>
<text text-anchor="middle" x="197" y="-211" font-family="Helvetica,sans-Serif" font-size="10.00">TfLiteNode</text>
<polyline fill="none" stroke="black" points="122.5,-204 271.5,-204 "/>
<text text-anchor="start" x="130.5" y="-192" font-family="Helvetica,sans-Serif" font-size="10.00">+ user_data</text>
<text text-anchor="start" x="130.5" y="-181" font-family="Helvetica,sans-Serif" font-size="10.00">+ builtin_data</text>
<text text-anchor="start" x="130.5" y="-170" font-family="Helvetica,sans-Serif" font-size="10.00">+ custom_initial_data</text>
<text text-anchor="start" x="130.5" y="-159" font-family="Helvetica,sans-Serif" font-size="10.00">+ custom_initial_data_size</text>
<text text-anchor="start" x="130.5" y="-148" font-family="Helvetica,sans-Serif" font-size="10.00">+ might_have_side_effect</text>
<polyline fill="none" stroke="black" points="122.5,-141 271.5,-141 "/>
<text text-anchor="middle" x="197" y="-129" font-family="Helvetica,sans-Serif" font-size="10.00"> </text>
</a>
</g>
</g>
<!-- Node3&#45;&gt;Node1 -->
<g id="edge2" class="edge">
<title>Node3&#45;&gt;Node1</title>
<path fill="none" stroke="#404040" d="M175.79,-121.85C168.12,-106.45 158.68,-89.89 148,-76 145.45,-72.69 142.64,-69.42 139.7,-66.24"/>
<polygon fill="none" stroke="#404040" points="139.57,-66.11 132.5,-64.67 131.12,-57.59 138.19,-59.03 139.57,-66.11"/>
<text text-anchor="middle" x="173" y="-79" font-family="Helvetica,sans-Serif" font-size="10.00"> +node</text>
</g>
<!-- Node4 -->
<g id="node4" class="node">
<title>Node4</title>
<g id="a_node4"><a xlink:href="struct_tf_lite_delegate.html" target="_top" xlink:title=" ">
<polygon fill="none" stroke="black" points="61.5,-320.5 61.5,-432.5 202.5,-432.5 202.5,-320.5 61.5,-320.5"/>
<text text-anchor="middle" x="132" y="-420.5" font-family="Helvetica,sans-Serif" font-size="10.00">TfLiteDelegate</text>
<polyline fill="none" stroke="black" points="61.5,-413.5 202.5,-413.5 "/>
<text text-anchor="start" x="69.5" y="-401.5" font-family="Helvetica,sans-Serif" font-size="10.00">+ data_</text>
<text text-anchor="start" x="69.5" y="-390.5" font-family="Helvetica,sans-Serif" font-size="10.00">+ Prepare</text>
<text text-anchor="start" x="69.5" y="-379.5" font-family="Helvetica,sans-Serif" font-size="10.00">+ CopyFromBufferHandle</text>
<text text-anchor="start" x="69.5" y="-368.5" font-family="Helvetica,sans-Serif" font-size="10.00">+ CopyToBufferHandle</text>
<text text-anchor="start" x="69.5" y="-357.5" font-family="Helvetica,sans-Serif" font-size="10.00">+ FreeBufferHandle</text>
<text text-anchor="start" x="69.5" y="-346.5" font-family="Helvetica,sans-Serif" font-size="10.00">+ flags</text>
<polyline fill="none" stroke="black" points="61.5,-339.5 202.5,-339.5 "/>
<text text-anchor="middle" x="132" y="-327.5" font-family="Helvetica,sans-Serif" font-size="10.00"> </text>
</a>
</g>
</g>
<!-- Node4&#45;&gt;Node3 -->
<g id="edge3" class="edge">
<title>Node4&#45;&gt;Node3</title>
<path fill="none" stroke="#404040" d="M149.76,-320.3C158.27,-293.85 168.5,-262.07 177.26,-234.86"/>
<polygon fill="none" stroke="#404040" points="177.36,-234.53 175.39,-227.6 181.04,-223.11 183.01,-230.05 177.36,-234.53"/>
<text text-anchor="middle" x="196.5" y="-277.5" font-family="Helvetica,sans-Serif" font-size="10.00"> +delegate</text>
</g>
<!-- Node5 -->
<g id="node5" class="node">
<title>Node5</title>
<g id="a_node5"><a xlink:href="struct_tf_lite_int_array.html" target="_top" xlink:title=" ">
<polygon fill="none" stroke="black" points="220.5,-342.5 220.5,-410.5 303.5,-410.5 303.5,-342.5 220.5,-342.5"/>
<text text-anchor="middle" x="262" y="-398.5" font-family="Helvetica,sans-Serif" font-size="10.00">TfLiteIntArray</text>
<polyline fill="none" stroke="black" points="220.5,-391.5 303.5,-391.5 "/>
<text text-anchor="start" x="228.5" y="-379.5" font-family="Helvetica,sans-Serif" font-size="10.00">+ size</text>
<text text-anchor="start" x="228.5" y="-368.5" font-family="Helvetica,sans-Serif" font-size="10.00">+ data</text>
<polyline fill="none" stroke="black" points="220.5,-361.5 303.5,-361.5 "/>
<text text-anchor="middle" x="262" y="-349.5" font-family="Helvetica,sans-Serif" font-size="10.00"> </text>
</a>
</g>
</g>
<!-- Node5&#45;&gt;Node3 -->
<g id="edge4" class="edge">
<title>Node5&#45;&gt;Node3</title>
<path fill="none" stroke="#404040" d="M253.09,-342.39C246.56,-318.74 237.26,-286.25 228,-258 225.52,-250.42 222.79,-242.5 220.02,-234.68"/>
<polygon fill="none" stroke="#404040" points="220,-234.63 214.21,-230.34 215.94,-223.34 221.73,-227.64 220,-234.63"/>
<text text-anchor="middle" x="278.5" y="-294" font-family="Helvetica,sans-Serif" font-size="10.00"> +outputs</text>
<text text-anchor="middle" x="278.5" y="-283" font-family="Helvetica,sans-Serif" font-size="10.00">+inputs</text>
<text text-anchor="middle" x="278.5" y="-272" font-family="Helvetica,sans-Serif" font-size="10.00">+intermediates</text>
<text text-anchor="middle" x="278.5" y="-261" font-family="Helvetica,sans-Serif" font-size="10.00">+temporaries</text>
</g>
</g>
</svg>
