<?xml version="1.0" encoding="UTF-8" standalone="no"?>
<!DOCTYPE svg PUBLIC "-//W3C//DTD SVG 1.1//EN"
 "http://www.w3.org/Graphics/SVG/1.1/DTD/svg11.dtd">
<!-- Generated by graphviz version 2.43.0 (0)
 -->
<!-- Title: tflite::NdArrayDesc&lt; N &gt; Pages: 1 -->
<svg width="147pt" height="193pt"
 viewBox="0.00 0.00 147.00 193.00" xmlns="http://www.w3.org/2000/svg" xmlns:xlink="http://www.w3.org/1999/xlink">
<g id="graph0" class="graph" transform="scale(1 1) rotate(0) translate(4 189)">
<title>tflite::NdArrayDesc&lt; N &gt;</title>
<!-- Node1 -->
<g id="node1" class="node">
<title>Node1</title>
<g id="a_node1"><a xlink:title=" ">
<polygon fill="#bfbfbf" stroke="black" points="0,-116.5 0,-184.5 139,-184.5 139,-116.5 0,-116.5"/>
<text text-anchor="middle" x="69.5" y="-172.5" font-family="Helvetica,sans-Serif" font-size="10.00">tflite::NdArrayDesc&lt; N &gt;</text>
<polyline fill="none" stroke="black" points="0,-165.5 139,-165.5 "/>
<text text-anchor="start" x="8" y="-153.5" font-family="Helvetica,sans-Serif" font-size="10.00">+ extents</text>
<text text-anchor="start" x="8" y="-142.5" font-family="Helvetica,sans-Serif" font-size="10.00">+ strides</text>
<polyline fill="none" stroke="black" points="0,-135.5 139,-135.5 "/>
<text text-anchor="middle" x="69.5" y="-123.5" font-family="Helvetica,sans-Serif" font-size="10.00"> </text>
</a>
</g>
</g>
<!-- Node2 -->
<g id="node2" class="node">
<title>Node2</title>
<g id="a_node2"><a xlink:href="structtflite_1_1_nd_array_desc.html" target="_top" xlink:title=" ">
<polygon fill="none" stroke="black" points="1,-0.5 1,-68.5 138,-68.5 138,-0.5 1,-0.5"/>
<text text-anchor="middle" x="69.5" y="-56.5" font-family="Helvetica,sans-Serif" font-size="10.00">tflite::NdArrayDesc&lt; 4 &gt;</text>
<polyline fill="none" stroke="black" points="1,-49.5 138,-49.5 "/>
<text text-anchor="start" x="9" y="-37.5" font-family="Helvetica,sans-Serif" font-size="10.00">+ extents</text>
<text text-anchor="start" x="9" y="-26.5" font-family="Helvetica,sans-Serif" font-size="10.00">+ strides</text>
<polyline fill="none" stroke="black" points="1,-19.5 138,-19.5 "/>
<text text-anchor="middle" x="69.5" y="-7.5" font-family="Helvetica,sans-Serif" font-size="10.00"> </text>
</a>
</g>
</g>
<!-- Node1&#45;&gt;Node2 -->
<g id="edge1" class="edge">
<title>Node1&#45;&gt;Node2</title>
<path fill="none" stroke="orange" d="M69.5,-106.06C69.5,-93.64 69.5,-80.32 69.5,-68.62"/>
<polygon fill="orange" stroke="orange" points="66,-106.22 69.5,-116.22 73,-106.22 66,-106.22"/>
<text text-anchor="middle" x="85.5" y="-90" font-family="Helvetica,sans-Serif" font-size="10.00"> &lt; 4 &gt;</text>
</g>
</g>
</svg>
