<?xml version="1.0" encoding="UTF-8" standalone="no"?>
<!DOCTYPE svg PUBLIC "-//W3C//DTD SVG 1.1//EN"
 "http://www.w3.org/Graphics/SVG/1.1/DTD/svg11.dtd">
<!-- Generated by graphviz version 2.43.0 (0)
 -->
<!-- Title: TfLiteAffineQuantization Pages: 1 -->
<svg width="204pt" height="182pt"
 viewBox="0.00 0.00 204.00 182.00" xmlns="http://www.w3.org/2000/svg" xmlns:xlink="http://www.w3.org/1999/xlink">
<g id="graph0" class="graph" transform="scale(1 1) rotate(0) translate(4 178)">
<title>TfLiteAffineQuantization</title>
<!-- Node1 -->
<g id="node1" class="node">
<title>Node1</title>
<g id="a_node1"><a xlink:title=" ">
<polygon fill="#bfbfbf" stroke="black" points="27,-0.5 27,-57.5 162,-57.5 162,-0.5 27,-0.5"/>
<text text-anchor="middle" x="94.5" y="-45.5" font-family="Helvetica,sans-Serif" font-size="10.00">TfLiteAffineQuantization</text>
<polyline fill="none" stroke="black" points="27,-38.5 162,-38.5 "/>
<text text-anchor="start" x="35" y="-26.5" font-family="Helvetica,sans-Serif" font-size="10.00">+ quantized_dimension</text>
<polyline fill="none" stroke="black" points="27,-19.5 162,-19.5 "/>
<text text-anchor="middle" x="94.5" y="-7.5" font-family="Helvetica,sans-Serif" font-size="10.00"> </text>
</a>
</g>
</g>
<!-- Node2 -->
<g id="node2" class="node">
<title>Node2</title>
<g id="a_node2"><a xlink:href="struct_tf_lite_int_array.html" target="_top" xlink:title=" ">
<polygon fill="none" stroke="black" points="0,-105.5 0,-173.5 83,-173.5 83,-105.5 0,-105.5"/>
<text text-anchor="middle" x="41.5" y="-161.5" font-family="Helvetica,sans-Serif" font-size="10.00">TfLiteIntArray</text>
<polyline fill="none" stroke="black" points="0,-154.5 83,-154.5 "/>
<text text-anchor="start" x="8" y="-142.5" font-family="Helvetica,sans-Serif" font-size="10.00">+ size</text>
<text text-anchor="start" x="8" y="-131.5" font-family="Helvetica,sans-Serif" font-size="10.00">+ data</text>
<polyline fill="none" stroke="black" points="0,-124.5 83,-124.5 "/>
<text text-anchor="middle" x="41.5" y="-112.5" font-family="Helvetica,sans-Serif" font-size="10.00"> </text>
</a>
</g>
</g>
<!-- Node2&#45;&gt;Node1 -->
<g id="edge1" class="edge">
<title>Node2&#45;&gt;Node1</title>
<path fill="none" stroke="#404040" d="M51.39,-105.41C54.75,-95.72 58.85,-85.25 63.5,-76 64.86,-73.29 66.36,-70.55 67.94,-67.83"/>
<polygon fill="none" stroke="#404040" points="67.99,-67.74 67.75,-60.53 74.3,-57.53 74.55,-64.74 67.99,-67.74"/>
<text text-anchor="middle" x="95" y="-79" font-family="Helvetica,sans-Serif" font-size="10.00"> +zero_point</text>
</g>
<!-- Node3 -->
<g id="node3" class="node">
<title>Node3</title>
<g id="a_node3"><a xlink:href="struct_tf_lite_float_array.html" target="_top" xlink:title=" ">
<polygon fill="none" stroke="black" points="101,-105.5 101,-173.5 196,-173.5 196,-105.5 101,-105.5"/>
<text text-anchor="middle" x="148.5" y="-161.5" font-family="Helvetica,sans-Serif" font-size="10.00">TfLiteFloatArray</text>
<polyline fill="none" stroke="black" points="101,-154.5 196,-154.5 "/>
<text text-anchor="start" x="109" y="-142.5" font-family="Helvetica,sans-Serif" font-size="10.00">+ size</text>
<text text-anchor="start" x="109" y="-131.5" font-family="Helvetica,sans-Serif" font-size="10.00">+ data</text>
<polyline fill="none" stroke="black" points="101,-124.5 196,-124.5 "/>
<text text-anchor="middle" x="148.5" y="-112.5" font-family="Helvetica,sans-Serif" font-size="10.00"> </text>
</a>
</g>
</g>
<!-- Node3&#45;&gt;Node1 -->
<g id="edge2" class="edge">
<title>Node3&#45;&gt;Node1</title>
<path fill="none" stroke="#404040" d="M138.7,-105.37C135.34,-95.68 131.22,-85.22 126.5,-76 125.19,-73.44 123.76,-70.86 122.25,-68.3"/>
<polygon fill="none" stroke="#404040" points="122.13,-68.11 115.54,-65.17 115.72,-57.96 122.3,-60.9 122.13,-68.11"/>
<text text-anchor="middle" x="149" y="-79" font-family="Helvetica,sans-Serif" font-size="10.00"> +scale</text>
</g>
</g>
</svg>
