<?xml version="1.0" encoding="UTF-8" standalone="no"?>
<!DOCTYPE svg PUBLIC "-//W3C//DTD SVG 1.1//EN"
 "http://www.w3.org/Graphics/SVG/1.1/DTD/svg11.dtd">
<!-- Generated by graphviz version 2.43.0 (0)
 -->
<!-- Title: ConvProfile Pages: 1 -->
<svg width="624pt" height="342pt"
 viewBox="0.00 0.00 623.50 342.00" xmlns="http://www.w3.org/2000/svg" xmlns:xlink="http://www.w3.org/1999/xlink">
<g id="graph0" class="graph" transform="scale(1 1) rotate(0) translate(4 338)">
<title>ConvProfile</title>
<!-- Node1 -->
<g id="node1" class="node">
<title>Node1</title>
<g id="a_node1"><a xlink:title=" ">
<polygon fill="#bfbfbf" stroke="black" points="350,-0.5 350,-57.5 422,-57.5 422,-0.5 350,-0.5"/>
<text text-anchor="middle" x="386" y="-45.5" font-family="Helvetica,sans-Serif" font-size="10.00">ConvProfile</text>
<polyline fill="none" stroke="black" points="350,-38.5 422,-38.5 "/>
<text text-anchor="middle" x="386" y="-26.5" font-family="Helvetica,sans-Serif" font-size="10.00"> </text>
<polyline fill="none" stroke="black" points="350,-19.5 422,-19.5 "/>
<text text-anchor="middle" x="386" y="-7.5" font-family="Helvetica,sans-Serif" font-size="10.00"> </text>
</a>
</g>
</g>
<!-- Node2 -->
<g id="node2" class="node">
<title>Node2</title>
<g id="a_node2"><a xlink:href="struct_conv_parameters.html" target="_top" xlink:title=" ">
<polygon fill="none" stroke="black" points="272.5,-138.5 272.5,-206.5 385.5,-206.5 385.5,-138.5 272.5,-138.5"/>
<text text-anchor="middle" x="329" y="-194.5" font-family="Helvetica,sans-Serif" font-size="10.00">ConvParameters</text>
<polyline fill="none" stroke="black" points="272.5,-187.5 385.5,-187.5 "/>
<text text-anchor="start" x="280.5" y="-175.5" font-family="Helvetica,sans-Serif" font-size="10.00">+ depth_multiplier_</text>
<text text-anchor="start" x="280.5" y="-164.5" font-family="Helvetica,sans-Serif" font-size="10.00">+ type_</text>
<polyline fill="none" stroke="black" points="272.5,-157.5 385.5,-157.5 "/>
<text text-anchor="middle" x="329" y="-145.5" font-family="Helvetica,sans-Serif" font-size="10.00"> </text>
</a>
</g>
</g>
<!-- Node2&#45;&gt;Node1 -->
<g id="edge1" class="edge">
<title>Node2&#45;&gt;Node1</title>
<path fill="none" stroke="#404040" d="M331.54,-138.41C333.97,-119.42 338.72,-95.55 348,-76 349.32,-73.22 350.85,-70.46 352.52,-67.76"/>
<polygon fill="none" stroke="#404040" points="352.66,-67.55 352.8,-60.34 359.51,-57.69 359.37,-64.9 352.66,-67.55"/>
<text text-anchor="middle" x="384.5" y="-95.5" font-family="Helvetica,sans-Serif" font-size="10.00"> +parameters_</text>
</g>
<!-- Node3 -->
<g id="node3" class="node">
<title>Node3</title>
<g id="a_node3"><a xlink:href="struct_conv_qant_activation.html" target="_top" xlink:title=" ">
<polygon fill="none" stroke="black" points="0,-260 0,-328 114,-328 114,-260 0,-260"/>
<text text-anchor="middle" x="57" y="-316" font-family="Helvetica,sans-Serif" font-size="10.00">ConvQantActivation</text>
<polyline fill="none" stroke="black" points="0,-309 114,-309 "/>
<text text-anchor="start" x="8" y="-297" font-family="Helvetica,sans-Serif" font-size="10.00">+ max_</text>
<text text-anchor="start" x="8" y="-286" font-family="Helvetica,sans-Serif" font-size="10.00">+ min_</text>
<polyline fill="none" stroke="black" points="0,-279 114,-279 "/>
<text text-anchor="middle" x="57" y="-267" font-family="Helvetica,sans-Serif" font-size="10.00"> </text>
</a>
</g>
</g>
<!-- Node3&#45;&gt;Node2 -->
<g id="edge2" class="edge">
<title>Node3&#45;&gt;Node2</title>
<path fill="none" stroke="#404040" d="M78.42,-259.88C88.16,-247.24 100.72,-233.76 115,-225 158.91,-198.05 215.93,-185.21 260.07,-179.08"/>
<polygon fill="none" stroke="#404040" points="260.25,-179.06 265.69,-174.32 272.15,-177.53 266.71,-182.26 260.25,-179.06"/>
<text text-anchor="middle" x="174.5" y="-228" font-family="Helvetica,sans-Serif" font-size="10.00"> +quantized_activation_</text>
</g>
<!-- Node4 -->
<g id="node4" class="node">
<title>Node4</title>
<g id="a_node4"><a xlink:href="struct_conv_offset.html" target="_top" xlink:title=" ">
<polygon fill="none" stroke="black" points="150.5,-254.5 150.5,-333.5 221.5,-333.5 221.5,-254.5 150.5,-254.5"/>
<text text-anchor="middle" x="186" y="-321.5" font-family="Helvetica,sans-Serif" font-size="10.00">ConvOffset</text>
<polyline fill="none" stroke="black" points="150.5,-314.5 221.5,-314.5 "/>
<text text-anchor="start" x="158.5" y="-302.5" font-family="Helvetica,sans-Serif" font-size="10.00">+ input_</text>
<text text-anchor="start" x="158.5" y="-291.5" font-family="Helvetica,sans-Serif" font-size="10.00">+ filter_</text>
<text text-anchor="start" x="158.5" y="-280.5" font-family="Helvetica,sans-Serif" font-size="10.00">+ output_</text>
<polyline fill="none" stroke="black" points="150.5,-273.5 221.5,-273.5 "/>
<text text-anchor="middle" x="186" y="-261.5" font-family="Helvetica,sans-Serif" font-size="10.00"> </text>
</a>
</g>
</g>
<!-- Node4&#45;&gt;Node2 -->
<g id="edge3" class="edge">
<title>Node4&#45;&gt;Node2</title>
<path fill="none" stroke="#404040" d="M218.74,-254.28C228.05,-244.24 238.52,-233.79 249,-225 253.63,-221.12 258.57,-217.3 263.63,-213.6"/>
<polygon fill="none" stroke="#404040" points="263.68,-213.56 266.27,-206.83 273.48,-206.64 270.88,-213.37 263.68,-213.56"/>
<text text-anchor="middle" x="271.5" y="-228" font-family="Helvetica,sans-Serif" font-size="10.00"> +offset_</text>
</g>
<!-- Node5 -->
<g id="node5" class="node">
<title>Node5</title>
<g id="a_node5"><a xlink:href="struct_conv_dilation.html" target="_top" xlink:title=" ">
<polygon fill="none" stroke="black" points="240,-260 240,-328 320,-328 320,-260 240,-260"/>
<text text-anchor="middle" x="280" y="-316" font-family="Helvetica,sans-Serif" font-size="10.00">ConvDilation</text>
<polyline fill="none" stroke="black" points="240,-309 320,-309 "/>
<text text-anchor="start" x="248" y="-297" font-family="Helvetica,sans-Serif" font-size="10.00">+ height_</text>
<text text-anchor="start" x="248" y="-286" font-family="Helvetica,sans-Serif" font-size="10.00">+ width_</text>
<polyline fill="none" stroke="black" points="240,-279 320,-279 "/>
<text text-anchor="middle" x="280" y="-267" font-family="Helvetica,sans-Serif" font-size="10.00"> </text>
</a>
</g>
</g>
<!-- Node5&#45;&gt;Node2 -->
<g id="edge4" class="edge">
<title>Node5&#45;&gt;Node2</title>
<path fill="none" stroke="#404040" d="M289.52,-259.73C293.05,-248.55 297.34,-236.1 302,-225 303.03,-222.54 304.14,-220.04 305.3,-217.54"/>
<polygon fill="none" stroke="#404040" points="305.35,-217.42 304.37,-210.28 310.58,-206.62 311.57,-213.77 305.35,-217.42"/>
<text text-anchor="middle" x="329" y="-228" font-family="Helvetica,sans-Serif" font-size="10.00"> +dilation_</text>
</g>
<!-- Node6 -->
<g id="node6" class="node">
<title>Node6</title>
<g id="a_node6"><a xlink:href="struct_conv_padding.html" target="_top" xlink:title=" ">
<polygon fill="none" stroke="black" points="338,-260 338,-328 418,-328 418,-260 338,-260"/>
<text text-anchor="middle" x="378" y="-316" font-family="Helvetica,sans-Serif" font-size="10.00">ConvPadding</text>
<polyline fill="none" stroke="black" points="338,-309 418,-309 "/>
<text text-anchor="start" x="346" y="-297" font-family="Helvetica,sans-Serif" font-size="10.00">+ height_</text>
<text text-anchor="start" x="346" y="-286" font-family="Helvetica,sans-Serif" font-size="10.00">+ width_</text>
<polyline fill="none" stroke="black" points="338,-279 418,-279 "/>
<text text-anchor="middle" x="378" y="-267" font-family="Helvetica,sans-Serif" font-size="10.00"> </text>
</a>
</g>
</g>
<!-- Node6&#45;&gt;Node2 -->
<g id="edge5" class="edge">
<title>Node6&#45;&gt;Node2</title>
<path fill="none" stroke="#404040" d="M368.48,-259.73C364.95,-248.55 360.66,-236.1 356,-225 354.97,-222.54 353.86,-220.04 352.7,-217.54"/>
<polygon fill="none" stroke="#404040" points="352.65,-217.42 346.43,-213.77 347.42,-206.62 353.63,-210.28 352.65,-217.42"/>
<text text-anchor="middle" x="388" y="-228" font-family="Helvetica,sans-Serif" font-size="10.00"> +padding_</text>
</g>
<!-- Node7 -->
<g id="node7" class="node">
<title>Node7</title>
<g id="a_node7"><a xlink:href="struct_conv_stride.html" target="_top" xlink:title=" ">
<polygon fill="none" stroke="black" points="436,-260 436,-328 506,-328 506,-260 436,-260"/>
<text text-anchor="middle" x="471" y="-316" font-family="Helvetica,sans-Serif" font-size="10.00">ConvStride</text>
<polyline fill="none" stroke="black" points="436,-309 506,-309 "/>
<text text-anchor="start" x="444" y="-297" font-family="Helvetica,sans-Serif" font-size="10.00">+ height_</text>
<text text-anchor="start" x="444" y="-286" font-family="Helvetica,sans-Serif" font-size="10.00">+ width_</text>
<polyline fill="none" stroke="black" points="436,-279 506,-279 "/>
<text text-anchor="middle" x="471" y="-267" font-family="Helvetica,sans-Serif" font-size="10.00"> </text>
</a>
</g>
</g>
<!-- Node7&#45;&gt;Node2 -->
<g id="edge6" class="edge">
<title>Node7&#45;&gt;Node2</title>
<path fill="none" stroke="#404040" d="M450.36,-259.92C441.9,-248 431.42,-235.04 420,-225 415.35,-220.91 406.71,-215.34 396.54,-209.37"/>
<polygon fill="none" stroke="#404040" points="396.36,-209.27 389.17,-209.76 385.95,-203.31 393.14,-202.82 396.36,-209.27"/>
<text text-anchor="middle" x="451.5" y="-228" font-family="Helvetica,sans-Serif" font-size="10.00"> +stride_</text>
</g>
<!-- Node8 -->
<g id="node8" class="node">
<title>Node8</title>
<g id="a_node8"><a xlink:href="struct_conv_activation.html" target="_top" xlink:title=" ">
<polygon fill="none" stroke="black" points="524.5,-260 524.5,-328 615.5,-328 615.5,-260 524.5,-260"/>
<text text-anchor="middle" x="570" y="-316" font-family="Helvetica,sans-Serif" font-size="10.00">ConvActivation</text>
<polyline fill="none" stroke="black" points="524.5,-309 615.5,-309 "/>
<text text-anchor="start" x="532.5" y="-297" font-family="Helvetica,sans-Serif" font-size="10.00">+ max_</text>
<text text-anchor="start" x="532.5" y="-286" font-family="Helvetica,sans-Serif" font-size="10.00">+ min_</text>
<polyline fill="none" stroke="black" points="524.5,-279 615.5,-279 "/>
<text text-anchor="middle" x="570" y="-267" font-family="Helvetica,sans-Serif" font-size="10.00"> </text>
</a>
</g>
</g>
<!-- Node8&#45;&gt;Node2 -->
<g id="edge7" class="edge">
<title>Node8&#45;&gt;Node2</title>
<path fill="none" stroke="#404040" d="M532.9,-259.97C516.97,-247.33 497.54,-233.85 478,-225 446.84,-210.89 433.2,-217.96 397.63,-207.37"/>
<polygon fill="none" stroke="#404040" points="397.24,-207.24 390.28,-209.16 385.84,-203.48 392.79,-201.56 397.24,-207.24"/>
<text text-anchor="middle" x="530" y="-228" font-family="Helvetica,sans-Serif" font-size="10.00"> +activation_</text>
</g>
<!-- Node9 -->
<g id="node9" class="node">
<title>Node9</title>
<g id="a_node9"><a xlink:href="struct_tensor_shape.html" target="_top" xlink:title=" ">
<polygon fill="none" stroke="black" points="404,-144 404,-201 482,-201 482,-144 404,-144"/>
<text text-anchor="middle" x="443" y="-189" font-family="Helvetica,sans-Serif" font-size="10.00">TensorShape</text>
<polyline fill="none" stroke="black" points="404,-182 482,-182 "/>
<text text-anchor="start" x="412" y="-170" font-family="Helvetica,sans-Serif" font-size="10.00">+ dims_</text>
<polyline fill="none" stroke="black" points="404,-163 482,-163 "/>
<text text-anchor="middle" x="443" y="-151" font-family="Helvetica,sans-Serif" font-size="10.00"> </text>
</a>
</g>
</g>
<!-- Node9&#45;&gt;Node1 -->
<g id="edge8" class="edge">
<title>Node9&#45;&gt;Node1</title>
<path fill="none" stroke="#404040" d="M439.77,-143.73C436.74,-124.11 431.11,-97.57 421,-76 419.71,-73.26 418.24,-70.52 416.65,-67.83"/>
<polygon fill="none" stroke="#404040" points="416.62,-67.78 409.98,-64.95 410.04,-57.74 416.67,-60.56 416.62,-67.78"/>
<text text-anchor="middle" x="476.5" y="-112" font-family="Helvetica,sans-Serif" font-size="10.00"> +output_shape_</text>
<text text-anchor="middle" x="476.5" y="-101" font-family="Helvetica,sans-Serif" font-size="10.00">+bias_shape_</text>
<text text-anchor="middle" x="476.5" y="-90" font-family="Helvetica,sans-Serif" font-size="10.00">+filter_shape_</text>
<text text-anchor="middle" x="476.5" y="-79" font-family="Helvetica,sans-Serif" font-size="10.00">+input_shape_</text>
</g>
</g>
</svg>
