<?xml version="1.0" encoding="UTF-8" standalone="no"?>
<!DOCTYPE svg PUBLIC "-//W3C//DTD SVG 1.1//EN"
 "http://www.w3.org/Graphics/SVG/1.1/DTD/svg11.dtd">
<!-- Generated by graphviz version 2.43.0 (0)
 -->
<!-- Title: flatbuffers::internal::nullopt_holder&lt; class &gt; Pages: 1 -->
<svg width="148pt" height="193pt"
 viewBox="0.00 0.00 148.00 193.00" xmlns="http://www.w3.org/2000/svg" xmlns:xlink="http://www.w3.org/1999/xlink">
<g id="graph0" class="graph" transform="scale(1 1) rotate(0) translate(4 189)">
<title>flatbuffers::internal::nullopt_holder&lt; class &gt;</title>
<!-- Node1 -->
<g id="node1" class="node">
<title>Node1</title>
<g id="a_node1"><a xlink:title=" ">
<polygon fill="#bfbfbf" stroke="black" points="0,-0.5 0,-68.5 140,-68.5 140,-0.5 0,-0.5"/>
<text text-anchor="start" x="8" y="-56.5" font-family="Helvetica,sans-Serif" font-size="10.00">flatbuffers::internal</text>
<text text-anchor="middle" x="70" y="-45.5" font-family="Helvetica,sans-Serif" font-size="10.00">::nullopt_holder&lt; class &gt;</text>
<polyline fill="none" stroke="black" points="0,-38.5 140,-38.5 "/>
<text text-anchor="middle" x="70" y="-26.5" font-family="Helvetica,sans-Serif" font-size="10.00"> </text>
<polyline fill="none" stroke="black" points="0,-19.5 140,-19.5 "/>
<text text-anchor="middle" x="70" y="-7.5" font-family="Helvetica,sans-Serif" font-size="10.00"> </text>
</a>
</g>
</g>
<!-- Node2 -->
<g id="node2" class="node">
<title>Node2</title>
<g id="a_node2"><a xlink:href="structflatbuffers_1_1nullopt__t.html" target="_top" xlink:title=" ">
<polygon fill="none" stroke="black" points="12.5,-116.5 12.5,-184.5 127.5,-184.5 127.5,-116.5 12.5,-116.5"/>
<text text-anchor="middle" x="70" y="-172.5" font-family="Helvetica,sans-Serif" font-size="10.00">flatbuffers::nullopt_t</text>
<polyline fill="none" stroke="black" points="12.5,-165.5 127.5,-165.5 "/>
<text text-anchor="middle" x="70" y="-153.5" font-family="Helvetica,sans-Serif" font-size="10.00"> </text>
<polyline fill="none" stroke="black" points="12.5,-146.5 127.5,-146.5 "/>
<text text-anchor="start" x="20.5" y="-134.5" font-family="Helvetica,sans-Serif" font-size="10.00">+ nullopt_t()</text>
<text text-anchor="start" x="20.5" y="-123.5" font-family="Helvetica,sans-Serif" font-size="10.00">+ nullopt_t()</text>
</a>
</g>
</g>
<!-- Node2&#45;&gt;Node1 -->
<g id="edge1" class="edge">
<title>Node2&#45;&gt;Node1</title>
<path fill="none" stroke="#404040" d="M70,-116.22C70,-105.1 70,-92.51 70,-80.64"/>
<polygon fill="none" stroke="#404040" points="70,-80.62 66,-74.62 70,-68.62 74,-74.62 70,-80.62"/>
<text text-anchor="middle" x="99" y="-90" font-family="Helvetica,sans-Serif" font-size="10.00"> +instance_</text>
</g>
</g>
</svg>
