<?xml version="1.0" encoding="UTF-8" standalone="no"?>
<!DOCTYPE svg PUBLIC "-//W3C//DTD SVG 1.1//EN"
 "http://www.w3.org/Graphics/SVG/1.1/DTD/svg11.dtd">
<!-- Generated by graphviz version 2.43.0 (0)
 -->
<!-- Title: TensorProcessor::ProcessorArray Pages: 1 -->
<!--zoomable 898 -->
<svg id="main" version="1.1" xmlns="http://www.w3.org/2000/svg" xmlns:xlink="http://www.w3.org/1999/xlink" xml:space="preserve" onload="init(evt)">
<style type="text/css"><![CDATA[
.edge:hover path { stroke: red; }
.edge:hover polygon { stroke: red; fill: red; }
]]></style>
<script type="text/javascript"><![CDATA[
var edges = document.getElementsByTagName('g');
if (edges && edges.length) {
  for (var i=0;i<edges.length;i++) {
    if (edges[i].id.substr(0,4)=='edge') {
      edges[i].setAttribute('class','edge');
    }
  }
}
]]></script>
        <defs>
                <circle id="rim" cx="0" cy="0" r="7"/>
                <circle id="rim2" cx="0" cy="0" r="3.5"/>
                <g id="zoomPlus">
                        <use xlink:href="#rim" fill="#404040">
                                <set attributeName="fill" to="#808080" begin="zoomplus.mouseover" end="zoomplus.mouseout"/>
                        </use>
                        <path d="M-4,0h8M0,-4v8" fill="none" stroke="white" stroke-width="1.5" pointer-events="none"/>
                </g>
                <g id="zoomMin">
                        <use xlink:href="#rim" fill="#404040">
                                <set attributeName="fill" to="#808080" begin="zoomminus.mouseover" end="zoomminus.mouseout"/>
                        </use>
                        <path d="M-4,0h8" fill="none" stroke="white" stroke-width="1.5" pointer-events="none"/>
                </g>
                <g id="dirArrow">
                        <path fill="none" stroke="white" stroke-width="1.5" d="M0,-3.0v7 M-2.5,-0.5L0,-3.0L2.5,-0.5"/>
                </g>
               <g id="resetDef">
                       <use xlink:href="#rim2" fill="#404040">
                               <set attributeName="fill" to="#808080" begin="reset.mouseover" end="reset.mouseout"/>
                       </use>
               </g>
        </defs>

<script type="text/javascript">
var viewWidth = 689;
var viewHeight = 898;
var sectionId = 'dynsection-0';
</script>
<script xlink:href="svgpan.js"/>
<svg id="graph" class="graph">
<g id="viewport">
<title>TensorProcessor::ProcessorArray</title>
<!-- Node1 -->
<g id="node1" class="node">
<title>Node1</title>
<g id="a_node1"><a xlink:title=" ">
<polygon fill="#bfbfbf" stroke="black" points="0,-353 0,-421 149,-421 149,-353 0,-353"/>
<text text-anchor="start" x="8" y="-409" font-family="Helvetica,sans-Serif" font-size="10.00">TensorProcessor::Processor</text>
<text text-anchor="middle" x="74.5" y="-398" font-family="Helvetica,sans-Serif" font-size="10.00">Array</text>
<polyline fill="none" stroke="black" points="0,-391 149,-391 "/>
<text text-anchor="start" x="8" y="-379" font-family="Helvetica,sans-Serif" font-size="10.00">+ len</text>
<polyline fill="none" stroke="black" points="0,-372 149,-372 "/>
<text text-anchor="middle" x="74.5" y="-360" font-family="Helvetica,sans-Serif" font-size="10.00"> </text>
</a>
</g>
</g>
<!-- Node2 -->
<g id="node2" class="node">
<title>Node2</title>
<g id="a_node2"><a xlink:href="class_tensor_processor.html" target="_top" xlink:title=" ">
<polygon fill="none" stroke="black" points="149.5,-0.5 149.5,-255.5 283.5,-255.5 283.5,-0.5 149.5,-0.5"/>
<text text-anchor="middle" x="216.5" y="-243.5" font-family="Helvetica,sans-Serif" font-size="10.00">TensorProcessor</text>
<polyline fill="none" stroke="black" points="149.5,-236.5 283.5,-236.5 "/>
<text text-anchor="start" x="157.5" y="-224.5" font-family="Helvetica,sans-Serif" font-size="10.00"># status_</text>
<polyline fill="none" stroke="black" points="149.5,-217.5 283.5,-217.5 "/>
<text text-anchor="start" x="157.5" y="-205.5" font-family="Helvetica,sans-Serif" font-size="10.00">+ TensorProcessor()</text>
<text text-anchor="start" x="157.5" y="-194.5" font-family="Helvetica,sans-Serif" font-size="10.00">+ ~TensorProcessor()</text>
<text text-anchor="start" x="157.5" y="-183.5" font-family="Helvetica,sans-Serif" font-size="10.00">+ initialize()</text>
<text text-anchor="start" x="157.5" y="-172.5" font-family="Helvetica,sans-Serif" font-size="10.00">+ createTask()</text>
<text text-anchor="start" x="157.5" y="-161.5" font-family="Helvetica,sans-Serif" font-size="10.00">+ createTask()</text>
<text text-anchor="start" x="157.5" y="-150.5" font-family="Helvetica,sans-Serif" font-size="10.00">+ createTask()</text>
<text text-anchor="start" x="157.5" y="-139.5" font-family="Helvetica,sans-Serif" font-size="10.00">+ createTask()</text>
<text text-anchor="start" x="157.5" y="-128.5" font-family="Helvetica,sans-Serif" font-size="10.00">+ execute()</text>
<text text-anchor="start" x="157.5" y="-117.5" font-family="Helvetica,sans-Serif" font-size="10.00">+ getStatus()</text>
<text text-anchor="start" x="157.5" y="-106.5" font-family="Helvetica,sans-Serif" font-size="10.00">+ setExecutionFlags()</text>
<text text-anchor="start" x="157.5" y="-95.5" font-family="Helvetica,sans-Serif" font-size="10.00">+ getExecutionFlags()</text>
<text text-anchor="start" x="157.5" y="-84.5" font-family="Helvetica,sans-Serif" font-size="10.00">+ isValid()</text>
<text text-anchor="start" x="157.5" y="-73.5" font-family="Helvetica,sans-Serif" font-size="10.00">+ instatiateProcessors()</text>
<text text-anchor="start" x="157.5" y="-62.5" font-family="Helvetica,sans-Serif" font-size="10.00">+ getSingletonTPArray()</text>
<text text-anchor="start" x="157.5" y="-51.5" font-family="Helvetica,sans-Serif" font-size="10.00"># createTask()</text>
<text text-anchor="start" x="157.5" y="-40.5" font-family="Helvetica,sans-Serif" font-size="10.00"># createTask()</text>
<text text-anchor="start" x="157.5" y="-29.5" font-family="Helvetica,sans-Serif" font-size="10.00"># onDone_ip()</text>
<text text-anchor="start" x="157.5" y="-18.5" font-family="Helvetica,sans-Serif" font-size="10.00"># onDone_dmaTx()</text>
<text text-anchor="start" x="157.5" y="-7.5" font-family="Helvetica,sans-Serif" font-size="10.00"># onDone_dmaRx()</text>
</a>
</g>
</g>
<!-- Node1&#45;&gt;Node2 -->
<g id="edge8" class="edge">
<title>Node1&#45;&gt;Node2</title>
<path fill="none" stroke="#404040" d="M61.58,-352.85C54.68,-329.84 49.62,-298.97 60.5,-274 77.1,-235.91 109.19,-203.32 139.96,-178.74"/>
<polygon fill="none" stroke="#404040" points="139.98,-178.73 142.26,-171.89 149.45,-171.37 147.17,-178.21 139.98,-178.73"/>
<text text-anchor="middle" x="114.5" y="-277" font-family="Helvetica,sans-Serif" font-size="10.00"> #singleton_tp_array_</text>
</g>
<!-- Node2&#45;&gt;Node1 -->
<g id="edge1" class="edge">
<title>Node2&#45;&gt;Node1</title>
<path fill="none" stroke="#404040" d="M186.73,-255.55C182.56,-265.78 177.84,-275.73 172.5,-285 159.93,-306.81 141.61,-327.43 124.19,-344.28"/>
<polygon fill="none" stroke="#404040" points="123.95,-344.51 122.32,-351.54 115.2,-352.73 116.83,-345.71 123.95,-344.51"/>
<text text-anchor="middle" x="188.5" y="-277" font-family="Helvetica,sans-Serif" font-size="10.00"> +tp</text>
</g>
<!-- Node3 -->
<g id="node3" class="node">
<title>Node3</title>
<g id="a_node3"><a xlink:href="class_processing_unit.html" target="_top" xlink:title=" ">
<polygon fill="none" stroke="black" points="313,-303.5 313,-470.5 446,-470.5 446,-303.5 313,-303.5"/>
<text text-anchor="middle" x="379.5" y="-458.5" font-family="Helvetica,sans-Serif" font-size="10.00">ProcessingUnit</text>
<polyline fill="none" stroke="black" points="313,-451.5 446,-451.5 "/>
<text text-anchor="middle" x="379.5" y="-439.5" font-family="Helvetica,sans-Serif" font-size="10.00"> </text>
<polyline fill="none" stroke="black" points="313,-432.5 446,-432.5 "/>
<text text-anchor="start" x="321" y="-420.5" font-family="Helvetica,sans-Serif" font-size="10.00">+ ProcessingUnit()</text>
<text text-anchor="start" x="321" y="-409.5" font-family="Helvetica,sans-Serif" font-size="10.00">+ ~ProcessingUnit()</text>
<text text-anchor="start" x="321" y="-398.5" font-family="Helvetica,sans-Serif" font-size="10.00">+ initialize()</text>
<text text-anchor="start" x="321" y="-387.5" font-family="Helvetica,sans-Serif" font-size="10.00">+ execute()</text>
<text text-anchor="start" x="321" y="-376.5" font-family="Helvetica,sans-Serif" font-size="10.00">+ setTransactionFlags()</text>
<text text-anchor="start" x="321" y="-365.5" font-family="Helvetica,sans-Serif" font-size="10.00">+ getTransactionFlags()</text>
<text text-anchor="start" x="321" y="-354.5" font-family="Helvetica,sans-Serif" font-size="10.00"># initialize_ip()</text>
<text text-anchor="start" x="321" y="-343.5" font-family="Helvetica,sans-Serif" font-size="10.00"># initialize_dma()</text>
<text text-anchor="start" x="321" y="-332.5" font-family="Helvetica,sans-Serif" font-size="10.00"># onDone_ip()</text>
<text text-anchor="start" x="321" y="-321.5" font-family="Helvetica,sans-Serif" font-size="10.00"># onDone_dmaTx()</text>
<text text-anchor="start" x="321" y="-310.5" font-family="Helvetica,sans-Serif" font-size="10.00"># onDone_dmaRx()</text>
</a>
</g>
</g>
<!-- Node3&#45;&gt;Node2 -->
<g id="edge2" class="edge">
<title>Node3&#45;&gt;Node2</title>
<path fill="none" stroke="darkgreen" d="M322.46,-294.54C318.08,-287.58 313.73,-280.67 309.5,-274 301.18,-260.86 292.4,-247.08 283.7,-233.45"/>
<polygon fill="none" stroke="darkgreen" points="319.72,-296.75 328,-303.36 325.64,-293.03 319.72,-296.75"/>
</g>
<!-- Node4 -->
<g id="node4" class="node">
<title>Node4</title>
<g id="a_node4"><a xlink:href="struct_processing_unit_1_1_transaction.html" target="_top" xlink:title=" ">
<polygon fill="none" stroke="black" points="259,-540.5 259,-652.5 410,-652.5 410,-540.5 259,-540.5"/>
<text text-anchor="middle" x="334.5" y="-640.5" font-family="Helvetica,sans-Serif" font-size="10.00">ProcessingUnit::Transaction</text>
<polyline fill="none" stroke="black" points="259,-633.5 410,-633.5 "/>
<text text-anchor="start" x="267" y="-621.5" font-family="Helvetica,sans-Serif" font-size="10.00">+ mode</text>
<text text-anchor="start" x="267" y="-610.5" font-family="Helvetica,sans-Serif" font-size="10.00">+ flags</text>
<text text-anchor="start" x="267" y="-599.5" font-family="Helvetica,sans-Serif" font-size="10.00">+ txBufferPtr</text>
<text text-anchor="start" x="267" y="-588.5" font-family="Helvetica,sans-Serif" font-size="10.00">+ txBufferSize</text>
<text text-anchor="start" x="267" y="-577.5" font-family="Helvetica,sans-Serif" font-size="10.00">+ rxBufferPtr</text>
<text text-anchor="start" x="267" y="-566.5" font-family="Helvetica,sans-Serif" font-size="10.00">+ rxBufferSize</text>
<polyline fill="none" stroke="black" points="259,-559.5 410,-559.5 "/>
<text text-anchor="middle" x="334.5" y="-547.5" font-family="Helvetica,sans-Serif" font-size="10.00"> </text>
</a>
</g>
</g>
<!-- Node4&#45;&gt;Node3 -->
<g id="edge3" class="edge">
<title>Node4&#45;&gt;Node3</title>
<path fill="none" stroke="#404040" d="M346.44,-540.44C350.3,-522.66 354.69,-502.41 358.98,-482.61"/>
<polygon fill="none" stroke="#404040" points="359.02,-482.42 356.39,-475.71 361.57,-470.69 364.2,-477.4 359.02,-482.42"/>
<text text-anchor="middle" x="393.5" y="-497.5" font-family="Helvetica,sans-Serif" font-size="10.00"> #transaction_</text>
</g>
<!-- Node9 -->
<g id="node9" class="node">
<title>Node9</title>
<g id="a_node9"><a xlink:href="struct_tensor_processor_1_1_task.html" target="_top" xlink:title=" ">
<polygon fill="none" stroke="black" points="172,-358.5 172,-415.5 295,-415.5 295,-358.5 172,-358.5"/>
<text text-anchor="middle" x="233.5" y="-403.5" font-family="Helvetica,sans-Serif" font-size="10.00">TensorProcessor::Task</text>
<polyline fill="none" stroke="black" points="172,-396.5 295,-396.5 "/>
<text text-anchor="middle" x="233.5" y="-384.5" font-family="Helvetica,sans-Serif" font-size="10.00"> </text>
<polyline fill="none" stroke="black" points="172,-377.5 295,-377.5 "/>
<text text-anchor="middle" x="233.5" y="-365.5" font-family="Helvetica,sans-Serif" font-size="10.00"> </text>
</a>
</g>
</g>
<!-- Node4&#45;&gt;Node9 -->
<g id="edge10" class="edge">
<title>Node4&#45;&gt;Node9</title>
<path fill="none" stroke="#404040" d="M307.7,-540.44C290.26,-504.62 267.95,-458.78 252.37,-426.76"/>
<polygon fill="none" stroke="#404040" points="252.2,-426.43 245.98,-422.78 246.95,-415.64 253.17,-419.28 252.2,-426.43"/>
<text text-anchor="middle" x="321" y="-503" font-family="Helvetica,sans-Serif" font-size="10.00"> +compute</text>
<text text-anchor="middle" x="321" y="-492" font-family="Helvetica,sans-Serif" font-size="10.00">+setup</text>
</g>
<!-- Node5 -->
<g id="node5" class="node">
<title>Node5</title>
<g id="a_node5"><a xlink:href="struct_processing_unit_1_1_profile.html" target="_top" xlink:title=" ">
<polygon fill="none" stroke="black" points="428.5,-529.5 428.5,-663.5 554.5,-663.5 554.5,-529.5 428.5,-529.5"/>
<text text-anchor="middle" x="491.5" y="-651.5" font-family="Helvetica,sans-Serif" font-size="10.00">ProcessingUnit::Profile</text>
<polyline fill="none" stroke="black" points="428.5,-644.5 554.5,-644.5 "/>
<text text-anchor="start" x="436.5" y="-632.5" font-family="Helvetica,sans-Serif" font-size="10.00">+ hwInstance</text>
<text text-anchor="start" x="436.5" y="-621.5" font-family="Helvetica,sans-Serif" font-size="10.00">+ dmaInstance</text>
<text text-anchor="start" x="436.5" y="-610.5" font-family="Helvetica,sans-Serif" font-size="10.00">+ hwDeviceID</text>
<text text-anchor="start" x="436.5" y="-599.5" font-family="Helvetica,sans-Serif" font-size="10.00">+ dmaDeviceID</text>
<text text-anchor="start" x="436.5" y="-588.5" font-family="Helvetica,sans-Serif" font-size="10.00">+ hwIntVecID</text>
<text text-anchor="start" x="436.5" y="-577.5" font-family="Helvetica,sans-Serif" font-size="10.00">+ dmaTxIntVecID</text>
<text text-anchor="start" x="436.5" y="-566.5" font-family="Helvetica,sans-Serif" font-size="10.00">+ dmaRxIntVecID</text>
<text text-anchor="start" x="436.5" y="-555.5" font-family="Helvetica,sans-Serif" font-size="10.00">+ channelSize</text>
<polyline fill="none" stroke="black" points="428.5,-548.5 554.5,-548.5 "/>
<text text-anchor="middle" x="491.5" y="-536.5" font-family="Helvetica,sans-Serif" font-size="10.00"> </text>
</a>
</g>
</g>
<!-- Node5&#45;&gt;Node3 -->
<g id="edge4" class="edge">
<title>Node5&#45;&gt;Node3</title>
<path fill="none" stroke="#404040" d="M455.75,-529.28C447.51,-514 438.59,-497.47 429.85,-481.28"/>
<polygon fill="none" stroke="#404040" points="429.85,-481.27 423.48,-477.89 424.15,-470.71 430.52,-474.09 429.85,-481.27"/>
<text text-anchor="middle" x="470.5" y="-497.5" font-family="Helvetica,sans-Serif" font-size="10.00"> #profile_</text>
</g>
<!-- Node6 -->
<g id="node6" class="node">
<title>Node6</title>
<g id="a_node6"><a xlink:href="struct_d_m_a_hardware_vtbl.html" target="_top" xlink:title=" ">
<polygon fill="none" stroke="black" points="554.5,-711.5 554.5,-889.5 680.5,-889.5 680.5,-711.5 554.5,-711.5"/>
<text text-anchor="middle" x="617.5" y="-877.5" font-family="Helvetica,sans-Serif" font-size="10.00">DMAHardwareVtbl</text>
<polyline fill="none" stroke="black" points="554.5,-870.5 680.5,-870.5 "/>
<text text-anchor="start" x="562.5" y="-858.5" font-family="Helvetica,sans-Serif" font-size="10.00">+ new_</text>
<text text-anchor="start" x="562.5" y="-847.5" font-family="Helvetica,sans-Serif" font-size="10.00">+ delete_</text>
<text text-anchor="start" x="562.5" y="-836.5" font-family="Helvetica,sans-Serif" font-size="10.00">+ Initialize</text>
<text text-anchor="start" x="562.5" y="-825.5" font-family="Helvetica,sans-Serif" font-size="10.00">+ Move</text>
<text text-anchor="start" x="562.5" y="-814.5" font-family="Helvetica,sans-Serif" font-size="10.00">+ InterruptEnable</text>
<text text-anchor="start" x="562.5" y="-803.5" font-family="Helvetica,sans-Serif" font-size="10.00">+ InterruptDisable</text>
<text text-anchor="start" x="562.5" y="-792.5" font-family="Helvetica,sans-Serif" font-size="10.00">+ InterruptClear</text>
<text text-anchor="start" x="562.5" y="-781.5" font-family="Helvetica,sans-Serif" font-size="10.00">+ InterruptGetEnabled</text>
<text text-anchor="start" x="562.5" y="-770.5" font-family="Helvetica,sans-Serif" font-size="10.00">+ InterruptGetStatus</text>
<text text-anchor="start" x="562.5" y="-759.5" font-family="Helvetica,sans-Serif" font-size="10.00">+ Reset</text>
<text text-anchor="start" x="562.5" y="-748.5" font-family="Helvetica,sans-Serif" font-size="10.00">+ ResetIsDone</text>
<text text-anchor="start" x="562.5" y="-737.5" font-family="Helvetica,sans-Serif" font-size="10.00">+ InterruptSetHandler</text>
<polyline fill="none" stroke="black" points="554.5,-730.5 680.5,-730.5 "/>
<text text-anchor="middle" x="617.5" y="-718.5" font-family="Helvetica,sans-Serif" font-size="10.00"> </text>
</a>
</g>
</g>
<!-- Node6&#45;&gt;Node5 -->
<g id="edge5" class="edge">
<title>Node6&#45;&gt;Node5</title>
<path fill="none" stroke="#404040" d="M565.59,-711.32C559.56,-701.39 553.44,-691.45 547.5,-682 545.86,-679.39 544.18,-676.75 542.48,-674.08"/>
<polygon fill="none" stroke="#404040" points="542.31,-673.82 535.7,-670.94 535.82,-663.73 542.43,-666.61 542.31,-673.82"/>
<text text-anchor="middle" x="579" y="-685" font-family="Helvetica,sans-Serif" font-size="10.00"> +dmaVtbl</text>
</g>
<!-- Node7 -->
<g id="node7" class="node">
<title>Node7</title>
<g id="a_node7"><a xlink:href="struct_hardware_vtbl.html" target="_top" xlink:title=" ">
<polygon fill="none" stroke="black" points="306.5,-717 306.5,-884 428.5,-884 428.5,-717 306.5,-717"/>
<text text-anchor="middle" x="367.5" y="-872" font-family="Helvetica,sans-Serif" font-size="10.00">HardwareVtbl</text>
<polyline fill="none" stroke="black" points="306.5,-865 428.5,-865 "/>
<text text-anchor="start" x="314.5" y="-853" font-family="Helvetica,sans-Serif" font-size="10.00">+ new_</text>
<text text-anchor="start" x="314.5" y="-842" font-family="Helvetica,sans-Serif" font-size="10.00">+ delete_</text>
<text text-anchor="start" x="314.5" y="-831" font-family="Helvetica,sans-Serif" font-size="10.00">+ Initialize</text>
<text text-anchor="start" x="314.5" y="-820" font-family="Helvetica,sans-Serif" font-size="10.00">+ Start</text>
<text text-anchor="start" x="314.5" y="-809" font-family="Helvetica,sans-Serif" font-size="10.00">+ IsDone</text>
<text text-anchor="start" x="314.5" y="-798" font-family="Helvetica,sans-Serif" font-size="10.00">+ IsIdle</text>
<text text-anchor="start" x="314.5" y="-787" font-family="Helvetica,sans-Serif" font-size="10.00">+ IsReady</text>
<text text-anchor="start" x="314.5" y="-776" font-family="Helvetica,sans-Serif" font-size="10.00">+ EnableAutoRestart</text>
<text text-anchor="start" x="314.5" y="-765" font-family="Helvetica,sans-Serif" font-size="10.00">+ DisableAutoRestart</text>
<text text-anchor="start" x="314.5" y="-754" font-family="Helvetica,sans-Serif" font-size="10.00">+ Get_return</text>
<text text-anchor="start" x="314.5" y="-743" font-family="Helvetica,sans-Serif" font-size="10.00">and 11 more...</text>
<polyline fill="none" stroke="black" points="306.5,-736 428.5,-736 "/>
<text text-anchor="middle" x="367.5" y="-724" font-family="Helvetica,sans-Serif" font-size="10.00"> </text>
</a>
</g>
</g>
<!-- Node7&#45;&gt;Node5 -->
<g id="edge6" class="edge">
<title>Node7&#45;&gt;Node5</title>
<path fill="none" stroke="#404040" d="M418.29,-716.76C426.93,-702.69 435.86,-688.14 444.4,-674.23"/>
<polygon fill="none" stroke="#404040" points="444.55,-673.98 444.28,-666.77 450.83,-663.75 451.1,-670.96 444.55,-673.98"/>
<text text-anchor="middle" x="460.5" y="-685" font-family="Helvetica,sans-Serif" font-size="10.00"> +hwVtbl</text>
</g>
<!-- Node8 -->
<g id="node8" class="node">
<title>Node8</title>
<g id="a_node8"><a xlink:href="struct_memory_block.html" target="_top" xlink:title=" ">
<polygon fill="none" stroke="black" points="446.5,-761 446.5,-840 536.5,-840 536.5,-761 446.5,-761"/>
<text text-anchor="middle" x="491.5" y="-828" font-family="Helvetica,sans-Serif" font-size="10.00">MemoryBlock</text>
<polyline fill="none" stroke="black" points="446.5,-821 536.5,-821 "/>
<text text-anchor="start" x="454.5" y="-809" font-family="Helvetica,sans-Serif" font-size="10.00">+ baseAddress</text>
<text text-anchor="start" x="454.5" y="-798" font-family="Helvetica,sans-Serif" font-size="10.00">+ highAddress</text>
<text text-anchor="start" x="454.5" y="-787" font-family="Helvetica,sans-Serif" font-size="10.00">+ blockIndex</text>
<polyline fill="none" stroke="black" points="446.5,-780 536.5,-780 "/>
<text text-anchor="middle" x="491.5" y="-768" font-family="Helvetica,sans-Serif" font-size="10.00"> </text>
</a>
</g>
</g>
<!-- Node8&#45;&gt;Node5 -->
<g id="edge7" class="edge">
<title>Node8&#45;&gt;Node5</title>
<path fill="none" stroke="#404040" d="M491.5,-760.55C491.5,-736.58 491.5,-704.99 491.5,-676"/>
<polygon fill="none" stroke="#404040" points="491.5,-675.76 487.5,-669.76 491.5,-663.76 495.5,-669.76 491.5,-675.76"/>
<text text-anchor="middle" x="517.5" y="-685" font-family="Helvetica,sans-Serif" font-size="10.00"> +ddrMem</text>
</g>
<!-- Node9&#45;&gt;Node2 -->
<g id="edge9" class="edge">
<title>Node9&#45;&gt;Node2</title>
<path fill="none" stroke="#404040" d="M231.68,-358.5C230.19,-336.02 227.97,-302.42 225.68,-267.81"/>
<polygon fill="none" stroke="#404040" points="225.66,-267.52 221.28,-261.8 224.87,-255.55 229.26,-261.27 225.66,-267.52"/>
<text text-anchor="middle" x="266.5" y="-277" font-family="Helvetica,sans-Serif" font-size="10.00"> #current_task_</text>
</g>
<!-- Node10 -->
<g id="node10" class="node">
<title>Node10</title>
<g id="a_node10"><a xlink:href="struct___event.html" target="_top" xlink:title=" ">
<polygon fill="none" stroke="black" points="61,-546 61,-647 164,-647 164,-546 61,-546"/>
<text text-anchor="middle" x="112.5" y="-635" font-family="Helvetica,sans-Serif" font-size="10.00">_Event</text>
<polyline fill="none" stroke="black" points="61,-628 164,-628 "/>
<text text-anchor="start" x="69" y="-616" font-family="Helvetica,sans-Serif" font-size="10.00">+ data</text>
<text text-anchor="start" x="69" y="-605" font-family="Helvetica,sans-Serif" font-size="10.00">+ type</text>
<text text-anchor="start" x="69" y="-594" font-family="Helvetica,sans-Serif" font-size="10.00">+ absolute_offset</text>
<text text-anchor="start" x="69" y="-583" font-family="Helvetica,sans-Serif" font-size="10.00">+ relative_offset</text>
<text text-anchor="start" x="69" y="-572" font-family="Helvetica,sans-Serif" font-size="10.00">+ latency</text>
<polyline fill="none" stroke="black" points="61,-565 164,-565 "/>
<text text-anchor="middle" x="112.5" y="-553" font-family="Helvetica,sans-Serif" font-size="10.00"> </text>
</a>
</g>
</g>
<!-- Node10&#45;&gt;Node9 -->
<g id="edge11" class="edge">
<title>Node10&#45;&gt;Node9</title>
<path fill="none" stroke="#404040" d="M141.48,-545.8C162.84,-509.17 191.47,-460.08 211.09,-426.44"/>
<polygon fill="none" stroke="#404040" points="211.33,-426.02 210.89,-418.83 217.37,-415.66 217.8,-422.86 211.33,-426.02"/>
<text text-anchor="middle" x="217.5" y="-503" font-family="Helvetica,sans-Serif" font-size="10.00"> +delegate_event</text>
<text text-anchor="middle" x="217.5" y="-492" font-family="Helvetica,sans-Serif" font-size="10.00">+hardware_event</text>
</g>
<!-- Node10&#45;&gt;Node10 -->
<g id="edge12" class="edge">
<title>Node10&#45;&gt;Node10</title>
<path fill="none" stroke="#404040" d="M164.03,-612.73C174.5,-610.96 182,-605.55 182,-596.5 182,-591.27 179.49,-587.25 175.35,-584.45"/>
<polygon fill="none" stroke="#404040" points="175.28,-584.42 168.27,-586.1 164.03,-580.27 171.04,-578.59 175.28,-584.42"/>
<text text-anchor="middle" x="211.5" y="-610.5" font-family="Helvetica,sans-Serif" font-size="10.00"> +first_child</text>
<text text-anchor="middle" x="211.5" y="-599.5" font-family="Helvetica,sans-Serif" font-size="10.00">+parent</text>
<text text-anchor="middle" x="211.5" y="-588.5" font-family="Helvetica,sans-Serif" font-size="10.00">+prev</text>
<text text-anchor="middle" x="211.5" y="-577.5" font-family="Helvetica,sans-Serif" font-size="10.00">+next</text>
</g>
<!-- Node11 -->
<g id="node11" class="node">
<title>Node11</title>
<g id="a_node11"><a xlink:href="struct_timer.html" target="_top" xlink:title=" ">
<polygon fill="none" stroke="black" points="64.5,-761 64.5,-840 160.5,-840 160.5,-761 64.5,-761"/>
<text text-anchor="middle" x="112.5" y="-828" font-family="Helvetica,sans-Serif" font-size="10.00">Timer</text>
<polyline fill="none" stroke="black" points="64.5,-821 160.5,-821 "/>
<text text-anchor="start" x="72.5" y="-809" font-family="Helvetica,sans-Serif" font-size="10.00">+ start_time</text>
<text text-anchor="start" x="72.5" y="-798" font-family="Helvetica,sans-Serif" font-size="10.00">+ num_samples</text>
<text text-anchor="start" x="72.5" y="-787" font-family="Helvetica,sans-Serif" font-size="10.00">+ sample_array</text>
<polyline fill="none" stroke="black" points="64.5,-780 160.5,-780 "/>
<text text-anchor="middle" x="112.5" y="-768" font-family="Helvetica,sans-Serif" font-size="10.00"> </text>
</a>
</g>
</g>
<!-- Node11&#45;&gt;Node10 -->
<g id="edge13" class="edge">
<title>Node11&#45;&gt;Node10</title>
<path fill="none" stroke="#404040" d="M112.5,-760.55C112.5,-731.88 112.5,-692.33 112.5,-659.35"/>
<polygon fill="none" stroke="#404040" points="112.5,-659.08 108.5,-653.08 112.5,-647.08 116.5,-653.08 112.5,-659.08"/>
<text text-anchor="middle" x="131.5" y="-685" font-family="Helvetica,sans-Serif" font-size="10.00"> +timer</text>
</g>
</g>
</svg>
        <g id="navigator" transform="translate(0 0)" fill="#404254">
                <rect fill="#f2f5e9" fill-opacity="0.5" stroke="#606060" stroke-width=".5" x="0" y="0" width="60" height="60"/>
                <use id="zoomplus" xlink:href="#zoomPlus" x="17" y="9" onmousedown="handleZoom(evt,'in')"/>
                <use id="zoomminus" xlink:href="#zoomMin" x="42" y="9" onmousedown="handleZoom(evt,'out')"/>
                <use id="reset" xlink:href="#resetDef" x="30" y="36" onmousedown="handleReset()"/>
                <g id="arrowUp" xlink:href="#dirArrow" transform="translate(30 24)" onmousedown="handlePan(0,-1)">
                  <use xlink:href="#rim" fill="#404040">
                        <set attributeName="fill" to="#808080" begin="arrowUp.mouseover" end="arrowUp.mouseout"/>
                  </use>
                  <path fill="none" stroke="white" stroke-width="1.5" d="M0,-3.0v7 M-2.5,-0.5L0,-3.0L2.5,-0.5"/>
                </g>
                <g id="arrowRight" xlink:href="#dirArrow" transform="rotate(90) translate(36 -43)" onmousedown="handlePan(1,0)">
                  <use xlink:href="#rim" fill="#404040">
                        <set attributeName="fill" to="#808080" begin="arrowRight.mouseover" end="arrowRight.mouseout"/>
                  </use>
                  <path fill="none" stroke="white" stroke-width="1.5" d="M0,-3.0v7 M-2.5,-0.5L0,-3.0L2.5,-0.5"/>
                </g>
                <g id="arrowDown" xlink:href="#dirArrow" transform="rotate(180) translate(-30 -48)" onmousedown="handlePan(0,1)">
                  <use xlink:href="#rim" fill="#404040">
                        <set attributeName="fill" to="#808080" begin="arrowDown.mouseover" end="arrowDown.mouseout"/>
                  </use>
                  <path fill="none" stroke="white" stroke-width="1.5" d="M0,-3.0v7 M-2.5,-0.5L0,-3.0L2.5,-0.5"/>
                </g>
                <g id="arrowLeft" xlink:href="#dirArrow" transform="rotate(270) translate(-36 17)" onmousedown="handlePan(-1,0)">
                  <use xlink:href="#rim" fill="#404040">
                        <set attributeName="fill" to="#808080" begin="arrowLeft.mouseover" end="arrowLeft.mouseout"/>
                  </use>
                  <path fill="none" stroke="white" stroke-width="1.5" d="M0,-3.0v7 M-2.5,-0.5L0,-3.0L2.5,-0.5"/>
                </g>
        </g>
        <svg viewBox="0 0 15 15" width="100%" height="30px" preserveAspectRatio="xMaxYMin meet">
         <g id="arrow_out" transform="scale(0.3 0.3)">
          <a xlink:href="struct_tensor_processor_1_1_processor_array__coll__graph_org.svg" target="_base">
           <rect id="button" ry="5" rx="5" y="6" x="6" height="38" width="38"
                fill="#f2f5e9" fill-opacity="0.5" stroke="#606060" stroke-width="1.0"/>
           <path id="arrow"
             d="M 11.500037,31.436501 C 11.940474,20.09759 22.043105,11.32322 32.158766,21.979434 L 37.068811,17.246167 C 37.068811,17.246167 37.088388,32 37.088388,32 L 22.160133,31.978069 C 22.160133,31.978069 26.997745,27.140456 26.997745,27.140456 C 18.528582,18.264221 13.291696,25.230495 11.500037,31.436501 z"
             style="fill:#404040;"/>
          </a>
         </g>
        </svg>
</svg>
