<?xml version="1.0" encoding="UTF-8" standalone="no"?>
<!DOCTYPE svg PUBLIC "-//W3C//DTD SVG 1.1//EN"
 "http://www.w3.org/Graphics/SVG/1.1/DTD/svg11.dtd">
<!-- Generated by graphviz version 2.43.0 (0)
 -->
<!-- Title: tflite::ops::micro::strided_slice::StridedSliceContext Pages: 1 -->
<!--zoomable 816 -->
<svg id="main" version="1.1" xmlns="http://www.w3.org/2000/svg" xmlns:xlink="http://www.w3.org/1999/xlink" xml:space="preserve" onload="init(evt)">
<style type="text/css"><![CDATA[
.edge:hover path { stroke: red; }
.edge:hover polygon { stroke: red; fill: red; }
]]></style>
<script type="text/javascript"><![CDATA[
var edges = document.getElementsByTagName('g');
if (edges && edges.length) {
  for (var i=0;i<edges.length;i++) {
    if (edges[i].id.substr(0,4)=='edge') {
      edges[i].setAttribute('class','edge');
    }
  }
}
]]></script>
        <defs>
                <circle id="rim" cx="0" cy="0" r="7"/>
                <circle id="rim2" cx="0" cy="0" r="3.5"/>
                <g id="zoomPlus">
                        <use xlink:href="#rim" fill="#404040">
                                <set attributeName="fill" to="#808080" begin="zoomplus.mouseover" end="zoomplus.mouseout"/>
                        </use>
                        <path d="M-4,0h8M0,-4v8" fill="none" stroke="white" stroke-width="1.5" pointer-events="none"/>
                </g>
                <g id="zoomMin">
                        <use xlink:href="#rim" fill="#404040">
                                <set attributeName="fill" to="#808080" begin="zoomminus.mouseover" end="zoomminus.mouseout"/>
                        </use>
                        <path d="M-4,0h8" fill="none" stroke="white" stroke-width="1.5" pointer-events="none"/>
                </g>
                <g id="dirArrow">
                        <path fill="none" stroke="white" stroke-width="1.5" d="M0,-3.0v7 M-2.5,-0.5L0,-3.0L2.5,-0.5"/>
                </g>
               <g id="resetDef">
                       <use xlink:href="#rim2" fill="#404040">
                               <set attributeName="fill" to="#808080" begin="reset.mouseover" end="reset.mouseout"/>
                       </use>
               </g>
        </defs>

<script type="text/javascript">
var viewWidth = 962;
var viewHeight = 816;
var sectionId = 'dynsection-0';
</script>
<script xlink:href="svgpan.js"/>
<svg id="graph" class="graph">
<g id="viewport">
<title>tflite::ops::micro::strided_slice::StridedSliceContext</title>
<!-- Node1 -->
<g id="node1" class="node">
<title>Node1</title>
<g id="a_node1"><a xlink:title=" ">
<polygon fill="#bfbfbf" stroke="black" points="555,-0.5 555,-90.5 703,-90.5 703,-0.5 555,-0.5"/>
<text text-anchor="start" x="563" y="-78.5" font-family="Helvetica,sans-Serif" font-size="10.00">tflite::ops::micro</text>
<text text-anchor="start" x="563" y="-67.5" font-family="Helvetica,sans-Serif" font-size="10.00">::strided_slice::StridedSlice</text>
<text text-anchor="middle" x="629" y="-56.5" font-family="Helvetica,sans-Serif" font-size="10.00">Context</text>
<polyline fill="none" stroke="black" points="555,-49.5 703,-49.5 "/>
<text text-anchor="start" x="563" y="-37.5" font-family="Helvetica,sans-Serif" font-size="10.00">+ dims</text>
<polyline fill="none" stroke="black" points="555,-30.5 703,-30.5 "/>
<text text-anchor="start" x="563" y="-18.5" font-family="Helvetica,sans-Serif" font-size="10.00">+ StridedSliceContext()</text>
<text text-anchor="start" x="563" y="-7.5" font-family="Helvetica,sans-Serif" font-size="10.00">+ StridedSliceContext()</text>
</a>
</g>
</g>
<!-- Node2 -->
<g id="node2" class="node">
<title>Node2</title>
<g id="a_node2"><a xlink:href="struct_tf_lite_tensor.html" target="_top" xlink:title=" ">
<polygon fill="none" stroke="black" points="507.5,-182.5 507.5,-316.5 610.5,-316.5 610.5,-182.5 507.5,-182.5"/>
<text text-anchor="middle" x="559" y="-304.5" font-family="Helvetica,sans-Serif" font-size="10.00">TfLiteTensor</text>
<polyline fill="none" stroke="black" points="507.5,-297.5 610.5,-297.5 "/>
<text text-anchor="start" x="515.5" y="-285.5" font-family="Helvetica,sans-Serif" font-size="10.00">+ type</text>
<text text-anchor="start" x="515.5" y="-274.5" font-family="Helvetica,sans-Serif" font-size="10.00">+ allocation_type</text>
<text text-anchor="start" x="515.5" y="-263.5" font-family="Helvetica,sans-Serif" font-size="10.00">+ bytes</text>
<text text-anchor="start" x="515.5" y="-252.5" font-family="Helvetica,sans-Serif" font-size="10.00">+ allocation</text>
<text text-anchor="start" x="515.5" y="-241.5" font-family="Helvetica,sans-Serif" font-size="10.00">+ name</text>
<text text-anchor="start" x="515.5" y="-230.5" font-family="Helvetica,sans-Serif" font-size="10.00">+ buffer_handle</text>
<text text-anchor="start" x="515.5" y="-219.5" font-family="Helvetica,sans-Serif" font-size="10.00">+ data_is_stale</text>
<text text-anchor="start" x="515.5" y="-208.5" font-family="Helvetica,sans-Serif" font-size="10.00">+ is_variable</text>
<polyline fill="none" stroke="black" points="507.5,-201.5 610.5,-201.5 "/>
<text text-anchor="middle" x="559" y="-189.5" font-family="Helvetica,sans-Serif" font-size="10.00"> </text>
</a>
</g>
</g>
<!-- Node2&#45;&gt;Node1 -->
<g id="edge1" class="edge">
<title>Node2&#45;&gt;Node1</title>
<path fill="none" stroke="#404040" d="M577.78,-182.36C584.83,-159 593.27,-132.66 602,-109 602.86,-106.66 603.77,-104.28 604.7,-101.89"/>
<polygon fill="none" stroke="#404040" points="604.74,-101.78 603.27,-94.72 609.22,-90.65 610.69,-97.7 604.74,-101.78"/>
<text text-anchor="middle" x="624.5" y="-156" font-family="Helvetica,sans-Serif" font-size="10.00"> +strides</text>
<text text-anchor="middle" x="624.5" y="-145" font-family="Helvetica,sans-Serif" font-size="10.00">+output</text>
<text text-anchor="middle" x="624.5" y="-134" font-family="Helvetica,sans-Serif" font-size="10.00">+begin</text>
<text text-anchor="middle" x="624.5" y="-123" font-family="Helvetica,sans-Serif" font-size="10.00">+input</text>
<text text-anchor="middle" x="624.5" y="-112" font-family="Helvetica,sans-Serif" font-size="10.00">+end</text>
</g>
<!-- Node3 -->
<g id="node3" class="node">
<title>Node3</title>
<g id="a_node3"><a xlink:href="union_tf_lite_ptr_union.html" target="_top" xlink:title=" ">
<polygon fill="none" stroke="black" points="185,-364.5 185,-553.5 271,-553.5 271,-364.5 185,-364.5"/>
<text text-anchor="middle" x="228" y="-541.5" font-family="Helvetica,sans-Serif" font-size="10.00">TfLitePtrUnion</text>
<polyline fill="none" stroke="black" points="185,-534.5 271,-534.5 "/>
<text text-anchor="start" x="193" y="-522.5" font-family="Helvetica,sans-Serif" font-size="10.00">+ i32</text>
<text text-anchor="start" x="193" y="-511.5" font-family="Helvetica,sans-Serif" font-size="10.00">+ u32</text>
<text text-anchor="start" x="193" y="-500.5" font-family="Helvetica,sans-Serif" font-size="10.00">+ i64</text>
<text text-anchor="start" x="193" y="-489.5" font-family="Helvetica,sans-Serif" font-size="10.00">+ u64</text>
<text text-anchor="start" x="193" y="-478.5" font-family="Helvetica,sans-Serif" font-size="10.00">+ f</text>
<text text-anchor="start" x="193" y="-467.5" font-family="Helvetica,sans-Serif" font-size="10.00">+ f64</text>
<text text-anchor="start" x="193" y="-456.5" font-family="Helvetica,sans-Serif" font-size="10.00">+ raw</text>
<text text-anchor="start" x="193" y="-445.5" font-family="Helvetica,sans-Serif" font-size="10.00">+ raw_const</text>
<text text-anchor="start" x="193" y="-434.5" font-family="Helvetica,sans-Serif" font-size="10.00">+ uint8</text>
<text text-anchor="start" x="193" y="-423.5" font-family="Helvetica,sans-Serif" font-size="10.00">+ b</text>
<text text-anchor="start" x="193" y="-412.5" font-family="Helvetica,sans-Serif" font-size="10.00">+ i16</text>
<text text-anchor="start" x="193" y="-401.5" font-family="Helvetica,sans-Serif" font-size="10.00">+ int8</text>
<text text-anchor="start" x="193" y="-390.5" font-family="Helvetica,sans-Serif" font-size="10.00">+ data</text>
<polyline fill="none" stroke="black" points="185,-383.5 271,-383.5 "/>
<text text-anchor="middle" x="228" y="-371.5" font-family="Helvetica,sans-Serif" font-size="10.00"> </text>
</a>
</g>
</g>
<!-- Node3&#45;&gt;Node2 -->
<g id="edge2" class="edge">
<title>Node3&#45;&gt;Node2</title>
<path fill="none" stroke="#404040" d="M271.08,-370.71C280.51,-357.43 291.49,-344.88 304,-335 359.88,-290.85 439.83,-269.31 495.24,-259.11"/>
<polygon fill="none" stroke="#404040" points="495.56,-259.05 500.78,-254.08 507.38,-256.98 502.16,-261.96 495.56,-259.05"/>
<text text-anchor="middle" x="321" y="-338" font-family="Helvetica,sans-Serif" font-size="10.00"> +data</text>
</g>
<!-- Node4 -->
<g id="node4" class="node">
<title>Node4</title>
<g id="a_node4"><a xlink:href="struct_tf_lite_complex128.html" target="_top" xlink:title=" ">
<polygon fill="none" stroke="black" points="0,-612.5 0,-680.5 106,-680.5 106,-612.5 0,-612.5"/>
<text text-anchor="middle" x="53" y="-668.5" font-family="Helvetica,sans-Serif" font-size="10.00">TfLiteComplex128</text>
<polyline fill="none" stroke="black" points="0,-661.5 106,-661.5 "/>
<text text-anchor="start" x="8" y="-649.5" font-family="Helvetica,sans-Serif" font-size="10.00">+ re</text>
<text text-anchor="start" x="8" y="-638.5" font-family="Helvetica,sans-Serif" font-size="10.00">+ im</text>
<polyline fill="none" stroke="black" points="0,-631.5 106,-631.5 "/>
<text text-anchor="middle" x="53" y="-619.5" font-family="Helvetica,sans-Serif" font-size="10.00"> </text>
</a>
</g>
</g>
<!-- Node4&#45;&gt;Node3 -->
<g id="edge3" class="edge">
<title>Node4&#45;&gt;Node3</title>
<path fill="none" stroke="#404040" d="M84.29,-612.34C109.9,-585.19 146.65,-546.23 176.58,-514.51"/>
<polygon fill="none" stroke="#404040" points="176.59,-514.5 177.8,-507.39 184.82,-505.77 183.62,-512.88 176.59,-514.5"/>
<text text-anchor="middle" x="137.5" y="-580.5" font-family="Helvetica,sans-Serif" font-size="10.00"> +c128</text>
</g>
<!-- Node5 -->
<g id="node5" class="node">
<title>Node5</title>
<g id="a_node5"><a xlink:href="struct_tf_lite_complex64.html" target="_top" xlink:title=" ">
<polygon fill="none" stroke="black" points="124,-612.5 124,-680.5 224,-680.5 224,-612.5 124,-612.5"/>
<text text-anchor="middle" x="174" y="-668.5" font-family="Helvetica,sans-Serif" font-size="10.00">TfLiteComplex64</text>
<polyline fill="none" stroke="black" points="124,-661.5 224,-661.5 "/>
<text text-anchor="start" x="132" y="-649.5" font-family="Helvetica,sans-Serif" font-size="10.00">+ re</text>
<text text-anchor="start" x="132" y="-638.5" font-family="Helvetica,sans-Serif" font-size="10.00">+ im</text>
<polyline fill="none" stroke="black" points="124,-631.5 224,-631.5 "/>
<text text-anchor="middle" x="174" y="-619.5" font-family="Helvetica,sans-Serif" font-size="10.00"> </text>
</a>
</g>
</g>
<!-- Node5&#45;&gt;Node3 -->
<g id="edge4" class="edge">
<title>Node5&#45;&gt;Node3</title>
<path fill="none" stroke="#404040" d="M183.65,-612.34C187.57,-598.87 192.34,-582.51 197.27,-565.56"/>
<polygon fill="none" stroke="#404040" points="197.35,-565.28 195.19,-558.4 200.71,-553.76 202.87,-560.64 197.35,-565.28"/>
<text text-anchor="middle" x="209.5" y="-580.5" font-family="Helvetica,sans-Serif" font-size="10.00"> +c64</text>
</g>
<!-- Node6 -->
<g id="node6" class="node">
<title>Node6</title>
<g id="a_node6"><a xlink:href="struct_tf_lite_float16.html" target="_top" xlink:title=" ">
<polygon fill="none" stroke="black" points="242.5,-618 242.5,-675 323.5,-675 323.5,-618 242.5,-618"/>
<text text-anchor="middle" x="283" y="-663" font-family="Helvetica,sans-Serif" font-size="10.00">TfLiteFloat16</text>
<polyline fill="none" stroke="black" points="242.5,-656 323.5,-656 "/>
<text text-anchor="start" x="250.5" y="-644" font-family="Helvetica,sans-Serif" font-size="10.00">+ data</text>
<polyline fill="none" stroke="black" points="242.5,-637 323.5,-637 "/>
<text text-anchor="middle" x="283" y="-625" font-family="Helvetica,sans-Serif" font-size="10.00"> </text>
</a>
</g>
</g>
<!-- Node6&#45;&gt;Node3 -->
<g id="edge5" class="edge">
<title>Node6&#45;&gt;Node3</title>
<path fill="none" stroke="#404040" d="M274.77,-617.73C270.5,-603.35 265,-584.78 259.27,-565.46"/>
<polygon fill="none" stroke="#404040" points="259.19,-565.2 253.65,-560.59 255.78,-553.7 261.32,-558.32 259.19,-565.2"/>
<text text-anchor="middle" x="281" y="-580.5" font-family="Helvetica,sans-Serif" font-size="10.00"> +f16</text>
</g>
<!-- Node7 -->
<g id="node7" class="node">
<title>Node7</title>
<g id="a_node7"><a xlink:href="struct_tf_lite_sparsity.html" target="_top" xlink:title=" ">
<polygon fill="none" stroke="black" points="384,-430.5 384,-487.5 508,-487.5 508,-430.5 384,-430.5"/>
<text text-anchor="middle" x="446" y="-475.5" font-family="Helvetica,sans-Serif" font-size="10.00">TfLiteSparsity</text>
<polyline fill="none" stroke="black" points="384,-468.5 508,-468.5 "/>
<text text-anchor="start" x="392" y="-456.5" font-family="Helvetica,sans-Serif" font-size="10.00">+ dim_metadata_size</text>
<polyline fill="none" stroke="black" points="384,-449.5 508,-449.5 "/>
<text text-anchor="middle" x="446" y="-437.5" font-family="Helvetica,sans-Serif" font-size="10.00"> </text>
</a>
</g>
</g>
<!-- Node7&#45;&gt;Node2 -->
<g id="edge6" class="edge">
<title>Node7&#45;&gt;Node2</title>
<path fill="none" stroke="#404040" d="M461.01,-430.45C475.32,-404.16 497.56,-363.32 517.23,-327.19"/>
<polygon fill="none" stroke="#404040" points="517.24,-327.19 516.59,-320.01 522.98,-316.65 523.62,-323.83 517.24,-327.19"/>
<text text-anchor="middle" x="538.5" y="-338" font-family="Helvetica,sans-Serif" font-size="10.00"> +sparsity</text>
</g>
<!-- Node8 -->
<g id="node8" class="node">
<title>Node8</title>
<g id="a_node8"><a xlink:href="struct_tf_lite_int_array.html" target="_top" xlink:title=" ">
<polygon fill="none" stroke="black" points="409.5,-739.5 409.5,-807.5 492.5,-807.5 492.5,-739.5 409.5,-739.5"/>
<text text-anchor="middle" x="451" y="-795.5" font-family="Helvetica,sans-Serif" font-size="10.00">TfLiteIntArray</text>
<polyline fill="none" stroke="black" points="409.5,-788.5 492.5,-788.5 "/>
<text text-anchor="start" x="417.5" y="-776.5" font-family="Helvetica,sans-Serif" font-size="10.00">+ size</text>
<text text-anchor="start" x="417.5" y="-765.5" font-family="Helvetica,sans-Serif" font-size="10.00">+ data</text>
<polyline fill="none" stroke="black" points="409.5,-758.5 492.5,-758.5 "/>
<text text-anchor="middle" x="451" y="-746.5" font-family="Helvetica,sans-Serif" font-size="10.00"> </text>
</a>
</g>
</g>
<!-- Node8&#45;&gt;Node2 -->
<g id="edge11" class="edge">
<title>Node8&#45;&gt;Node2</title>
<path fill="none" stroke="#404040" d="M428.11,-739.5C405.7,-705.02 373.08,-648.45 360,-594 343.6,-525.72 240.23,-586.28 375,-364 402.09,-319.31 454.14,-289.66 495.99,-271.91"/>
<polygon fill="none" stroke="#404040" points="496.11,-271.86 500.15,-265.89 507.22,-267.32 503.17,-273.29 496.11,-271.86"/>
<text text-anchor="middle" x="402" y="-586" font-family="Helvetica,sans-Serif" font-size="10.00"> +dims</text>
<text text-anchor="middle" x="402" y="-575" font-family="Helvetica,sans-Serif" font-size="10.00">+dims_signature</text>
</g>
<!-- Node8&#45;&gt;Node7 -->
<g id="edge7" class="edge">
<title>Node8&#45;&gt;Node7</title>
<path fill="none" stroke="#404040" d="M450.47,-739.35C449.54,-681.45 447.63,-562.13 446.64,-499.84"/>
<polygon fill="none" stroke="#404040" points="446.64,-499.81 442.54,-493.88 446.45,-487.81 450.54,-493.75 446.64,-499.81"/>
<text text-anchor="middle" x="493" y="-649.5" font-family="Helvetica,sans-Serif" font-size="10.00"> +traversal_order</text>
<text text-anchor="middle" x="493" y="-638.5" font-family="Helvetica,sans-Serif" font-size="10.00">+block_map</text>
</g>
<!-- Node9 -->
<g id="node9" class="node">
<title>Node9</title>
<g id="a_node9"><a xlink:href="struct_tf_lite_dimension_metadata.html" target="_top" xlink:title=" ">
<polygon fill="none" stroke="black" points="555.5,-612.5 555.5,-680.5 698.5,-680.5 698.5,-612.5 555.5,-612.5"/>
<text text-anchor="middle" x="627" y="-668.5" font-family="Helvetica,sans-Serif" font-size="10.00">TfLiteDimensionMetadata</text>
<polyline fill="none" stroke="black" points="555.5,-661.5 698.5,-661.5 "/>
<text text-anchor="start" x="563.5" y="-649.5" font-family="Helvetica,sans-Serif" font-size="10.00">+ format</text>
<text text-anchor="start" x="563.5" y="-638.5" font-family="Helvetica,sans-Serif" font-size="10.00">+ dense_size</text>
<polyline fill="none" stroke="black" points="555.5,-631.5 698.5,-631.5 "/>
<text text-anchor="middle" x="627" y="-619.5" font-family="Helvetica,sans-Serif" font-size="10.00"> </text>
</a>
</g>
</g>
<!-- Node8&#45;&gt;Node9 -->
<g id="edge9" class="edge">
<title>Node8&#45;&gt;Node9</title>
<path fill="none" stroke="#404040" d="M492.71,-742.88C515.95,-726.37 545.22,-705.58 570.49,-687.63"/>
<polygon fill="none" stroke="#404040" points="570.54,-687.6 573.11,-680.87 580.32,-680.65 577.75,-687.39 570.54,-687.6"/>
<text text-anchor="middle" x="594" y="-713" font-family="Helvetica,sans-Serif" font-size="10.00"> +array_indices</text>
<text text-anchor="middle" x="594" y="-702" font-family="Helvetica,sans-Serif" font-size="10.00">+array_segments</text>
</g>
<!-- Node9&#45;&gt;Node7 -->
<g id="edge8" class="edge">
<title>Node9&#45;&gt;Node7</title>
<path fill="none" stroke="#404040" d="M582.67,-612.46C561.76,-595.95 537.06,-575.03 517,-554 500.4,-536.6 484.07,-515.36 471.27,-497.47"/>
<polygon fill="none" stroke="#404040" points="471.26,-497.46 464.53,-494.86 464.35,-487.65 471.07,-490.25 471.26,-497.46"/>
<text text-anchor="middle" x="599.5" y="-580.5" font-family="Helvetica,sans-Serif" font-size="10.00"> +dim_metadata</text>
</g>
<!-- Node10 -->
<g id="node10" class="node">
<title>Node10</title>
<g id="a_node10"><a xlink:href="struct_tf_lite_delegate.html" target="_top" xlink:title=" ">
<polygon fill="none" stroke="black" points="526.5,-403 526.5,-515 667.5,-515 667.5,-403 526.5,-403"/>
<text text-anchor="middle" x="597" y="-503" font-family="Helvetica,sans-Serif" font-size="10.00">TfLiteDelegate</text>
<polyline fill="none" stroke="black" points="526.5,-496 667.5,-496 "/>
<text text-anchor="start" x="534.5" y="-484" font-family="Helvetica,sans-Serif" font-size="10.00">+ data_</text>
<text text-anchor="start" x="534.5" y="-473" font-family="Helvetica,sans-Serif" font-size="10.00">+ Prepare</text>
<text text-anchor="start" x="534.5" y="-462" font-family="Helvetica,sans-Serif" font-size="10.00">+ CopyFromBufferHandle</text>
<text text-anchor="start" x="534.5" y="-451" font-family="Helvetica,sans-Serif" font-size="10.00">+ CopyToBufferHandle</text>
<text text-anchor="start" x="534.5" y="-440" font-family="Helvetica,sans-Serif" font-size="10.00">+ FreeBufferHandle</text>
<text text-anchor="start" x="534.5" y="-429" font-family="Helvetica,sans-Serif" font-size="10.00">+ flags</text>
<polyline fill="none" stroke="black" points="526.5,-422 667.5,-422 "/>
<text text-anchor="middle" x="597" y="-410" font-family="Helvetica,sans-Serif" font-size="10.00"> </text>
</a>
</g>
</g>
<!-- Node10&#45;&gt;Node2 -->
<g id="edge10" class="edge">
<title>Node10&#45;&gt;Node2</title>
<path fill="none" stroke="#404040" d="M586.92,-402.94C582.74,-380.14 577.82,-353.27 573.29,-328.5"/>
<polygon fill="none" stroke="#404040" points="573.26,-328.34 568.24,-323.16 571.09,-316.54 576.11,-321.72 573.26,-328.34"/>
<text text-anchor="middle" x="603.5" y="-338" font-family="Helvetica,sans-Serif" font-size="10.00"> +delegate</text>
</g>
<!-- Node11 -->
<g id="node11" class="node">
<title>Node11</title>
<g id="a_node11"><a xlink:href="struct_tf_lite_quantization.html" target="_top" xlink:title=" ">
<polygon fill="none" stroke="black" points="685.5,-425 685.5,-493 792.5,-493 792.5,-425 685.5,-425"/>
<text text-anchor="middle" x="739" y="-481" font-family="Helvetica,sans-Serif" font-size="10.00">TfLiteQuantization</text>
<polyline fill="none" stroke="black" points="685.5,-474 792.5,-474 "/>
<text text-anchor="start" x="693.5" y="-462" font-family="Helvetica,sans-Serif" font-size="10.00">+ type</text>
<text text-anchor="start" x="693.5" y="-451" font-family="Helvetica,sans-Serif" font-size="10.00">+ params</text>
<polyline fill="none" stroke="black" points="685.5,-444 792.5,-444 "/>
<text text-anchor="middle" x="739" y="-432" font-family="Helvetica,sans-Serif" font-size="10.00"> </text>
</a>
</g>
</g>
<!-- Node11&#45;&gt;Node2 -->
<g id="edge12" class="edge">
<title>Node11&#45;&gt;Node2</title>
<path fill="none" stroke="#404040" d="M720.55,-424.96C709.23,-406.11 693.73,-382.61 677,-364 655.05,-339.58 643.82,-339.6 620,-317 619.81,-316.82 619.62,-316.64 619.42,-316.45"/>
<polygon fill="none" stroke="#404040" points="619.31,-316.34 612.23,-315 610.74,-307.95 617.83,-309.29 619.31,-316.34"/>
<text text-anchor="middle" x="693.5" y="-338" font-family="Helvetica,sans-Serif" font-size="10.00"> +quantization</text>
</g>
<!-- Node12 -->
<g id="node12" class="node">
<title>Node12</title>
<g id="a_node12"><a xlink:href="struct_tf_lite_quantization_params.html" target="_top" xlink:title=" ">
<polygon fill="none" stroke="black" points="810.5,-425 810.5,-493 953.5,-493 953.5,-425 810.5,-425"/>
<text text-anchor="middle" x="882" y="-481" font-family="Helvetica,sans-Serif" font-size="10.00">TfLiteQuantizationParams</text>
<polyline fill="none" stroke="black" points="810.5,-474 953.5,-474 "/>
<text text-anchor="start" x="818.5" y="-462" font-family="Helvetica,sans-Serif" font-size="10.00">+ scale</text>
<text text-anchor="start" x="818.5" y="-451" font-family="Helvetica,sans-Serif" font-size="10.00">+ zero_point</text>
<polyline fill="none" stroke="black" points="810.5,-444 953.5,-444 "/>
<text text-anchor="middle" x="882" y="-432" font-family="Helvetica,sans-Serif" font-size="10.00"> </text>
</a>
</g>
</g>
<!-- Node12&#45;&gt;Node2 -->
<g id="edge13" class="edge">
<title>Node12&#45;&gt;Node2</title>
<path fill="none" stroke="#404040" d="M859.58,-424.55C845.03,-404.86 824.61,-380.64 802,-364 775.54,-344.53 765.58,-344.08 734,-335 688.07,-321.8 668,-338.63 621.42,-316.73"/>
<polygon fill="none" stroke="#404040" points="621.4,-316.72 614.24,-317.54 610.72,-311.25 617.88,-310.42 621.4,-316.72"/>
<text text-anchor="middle" x="793.5" y="-338" font-family="Helvetica,sans-Serif" font-size="10.00"> +params</text>
</g>
<!-- Node13 -->
<g id="node13" class="node">
<title>Node13</title>
<g id="a_node13"><a xlink:href="struct_tf_lite_strided_slice_params.html" target="_top" xlink:title=" ">
<polygon fill="none" stroke="black" points="629,-199 629,-300 767,-300 767,-199 629,-199"/>
<text text-anchor="middle" x="698" y="-288" font-family="Helvetica,sans-Serif" font-size="10.00">TfLiteStridedSliceParams</text>
<polyline fill="none" stroke="black" points="629,-281 767,-281 "/>
<text text-anchor="start" x="637" y="-269" font-family="Helvetica,sans-Serif" font-size="10.00">+ begin_mask</text>
<text text-anchor="start" x="637" y="-258" font-family="Helvetica,sans-Serif" font-size="10.00">+ end_mask</text>
<text text-anchor="start" x="637" y="-247" font-family="Helvetica,sans-Serif" font-size="10.00">+ ellipsis_mask</text>
<text text-anchor="start" x="637" y="-236" font-family="Helvetica,sans-Serif" font-size="10.00">+ new_axis_mask</text>
<text text-anchor="start" x="637" y="-225" font-family="Helvetica,sans-Serif" font-size="10.00">+ shrink_axis_mask</text>
<polyline fill="none" stroke="black" points="629,-218 767,-218 "/>
<text text-anchor="middle" x="698" y="-206" font-family="Helvetica,sans-Serif" font-size="10.00"> </text>
</a>
</g>
</g>
<!-- Node13&#45;&gt;Node1 -->
<g id="edge14" class="edge">
<title>Node13&#45;&gt;Node1</title>
<path fill="none" stroke="#404040" d="M681.03,-198.83C671.06,-169.64 658.43,-132.67 648.11,-102.46"/>
<polygon fill="none" stroke="#404040" points="648.02,-102.17 642.29,-97.79 644.14,-90.82 649.86,-95.2 648.02,-102.17"/>
<text text-anchor="middle" x="691.5" y="-134" font-family="Helvetica,sans-Serif" font-size="10.00"> +params</text>
</g>
</g>
</svg>
        <g id="navigator" transform="translate(0 0)" fill="#404254">
                <rect fill="#f2f5e9" fill-opacity="0.5" stroke="#606060" stroke-width=".5" x="0" y="0" width="60" height="60"/>
                <use id="zoomplus" xlink:href="#zoomPlus" x="17" y="9" onmousedown="handleZoom(evt,'in')"/>
                <use id="zoomminus" xlink:href="#zoomMin" x="42" y="9" onmousedown="handleZoom(evt,'out')"/>
                <use id="reset" xlink:href="#resetDef" x="30" y="36" onmousedown="handleReset()"/>
                <g id="arrowUp" xlink:href="#dirArrow" transform="translate(30 24)" onmousedown="handlePan(0,-1)">
                  <use xlink:href="#rim" fill="#404040">
                        <set attributeName="fill" to="#808080" begin="arrowUp.mouseover" end="arrowUp.mouseout"/>
                  </use>
                  <path fill="none" stroke="white" stroke-width="1.5" d="M0,-3.0v7 M-2.5,-0.5L0,-3.0L2.5,-0.5"/>
                </g>
                <g id="arrowRight" xlink:href="#dirArrow" transform="rotate(90) translate(36 -43)" onmousedown="handlePan(1,0)">
                  <use xlink:href="#rim" fill="#404040">
                        <set attributeName="fill" to="#808080" begin="arrowRight.mouseover" end="arrowRight.mouseout"/>
                  </use>
                  <path fill="none" stroke="white" stroke-width="1.5" d="M0,-3.0v7 M-2.5,-0.5L0,-3.0L2.5,-0.5"/>
                </g>
                <g id="arrowDown" xlink:href="#dirArrow" transform="rotate(180) translate(-30 -48)" onmousedown="handlePan(0,1)">
                  <use xlink:href="#rim" fill="#404040">
                        <set attributeName="fill" to="#808080" begin="arrowDown.mouseover" end="arrowDown.mouseout"/>
                  </use>
                  <path fill="none" stroke="white" stroke-width="1.5" d="M0,-3.0v7 M-2.5,-0.5L0,-3.0L2.5,-0.5"/>
                </g>
                <g id="arrowLeft" xlink:href="#dirArrow" transform="rotate(270) translate(-36 17)" onmousedown="handlePan(-1,0)">
                  <use xlink:href="#rim" fill="#404040">
                        <set attributeName="fill" to="#808080" begin="arrowLeft.mouseover" end="arrowLeft.mouseout"/>
                  </use>
                  <path fill="none" stroke="white" stroke-width="1.5" d="M0,-3.0v7 M-2.5,-0.5L0,-3.0L2.5,-0.5"/>
                </g>
        </g>
        <svg viewBox="0 0 15 15" width="100%" height="30px" preserveAspectRatio="xMaxYMin meet">
         <g id="arrow_out" transform="scale(0.3 0.3)">
          <a xlink:href="structtflite_1_1ops_1_1micro_1_1strided__slice_1_1_strided_slice_context__coll__graph_org.svg" target="_base">
           <rect id="button" ry="5" rx="5" y="6" x="6" height="38" width="38"
                fill="#f2f5e9" fill-opacity="0.5" stroke="#606060" stroke-width="1.0"/>
           <path id="arrow"
             d="M 11.500037,31.436501 C 11.940474,20.09759 22.043105,11.32322 32.158766,21.979434 L 37.068811,17.246167 C 37.068811,17.246167 37.088388,32 37.088388,32 L 22.160133,31.978069 C 22.160133,31.978069 26.997745,27.140456 26.997745,27.140456 C 18.528582,18.264221 13.291696,25.230495 11.500037,31.436501 z"
             style="fill:#404040;"/>
          </a>
         </g>
        </svg>
</svg>
