<?xml version="1.0" encoding="UTF-8" standalone="no"?>
<!DOCTYPE svg PUBLIC "-//W3C//DTD SVG 1.1//EN"
 "http://www.w3.org/Graphics/SVG/1.1/DTD/svg11.dtd">
<!-- Generated by graphviz version 2.43.0 (0)
 -->
<!-- Title: tflite::QuantizationParametersT Pages: 1 -->
<svg width="270pt" height="380pt"
 viewBox="0.00 0.00 269.50 380.00" xmlns="http://www.w3.org/2000/svg" xmlns:xlink="http://www.w3.org/1999/xlink">
<g id="graph0" class="graph" transform="scale(1 1) rotate(0) translate(4 376)">
<title>tflite::QuantizationParametersT</title>
<!-- Node1 -->
<g id="node1" class="node">
<title>Node1</title>
<g id="a_node1"><a xlink:title=" ">
<polygon fill="#bfbfbf" stroke="black" points="22.5,-0.5 22.5,-112.5 191.5,-112.5 191.5,-0.5 22.5,-0.5"/>
<text text-anchor="middle" x="107" y="-100.5" font-family="Helvetica,sans-Serif" font-size="10.00">tflite::QuantizationParametersT</text>
<polyline fill="none" stroke="black" points="22.5,-93.5 191.5,-93.5 "/>
<text text-anchor="start" x="30.5" y="-81.5" font-family="Helvetica,sans-Serif" font-size="10.00">+ min</text>
<text text-anchor="start" x="30.5" y="-70.5" font-family="Helvetica,sans-Serif" font-size="10.00">+ max</text>
<text text-anchor="start" x="30.5" y="-59.5" font-family="Helvetica,sans-Serif" font-size="10.00">+ scale</text>
<text text-anchor="start" x="30.5" y="-48.5" font-family="Helvetica,sans-Serif" font-size="10.00">+ zero_point</text>
<text text-anchor="start" x="30.5" y="-37.5" font-family="Helvetica,sans-Serif" font-size="10.00">+ quantized_dimension</text>
<polyline fill="none" stroke="black" points="22.5,-30.5 191.5,-30.5 "/>
<text text-anchor="start" x="30.5" y="-18.5" font-family="Helvetica,sans-Serif" font-size="10.00">+ QuantizationParametersT()</text>
<text text-anchor="start" x="30.5" y="-7.5" font-family="Helvetica,sans-Serif" font-size="10.00">+ QuantizationParametersT()</text>
</a>
</g>
</g>
<!-- Node2 -->
<g id="node2" class="node">
<title>Node2</title>
<g id="a_node2"><a xlink:title=" ">
<polygon fill="none" stroke="#bfbfbf" points="0,-237.5 0,-294.5 74,-294.5 74,-237.5 0,-237.5"/>
<text text-anchor="middle" x="37" y="-282.5" font-family="Helvetica,sans-Serif" font-size="10.00">NativeTable</text>
<polyline fill="none" stroke="#bfbfbf" points="0,-275.5 74,-275.5 "/>
<text text-anchor="middle" x="37" y="-263.5" font-family="Helvetica,sans-Serif" font-size="10.00"> </text>
<polyline fill="none" stroke="#bfbfbf" points="0,-256.5 74,-256.5 "/>
<text text-anchor="middle" x="37" y="-244.5" font-family="Helvetica,sans-Serif" font-size="10.00"> </text>
</a>
</g>
</g>
<!-- Node2&#45;&gt;Node1 -->
<g id="edge1" class="edge">
<title>Node2&#45;&gt;Node1</title>
<path fill="none" stroke="midnightblue" d="M49.62,-227.6C60.4,-195.63 76.08,-149.17 88.32,-112.88"/>
<polygon fill="none" stroke="midnightblue" points="46.18,-226.85 46.3,-237.45 52.81,-229.09 46.18,-226.85"/>
</g>
<!-- Node3 -->
<g id="node3" class="node">
<title>Node3</title>
<g id="a_node3"><a xlink:href="structtflite_1_1_quantization_details_union.html" target="_top" xlink:title=" ">
<polygon fill="none" stroke="black" points="92.5,-160.5 92.5,-371.5 261.5,-371.5 261.5,-160.5 92.5,-160.5"/>
<text text-anchor="start" x="100.5" y="-359.5" font-family="Helvetica,sans-Serif" font-size="10.00">tflite::QuantizationDetails</text>
<text text-anchor="middle" x="177" y="-348.5" font-family="Helvetica,sans-Serif" font-size="10.00">Union</text>
<polyline fill="none" stroke="black" points="92.5,-341.5 261.5,-341.5 "/>
<text text-anchor="start" x="100.5" y="-329.5" font-family="Helvetica,sans-Serif" font-size="10.00">+ type</text>
<text text-anchor="start" x="100.5" y="-318.5" font-family="Helvetica,sans-Serif" font-size="10.00">+ value</text>
<polyline fill="none" stroke="black" points="92.5,-311.5 261.5,-311.5 "/>
<text text-anchor="start" x="100.5" y="-299.5" font-family="Helvetica,sans-Serif" font-size="10.00">+ QuantizationDetailsUnion()</text>
<text text-anchor="start" x="100.5" y="-288.5" font-family="Helvetica,sans-Serif" font-size="10.00">+ QuantizationDetailsUnion()</text>
<text text-anchor="start" x="100.5" y="-277.5" font-family="Helvetica,sans-Serif" font-size="10.00">+ QuantizationDetailsUnion()</text>
<text text-anchor="start" x="100.5" y="-266.5" font-family="Helvetica,sans-Serif" font-size="10.00">+ operator=()</text>
<text text-anchor="start" x="100.5" y="-255.5" font-family="Helvetica,sans-Serif" font-size="10.00">+ operator=()</text>
<text text-anchor="start" x="100.5" y="-244.5" font-family="Helvetica,sans-Serif" font-size="10.00">+ ~QuantizationDetailsUnion()</text>
<text text-anchor="start" x="100.5" y="-233.5" font-family="Helvetica,sans-Serif" font-size="10.00">+ Reset()</text>
<text text-anchor="start" x="100.5" y="-222.5" font-family="Helvetica,sans-Serif" font-size="10.00">+ Set()</text>
<text text-anchor="start" x="100.5" y="-211.5" font-family="Helvetica,sans-Serif" font-size="10.00">+ Pack()</text>
<text text-anchor="start" x="100.5" y="-200.5" font-family="Helvetica,sans-Serif" font-size="10.00">+ AsCustomQuantization()</text>
<text text-anchor="start" x="100.5" y="-189.5" font-family="Helvetica,sans-Serif" font-size="10.00">and 12 more...</text>
<text text-anchor="start" x="100.5" y="-178.5" font-family="Helvetica,sans-Serif" font-size="10.00">+ UnPack()</text>
<text text-anchor="start" x="100.5" y="-167.5" font-family="Helvetica,sans-Serif" font-size="10.00">+ UnPack()</text>
</a>
</g>
</g>
<!-- Node3&#45;&gt;Node1 -->
<g id="edge2" class="edge">
<title>Node3&#45;&gt;Node1</title>
<path fill="none" stroke="#404040" d="M141.69,-160.34C137.51,-147.95 133.34,-135.58 129.41,-123.93"/>
<polygon fill="none" stroke="#404040" points="129.41,-123.92 123.7,-119.51 125.57,-112.55 131.28,-116.96 129.41,-123.92"/>
<text text-anchor="middle" x="156.5" y="-134" font-family="Helvetica,sans-Serif" font-size="10.00"> +details</text>
</g>
</g>
</svg>
