<?xml version="1.0" encoding="UTF-8" standalone="no"?>
<!DOCTYPE svg PUBLIC "-//W3C//DTD SVG 1.1//EN"
 "http://www.w3.org/Graphics/SVG/1.1/DTD/svg11.dtd">
<!-- Generated by graphviz version 2.43.0 (0)
 -->
<!-- Title: TfLiteDelegateParams Pages: 1 -->
<svg width="288pt" height="248pt"
 viewBox="0.00 0.00 287.50 248.00" xmlns="http://www.w3.org/2000/svg" xmlns:xlink="http://www.w3.org/1999/xlink">
<g id="graph0" class="graph" transform="scale(1 1) rotate(0) translate(4 244)">
<title>TfLiteDelegateParams</title>
<!-- Node1 -->
<g id="node1" class="node">
<title>Node1</title>
<g id="a_node1"><a xlink:title=" ">
<polygon fill="#bfbfbf" stroke="black" points="73,-0.5 73,-57.5 198,-57.5 198,-0.5 73,-0.5"/>
<text text-anchor="middle" x="135.5" y="-45.5" font-family="Helvetica,sans-Serif" font-size="10.00">TfLiteDelegateParams</text>
<polyline fill="none" stroke="black" points="73,-38.5 198,-38.5 "/>
<text text-anchor="middle" x="135.5" y="-26.5" font-family="Helvetica,sans-Serif" font-size="10.00"> </text>
<polyline fill="none" stroke="black" points="73,-19.5 198,-19.5 "/>
<text text-anchor="middle" x="135.5" y="-7.5" font-family="Helvetica,sans-Serif" font-size="10.00"> </text>
</a>
</g>
</g>
<!-- Node2 -->
<g id="node2" class="node">
<title>Node2</title>
<g id="a_node2"><a xlink:href="struct_tf_lite_delegate.html" target="_top" xlink:title=" ">
<polygon fill="none" stroke="black" points="0,-127.5 0,-239.5 141,-239.5 141,-127.5 0,-127.5"/>
<text text-anchor="middle" x="70.5" y="-227.5" font-family="Helvetica,sans-Serif" font-size="10.00">TfLiteDelegate</text>
<polyline fill="none" stroke="black" points="0,-220.5 141,-220.5 "/>
<text text-anchor="start" x="8" y="-208.5" font-family="Helvetica,sans-Serif" font-size="10.00">+ data_</text>
<text text-anchor="start" x="8" y="-197.5" font-family="Helvetica,sans-Serif" font-size="10.00">+ Prepare</text>
<text text-anchor="start" x="8" y="-186.5" font-family="Helvetica,sans-Serif" font-size="10.00">+ CopyFromBufferHandle</text>
<text text-anchor="start" x="8" y="-175.5" font-family="Helvetica,sans-Serif" font-size="10.00">+ CopyToBufferHandle</text>
<text text-anchor="start" x="8" y="-164.5" font-family="Helvetica,sans-Serif" font-size="10.00">+ FreeBufferHandle</text>
<text text-anchor="start" x="8" y="-153.5" font-family="Helvetica,sans-Serif" font-size="10.00">+ flags</text>
<polyline fill="none" stroke="black" points="0,-146.5 141,-146.5 "/>
<text text-anchor="middle" x="70.5" y="-134.5" font-family="Helvetica,sans-Serif" font-size="10.00"> </text>
</a>
</g>
</g>
<!-- Node2&#45;&gt;Node1 -->
<g id="edge1" class="edge">
<title>Node2&#45;&gt;Node1</title>
<path fill="none" stroke="#404040" d="M93.97,-127.44C102.26,-107.99 111.4,-86.53 119,-68.72"/>
<polygon fill="none" stroke="#404040" points="119.03,-68.63 117.71,-61.55 123.74,-57.59 125.07,-64.68 119.03,-68.63"/>
<text text-anchor="middle" x="142" y="-90" font-family="Helvetica,sans-Serif" font-size="10.00"> +delegate</text>
</g>
<!-- Node3 -->
<g id="node3" class="node">
<title>Node3</title>
<g id="a_node3"><a xlink:href="struct_tf_lite_int_array.html" target="_top" xlink:title=" ">
<polygon fill="none" stroke="black" points="159,-149.5 159,-217.5 242,-217.5 242,-149.5 159,-149.5"/>
<text text-anchor="middle" x="200.5" y="-205.5" font-family="Helvetica,sans-Serif" font-size="10.00">TfLiteIntArray</text>
<polyline fill="none" stroke="black" points="159,-198.5 242,-198.5 "/>
<text text-anchor="start" x="167" y="-186.5" font-family="Helvetica,sans-Serif" font-size="10.00">+ size</text>
<text text-anchor="start" x="167" y="-175.5" font-family="Helvetica,sans-Serif" font-size="10.00">+ data</text>
<polyline fill="none" stroke="black" points="159,-168.5 242,-168.5 "/>
<text text-anchor="middle" x="200.5" y="-156.5" font-family="Helvetica,sans-Serif" font-size="10.00"> </text>
</a>
</g>
</g>
<!-- Node3&#45;&gt;Node1 -->
<g id="edge2" class="edge">
<title>Node3&#45;&gt;Node1</title>
<path fill="none" stroke="#404040" d="M196,-149.49C192.12,-127.75 185.23,-99.14 173.5,-76 172.04,-73.11 170.36,-70.24 168.55,-67.43"/>
<polygon fill="none" stroke="#404040" points="168.49,-67.35 161.75,-64.78 161.53,-57.57 168.27,-60.14 168.49,-67.35"/>
<text text-anchor="middle" x="232.5" y="-101" font-family="Helvetica,sans-Serif" font-size="10.00"> +output_tensors</text>
<text text-anchor="middle" x="232.5" y="-90" font-family="Helvetica,sans-Serif" font-size="10.00">+input_tensors</text>
<text text-anchor="middle" x="232.5" y="-79" font-family="Helvetica,sans-Serif" font-size="10.00">+nodes_to_replace</text>
</g>
</g>
</svg>
