<?xml version="1.0" encoding="UTF-8" standalone="no"?>
<!DOCTYPE svg PUBLIC "-//W3C//DTD SVG 1.1//EN"
 "http://www.w3.org/Graphics/SVG/1.1/DTD/svg11.dtd">
<!-- Generated by graphviz version 2.43.0 (0)
 -->
<!-- Title: tflite::ops::micro::dequantize::OpData Pages: 1 -->
<svg width="201pt" height="215pt"
 viewBox="0.00 0.00 200.50 215.00" xmlns="http://www.w3.org/2000/svg" xmlns:xlink="http://www.w3.org/1999/xlink">
<g id="graph0" class="graph" transform="scale(1 1) rotate(0) translate(4 211)">
<title>tflite::ops::micro::dequantize::OpData</title>
<!-- Node1 -->
<g id="node1" class="node">
<title>Node1</title>
<g id="a_node1"><a xlink:title=" ">
<polygon fill="#bfbfbf" stroke="black" points="18,-0.5 18,-90.5 137,-90.5 137,-0.5 18,-0.5"/>
<text text-anchor="start" x="26" y="-78.5" font-family="Helvetica,sans-Serif" font-size="10.00">tflite::ops::micro</text>
<text text-anchor="middle" x="77.5" y="-67.5" font-family="Helvetica,sans-Serif" font-size="10.00">::dequantize::OpData</text>
<polyline fill="none" stroke="black" points="18,-60.5 137,-60.5 "/>
<text text-anchor="start" x="26" y="-48.5" font-family="Helvetica,sans-Serif" font-size="10.00">+ output_multiplier</text>
<text text-anchor="start" x="26" y="-37.5" font-family="Helvetica,sans-Serif" font-size="10.00">+ output_shift</text>
<text text-anchor="start" x="26" y="-26.5" font-family="Helvetica,sans-Serif" font-size="10.00">+ output_zero_point</text>
<polyline fill="none" stroke="black" points="18,-19.5 137,-19.5 "/>
<text text-anchor="middle" x="77.5" y="-7.5" font-family="Helvetica,sans-Serif" font-size="10.00"> </text>
</a>
</g>
</g>
<!-- Node2 -->
<g id="node2" class="node">
<title>Node2</title>
<g id="a_node2"><a xlink:href="structtflite_1_1_dequantization_params.html" target="_top" xlink:title=" ">
<polygon fill="none" stroke="black" points="0,-138.5 0,-206.5 155,-206.5 155,-138.5 0,-138.5"/>
<text text-anchor="middle" x="77.5" y="-194.5" font-family="Helvetica,sans-Serif" font-size="10.00">tflite::DequantizationParams</text>
<polyline fill="none" stroke="black" points="0,-187.5 155,-187.5 "/>
<text text-anchor="start" x="8" y="-175.5" font-family="Helvetica,sans-Serif" font-size="10.00">+ scale</text>
<text text-anchor="start" x="8" y="-164.5" font-family="Helvetica,sans-Serif" font-size="10.00">+ zero_point</text>
<polyline fill="none" stroke="black" points="0,-157.5 155,-157.5 "/>
<text text-anchor="middle" x="77.5" y="-145.5" font-family="Helvetica,sans-Serif" font-size="10.00"> </text>
</a>
</g>
</g>
<!-- Node2&#45;&gt;Node1 -->
<g id="edge1" class="edge">
<title>Node2&#45;&gt;Node1</title>
<path fill="none" stroke="#404040" d="M77.5,-138.33C77.5,-127.37 77.5,-114.86 77.5,-102.67"/>
<polygon fill="none" stroke="#404040" points="77.5,-102.66 73.5,-96.66 77.5,-90.66 81.5,-96.66 77.5,-102.66"/>
<text text-anchor="middle" x="135" y="-112" font-family="Helvetica,sans-Serif" font-size="10.00"> +quantization_params</text>
</g>
</g>
</svg>
