<?xml version="1.0" encoding="UTF-8" standalone="no"?>
<!DOCTYPE svg PUBLIC "-//W3C//DTD SVG 1.1//EN"
 "http://www.w3.org/Graphics/SVG/1.1/DTD/svg11.dtd">
<!-- Generated by graphviz version 2.43.0 (0)
 -->
<!-- Title: TfLitePtrUnion Pages: 1 -->
<svg width="332pt" height="314pt"
 viewBox="0.00 0.00 331.50 314.00" xmlns="http://www.w3.org/2000/svg" xmlns:xlink="http://www.w3.org/1999/xlink">
<g id="graph0" class="graph" transform="scale(1 1) rotate(0) translate(4 310)">
<title>TfLitePtrUnion</title>
<!-- Node1 -->
<g id="node1" class="node">
<title>Node1</title>
<g id="a_node1"><a xlink:title=" ">
<polygon fill="#bfbfbf" stroke="black" points="131,-0.5 131,-189.5 217,-189.5 217,-0.5 131,-0.5"/>
<text text-anchor="middle" x="174" y="-177.5" font-family="Helvetica,sans-Serif" font-size="10.00">TfLitePtrUnion</text>
<polyline fill="none" stroke="black" points="131,-170.5 217,-170.5 "/>
<text text-anchor="start" x="139" y="-158.5" font-family="Helvetica,sans-Serif" font-size="10.00">+ i32</text>
<text text-anchor="start" x="139" y="-147.5" font-family="Helvetica,sans-Serif" font-size="10.00">+ u32</text>
<text text-anchor="start" x="139" y="-136.5" font-family="Helvetica,sans-Serif" font-size="10.00">+ i64</text>
<text text-anchor="start" x="139" y="-125.5" font-family="Helvetica,sans-Serif" font-size="10.00">+ u64</text>
<text text-anchor="start" x="139" y="-114.5" font-family="Helvetica,sans-Serif" font-size="10.00">+ f</text>
<text text-anchor="start" x="139" y="-103.5" font-family="Helvetica,sans-Serif" font-size="10.00">+ f64</text>
<text text-anchor="start" x="139" y="-92.5" font-family="Helvetica,sans-Serif" font-size="10.00">+ raw</text>
<text text-anchor="start" x="139" y="-81.5" font-family="Helvetica,sans-Serif" font-size="10.00">+ raw_const</text>
<text text-anchor="start" x="139" y="-70.5" font-family="Helvetica,sans-Serif" font-size="10.00">+ uint8</text>
<text text-anchor="start" x="139" y="-59.5" font-family="Helvetica,sans-Serif" font-size="10.00">+ b</text>
<text text-anchor="start" x="139" y="-48.5" font-family="Helvetica,sans-Serif" font-size="10.00">+ i16</text>
<text text-anchor="start" x="139" y="-37.5" font-family="Helvetica,sans-Serif" font-size="10.00">+ int8</text>
<text text-anchor="start" x="139" y="-26.5" font-family="Helvetica,sans-Serif" font-size="10.00">+ data</text>
<polyline fill="none" stroke="black" points="131,-19.5 217,-19.5 "/>
<text text-anchor="middle" x="174" y="-7.5" font-family="Helvetica,sans-Serif" font-size="10.00"> </text>
</a>
</g>
</g>
<!-- Node2 -->
<g id="node2" class="node">
<title>Node2</title>
<g id="a_node2"><a xlink:href="struct_tf_lite_complex128.html" target="_top" xlink:title=" ">
<polygon fill="none" stroke="black" points="0,-237.5 0,-305.5 106,-305.5 106,-237.5 0,-237.5"/>
<text text-anchor="middle" x="53" y="-293.5" font-family="Helvetica,sans-Serif" font-size="10.00">TfLiteComplex128</text>
<polyline fill="none" stroke="black" points="0,-286.5 106,-286.5 "/>
<text text-anchor="start" x="8" y="-274.5" font-family="Helvetica,sans-Serif" font-size="10.00">+ re</text>
<text text-anchor="start" x="8" y="-263.5" font-family="Helvetica,sans-Serif" font-size="10.00">+ im</text>
<polyline fill="none" stroke="black" points="0,-256.5 106,-256.5 "/>
<text text-anchor="middle" x="53" y="-244.5" font-family="Helvetica,sans-Serif" font-size="10.00"> </text>
</a>
</g>
</g>
<!-- Node2&#45;&gt;Node1 -->
<g id="edge1" class="edge">
<title>Node2&#45;&gt;Node1</title>
<path fill="none" stroke="#404040" d="M76.04,-237.27C89.6,-217.71 107.3,-192.19 123.92,-168.23"/>
<polygon fill="none" stroke="#404040" points="124.12,-167.93 124.25,-160.72 130.96,-158.07 130.83,-165.28 124.12,-167.93"/>
<text text-anchor="middle" x="113.5" y="-211" font-family="Helvetica,sans-Serif" font-size="10.00"> +c128</text>
</g>
<!-- Node3 -->
<g id="node3" class="node">
<title>Node3</title>
<g id="a_node3"><a xlink:href="struct_tf_lite_complex64.html" target="_top" xlink:title=" ">
<polygon fill="none" stroke="black" points="124,-237.5 124,-305.5 224,-305.5 224,-237.5 124,-237.5"/>
<text text-anchor="middle" x="174" y="-293.5" font-family="Helvetica,sans-Serif" font-size="10.00">TfLiteComplex64</text>
<polyline fill="none" stroke="black" points="124,-286.5 224,-286.5 "/>
<text text-anchor="start" x="132" y="-274.5" font-family="Helvetica,sans-Serif" font-size="10.00">+ re</text>
<text text-anchor="start" x="132" y="-263.5" font-family="Helvetica,sans-Serif" font-size="10.00">+ im</text>
<polyline fill="none" stroke="black" points="124,-256.5 224,-256.5 "/>
<text text-anchor="middle" x="174" y="-244.5" font-family="Helvetica,sans-Serif" font-size="10.00"> </text>
</a>
</g>
</g>
<!-- Node3&#45;&gt;Node1 -->
<g id="edge2" class="edge">
<title>Node3&#45;&gt;Node1</title>
<path fill="none" stroke="#404040" d="M174,-237.27C174,-226.85 174,-214.74 174,-202.08"/>
<polygon fill="none" stroke="#404040" points="174,-201.8 170,-195.8 174,-189.8 178,-195.8 174,-201.8"/>
<text text-anchor="middle" x="188.5" y="-211" font-family="Helvetica,sans-Serif" font-size="10.00"> +c64</text>
</g>
<!-- Node4 -->
<g id="node4" class="node">
<title>Node4</title>
<g id="a_node4"><a xlink:href="struct_tf_lite_float16.html" target="_top" xlink:title=" ">
<polygon fill="none" stroke="black" points="242.5,-243 242.5,-300 323.5,-300 323.5,-243 242.5,-243"/>
<text text-anchor="middle" x="283" y="-288" font-family="Helvetica,sans-Serif" font-size="10.00">TfLiteFloat16</text>
<polyline fill="none" stroke="black" points="242.5,-281 323.5,-281 "/>
<text text-anchor="start" x="250.5" y="-269" font-family="Helvetica,sans-Serif" font-size="10.00">+ data</text>
<polyline fill="none" stroke="black" points="242.5,-262 323.5,-262 "/>
<text text-anchor="middle" x="283" y="-250" font-family="Helvetica,sans-Serif" font-size="10.00"> </text>
</a>
</g>
</g>
<!-- Node4&#45;&gt;Node1 -->
<g id="edge3" class="edge">
<title>Node4&#45;&gt;Node1</title>
<path fill="none" stroke="#404040" d="M265.73,-242.85C254.28,-224.52 238.63,-199.46 223.5,-175.24"/>
<polygon fill="none" stroke="#404040" points="223.41,-175.11 216.84,-172.14 217.06,-164.93 223.63,-167.9 223.41,-175.11"/>
<text text-anchor="middle" x="264" y="-211" font-family="Helvetica,sans-Serif" font-size="10.00"> +f16</text>
</g>
</g>
</svg>
